<?xml version="1.0" encoding="UTF-8"?>
<svg id="Black_on_White_Logo" data-name="Black on White Logo" xmlns="http://www.w3.org/2000/svg" viewBox="0 0 745.86 617.11">
  <defs>
    <style>
      .cls-1 {
        fill: #797979;
      }

      .cls-2 {
        fill: #fff;
      }

      .cls-3 {
        fill: #ffce07;
      }

      .cls-4 {
        fill: gray;
      }
    </style>
  </defs>
  <g id="WhiteBackGround">
    <rect class="cls-1" x="213.1" y="129.63" width="416.49" height="431.11"/>
    <rect class="cls-2" x="58.65" y="0" width="687.2" height="617.11"/>
  </g>
  <g id="Border_Eye_Cutv03_Black" data-name="Border Eye Cutv03 Black">
    <path d="m597.7,126.72c-6.86,8.12-13.65,16.16-20.59,24.37,35.61,68.03,71.12,135.86,106.62,203.69-37.46,71.54-74.76,142.79-112.06,214.03-116.17,0-232.2,0-348.26,0-8.27,9.74-16.52,19.46-25.05,29.51,130.89,0,261.16,0,391.42,0,42.48-81.14,84.9-162.16,127.51-243.53l-119.57-228.07Z"/>
    <path class="cls-3" d="m322.56,135.16l1.56-5.31v-1.7s-1.75-9.05-1.75-9.05l-.78-.6,4.24-4.45-2.59-2.67h-139.44c-102.28,153.49-105.01,299.52-10.05,470.17,6.85-8.15,13.54-16.12,21.2-25.25-77.91-138.85-84.92-277.54,6.22-414.94h114.97s2.74-2.65,2.74-2.65l3.69-3.56Z"/>
    <polygon class="cls-3" points="346.33 133.99 346.92 135.35 354.76 134.08 356.99 133.99 366.26 129.85 368.92 128.03 368.77 125.32 366.4 122.14 364.25 119.73 362.91 119.1 349.27 115.93 347.48 116.15 349.08 121.95 345.95 132.32 346.33 133.99"/>
    <path class="cls-3" d="m400.18,117.2l5.44,5.44,1.19,2.68,9.64,16.05h129.98c8.35-9.91,16.74-19.85,25.28-29.98h-166.48s-5.05,5.81-5.05,5.81Z"/>
  </g>
  <g id="Logo_Text_RDRTv03_Black" data-name="Logo Text RDRTv03 Black">
    <g>
      <path class="cls-4" d="m191.71,453.16c-.46.05-.91.11-1.47.17-.04.34-.09.66-.11.99-.22,3.12.09,6.15,1.53,8.99.12.24.14.53.21.8-.08.37-.22.75-.22,1.12-.01,7.25,0,14.51-.01,21.76,0,1.58-.27,1.85-1.83,1.86-2.18,0-4.36,0-6.55,0-1.59,0-1.86-.26-1.88-1.82,0-.31-.05-.62-.07-.93h7.51v-49.81h9.7v2.82h-6.87c0,.52,0,.89,0,1.25,0,3.21,0,6.42,0,9.62,0,1.06.05,2.11.07,3.17Z"/>
      <path class="cls-4" d="m201.15,486.12h8.44c-.08-.55-.06-.97-.19-1.33-1.56-4.33-3.14-8.65-4.72-12.98-1.34-3.68-2.69-7.36-4.03-11.04-.06-.16-.1-.34-.16-.54,1.24-.11,2.42-.16,3.58-.34,2.5-.39,3.89-1.94,4.07-4.47.02-.22.02-.44.02-.65,0-7.1.02-14.21,0-21.31,0-.89-.23-1.78-.35-2.66,1.19.18,1.93,1.02,2.42,1.97.4.78.66,1.72.66,2.59.05,7.42.07,14.84.01,22.26-.02,2.5-1.67,5.14-5.76,5.23-.57.01-1.14.09-1.89.15.66,1.84,1.26,3.5,1.86,5.15,2.27,6.26,4.56,12.53,6.82,18.8.16.45.17.95.27,1.6-.58.13-1.04.31-1.51.31-2.37.03-4.74-.02-7.12.03-1.03.02-1.66-.36-1.95-1.34-.14-.47-.32-.94-.48-1.41Z"/>
      <path class="cls-4" d="m304.67,485.83c2.63.83,5.26.23,7.87-.07,1.76-.2,3.51-.53,5.31-.81.12.35.23.68.36,1.06h8.82c.05-.39.13-.75.13-1.11,0-10.48.01-20.96,0-31.44,0-.86-.16-1.73-.24-2.59,1.29.2,2,1.15,2.43,2.21.35.87.56,1.87.56,2.81.04,10.44.03,20.89.02,31.33,0,1.3-.32,1.61-1.59,1.62-1.75,0-3.5-.02-5.24.01-1.2.02-2.4.1-3.09-1.05-2.82.34-5.53.7-8.25.99-1.84.2-3.66.25-5.36-.76-.88-.52-1.48-1.22-1.72-2.21Z"/>
      <path class="cls-4" d="m408.59,486.11c1.18-.01,2.36-.03,3.54-.04,1.18,0,2.36,0,3.64,0,.06-.45.15-.8.15-1.15,0-10.58.02-21.17-.01-31.75,0-.89-.24-1.77-.37-2.66,1.81.59,2.95,1.98,3.01,3.84.06,1.99.05,3.99.05,5.99,0,8.86,0,17.71,0,26.57,0,1.7-.25,1.94-1.94,1.95-2.06,0-4.12,0-6.18,0-1.46,0-1.83-.37-1.86-1.8,0-.31-.02-.62-.03-.93Z"/>
      <path class="cls-4" d="m392.29,486.1h7.24v-29.81h6.76v2.67c-1,0-1.99,0-2.99-.02-.71-.02-1.02.3-1.01,1.01.02,1.81,0,3.61,0,5.42,0,7.19,0,14.38,0,21.58,0,1.64-.26,1.9-1.88,1.9-2.12,0-4.24,0-6.36,0-1.37,0-1.68-.32-1.71-1.72,0-.34-.04-.68-.06-1.02Z"/>
      <path class="cls-4" d="m284.21,478.75h-2.75v-9.12h13.31c.7-.75,1.49-1.54,2.21-2.4.21-.25.31-.68.31-1.02.02-4.33.03-8.66,0-12.99,0-.8-.2-1.59-.31-2.39.98.12,1.74.67,2.1,1.51.42,1.01.83,2.12.85,3.19.1,4.36.07,8.72.01,13.08,0,.58-.33,1.26-.72,1.71-.72.84-1.6,1.54-2.41,2.3-.06-.02-.12-.03-.19-.05-.28-.08-.56-.22-.83-.22-3.48-.02-6.97-.01-10.45,0-.33,0-.66.06-1.13.11v6.28Z"/>
      <path class="cls-4" d="m237.78,472.64c-.06-.02-.12-.03-.19-.05-.28-.08-.56-.22-.83-.22-3.48-.02-6.97-.01-10.45,0-.33,0-.66.06-1.13.11v6.28h-2.75v-9.12h13.31c.7-.75,1.49-1.54,2.21-2.4.21-.25.31-.68.31-1.02.02-4.33.03-8.66,0-12.99,0-.8-.2-1.59-.31-2.39,1.71.53,2.94,2.19,2.97,4.31.06,4.54.04,9.09,0,13.64,0,.47-.31,1.01-.64,1.37-.78.87-1.66,1.66-2.5,2.48Z"/>
      <path class="cls-4" d="m334.2,486.1h7.25v-29.8h5.51v2.8c-3.34-.21-2.75-.07-2.75,2.38-.02,8.5,0,17,0,25.51,0,1.58-.28,1.85-1.84,1.86-2.15,0-4.3,0-6.45,0-1.39,0-1.64-.26-1.66-1.62,0-.37-.04-.74-.06-1.12Z"/>
      <path class="cls-4" d="m245.63,485.65c1.13.14,2.27.39,3.4.4,4.31.05,8.61.03,12.92.01.68,0,1.38-.04,2.04-.17,2.14-.44,3.49-1.94,3.53-4.1.07-3.49.05-6.98,0-10.47,0-.66-.34-1.31-.51-1.96,2,.81,3.3,2.67,3.31,4.87.02,3.05-.01,6.11.01,9.17.03,3.75-1.84,5.3-5.24,5.4-4.96.16-9.92.07-14.88.02-2.39-.03-3.85-1.12-4.58-3.16Z"/>
      <path class="cls-4" d="m363.1,485.86c5.85.06,11.7.16,17.55.17,2.54,0,4.27-1.64,4.41-4.15.14-2.55.09-5.1.13-7.65,0-.31.03-.62.05-.92,2.51-.15,2.62-.04,2.62,2.41,0,2.65.02,5.3-.01,7.95-.03,3.14-2.01,5.15-5.15,5.17-5.12.03-10.24.02-15.35,0-1.42,0-2.73-.44-3.66-1.57-.31-.37-.4-.92-.59-1.38Z"/>
      <path class="cls-4" d="m275,485.71c1.14.12,2.28.34,3.41.34,4.71.03,9.43.04,14.14-.02,2.79-.03,4.46-1.58,4.64-4.33.14-2.23.11-4.48.16-6.72q2.63-.09,2.63,2.54c0,1.75.07,3.49-.03,5.23-.07,1.23-.24,2.49-.62,3.64-.41,1.22-1.51,1.87-2.74,2.17-.63.15-1.29.25-1.94.25-4.96.02-9.92.04-14.88-.02-.88,0-1.8-.25-2.62-.57-1.12-.44-1.87-1.31-2.15-2.52Z"/>
      <path class="cls-4" d="m215.97,485.71c1.14.12,2.27.34,3.41.34,4.71.03,9.42.04,14.14-.02,2.79-.03,4.47-1.58,4.64-4.33.14-2.29.1-4.59.14-6.89.19.01.37.04.56.04,1.93.03,2.09.19,2.09,2.08,0,2.18.01,4.37,0,6.55-.03,3.23-1.91,5.28-5.12,5.33-5.15.08-10.3.08-15.45-.02-2.01-.04-3.87-.95-4.4-3.08Z"/>
      <path class="cls-4" d="m372.3,477.97h-2.76v-21.78h6.25v2.74c-.87-.01-1.74-.02-2.61-.04-.61,0-.93.27-.93.9.01,6.06.03,12.12.04,18.17Z"/>
      <path class="cls-4" d="m349.17,464.65c1.96-.02,3.91-.04,5.87-.06.4,0,.8-.04,1.46-.08-.15-4.65.35-9.26-.32-13.85,1.7.51,2.93,2.17,2.97,4.3.06,3.68.03,7.36.02,11.03,0,.84-.5,1.31-1.36,1.32-2.4.02-4.81.01-7.21,0-1,0-1.31-.35-1.35-1.37-.02-.43-.06-.87-.08-1.3Z"/>
      <path class="cls-4" d="m378.05,462.52h7.16c-.22-4.03.39-7.92-.42-11.8,1.18.08,1.88.93,2.34,1.8.44.85.66,1.9.69,2.87.09,2.77.04,5.55.03,8.33,0,1.21-.34,1.53-1.58,1.53-2.15,0-4.31,0-6.46,0-1.38,0-1.68-.32-1.7-1.71,0-.34-.04-.68-.06-1.03Z"/>
      <path class="cls-4" d="m260.58,461.17h6.97c-.21-3.59.37-7.04-.42-10.47,1.4.27,2.3,1.16,2.62,2.48.28,1.13.38,2.33.42,3.5.07,1.87.05,3.74,0,5.61-.02.54-.28,1.07-.43,1.62-2.81,0-5.4.02-7.98-.01-.69,0-1.07-.46-1.11-1.15-.03-.53-.04-1.06-.06-1.59Z"/>
      <path class="cls-4" d="m402.27,448.78c-.84.16-1.67.31-2.57.48-.03-.37-.06-.61-.06-.86,0-6.03,0-12.06-.01-18.08,0-.09.03-.18.05-.27.84.06,1.67.11,2.6.18v18.56Z"/>
      <path class="cls-4" d="m304.6,460.64h6.55v-5.19h6.92v2.75c-.99-.02-1.98-.02-2.97-.07-.78-.03-1.14.29-1.12,1.09.03,1.14.02,2.29.02,3.43-1.71,0-3.42-.03-5.12.04-1.33.06-2.65.25-3.97.39-.1-.81-.21-1.63-.31-2.44Z"/>
      <path class="cls-4" d="m254.9,461.39c-.89-.5-1.77-.99-2.65-1.48v-4.38h6.1v2.63c-.72,0-1.44,0-2.15,0-1.09,0-1.21.13-1.22,1.26-.01.65-.04,1.31-.06,1.96Z"/>
      <path class="cls-4" d="m246.15,466.6c1.22.68,2.44,1.35,3.64,2.05,2.85,1.67,5.69,3.35,8.54,5.03v1.15c-.69-.34-1.4-.64-2.07-1.02-1.74-1-3.5-1.99-5.19-3.07-1.48-.95-2.91-1.99-4.31-3.06-.3-.23-.41-.71-.61-1.08Z"/>
      <path class="cls-4" d="m255.05,478.61h-2.82v-4.03c.18.02.37.05.55.06,2.01.08,2.18.26,2.19,2.31,0,.55.05,1.11.08,1.66Z"/>
      <path class="cls-3" d="m187.77,484.88h-7.41v-56.02h.99c6.74,0,13.49,0,20.23,0,.4,0,.81.03,1.21.05,2.87.18,4.19,1.49,4.2,4.38.03,7.17.04,14.35,0,21.52-.02,2.79-1.54,3.88-3.44,3.98-1.06.06-2.12.12-3.17.18-.39.02-.79.07-1.38.13.14.61.21,1.11.37,1.58,2.83,7.78,5.67,15.55,8.5,23.33.09.26.17.52.27.84h-7.62c-.76-2.14-1.55-4.32-2.32-6.51-2.14-6.04-4.23-12.1-6.46-18.11-.72-1.94-.33-3.86-.52-5.94h8.35v-19.15h-11.82v49.72Z"/>
      <path class="cls-3" d="m398.48,450.59c1.45-.21,2.64-.39,3.83-.55,2.5-.33,5-.67,7.51-.95.7-.08,1.44-.03,2.14.08,1.59.24,2.48,1.2,2.7,2.78.06.4.1.81.1,1.21,0,10.38,0,20.77,0,31.15v.53h-7.26v-29.74c-2.99-.27-5.9.08-8.95.05v29.69h-7.25v-55.93h7.18v21.67Z"/>
      <path class="cls-3" d="m251.07,473.65v6.12c2.83.11,5.58.07,8.42.02v-6.76c-.28-.18-.56-.37-.85-.54-3.89-2.3-7.76-4.64-11.69-6.86-1.99-1.12-2.91-2.64-2.81-4.93.12-2.71.01-5.43.13-8.13.09-2.11,1.28-3.31,3.39-3.34,5.09-.07,10.18-.07,15.27,0,2.05.03,3.23,1.16,3.33,3.19.12,2.48.03,4.97.03,7.52h-6.73v-5.59c-2.9-.12-5.67-.23-8.48.06v6.09c.31.21.63.45.97.65,3.92,2.3,7.83,4.64,11.78,6.89,1.81,1.03,2.68,2.43,2.6,4.56-.1,2.74-.01,5.49-.03,8.23-.02,2.87-1.24,4.09-4.13,4.09-4.62.01-9.24,0-13.86,0-2.87,0-4.03-.99-4.18-3.83-.13-2.45-.03-4.91-.03-7.43h6.86Z"/>
      <path class="cls-3" d="m383.96,461.29h-6.96v-6.31c-2.92-.02-5.72-.03-8.57,0v24.06h8.53v-6.91h7.04c0,.68,0,1.33,0,1.97,0,2.37.04,4.74-.04,7.11-.08,2.54-1.28,3.67-3.83,3.69-4.24.03-8.49.02-12.74,0-1.12,0-2.25.01-3.35-.16-1.59-.25-2.4-1.17-2.64-2.73-.08-.55-.13-1.12-.13-1.67,0-8.86,0-17.71,0-26.57,0-.4,0-.81.05-1.21.25-2.2,1.38-3.33,3.62-3.35,5.15-.05,10.3-.06,15.45,0,2.29.02,3.5,1.2,3.56,3.46.08,2.86.02,5.72.02,8.62Z"/>
      <path class="cls-3" d="m280.33,468.52v11.31h8.88v-6h6.76c.05.11.11.2.11.28,0,2.43.05,4.87-.03,7.3-.07,2.24-1.29,3.38-3.55,3.49-1,.05-2,.02-3,.02-3.9,0-7.81,0-11.71,0-.62,0-1.25-.05-1.85-.19-1.35-.31-2.17-1.17-2.4-2.54-.1-.61-.15-1.24-.15-1.86,0-8.86,0-17.72,0-26.58,0-.31,0-.62.03-.93.2-2.4,1.35-3.58,3.77-3.61,5.06-.05,10.12-.02,15.18-.01.31,0,.62.06.92.12,1.75.37,2.72,1.36,2.76,3.14.08,3.99.05,7.98.07,11.98,0,.68,0,1.37,0,2.03-.68.67-1.33,1.31-2.09,2.05h-13.69Zm-.03-4.46h8.86v-9.79h-8.86v9.79Z"/>
      <path class="cls-3" d="m237.08,466.46c-.68.66-1.33,1.29-2.11,2.05h-13.66v11.31h8.87v-5.99h6.9c0,.63,0,1.24,0,1.85,0,1.87.03,3.74-.04,5.61-.1,2.43-1.34,3.59-3.83,3.61-3.47.04-6.93.01-10.4,0-1.59,0-3.19.03-4.78-.03-2.29-.09-3.4-1.16-3.64-3.44-.04-.43-.04-.87-.04-1.31,0-8.73,0-17.47,0-26.2,0-.12,0-.25,0-.37.02-3.16,1.22-4.38,4.35-4.39,4.72-.02,9.43-.02,14.15,0,2.99.01,4.21,1.22,4.23,4.2.02,4.37,0,8.73,0,13.09Zm-15.78-12.21v9.79h8.86v-9.79h-8.86Z"/>
      <path class="cls-3" d="m319.14,463.76v-9.47h-8.94v5.11h-6.39c0-2.5-.15-5.01.05-7.5.15-1.76,1.43-2.65,3.39-2.69,3.25-.07,6.49-.04,9.74-.04,1.84,0,3.69-.04,5.52.04,2.23.09,3.47,1.34,3.48,3.56.03,10.6.02,21.21.02,31.81,0,.09-.04.17-.06.29h-6.66c-.08-.35-.15-.7-.26-1.22-.7.08-1.36.14-2.02.22-3.28.4-6.55.86-9.84,1.16-1.44.13-2.85-.27-3.51-1.79-.26-.61-.41-1.32-.41-1.99-.02-4.68-.05-9.35.06-14.03.05-2.12,1.25-3.25,3.41-3.3,3.68-.09,7.37-.05,11.05-.08.45,0,.9-.06,1.37-.1Zm.02,15.65v-10.91h-8.98v11.25c3.07-.12,6.02-.23,8.98-.34Z"/>
      <path class="cls-3" d="m333.21,449.21h7.07c.08.41.15.8.24,1.3.49-.05.91-.07,1.33-.13,2.86-.43,5.72-.89,8.59-1.3.58-.08,1.18-.04,1.77.03,1.95.24,3,1.29,3.03,3.27.06,3.64.02,7.29.02,10.99h-7.11v-8.24h-7.71v29.75h-7.22v-35.68Z"/>
      <path class="cls-4" d="m284.25,462.96h-2.77v-7.58h6.6v2.63h-3.58c-.6,1.61-.26,3.3-.25,4.95Z"/>
      <path class="cls-4" d="m225.22,462.96h-2.77v-7.58h6.6v2.63h-3.52c-.71,1.61-.3,3.3-.3,4.95Z"/>
      <path class="cls-4" d="m314.07,478.42c-.92.05-1.83.1-2.79.15v-8.98h6.8v2.82h-4.01v6.01Z"/>
    </g>
    <g>
      <path d="m164.17,411.33v-55.96c.3-.02.57-.05.84-.05,5.08,0,10.17,0,15.25,0,2.82,0,5.53.38,7.82,2.25,2.25,1.84,3.2,4.29,3.39,7.11.02.28.05.56.05.84,0,12.01.01,24.02-.04,36.02-.01,3.75-1.48,6.78-4.91,8.62-1.57.84-3.28,1.19-5.04,1.2-5.68.03-11.35.01-17.03,0-.09,0-.18-.02-.34-.04Zm7.46-49.78v43.47c.23.06.43.17.63.17,2.34,0,4.68.07,7.01-.07.92-.05,1.9-.41,2.7-.89,1.79-1.07,2.09-2.89,2.09-4.8,0-10.72,0-21.45,0-32.17,0-.44,0-.87-.06-1.31-.27-2.37-1.46-3.8-3.8-4.2-1.43-.24-2.91-.16-4.37-.19-1.36-.03-2.73,0-4.2,0Z"/>
      <path d="m245.23,376.98c.09-.51.16-.9.23-1.32h7.1v.9c0,14.66,0,29.32,0,43.99,0,.62-.04,1.25-.18,1.85-.34,1.45-1.56,2.42-3.26,2.43-5.3.04-10.61.05-15.91,0-1.96-.02-3.25-1.16-3.38-3.06-.14-2.04-.03-4.1-.03-6.2h6.85v4.38c2.94.06,5.76.03,8.64.02v-8.72c-.48-.04-.88-.09-1.27-.09-2.93-.03-5.87.09-8.79-.1-3.71-.24-5.97-2.61-6.01-6.33-.08-7.77-.09-15.53,0-23.3.05-4.11,2.93-6.42,7.03-5.85,2.59.36,5.16.84,7.74,1.26.36.06.73.08,1.25.14Zm.06,4.9c-.31-.08-.48-.14-.67-.16-1.52-.14-3.04-.29-4.56-.4-2.52-.17-3.74.97-3.75,3.47-.01,2.46,0,4.93,0,7.39,0,3.37-.02,6.74,0,10.11.01,2.1,1.07,3.2,3.12,3.28,1.18.05,2.37.02,3.56.03.74,0,1.47,0,2.3,0v-23.72Z"/>
      <path d="m222.09,393.43c0,4.33,0,8.67,0,13,0,.34,0,.69,0,1.03-.07,2.7-1.28,3.9-4.01,3.91-3.15.02-6.3,0-9.45,0-1.78,0-3.55,0-5.33,0-3.19,0-4.39-1.2-4.4-4.42,0-7.89,0-15.78,0-23.66,0-1.22-.03-2.43,0-3.65.08-2.75,1.29-3.99,4.05-4.01,5.05-.04,10.1-.03,15.15,0,2.75.02,3.96,1.27,3.98,4.05.02,4.58,0,9.17,0,13.75Zm-7.13,12.09v-23.89c-1.24-.4-8.34-.27-8.89.12v23.77h8.89Z"/>
      <path class="cls-4" d="m186.7,414.98c-.12.01-.23.03-.35.04-.86.03-1.72.09-2.58.09-5.45,0-10.9.02-16.35,0-.68,0-1.37-.24-2.05-.37-.07-.68-.14-1.36-.21-2.04.04-.04.06-.09.06-.15,5.55-.02,11.1.04,16.65-.06,6.47-.12,10.78-4.54,10.81-11.02.03-7.86,0-15.71,0-23.57,0-4.15.02-8.29,0-12.44-.02-2.07-.34-4.09-1.44-5.91.18.02.44-.03.52.06.86,1.05,1.91,2.02,2.49,3.21.84,1.74,1.07,3.67,1.07,5.63-.03,11.54,0,23.08-.04,34.62,0,1.45-.22,2.92-.55,4.33-.67,2.88-2.41,4.99-5.01,6.39-.23.12-.42.34-.63.51-.4.12-.8.24-1.21.35-.14.05-.27.09-.41.14-.11.02-.23.04-.34.05-.14.04-.27.08-.41.13Z"/>
      <path class="cls-4" d="m231.88,427.03s-.03-.09-.06-.13c-.12-.42-.24-.84-.36-1.26.76.12,1.53.34,2.29.35,4.93.03,9.86.02,14.79.01,3.43,0,5.16-1.74,5.16-5.2,0-14.23,0-28.45,0-42.68,0-.43,0-.86,0-1.39.71,0,1.29,0,1.87,0,.13.06.26.11.39.17.12.13.25.27.37.4,0,.25-.02.5-.02.75,0,15.09,0,30.17,0,45.26,0,3.35-1.93,5.27-5.29,5.28-4.46.02-8.92-.02-13.37.02-2.09.02-4.09-.16-5.77-1.58Z"/>
      <path class="cls-4" d="m200.55,412.15c.7.12,1.4.34,2.11.34,5.3.03,10.6.05,15.9,0,2.91-.03,4.64-1.79,4.65-4.71.03-9.51.02-19.01,0-28.52,0-.61-.18-1.23-.27-1.84.46.24.98.41,1.37.73,1.24,1.02,1.49,2.48,1.5,3.96.02,8.85,0,17.69.03,26.54,0,2.03-.04,4-1.69,5.5-.04.03-.03.12-.04.18-.05,0-.1.03-.14.05-1.05.24-2.09.67-3.14.68-5.22.07-10.45.05-15.67.02-1.4,0-2.69-.42-3.67-1.53-.19-.22-.48-.35-.73-.53,0-.05-.03-.1-.05-.15-.05-.25-.1-.49-.14-.74Z"/>
      <path class="cls-4" d="m232.19,411.5c1.35.27,2.7.71,4.06.77,2.59.12,5.2.04,7.92.04,0,.92,0,1.77,0,2.63-2.12-.01-4.23-.03-6.35-.04-.39-.18-.8-.53-1.16-.5-2.05.2-3.47-.81-4.71-2.25.08-.22.16-.43.24-.64Z"/>
      <path class="cls-4" d="m240.39,418.83h-2.56c0-.73,0-1.36,0-2,.68-.02,1.37-.05,2.05-.07.19.2.39.39.58.59-.02.5-.05.99-.07,1.49Z"/>
      <path class="cls-4" d="m232.19,411.5c-.08.21-.16.43-.24.64-.3-.44-.61-.88-.91-1.32l.02-.02c.38.23.75.46,1.13.7Z"/>
      <path class="cls-4" d="m186.7,414.98c.14-.04.27-.09.41-.13-.14.04-.27.08-.41.13Z"/>
      <path class="cls-4" d="m255.98,376.9c-.13-.06-.26-.11-.39-.17.13.06.26.11.39.17Z"/>
      <path class="cls-4" d="m187.45,414.8c.14-.05.27-.09.41-.14-.14.05-.27.09-.41.14Z"/>
      <path class="cls-4" d="m231.05,410.83s-.06-.06-.14-.15c.09.07.13.1.16.12,0,0-.02.02-.02.02Z"/>
      <polygon class="cls-4" points="186.23 355.09 186.25 355.14 186.2 355.13 186.23 355.09"/>
      <path class="cls-4" d="m175.24,404.05h-2.49v-41.25c2.36,0,4.69-.08,7.01.03,1.5.07,2.51,1,2.96,2.46-2.39,0-4.78,0-7.29,0-.06.58-.16,1.02-.16,1.47,0,8.97,0,17.94,0,26.92,0,3.46-.02,6.92-.03,10.37Z"/>
      <path class="cls-4" d="m240.01,404.42c-1.89.06-2.56-.55-2.57-2.45-.01-5.7-.01-11.4,0-17.1,0-1.89.6-2.44,2.51-2.35,1.39.07,2.78.19,4.23.3,0,.87,0,1.61,0,2.36-.8-.01-1.61-.11-2.39,0-.43.06-.81.46-1.21.71,0,0,0,0,0,0-.18.48-.51.96-.51,1.44-.04,5.7-.04,11.39-.05,17.09Z"/>
      <path class="cls-4" d="m209.68,404.42h-2.5v-21.78h6.68c0,.87,0,1.71,0,2.54-.87,0-1.74,0-2.61,0-1.48,0-1.54.06-1.54,1.51,0,5.91-.02,11.82-.02,17.73Z"/>
    </g>
    <g>
      <path d="m148.53,279.96h4.01c5.53,0,11.05,0,16.58,0,.69,0,1.37.03,2.06.07,2.55.15,3.93,1.53,3.98,4.11.06,3.09.02,6.18.03,9.27,0,3.96,0,7.93,0,11.89,0,.65-.05,1.31-.2,1.94-.34,1.49-1.26,2.42-2.81,2.59-1.21.13-2.42.18-3.63.27-.39.03-.78.07-1.37.13.12.52.16.94.3,1.32,2.9,8.01,5.82,16.02,8.73,24.03.04.11.07.23.13.41h-7.63c-1.7-4.78-3.41-9.58-5.11-14.37-1.3-3.66-2.73-7.29-3.85-11.01-.47-1.56-.29-3.31-.42-5.17h8.44v-19.06c-1.16-.4-11.08-.31-11.84.11v49.5h-7.38v-56.03Z"/>
      <path d="m220.13,301.69c1.42-.2,2.6-.39,3.8-.54,2.53-.34,5.06-.68,7.6-.97.67-.08,1.37-.01,2.04.09,1.58.24,2.48,1.19,2.7,2.78.06.46.1.93.1,1.4,0,8.08.01,16.17,0,24.25,0,1.83-.24,3.6-1.51,5.07-1.22,1.42-2.8,2.18-4.59,2.2-5.77.09-11.54.03-17.37.03v-55.99h7.22v21.67Zm.05,28.5c.41.03.69.07.96.07,1.5,0,3,.02,4.49,0,2.43-.03,3.47-1.08,3.48-3.49,0-6.55,0-13.1,0-19.64,0-.24-.03-.49-.07-.93-2.94-.23-5.85.08-8.86.08v23.92Z"/>
      <path d="m205.72,318.17c0,4.34,0,8.67,0,13.01,0,.41,0,.81-.02,1.22-.08,2.34-1.33,3.6-3.71,3.64-3.18.05-6.37.01-9.55.01-1.93,0-3.87.02-5.8,0-2.83-.03-4.11-1.22-4.12-4.03-.04-9.23-.04-18.46,0-27.69.01-2.76,1.28-4.01,4.03-4.03,5.09-.04,10.17-.04,15.26,0,2.65.02,3.88,1.28,3.89,3.94.03,4.65,0,9.29,0,13.94h0Zm-7.15,12.02v-23.91c-1.34-.41-8.36-.25-8.88.13v23.78h8.88Z"/>
      <path d="m266.8,318.21c0,4.3,0,8.61,0,12.91,0,.37,0,.75-.01,1.12-.08,2.53-1.3,3.77-3.85,3.79-4.31.03-8.61,0-12.92,0-.94,0-1.87.02-2.81-.03-2.24-.11-3.33-1.16-3.58-3.39-.04-.4-.05-.81-.05-1.21,0-8.83,0-17.65,0-26.48,0-.37,0-.75.04-1.12.22-2.31,1.36-3.47,3.68-3.49,5.27-.05,10.55-.06,15.82,0,2.42.02,3.64,1.31,3.66,3.77.03,4.71.01,9.42.01,14.13h0Zm-16.01-12.01v23.99h8.87v-23.99h-8.87Z"/>
      <path d="m324.85,330.19v-6.92h7.04c0,1.94,0,3.84,0,5.73,0,1.12.02,2.25-.04,3.37-.14,2.53-1.3,3.64-3.86,3.67-2.78.03-5.56,0-8.33,0-2.12,0-4.24.02-6.37,0-2.82-.03-4.1-1.22-4.11-4.03-.04-9.23-.04-18.47,0-27.7.01-2.76,1.29-3.99,4.04-4.02,4.9-.04,9.8-.04,14.7,0,2.69.02,3.89,1.19,3.95,3.88.06,2.74.01,5.47.01,8.25h-6.98v-5.95c-.78-.48-7.71-.53-8.56-.1v23.83h8.51Z"/>
      <path d="m288.45,306.23h-5.1c-.08.39-.22.73-.22,1.07-.01,7.24-.01,14.47,0,21.71,0,.32.1.64.17,1.03h5.36v5.96c-3.17,0-6.35.09-9.52-.03-1.94-.07-2.97-1.31-3.14-3.3-.04-.43-.03-.87-.03-1.31,0-7.92,0-15.84,0-23.77,0-.39-.05-.78-.09-1.3h-3.81v-6.03h3.82v-9.97h7.32v9.94h5.24v6Z"/>
      <path d="m294.82,300.31h6.97v35.68h-6.97v-35.68Z"/>
      <path class="cls-4" d="m179.09,334.94c.11.35.22.71.32,1.06.14.33.28.67.43,1,.03.11.05.22.08.33.13.71.26,1.42.39,2.12-.14.13-.28.26-.43.39-1.53-.02-3.05-.02-4.58-.06-1.68-.04-3.35-.1-5.03-.16,0,0,0,0,0,0-.29-.58-.57-1.17-.86-1.75-.08-.17-.15-.34-.23-.52.02-.04.04-.09.04-.13h8.54c-.07-.51-.06-.9-.18-1.23-2.86-7.88-5.73-15.75-8.59-23.62-.12-.32-.21-.64-.32-.98,1.27-.13,2.49-.18,3.68-.39,2.45-.44,3.79-2,3.96-4.5.03-.44.04-.87.04-1.31,0-6.71.02-13.42-.02-20.12,0-1.04-.26-2.09-.4-3.13.07-.08.14-.16.21-.25,1.53.71,2.46,1.89,2.73,3.57.02,2.61.06,5.21.05,7.82-.02,5.72-.07,11.45-.11,17.17-.53,1.84-1.66,3.06-3.6,3.43-.26.05-.52.1-.78.16-.38.04-.76.09-1.13.13-.68-.37-1.28-.23-1.98.38.28.5.55,1.01.83,1.51.04.17.08.33.12.5.21.52.42,1.04.63,1.56.02.11.05.21.07.32.29.76.58,1.53.87,2.29.11.35.22.71.32,1.06.14.33.28.67.43,1,.11.35.22.71.32,1.06.14.33.28.67.43,1,.11.35.22.71.32,1.06.14.33.28.67.43,1,.11.35.22.71.32,1.06.14.33.28.67.43,1,.11.35.22.71.32,1.06.14.33.28.67.43,1,.11.35.22.71.32,1.06.14.33.28.67.43,1,.11.35.22.71.32,1.06.14.33.28.67.43,1Z"/>
      <path class="cls-4" d="m159.57,304.34c-.36.02-.73.04-1.05.06-.09.16-.18.24-.18.32.03,2.55-.48,5.14.69,7.6.33.69.5,1.46.75,2.19-.05,1.3-.15,2.59-.15,3.89-.02,6.64,0,13.29,0,19.93,0,1.12-.3,1.44-1.33,1.46-.87.01-1.75,0-2.62,0-1.84,0-3.67,0-5.78,0-.06-.92-.11-1.76-.16-2.59h7.24v-49.8h9.74c0,.87,0,1.71,0,2.54-2.32,0-4.63,0-7.02,0-.03.64-.06,1.04-.07,1.43-.02,4.32-.04,8.65-.05,12.97Z"/>
      <path class="cls-4" d="m240.11,304.78c.02.13.04.25.07.38,0,.31-.02.62-.02.93,0,8.64,0,17.28,0,25.92,0,3.27-1.46,5.71-4.49,6.99-1.14.49-2.47.73-3.71.75-5.12.08-10.24.04-15.35.04-2.51,0-2.53-.02-2.42-2.6,4.99,0,9.98.02,14.97,0,5.41-.02,8.39-3.01,8.4-8.41.01-4.46,0-8.92,0-13.37,0-3.65.01-7.29-.01-10.94,0-.77-.16-1.54-.25-2.31.3.05.71-.01.87.16.69.78,1.31,1.63,1.95,2.46Z"/>
      <path class="cls-4" d="m209.33,336.63c-.16.41-.32.82-.49,1.23-.32.36-.64.73-.96,1.09-.22.11-.43.21-.65.32-1.72.17-3.44.46-5.16.49-3.84.08-7.67.03-11.51.02-1.14,0-2.29-.07-3.43-.11-.17-.03-.33-.07-.5-.1-.46-.28-.92-.57-1.37-.85-.37-.49-.74-.98-1.12-1.47.07-.08.14-.15.2-.23.76.06,1.52.17,2.27.17,5.03.02,10.05.03,15.08,0,3.5-.02,5.16-1.7,5.16-5.19.01-9.23,0-18.47,0-27.7,0-.71-.1-1.41-.15-2.12,1.2-.05,2.06.79,2.64,2.56.04.14.09.27.13.41.02.18.04.35.06.53-.03.31-.08.61-.08.92,0,9.09,0,18.18,0,27.26,0,.92-.08,1.85-.12,2.77Z"/>
      <path class="cls-4" d="m268.96,338.95c-.34.17-.68.33-1.03.5-.86.11-1.71.31-2.57.32-5.08.03-10.16.07-15.24-.03-1.1-.02-2.19-.57-3.28-.87-.17-.05-.34-.1-.51-.16-.37-.49-.74-.98-1.12-1.47.07-.08.14-.15.2-.23.76.06,1.52.17,2.27.17,5.03.02,10.05.03,15.08,0,3.5-.02,5.16-1.7,5.16-5.19.01-9.2.01-18.41,0-27.61,0-.77-.18-1.54-.27-2.31.46.24.98.41,1.37.73,1.12.95,1.51,2.25,1.51,3.67,0,9.37,0,18.75,0,28.12,0,.68-.08,1.35-.12,2.03-.16.41-.32.82-.49,1.23-.32.36-.64.73-.96,1.09Z"/>
      <path class="cls-4" d="m296.05,337.2h6.94c0-11.94,0-23.75,0-35.57.4-.02.81-.06,1.21-.05,1.03.03,1.37.38,1.37,1.44,0,11.79,0,23.59,0,35.38,0,1.11-.27,1.38-1.38,1.39-1.9,0-3.81,0-5.71,0-2.51,0-2.53-.02-2.43-2.59Z"/>
      <path class="cls-4" d="m335.43,336.83c-.51,1.49-1.53,2.42-3.04,2.85-.77.04-1.54.11-2.31.11-3.52.01-7.04.02-10.56,0-2.59-.01-5.23.33-7.62-1.07-.19-.2-.39-.39-.58-.59-.1-.14-.21-.28-.31-.42-.02-.21-.04-.43-.06-.71.81.07,1.57.18,2.33.18,4.83.02,9.66.03,14.49,0,3.56-.02,5.25-1.7,5.29-5.29.03-2.49.01-4.98.02-7.47.16,0,.31.01.47.01,2,.02,2.02.02,2,2.03-.03,3.45-.09,6.91-.13,10.36Z"/>
      <path class="cls-4" d="m292.32,309.48c-.2.19-.4.39-.59.58-1.09-.02-2.18-.04-3.26-.05-1.6,0-1.62.02-1.62,1.62-.01,5.76-.02,11.52-.03,17.28h-2.4v-21.51h5.26c0-2.02,0-3.9,0-5.78.25-.01.5-.03.74-.03,1.69,0,1.85.15,1.86,1.86.01,2.01.04,4.03.06,6.04Z"/>
      <path class="cls-4" d="m319.96,329.08h-2.5v-21.8h6.26c0,.85,0,1.68,0,2.51-.75,0-1.5.02-2.25.03-1.41,0-1.49.08-1.49,1.48,0,5.92-.02,11.85-.02,17.77Z"/>
      <path d="m294.73,293.74v-7.36h7.13v7.36h-7.13Z"/>
      <path class="cls-4" d="m292.31,339.62c-.13.08-.26.16-.38.24-2.54-.02-5.07-.06-7.6-.06-.92,0-1.85.05-2.77.08-.24-.03-.48-.06-.71-.09-.57-.24-1.14-.48-1.71-.71-.62-.54-1.31-1.04-1.37-1.98h12.1c0-1.93,0-3.81,0-5.69.69-.04,1.37-.07,2.06-.11.2.2.4.4.6.6-.02.53-.05,1.05-.07,1.58-.05,2.05-.1,4.1-.15,6.15Z"/>
      <path class="cls-4" d="m223.8,300.02c-.8.1-1.6.2-2.48.31v-19.05c1.62-.33,2.24-.18,2.6.63-.02.31-.06.62-.06.93,0,4.08,0,8.16,0,12.24,0,1.65-.03,3.3-.05,4.95Z"/>
      <path class="cls-4" d="m326.21,313.6h6.64c.1-.31.22-.51.22-.71-.03-3.24-.06-6.48-.11-9.72,0-.34-.13-.67-.2-1,1.45.21,2.76,1.86,2.78,3.62.04,3.05.03,6.11.02,9.16,0,.96-.31,1.24-1.32,1.25-1.87.01-3.74,0-5.61,0-2.51,0-2.53-.02-2.41-2.6Z"/>
      <path class="cls-4" d="m296.01,295h7.12c0-2.65,0-5.05,0-7.46.31,0,.62.02.93.02,1.43.01,1.52.1,1.52,1.56,0,2.37,0,4.74,0,7.11,0,.36-.08.72-.12,1.15-.45.04-.81.09-1.17.09-1.93,0-3.87,0-5.8,0-2.67,0-2.48.17-2.48-2.48Z"/>
      <path class="cls-4" d="m286.66,291.64c.08.12.16.25.24.37-.02.34-.06.67-.06,1.01-.02,2.04-.03,4.07-.04,6.11h-2.54c0-2.58,0-5.09,0-7.59.8.03,1.6.07,2.4.11Z"/>
      <path class="cls-4" d="m274.81,309.98c-.25.04-.49.08-.74.12-.28-.12-.55-.24-.87-.38v-2.24h1.6v2.51Z"/>
      <path class="cls-4" d="m224.1,310.41c-.06.39-.17.79-.17,1.18-.01,5.42,0,10.85,0,16.27,0,.37,0,.74,0,1.18h-2.61v-21.63h6.66c0,.84,0,1.7,0,2.56-.06.04-.12.07-.18.11-.98,0-1.95,0-2.93.01-.25.1-.5.21-.76.31Z"/>
      <path class="cls-4" d="m193.31,329.08h-2.5v-21.79h6.69c0,.88,0,1.71,0,2.54-.87,0-1.74,0-2.62,0-1.48,0-1.54.06-1.54,1.51,0,5.91-.02,11.83-.02,17.74Z"/>
      <path class="cls-4" d="m254.39,329.08h-2.5v-21.79h6.69c0,.88,0,1.71,0,2.54-.87,0-1.74,0-2.62,0-1.48,0-1.54.06-1.54,1.51,0,5.91-.02,11.83-.02,17.74Z"/>
    </g>
    <g>
      <path class="cls-4" d="m228.66,502.97c2.51-.11,2.78.15,2.71,2.71-.05,1.68,0,3.37-.02,5.05,0,1.07-.33,1.4-1.4,1.41-2.22.01-4.43,0-6.65,0-.37,0-.73,0-1.24,0-.04.57-.1,1.02-.1,1.47,0,15.21,0,30.43,0,45.64,0,.44,0,.87,0,1.31-.02.75-.42,1.16-1.17,1.16-2.62,0-5.24,0-7.87,0-.81,0-1.18-.45-1.19-1.24,0-.5-.04-.99-.07-1.49h7.5v-49.69h9.49v-6.33Z"/>
      <path class="cls-4" d="m264.16,558.93c4.35.67,8.53-.62,12.83-1.04.11.31.23.65.36,1.02h8.81c.05-.4.12-.76.12-1.12,0-10.47.01-20.94,0-31.41,0-.86-.16-1.73-.24-2.59,1.25.27,2.58,1.59,2.78,2.83.12.77.22,1.54.22,2.32.01,10.35.01,20.69,0,31.04,0,1.45-.31,1.76-1.74,1.76-1.9,0-3.81,0-5.71,0q-1.4,0-2.55-1.04c-1.25.17-2.63.39-4.01.55-2.75.31-5.49.87-8.27.31-1.39-.28-2.54-1.44-2.61-2.64Z"/>
      <path class="cls-4" d="m325.73,559h7.16c.07-.47.15-.8.15-1.12,0-10.69.01-21.37-.01-32.06,0-.79-.24-1.59-.36-2.38,1.72.53,2.9,1.98,3.01,3.75.03.53.04,1.06.04,1.59,0,10.37,0,20.75-.01,31.12,0,.59-.19,1.17-.31,1.85-1.59,0-2.99,0-4.38,0-1.25,0-2.5,0-3.74,0-1.14-.01-1.44-.32-1.47-1.44-.01-.43-.05-.87-.07-1.3Z"/>
      <path class="cls-4" d="m293.32,559h7.24v-29.8h6.76v2.67c-1,0-1.99,0-2.99-.02-.71-.02-1.02.31-1,1.02.02.97,0,1.93,0,2.9,0,7.94,0,15.89,0,23.83,0,.53,0,1.05,0,1.76-.57.14-1.08.36-1.6.37-2.21.04-4.43.02-6.64.01-1.38,0-1.68-.32-1.7-1.71,0-.34-.04-.68-.05-1.02Z"/>
      <path class="cls-4" d="m255.94,545.54c-.06-.01-.12-.03-.18-.04-.31-.08-.62-.22-.93-.22-3.4-.02-6.8-.01-10.2,0-.34,0-.67.03-1.28.05v6.33h-2.75v-9.12h13.3c.7-.75,1.49-1.54,2.21-2.4.21-.25.31-.67.31-1.02.02-4.33.03-8.65,0-12.98,0-.8-.2-1.59-.31-2.39,2.29.69,2.85,2.02,2.94,4.32.16,4.57.07,9.16.03,13.74,0,.46-.32,1.01-.65,1.37-.78.84-1.65,1.58-2.49,2.37Z"/>
      <path class="cls-4" d="m309.61,559.01h7.26c0-3.42.02-6.7.02-9.97,0-3.27,0-6.54,0-9.81v-10h6.61v2.6c-1.27.13-2.6-.23-3.92.34,0,.51,0,.94,0,1.37,0,8.76,0,17.52,0,26.28,0,1.69-.24,1.93-1.96,1.93-2.09,0-4.18,0-6.27,0-1.38,0-1.7-.32-1.71-1.71,0-.34-.02-.68-.03-1.03Z"/>
      <path class="cls-4" d="m234.36,558.76c5.84.06,11.69.16,17.53.17,2.48,0,4.19-1.57,4.4-4.05.17-2.01.1-4.04.14-6.06,0-.31.03-.62.04-.92,2.55-.09,2.63,0,2.63,2.54,0,1.87,0,3.73,0,5.6-.02,3.72-1.81,5.64-5.52,5.69-4.92.07-9.84.05-14.76-.01-1.58-.02-3.1-.45-4.09-1.86-.21-.3-.25-.73-.37-1.1Z"/>
      <path class="cls-4" d="m263.91,533.56h6.37v-5.21h6.92v2.75c-.99-.02-1.98-.02-2.97-.07-.78-.03-1.14.29-1.12,1.09.03,1.14.02,2.29.02,3.43-1.61,0-3.23-.02-4.84.04-1.39.05-2.77.22-4.16.33-.08-.79-.15-1.57-.23-2.36Z"/>
      <path class="cls-4" d="m202.32,509.39h7.14v2.78c-1.71,0-3.43-.02-5.14-.02-1.72,0-1.96-.24-1.97-1.92,0-.28-.02-.56-.03-.84Z"/>
      <path class="cls-3" d="m331.85,557.77h-7.18v-29.77h-8.77c-.08.52-.2.96-.2,1.39-.01,9.1,0,18.21,0,27.31v1.06h-7.13v-29.74c-2.99-.3-5.9.09-8.98.03v29.72h-7.23v-35.64h7.07c.08.41.15.8.25,1.28.5-.04.92-.06,1.34-.11,3.15-.43,6.29-.93,9.44-1.3,1.82-.21,3.66-.21,4.87,1.61,2.29-.36,4.52-.78,6.78-1.05,2.16-.26,4.34-.55,6.5-.52,2.1.03,3.01,1.13,3.23,3.26.04.37.07.75.07,1.12,0,10.16,0,20.33,0,30.49,0,.27-.03.55-.04.85Z"/>
      <path class="cls-3" d="m227.39,508.25h-9.28v49.5h-7.49v-49.48h-9.32v-6.41h26.09v6.39Z"/>
      <path class="cls-3" d="m255.22,539.41c-.66.62-1.32,1.24-2.14,2.01h-13.59v11.31h8.87v-5.99h6.89c0,.63,0,1.25,0,1.86,0,1.84.04,3.68-.04,5.52-.1,2.5-1.32,3.68-3.84,3.7-3.65.03-7.3.01-10.96,0-1.4,0-2.81.03-4.21-.03-2.29-.09-3.4-1.17-3.63-3.44-.04-.4-.04-.81-.04-1.21,0-8.79,0-17.59,0-26.38,0-.4,0-.81.04-1.21.23-2.25,1.38-3.4,3.65-3.42,5.12-.05,10.24-.06,15.36,0,2.33.03,3.58,1.23,3.61,3.52.07,4.58.02,9.16.02,13.77Zm-15.76-2.45h8.85v-9.78h-8.85v9.78Z"/>
      <path class="cls-3" d="m278.26,536.7v-9.5h-8.95v5.13h-6.44c0-2.43-.12-4.86.04-7.27.13-1.89,1.47-2.92,3.59-2.94,4.99-.05,9.99-.02,14.98-.02.12,0,.25,0,.37.02,2.06.22,3.19,1.42,3.27,3.5.01.37.01.75.01,1.12,0,9.98,0,19.95,0,29.93,0,.34,0,.68,0,1.09h-6.74c-.06-.31-.13-.64-.22-1.12-.33,0-.65-.04-.96,0-3.18.42-6.36.88-9.54,1.26-.85.1-1.75.05-2.6-.08-1.57-.25-2.52-1.25-2.62-2.84-.11-1.8-.12-3.61-.12-5.42,0-3.15-.01-6.3.1-9.44.08-2.07,1.27-3.22,3.35-3.27,3.65-.09,7.3-.05,10.95-.08.49,0,.98-.05,1.52-.08Zm-8.93,4.68v11.28c3.08-.12,6.02-.24,8.95-.35v-10.92h-8.95Z"/>
      <path class="cls-4" d="m243.39,535.87h-2.77v-7.57h6.59v2.63c-1.27.02-2.54.04-3.82.05v4.89Z"/>
      <path class="cls-4" d="m273.2,551.33c-.89.05-1.79.1-2.76.16v-8.95h6.75v2.61h-3.92c-.27,2.09-.16,4.14-.07,6.18Z"/>
    </g>
  </g>
  <g id="FullDogBodyBlackv03">
    <g id="DogBodyBlackv03">
      <g>
        <polygon points="374.31 91.33 405.62 122.64 393.54 122.64 366.26 94.02 374.31 91.33"/>
        <polygon points="393.54 136.05 385.94 165.57 388.62 165.57 398.91 160.65 405.62 142.76 405.62 136.05 393.54 136.05"/>
        <rect x="394.21" y="123.75" width="11.4" height="10.73"/>
        <polygon points="375.66 106.98 384.6 115.7 370.29 130.46 364.25 119.73 375.66 106.98"/>
        <polygon points="383.48 134.49 378.34 160.87 384.6 164.67 391.98 136.05 383.48 134.49"/>
        <polygon points="392.82 134.49 383.87 133.03 382.59 126.66 388.62 118.72 393.1 123.75 392.82 134.49"/>
        <polygon points="374.43 106.09 362.91 94.24 357.99 94.24 340.59 111.16 349.27 115.93 362.91 119.1 374.43 106.09"/>
        <polygon points="374.43 160.65 366.26 155.95 341.89 174.51 350.39 176.97 374.43 160.65"/>
        <polygon points="367.83 130.74 364.25 153 354.76 161.04 347.33 143.54 367.83 130.74"/>
        <polygon points="351.06 121.52 346.33 133.99 345.02 134.49 341.6 128.15 347.48 116.15 351.06 121.52"/>
        <polygon points="314.87 154.24 318.67 165.4 332.09 156.68 345.51 143.27 344.39 135.22 341.26 129.85 314.87 154.24"/>
        <polygon points="340.55 172.72 340.33 178.98 330.82 173.69 334.29 155.95 346.14 144.55 353.29 162.1 340.55 172.72"/>
        <polygon points="329.59 174.51 332.72 157.67 310.59 172.43 310.59 175.78 322.88 181.59 337.64 179.13 329.59 174.51"/>
        <path d="m320.43,181.44c-.89.89-9.84-4.47-9.84-4.47l-4.92,3.58,3.8,2.91h10.96s0-2.01,0-2.01Z"/>
        <polygon points="308.8 172.28 308.8 175.85 305.67 178.98 302.76 178.98 299.41 172.28 308.8 172.28"/>
        <polygon points="324.11 129.85 322.56 135.16 304.1 153 314.24 153 340.18 128.15 324.11 129.85"/>
        <polygon points="324.11 128.15 322.36 119.1 327.06 114.44 339.28 112.63 346.47 116.15 340.92 126.24 324.11 128.15"/>
        <polygon points="341.89 95.65 327.36 109.52 327.36 112.5 330.19 112.2 338.54 111.11 340.92 109.37 356.87 94.24 341.89 95.65"/>
        <polygon points="317.52 122.64 326.61 113.39 326.61 110.56 317.52 121.59 317.52 122.64"/>
        <polygon points="344.05 94.24 334.96 77.17 332.26 77.17 333.92 81.49 340.18 94.69 344.05 94.24"/>
        <polygon points="309.92 52.13 334.52 76.28 330.82 76.28 308.57 53.32 309.92 52.13"/>
        <polyline points="374.43 90.14 389.85 66.23 390.44 67.1 375.66 90.14"/>
        <polygon points="390.56 65.69 423.8 32.45 424.55 32.45 391.31 66.59 390.56 65.69"/>
        <polygon points="415.31 83.28 419.63 68.38 423.06 35.88 390.56 69.87 398.61 78.36 404.72 92.97 415.31 83.28"/>
        <path d="m330.82,78.36l-4.49,14.46h-8.89s-7.08-6.41-6.86-7.16-2.01-30.41-2.01-30.41l22.25,23.11Z"/>
        <polygon points="331.83 79.41 339.28 95.21 333.02 101.92 327.36 93.57 331.83 79.41"/>
        <polygon points="332.26 102.94 324.11 111.16 318.41 104.75 317.89 93.94 326.02 94.24 332.26 102.94"/>
        <polygon points="397.12 79.41 403.68 93.57 392.35 105.86 377.59 91.33 389.82 71.51 397.12 79.41"/>
        <polygon points="393.54 106.98 415.61 84.03 416.91 86.64 397.72 110.56 393.54 106.98"/>
        <polygon points="420.52 68.67 422.16 68.67 421.27 81.05 416.8 82.39 420.52 68.67"/>
        <polygon points="425.29 33.64 422.16 67.18 420.52 67.18 423.8 34.69 425.29 33.64"/>
        <polygon points="348.97 178.09 342.11 176.15 341.61 180.21 324.11 182.41 328.25 184.65 338.54 182.86 348.97 178.09"/>
        <polygon points="317.52 123.12 317.52 130.46 318.41 138.36 316.47 130.74 317.52 123.12"/>
        <polygon points="376.55 159.46 374.98 159.46 366.26 154.39 369.84 131.92 381.13 134.49 376.55 159.46"/>
        <polygon points="372.19 130.74 381.13 132.59 380.35 126.61 377.59 125.32 372.19 130.74"/>
        <polygon points="297.39 158.66 302.76 153.94 313.64 153.94 314.87 158.66 297.39 158.66"/>
        <polygon points="406.81 129.12 414.11 149.58 419.59 162.3 422.57 166.91 426.09 163.16 421.16 159.46 419.48 153 418.36 144.55 406.81 125.32 406.81 129.12"/>
        <polygon points="406.81 142.65 410.65 149.24 411.66 147.29 406.81 136.05 406.81 142.65"/>
        <polygon points="411.04 150.18 411.93 148.2 414.21 152.41 412.87 153.42 411.04 150.18"/>
        <polygon points="414.79 153 419.84 164.94 418.64 166.46 416.24 165.18 415.68 159.73 412.94 154.5 414.79 153"/>
        <polygon points="412.95 176.97 411.38 178.47 408.04 181.83 401.09 160.25 402.26 155.18 403.16 153 412.95 176.97"/>
        <polygon points="415.01 172.83 415.49 174.35 413.92 176.15 406.81 157.67 403.97 150.33 405.13 147.93 406.08 145.85 414.42 161.26 415.32 167.48 413.56 170.43 415.68 168.81 416.24 170.49 415.01 172.83"/>
        <polygon points="420.42 165.57 418.81 167.36 416.24 165.99 417.25 170.49 416.24 172.61 416.62 173.3 421.83 167.75 420.42 165.57"/>
        <polygon points="399.27 162.27 406.55 183.24 403.45 186.39 395.48 169.15 396.95 163.33 399.27 162.27"/>
        <polygon points="394.21 169.03 387.32 203.21 383.15 207.61 381.69 208.72 357.58 209.62 358.79 206.85 382.59 205.59 385.94 202.69 393.17 167.89 390.13 166.68 391.59 165.57 395.22 164.11 394.21 169.03"/>
        <polygon points="395.07 172.76 400.63 189.07 399 190.79 394.22 176.97 395.07 172.76"/>
        <polygon points="397.71 192 396.69 193.15 393.02 197.02 391.98 188.35 392.32 187.66 393.4 181.12 397.71 192"/>
        <path d="m387.17,166.46l-8.16,4.64s-15.54,4.79-15.88,5.05-8.39,5.18-8.72,4.96-2.8-3.58-2.8-3.58l22.81-15.76h3.91s6.2,4.48,6.2,4.48"/>
        <polygon points="390.4 176.97 389.59 178.32 389.59 179.77 362.2 181.25 362.01 179.96 362.9 178.47 390.4 176.97"/>
        <polygon points="384.49 201.14 384.48 202.59 382.46 203.93 358.15 205.24 356.53 203.86 356.52 203.86 356.97 202.39 384.49 201.14"/>
        <polygon points="386.19 196.14 385.6 197.58 385.6 199.04 358.67 200.52 358.1 199.12 358.69 197.64 386.19 196.14"/>
        <polygon points="387.11 191.16 386.55 192.66 386.55 194.11 359.58 195.57 359.05 194.15 359.61 192.66 387.11 191.16"/>
        <polygon points="387.98 186.39 387.54 187.89 387.54 189.34 360.43 190.79 360.03 189.38 360.48 187.89 387.98 186.39"/>
        <polygon points="389.2 181.68 388.32 183.14 388.32 184.59 361.18 186.08 360.8 184.67 361.69 183.18 389.2 181.68"/>
        <polygon points="391.36 170.77 390.59 176.15 389.18 176.15 389.18 170.38 386.44 168.47 388.79 167.24 391.98 168.59 391.36 170.77"/>
        <polygon points="357.68 186.39 356 196.71 353.65 205.04 356.2 207.08 353.29 211.52 351.62 227.06 351.06 227.06 349.94 222.59 349.94 211.07 352.4 196.14 354.3 187.89 359.58 181.12 357.68 186.39"/>
        <polygon points="427.42 164.11 375.73 216.55 375.73 221.39 381.32 226.8 384.07 225.2 419.89 183.11 431.89 172.72 427.42 164.11"/>
        <polygon points="382.92 232.31 437.93 172.95 447.77 172.95 455.03 180.74 452.57 185.53 442.96 184.03 433.51 193.41 402.04 226.61 387.51 243.93 382.92 232.31"/>
        <polygon points="350.84 228.18 373.28 227.06 377.33 225.16 380.57 228.18 380.86 230.3 379.01 232.54 386.61 250.54 363.02 251.43 354.3 235.44 350.84 231.87 350.84 228.18"/>
        <polygon points="446.2 200.18 434.57 198.69 418.08 215.99 404.39 231.98 391.64 249.75 391.64 251.88 403.05 252.33 404.39 253.33 435.92 212.86 446.2 200.18"/>
        <polygon points="391.64 253.33 403.68 254.11 404.5 256.02 405.06 258.7 423.58 301.67 425.57 308.23 429.65 311.95 431.89 315.27 425.22 314.04 420.04 309.68 415.23 304.76 391.64 253.33"/>
        <path d="m384.15,255.79h-22.81s-.67,3.69-.67,3.69l21.8,52.77,4.92,3.91s13.86.78,14.2.78,8.63.69,8.63.69l7.69-1.7-7.38-7.49-26.39-52.66Z"/>
        <polygon points="353.63 237.23 348.93 249.42 342.45 249.42 343.23 245.95 348.82 236.11 353.63 236.11 353.63 237.23"/>
        <polygon points="348.71 250.76 358.21 285.31 363.69 285.31 371.52 305.93 362.02 304.98 360.89 303.65 356.14 303.55 342.45 250.31 348.71 250.76"/>
        <polygon points="372.5 307.74 361.9 306.77 361.9 312.25 368.72 324.1 379.57 324.1 372.5 307.74"/>
        <polygon points="379.57 326.34 374.31 371.28 374.31 384.92 365.15 383.36 361.9 379.56 368.39 326.21 379.57 326.34"/>
        <polygon points="374.25 387.03 375.21 397.67 378.17 404.43 368.16 402.59 363.92 400.8 363.92 384.92 374.25 387.03"/>
        <polygon points="375.99 408.4 367.92 419.3 359.26 419.14 367.05 408.28 375.99 408.4"/>
        <polygon points="357.95 419.12 365.7 408.44 362.14 408.44 354.26 419.12 357.95 419.12"/>
        <polygon points="352.88 419 361.26 408.44 359.01 408.44 348.32 418.83 352.88 419"/>
        <polyline points="357.62 436.33 377.34 435.17 388.06 420.2 377.78 409.63 368.05 422.49 366.82 432.1 357.95 433.59"/>
        <polygon points="384.38 413.88 396.56 400.46 381.58 381.01 375.99 384.92 377.78 397.44 380.91 404.71 379.01 407.95 384.38 413.88"/>
        <path d="m394.21,341.1s-3.02.67-3.35.67-3.47-.34-3.47-.34l-1.79,40.25,6.04,8.39,1.57-1.9,1.01-47.07Z"/>
        <polygon points="383.93 341.1 382.14 378.66 375.99 382.91 375.99 371.28 380.91 329.02 383.93 341.1"/>
        <polygon points="366.26 129.85 353.29 138.23 351.62 138.36 346.47 141.8 345.78 135.85 351.06 133.37 354.76 134.08 364.25 129.85 366.26 129.85"/>
        <path d="m448.03,186.29l4.99.37,1.42-2.09s2.53.37,2.83.45,9.24,2.39,9.24,2.39l-.52.67-8.27,6.86h-2.68s-6.48,3.75-6.48,3.75c0,0-12-1.82-12.3-1.82l11.78-10.58Z"/>
        <path d="m454.08,207.61c-.22-.28-24.61,28.77-24.91,28.62s-6.26-.6-6.26-.6l19.9-22.81,3.06.2,6.11-5.42h2.11Z"/>
        <polygon points="456.08 207.08 429.69 236.9 429.69 239.06 441.79 239.52 450.62 227.11 457.27 217.72 464.28 208.5 464.03 207.34 456.08 207.08"/>
        <path d="m439.38,298.28h10.06s11.85,3.8,11.85,3.8l6.37,7.27v.89s-17.66.34-18.11,0-7.77-4.64-7.77-4.64l-2.4-7.32Z"/>
        <polygon points="433.12 297.11 426.45 297.05 423.62 279.61 421.83 264.51 420.93 255.79 419.82 245.62 420.6 241.15 422.23 237.16 426.47 237.62 425.63 244.5 426.64 256.46 428.57 278.12 431.89 288.62 433.12 297.11"/>
        <polygon points="431.48 240.3 427.63 240.14 428.54 254.23 431 277.03 434.18 288.16 435.49 297.05 439.38 297.05 433.51 257.36 432.34 247.63 431.48 240.3"/>
        <polygon points="448.33 297.05 440.5 297.05 432.45 240.3 441.28 240.81 441.51 245.62 441.73 251.21 442.62 256.46 444.64 261.61 445.64 264.51 448.33 297.05"/>
        <polygon points="476.14 279.79 476.02 286.61 470.46 301.57 468.23 308.45 461.91 301.29 476.7 274.23 476.14 279.79"/>
        <polygon points="473.98 210.18 530.28 213.46 532.74 217.15 534.52 221.96 535.08 228.55 536.31 234.37 539.11 239.06 539.11 243.31 539.11 250.75 537.54 258.63 534.59 268.51 516.97 268.3 482.09 268.3 490.25 251.81 528.38 253.37 531.95 252.03 532.51 247 531.84 242.42 526.7 241.19 503.26 240.63 482.31 240.35 482.43 236.27 478.71 233.32 477.95 232.33 519.32 233.58 525.8 233.7 529.49 229.45 527.48 222.74 522.11 219.05 509.65 218.49 492.15 217.82 479.97 217.56 473.63 217.52 473.98 210.18"/>
        <polygon points="481.31 269.99 478.4 274.91 477.87 278.35 484.83 278.35 490.81 276.7 503.85 276.7 512.82 276.55 527.03 276.55 533.43 275.91 534.37 270.26 481.31 269.99"/>
        <polygon points="477.87 271.11 477.48 274.17 488.72 251.77 486.74 252.33 477.87 271.11"/>
        <polygon points="531.43 243.93 482.09 242.82 482.24 240.96 526.38 241.83 531.3 242.88 531.43 243.93"/>
        <polygon points="474.04 221.47 473.67 218.44 520.98 219.75 519.43 223.29 474.04 221.47"/>
        <polygon points="521.84 219.79 520.37 223.75 525.86 232.31 528.66 229.18 526.59 223.29 521.84 219.79"/>
        <polygon points="529.4 244.5 530.1 251.98 531.39 251.54 531.95 246.77 531.54 244.5 529.4 244.5"/>
        <polygon points="449.44 324.47 447.51 325.37 436.77 324.92 435.73 325.37 434.57 327.61 432.45 380.97 432.45 384.1 433.51 385.44 434.57 386.04 445.72 387.23 448.33 385.15 449.44 324.47"/>
        <polygon points="433.34 388.13 433.34 404.38 437.07 406.76 440.95 406.76 446.31 407.8 445.57 389.77 433.34 388.13"/>
        <polygon points="447.51 407.8 446.7 389.79 452.29 409.69 447.51 407.8"/>
        <polygon points="451.48 412.92 441.51 426.51 436.36 425.17 432.62 425 440.6 412.24 451.48 412.92"/>
        <polygon points="438.41 412.24 431.11 424.44 419.18 423.38 434.05 412.24 438.41 412.24"/>
        <polygon points="430.43 425.86 422.2 438.93 424.57 439.73 424.9 439.24 435.61 426.19 430.43 425.86"/>
        <polygon points="416.43 424.15 409.93 437.02 410.29 437.63 413.23 437.98 413.56 437.66 422.2 424.79 416.43 424.15"/>
        <polygon points="424.14 425.14 416.48 438.26 416.7 438.63 419.04 438.99 419.64 438.61 428.8 425.54 424.14 425.14"/>
        <path d="m452.5,413.88l8.94,11.14v1.86s-8.65,12.05-8.65,12.05l-3.06,2.04h-.97s-1.42-2.14-1.64-2.04-3.28,1.59-3.28,1.59l-.89.45v2.39s-16.17.41-16.17.41l-1.5-3.47,13.07-13.23,3.47,1.16,9.24-12.31,1.42-2.05Z"/>
        <path d="m458.84,417.64c-.45-.97-5.31-7.45-5.31-7.45v-9.69s10.75-7.08,10.75-7.08l4.96,9.84-10.4,14.39Z"/>
        <polygon points="460.02 393.83 454.59 384.87 450.89 384.87 448.33 388.13 456.88 395.72 460.02 393.83"/>
        <polygon points="455.43 396.61 447.66 389.31 452.34 405.26 452.02 399.18 455.43 396.61"/>
        <polygon points="455.03 340.24 454.7 382.85 450.45 382.85 451.08 331.76 454.14 337.07 455.03 340.24"/>
        <polygon points="459.42 312.45 462.19 314.71 453.22 320.72 449.58 318.29 442.51 308.23 449.44 312.44 459.42 312.45"/>
        <path d="m438.41,299.28c.07.89,3.8,12.97,3.8,12.97l5.5,8.02,2.74,2.15h-13.98s-4.58-10.62-4.58-10.62l-2.94-12.52h9.47Z"/>
        <polygon points="459.42 195.23 467.67 187.89 475.83 191.16 507.36 192.51 531.39 194.15 539 196.14 550.96 196.71 557.44 199.12 558.56 201.68 531.39 200.18 503.78 198.69 465.04 196.2 459.42 195.23"/>
        <path d="m453.06,197.63l3.6-1.49,15.6,1.49,28.4,2.56,32.65,1.68s-33.54-.75-34.66-.75-40.89-2.01-40.89-2.01h-6.66s1.98-1.49,1.98-1.49Z"/>
        <polygon points="571.53 211.85 558.56 238.29 548.5 238.29 563.03 209.62 569.74 209.62 571.53 211.85"/>
        <polygon points="493.49 301.57 504.84 295.79 520.1 288.16 531.32 283.36 532.14 279.42 523.83 283.26 511.72 289.07 501.77 293.84 493.49 298.69 493.49 301.57"/>
        <polygon points="492.22 301.86 472.28 301.86 473.92 298.37 492.22 298.61 492.22 301.86"/>
        <polygon points="474.37 296.3 493.98 296.41 499.12 292.52 475.75 292.66 474.37 296.3"/>
        <path d="m513.84,286.76c-2.01,0-8.39-.15-8.39-.15l-3.35,3.87-5.57-.22,2.1-3.49h-20.61s.04-2.46.04-2.46h21.75s3.97-5.81,3.97-5.81h8.39s-4.86,5.7-4.86,5.7h10.34s-3.8,2.57-3.8,2.57Z"/>
        <polygon points="494.83 288.1 492.9 290.87 476.46 290.87 477.47 288.1 494.83 288.1"/>
        <polygon points="525.97 278.77 522.11 282.29 511.72 282.29 514.34 278.82 525.97 278.77"/>
        <polygon points="498.66 279.79 496.74 282.55 478.25 282.74 478.03 279.79 498.66 279.79"/>
        <path d="m530.68,212.38c-.22,0-65.23-4.27-65.23-4.27l-.4-1.51-8.33-.39,1.21-1.51,59.72,4.47-4.77-6.15,4.01.14,5.8,5.8,8.76.34,3.65,4.58h-3.28s-1.13-1.49-1.13-1.49Z"/>
        <polygon points="510.27 203.23 513.8 207.34 472.77 204.44 468.67 200.86 510.27 203.23"/>
        <path d="m558.56,240.3l4.92,67.03s-4.7-.89-4.92-1.12-6.93-36.24-6.93-36.24l-3.13-29.67h10.06Z"/>
        <polygon points="423.9 440.71 424.9 443.73 421.16 443.73 420.26 441.83 421.49 439.87 423.9 440.71"/>
        <polygon points="418.25 439.87 418.81 443.23 416.07 442.61 415.24 441.8 416.3 439.48 418.25 439.87"/>
        <polygon points="412.24 438.81 412.54 441.1 410.51 440.86 409.42 439.87 410.03 438.47 412.24 438.81"/>
        <polygon points="356.67 433.79 356.31 436.33 354.06 436.02 353.97 433.36 356.67 433.79"/>
        <polygon points="349.79 432.51 349.84 435.13 347.73 434.78 347.56 432.21 349.79 432.51"/>
        <polygon points="344.61 431.24 344.82 434.21 342.41 433.95 342.04 430.91 344.61 431.24"/>
        <polygon points="585.88 342.55 579.28 342.55 584.65 339.06 584.65 334.5 579.28 329.02 575.7 328.53 571.53 324.74 567.95 320.72 563.48 318.29 559.31 313 554.6 309.12 548.19 285.67 546.6 282.74 551.63 278.26 557.67 307.33 563.07 309.13 577.34 325.56 579.69 323.43 589.05 332.49 587.07 338.45 585.88 342.55"/>
        <polygon points="494.21 303.37 494.83 313.15 497.33 318.29 500.35 321.05 502.44 326.21 506.76 329.02 511.72 332.33 517.64 337.89 522.11 340.24 525.61 335.06 519.21 331.41 511.38 327.23 506.12 322.29 503.56 314.47 498.15 315.53 499.61 306.03 497.84 301.86 494.21 303.37"/>
        <polygon points="499.12 301.32 532.14 286.61 540 308.23 532.14 322.43 526.73 333.41 512.28 325.74 507.36 321.14 504.52 312.55 499.68 313.52 500.87 305.77 499.12 301.32"/>
        <polygon points="540.03 202.22 541.62 203.35 540.6 204.57 541 204.74 541.97 203.6 545.74 206.26 547.24 206.57 547.44 208.78 547.81 208.83 547.6 206.64 549.04 206.93 551.95 209.5 549.72 212.07 550.07 212.47 552.36 209.9 555.99 211.52 559.31 213.87 558.56 215.2 556.21 213.61 556 214.09 558.31 215.65 555.69 220.34 551.57 216.94 554.39 214.76 553.64 214.2 550.93 216.3 546.91 212.21 545.07 212.6 544.25 208.45 539.64 205.07 535.57 202.05 540.03 202.22"/>
        <path d="m550.27,229.82c-.06,0-9.15,0-9.15,0l-4.75-5.86,2.07,10.09,2.8,2.6.27,6.75,4.59-.06-.22-4.81,4.4-8.7Z"/>
        <polygon points="548.96 227.88 543 222.96 536.58 215.77 533.66 215.77 535.98 221.24 539.54 224.08 541.72 227.88 548.96 227.88"/>
        <polygon points="548.5 263.73 545.97 245.77 541.53 245.77 541.23 251.17 539.74 258.25 537.51 265.59 542.09 265.59 548.5 263.73"/>
        <polygon points="550.27 274.23 545.48 279.42 541.9 277.98 536.65 277.7 535.7 275.19 536.82 267.92 542.07 268.03 549.47 266.19 550.27 274.23"/>
        <polygon points="558.56 203 562.49 208.01 562.2 208.48 560.02 205.9 559.76 206.17 561.99 208.82 561.01 210.41 557.22 207.68 553.79 206.82 549.43 204.36 549.17 203.27 554.9 203.64 555.01 203.28 549.08 202.86 548.96 202.34 558.56 203"/>
        <polygon points="356.83 222.38 356.83 225.24 371.18 225.16 374.98 223.29 373.57 221.77 373.72 215.8 368.72 215.8 368.68 217.49 354.02 217.51 354.02 219.99 369.54 220.2 369.64 222.37 356.83 222.38"/>
        <polygon points="375.32 214.31 379.49 210.67 358.54 211.18 358.76 212.26 373.72 212.19 372.86 213.23 354.41 213.36 354.23 214.43 375.32 214.31"/>
        <polygon points="439.38 171.7 447.8 171.62 443.29 163.52 437.82 160.76 434.99 160.78 435.43 164.11 438.75 164.11 439.38 171.7"/>
        <polygon points="438.22 167.41 438.39 171.62 437.34 171.62 435.65 164.91 437.96 164.94 438.22 167.41"/>
        <polygon points="425.15 160.13 425.15 161.38 427.89 162.82 430.2 166.91 432.97 166.91 432.69 164.11 434.51 164.11 434.09 160.76 425.15 160.13"/>
        <polygon points="413.63 98 412.79 99.1 411.33 98.08 401.93 110.15 402.82 110.93 400.96 113.02 398.65 111.03 411.02 95.84 413.63 98"/>
        <polygon points="411.55 95.19 413.8 92.44 415.96 91.02 422.37 91.02 402.67 114.43 401.71 113.57 403.97 110.71 403.16 110 411.59 99.11 413.11 100.16 414.81 97.9 411.55 95.19"/>
        <polygon points="546.06 340.33 548.96 339.38 552.29 340.85 554.6 344.6 554.6 349.73 553.32 355.65 548.61 359.13 541.91 355.93 540.58 349.91 544.13 342.68 546.06 340.33"/>
        <polygon points="545.26 339.83 538.36 335.95 531.35 325.5 526.99 334.79 522.84 340.59 529.79 345.79 532.96 354.93 537.74 356.8 541.21 356.02 539.89 349.81 543.86 341.66 545.26 339.83"/>
        <polygon points="545.37 360.45 540.75 359.77 537.39 357.64 541.87 356.79 546.39 358.77 545.37 360.45"/>
        <path d="m592.1,240.96c.15-.11,2.53-4.3,2.53-4.3l-2.53-2.37-3.06-4.47-4.84-5.86-3.49-3.09-5.01-4.77-3.28-2.24-12.41,24.43,5.18,3.6,2.46-5.23,3.88-4.34,5.8-2.35,4.19-.45,5.22,3.8,4.17,5.88,1.19,1.76Z"/>
        <path d="m587.33,328.53c-.45-.48-8.05-6.89-8.05-6.89l-1.64,1.79-13.27-14.98-4.36-68.15,4.36,3.62-.89,11.08v8.35s1.71,10.87,1.71,10.87l3.76,6.3,3.76,3.12,5.07,16.75,4.92,14.07,4.62,14.06Z"/>
        <polygon points="589.34 329.97 590.19 326.98 591.51 326.29 592.4 323.66 601.12 306.81 603.83 305.02 597.92 296.41 602.54 285.42 598.36 239.2 595.83 237.57 592.7 242.44 595.83 249.29 597.02 258.92 597.47 269.32 594.64 280.3 588.67 286.61 585.54 288.1 579.28 287.73 575.7 285.72 574.36 284.42 587.93 326.71 589.34 329.97"/>
        <polygon points="579.02 343.34 582.83 348.89 585.01 349.66 585.36 345.95 585.84 343.61 579.02 343.34"/>
        <polygon points="517.6 202.71 528.77 202.71 528.71 206.29 522.81 206.07 521.64 205.79 522.59 206.57 528.77 206.78 528.77 208.16 522.98 208.05 520.61 205.79 518.92 204.1 527.54 204.33 527.54 203.89 518.51 203.72 517.6 202.71"/>
        <polygon points="529.41 208.15 532.46 208.15 533.95 209.76 535.08 208.67 533.16 206.74 531.64 206.66 531.68 206.31 533.3 206.39 535.33 208.44 537.02 206.87 534.13 204.46 531.87 204.35 531.9 204.09 534.26 204.17 537.25 206.58 538.48 205.35 535.76 203.09 534.27 202.71 529.41 202.71 529.41 208.15"/>
        <polygon points="534.35 210.09 539.11 205.69 540.04 206.38 537.43 209.35 537.74 209.45 540.44 206.63 543.47 209.03 539.66 211.58 539.9 211.81 543.66 209.45 544.25 212.78 537.81 214.39 534.35 210.09"/>
        <polygon points="359.66 420.38 353.97 432.42 356.91 432.83 365.57 420.38 359.66 420.38"/>
        <polygon points="342.04 430.09 345.94 419.98 349.56 420.28 344.53 430.48 342.04 430.09"/>
        <polygon points="350.14 431.61 356.46 420.38 352.1 420.38 347.56 431.25 350.14 431.61"/>
        <path d="m314.87,160.44l.56,3.8-.56,1.48-4.29,3.97-4.77.26-2.76-1.83h-1.42s-.6,1.83-.6,1.83l-1.64.34-1.3-1.64s-1.98-2.61-1.98-2.68-.35-2.61-.35-2.61l1.1-3.52,10.29.09h7.08s.63.52.63.52Zm-8.46,1.32l-2.12,1.45-.19,1.57.97,1.68,1.9,1.34h3.09s2.39-2.4,2.39-2.4v-2.26s-1.86-1.38-1.86-1.38h-4.17Zm-10.16,2.01l.28,1.93,1.18,1.65h1.28s.49-1.95.49-1.95l-.07-2-1.12-1.16h-1.53s-.51,1.54-.51,1.54Z"/>
        <path d="m393.21,322.43l6.04,8.61-4.47,8.27-4.02.78-4.44-.81-2.38-8.92,3.02-6.71,6.26-1.23Zm-3.59,10.52s.58,1.08.58,1.08l1.39.48,1.7-1.13.5-1.09-.12-1.84-1.47-1.76-1.66.34-.9,2.22v1.71Z"/>
        <path d="m461.29,392.97l-3.37-5.74.91-47.93-2.18-2.24-2.81-5.31,1.19-9.34,6.34-4.14,4.61.89,5.14,10.73-5.69,8.72.55,51.43-4.7,2.91Zm-.22-68.24l-1.55,1.98-.1,3.27.63,1.44,1.02.91,2.11-.04,1.5-1.18.76-2.09-.4-2.53-1.77-1.45-2.2-.3Z"/>
        <polygon points="455.03 271.11 461.52 271.11 468.23 265.74 472.03 254.79 472.03 244.72 470.02 238.46 465.44 233.1 459.42 228.85 453.69 228.85 447.64 233.08 447.63 233.08 464.28 209.62 472.45 210.18 472.14 218.11 472.47 224.82 476.76 232.96 481.31 236.9 480.97 242.44 476.39 272.79 461.07 300.4 449.89 296.71 446.98 265.29 446.23 262.8 449.44 266.86 455.03 271.11"/>
        <path d="m459.42,233.32l5.31,3.34,3.94,8.96v8.5s-3.23,8.27-3.23,8.27l-3.01,2.91h-8.29s-4.92-4.25-4.92-4.25l-3.8-6.71-.67-8.83,2.24-7.94,5.59-4.25h6.85Zm-5.58,3.34l-3.44,3.12-2.07,5.5v8.39s5.59,7.16,5.59,7.16l6.79,1.1,4.34-4.46,1.84-10.29-4.4-8.39-8.65-2.14Z"/>
        <polygon points="460.96 242.04 464.28 247.6 463.16 254.67 459.42 258.25 454.79 257.5 451.64 252.77 451.61 245.39 454.59 241.15 460.96 242.04"/>
        <path d="m579.36,286.61l-4.02-2.76-4.23-4.99-3.41-4.84-1.68-4.66-.82-16.96,1.19-8.91,3.95-6.89,3.88-3.91,4.92-1.45,5.66,2.72,4.4,4.88,4.55,8.8s2.09,11.63,2.09,11.48,0,11.25,0,11.25l-2.68,7.7-3.58,5.04-4.17,3.13-6.04.37Zm-4.1-49.04l-5.07,4.87-2.16,4.15-1.24,6.87,1.38,16.08,2.01,4.1,6.1,7.9,4.34,2.11,5.51-.91,5.24-5.51,2.35-7.04.91-10.11-1.49-6.75-2.24-7.86-5.37-7.17-5.52-2.81-4.77,2.09Z"/>
        <path d="m577.79,279.16l-4.84-5.22-2.94-5.74-1.01-8.64-.04-7.09,2.16-6.11,3.06-3.92,3.31-2.14h3.88s3.73,2.14,3.73,2.14l3.58,3.77,2.24,5.14,1.49,4.84.75,4.32-1.6,8.72-2.09,5.83-3.84,4.38-4.84.85-2.99-1.15Zm6.71-3.13l2.68-2.83,2.53-5.66,1.19-6.71-.75-5.81-2.24-5.7-3.43-3.84-4.92-2.2-5.07,3.8-2.98,6.26v8.59s1.79,6.59,1.79,6.59l1.94,3.49,2.98,3.36,4.02,1.41,2.24-.75Z"/>
        <path d="m583.01,249.08l3.28,4.25,1.04,4.96v7.01s-1.49,4.32-2.16,4.7-3.95,1.12-3.95,1.12c0,0-3.13-2.83-3.43-3.43s-2.09-5.75-2.09-5.75c0,0,0-5.39.15-5.99s1.57-4.62,1.57-4.62l2.72-2.24h2.87Z"/>
      </g>
    </g>
    <g id="DogWheelsBlackv02">
      <g>
        <path d="m489.95,346.26l.65,12.35,1.91,8.86,2.88,8.68,3.65,6.22s5.49,6.9,5.93,7.35,5.03,3.99,5.03,3.99l5.35,2.34h9.74s7.66-2.06,7.66-2.06l3.75-1.68,5.24-3.83,3.51-4.29,2.33-4.62,2.4-5.53,2.86-10.64,2.13-12.6-.22-9.13-1.83-10.55-1.34-4.96-2.27-6.41-2.72-4.36-2.2-2.27-4.4-4.4-4.86,8.84-4.05,7.34.12.24.14.18.12.15c.65.84,1,1.43,1.77,2.54.53.76,1.49,2.1,2.03,2.87,1.02,1.46,1.95,2.99,3.05,4.39.88,1.11,2.25,1.95,3.65,2.68l-.31-.18c-.04-1.65-.15-3.69.09-4.11.24-.42.57-2.38.57-2.38,0,0,.78,2.35.92,3.34.14.97-.39,2.77-.16,3.87.5.24,1,.48,1.45.7.45.22.82.48,1.14.76.06.02.12.06.18.08.11-.08.22-.16.34-.23,2.28-1.35,5.53-.56,6.84,1.79.16.29.3.6.48.89.01-.29.01-.74-.08-1.01-.14-.42-.84-6.59-.84-6.59l-1.4-5.87-1.26-5.2-1.68-4.75-2.24-4.01,3.04,4.58,1.21,2.97,1.45,4.58.87,3.39.84,4.32s.84,4.91.98,5.64c.14.73.22,3.16.08,3.85l-.27-.44c.14.45.22.93.22,1.41.03.69-.12,1.33-.43,1.93-.2.62-.55,1.16-1.03,1.61-.52.48-1.13.88-1.79,1.15,2.64,2.7,1.56,8.51-3.26,8.64l.81.31s-1.31,5.69-1.31,6.11-1.82,4.19-1.82,4.22-3.3,6.4-3.3,6.4c0,0-2.85,5.03-3.13,5.1-.28.07-5.59,6.36-6.29,6.78-.7.42-5.45,2.1-5.45,2.1h-5.31s-4.05-1.68-4.05-1.68l-4.47-4.19-2.33-3-2.28-4.54,3.49,2.28,3.76,3.72,3.59,2.93s0,0,0,0c0,0,3.58,1.58,3.97,1.69.82.22,3.91,0,4.33,0s2.52-1.68,2.52-1.68l2.8-2.38,3.31-3.12,2.49-3.26,2.45-4.24,3.04-5.16s1.43-5.04,1.43-5.83c0-.62.53-2.02.77-2.61-.11-.02-.23-.03-.33-.05-.77.62-1.77,1.01-3.04,1.01-1.11,0-2.02-.3-2.75-.79-1.53-.04-2.67-.67-3.45-1.58-.15-.03-.3-.07-.45-.12,0,.17-.33.29-.33.29l-.21-.11s-3.63-.7-4.05-1.12-3.14-1.33-3.14-1.33c0,0,1.89-.49,2.45-.02s2.3.85,3.03.89c0,0,.16.08.43.21-2.23-2.41-1.64-7.1,1.78-8.29.02-.36.06-.72.15-1.06-2.49-1.36-4.78-2.92-6.58-5.23-1.03-1.33-2.21-2.78-3.31-4.29l-1.76,3.16-1.87.7-1.57-.89-3.13-3.51-3.8-2.84-3.74-2.38-5.62-4.2-3.21-2.39-2.46-4.55-2.14-2.35-.85-2.73-1,.98-2.05,3.95-1.71,3.8-1.04,4.99-1.04,8.42-.19,9.01Zm54.8-17.2c.11.82-1.09,1.14-1.23.72-.14-.42-1.4-1.96-1.2-2.38s-1.73-3.77-2.31-4.47c-.57-.7-1.8-4.33-2.08-4.75,0,0,.7-1.26.86-.98.16.28,2.36,2.38,2.72,3.07.36.7,2.43,4.05,3.24,5.17.81,1.12-.11,2.8,0,3.61Zm5.02,38.87s.55-2.08.97-3.31c.17-.48.49-2.38.51-2.75.11-1.81.97-4.59,1.05-5.48l.55-.41-1.9,8.77-1.18,3.17Zm-15.67,24.6s2.57-2.06,3.81-2.9c1.24-.84,5.33-5.76,5.33-5.76l2.95-5.35,1.71-4.02,1.48-3.39-.35,1.75s-2.45,6.82-3,8.01c-.56,1.19-2.97,4.36-3.72,5.22-.75.86-3.97,4.5-3.97,4.5l-4.25,1.96Zm-29.57-23.73l-3.59-4.09-2.7-7.39-1.26-12.02s.56-8.11.7-8.94c.14-.84,2.1-8.66,2.38-9.5.28-.84.61-1.84,1.31-3.28l1.07,2.64.6.39c-.17.46-.18.39-.6,3.37-.42,2.98-.84,6.8-.84,10.3s.56,9.92.56,9.92l.49,7.51,1.08,6.74.8,4.36Zm7.83-28.82c.14-.85-2.1-2.37-2.59-2.95-.49-.58-1.47-2.91-1.67-3.33l2.46,1.86s1.93,2.75,2.88,3.42c.95.68,1.57,3.2,1.57,3.2l-3.73,1.22-2.84-2.03-2.8-1.41v-.99s2.46.99,2.46.99c0,0,2.43,1.68,3.18,1.55.75-.14.93-.7,1.07-1.55Zm-6.71,10.87l4.12-3.82-.77-1.78-2.26-1.83v-1.07s2.26-.76,2.26,1.07,1.47,2.96,1.47,2.96c0,0,.21,1.44,0,1.58-.21.14-4.82,2.89-4.82,2.89Zm3.35,8.59l2.28-3.24,1.35-3.63h1.12s-.84,1.4-1.12,2.31c-.28.91-1.17,5.11-2.17,4.51-.72-.44-2.11.74-2.83,1.44l1.36-1.38Zm7.27-21.27l-.57.82s-2.08-1.79-2.25-1.96c-.17-.16-3.04-4.03-2.97-4.45s-2.03-2.24-2.03-2.24c0,0,4.61,3.49,5,4.32.39.83,1.57,1.27,1.57,1.27l1.26,2.24Zm1.12,15.93c-.28-1.12-1.82-4.19-1.69-4.82h.57s1.96,2.45,2.24,3.28c.28.84.84,1.82,1.12,2.31s1.68,2.45,2.52,2.45,2.38,1.4,2.8,1.4,2.1.72,2.1.72c0,0-1.82,1.79-3.21,1.84s-2.52-.75-4.05-1.3c-1.54-.56-2.1-4.75-2.38-5.87Zm1.96,14.7c.14-.58,2.02-3.1,2.02-3.1v1.41s-1.04,2.36-1.46,2.92-.52,2.37-1.1,3.28c-.58.91-2.54,3.01-2.54,3.01.14-.42,1.68-4.05,1.68-4.05,0,0,1.26-2.89,1.4-3.47Zm6.72.56c0,.52.03.96.12,1.09.28.42.84,4.05.84,4.05l-2.1-7.76-.84-1.75-1.26-.81s1.82-.03,2.24,0,1.12,2.56,1.12,2.56c0,0-.13,1.51-.12,2.61Zm-4.07-23.5l.84,3.09s.28,1.94,0,2.36c-.28.42,1.26,2.24,1.26,2.24l3.63,1.74v2.88s-2.38-.56-2.8-.84c-.42-.28-2.38-1.26-3.58-2.04-1.2-.78-.48-2.3-.62-2.71-.14-.42-.56-3.28-.56-3.28l-2.8-.33s-.98-2.39-1.12-3.09h1.68s1.96.84,1.96.84c0,0,.28-1.12.42-1.4.14-.28,1.68.56,1.68.56Zm5.63.51c-.6.75-1.16,2.17-.6,2.58.56.4,1.1,1.1.83,1.66s-2.09,1.09-2.09,1.09c0,0-1.12-1.65-1.68-2.42-.56-.77-1.26-4.04-1.26-4.04,0,0,1.16-3.05,1.99-2.77.84.28,2.25,1.34,2.31,1.53.06.19,1.08,1.62.49,2.37Zm1.57,6.2c-1.61.84-.49-1.54,0-2.8.49-1.26-.91-.98-1.47-1.82s1.4-.98,1.47-1.4.76-.26.76-.26l1.72,4.96s-.88.47-2.49,1.31Zm8.85,5.65l-1.09,2.83-2.85,3.66s.36-.77.69-1.52c.23-.52.43-1.03.49-1.26.14-.56,2.77-3.71,2.77-3.71Zm1.84,6.92s1.12-2.8,1.26-3.21c.04-.13.79-1.43,1-1.96l2.26.33c-.35.96-1.16,3.02-1.16,3.02l-.95,1.86.03,1.12-2.43-1.16Zm-8.25,11.18l2.38-1.82,1.82-2.24,1.54-1.16,1.26-3.18,1.26-.83,1.26.83v.86s-1.68,2.91-1.68,2.91l-1.96,3.35-2.38,2.4-2.24,1.14-1.26-2.28Zm-1.68-8.39l-2.03-8.56s3.01,7.44,3.03,8.56c.02,1.12,1.24-.83,1.24-.83l1.79-.8s-.67,1.63-1.09,2.49c-.42.86-2.04,1.23-2.04,1.23l-.9-2.1Zm-14.95,9.92l5.17,1.54h4.19s4.05-1.54,4.05-1.54h1.26s.98,2.1.98,2.1v1.26s-2.1,1.4-2.66,1.68c-.56.28-2.93.98-3.63.98s-3.77-1.6-3.77-1.6l-2.38-1.41-3.21-3Zm-1.26-5.59c.7-.7.84-3.35,1.26-4.33.42-.98,2.1-3.63,2.1-4.61,0-.64.36-2.67.61-3.99.13-.69.23-1.18.23-1.18v5.17s-1.26,2.96-1.4,3.79c-.14.83-.85,4-.85,4l-1.94,4.23s-.7-2.38,0-3.07Zm-2.47-8.09c-.89.4-2.84,1.71-2.84,1.71v-1.18s2.84-2.78,2.84-2.78l4.41-5.01s-1.44,3.71-2.25,4.36c-.81.65-1.27,2.5-2.16,2.9Zm-2.28,8.09l-.98-3.7s-.85-2.21-.84-2.26l2.28,3.87,1.05,1.82,1.94,3.3-1.18-.79-2.28-2.24Zm-16.49-10.34s1.54,5.41,1.82,6.48c.28,1.07,2.66,7.92,2.66,7.92l3.49,5.75,6.71,7.16,5.17,4.15,4.47,2.38h-1.14s-4.4-1.68-4.4-1.68l-4.66-3.49s-3.21-3.4-3.91-4.5c-.7-1.09-3.35-4.01-3.35-4.01,0,0-1.82-3.37-2.38-4.21-.56-.84-2.38-5.59-2.52-6.01s-1.96-9.92-1.96-9.92Zm-1.91-25.99l.93-5.78,1.12-6.29,2.05-4.75,1.6-2.94,1.02,2.11,1.27,1.16-2.78,6.65-1.86,7.22-1.12,5.66-.61,4.43-.33,6.36v9.61s-1-5.21-1-5.21l-.3-6.22v-12.02Z"/>
        <path d="m629.86,410.92c-5.07,2.96-14.49,5.98-24.77,2.63-3.68-1.2-6.64-2.87-8.03-4.32-.7-.73-1.18-1.39-2.12-2.83-1.21-1.85-3.3-5.5-4.88-9.02-1.33-2.96-3.21-10.05-4.21-14.55-1.05-4.7-.72-1.94-1.5-7.63-.34-2.47-.42-7.15-.36-11.75.1-7.74.72-10.82.97-12.43.35-2.23.98-6.5,1.27-7.83.6-2.77.37-1.29,2.27-8.3,1.04-3.82,2.12-6.01,2.83-7.62.68-1.52,2.83-6.15,3.4-7.34,2.4-5.03,3.06-5.56,4.69-8.27,2.09-3.47,4.2-5.01,5.89-6.34,2.61-2.05,3.33-2.4,4.53-2.96.66-.31.46-.11,4.14-1.01,3.27-.79,3.86-.45,5.37-.22,1.84.27,2.18.52,5.11,1.51,5.76,1.96,6.03,2.22,7.8,3.99,1.9,1.9,4.9,6.27,6.32,8.76,4.46,7.85,3.98,6.42,5.81,11.26,2.96,7.82,3.85,10.95,4.56,19.23,1.31,15.51-.83,24.89-3.18,34.78,0,0-6.96,20.52-9.53,24.04-.57.78-1.98,2.76-2.52,3.35m-2.98-102.32l-7.83-2.61-5.47-1.99-7.94,1.99c-2.32,1.68-4.63,3.35-6.95,5.03,0,0-.25.47-.25.48-.62,1.19-7.48,14.36-8.09,15.53l-1.49,19.59,2.24,20.12v-6.34s5.22-17.89,5.22-17.89l3.35-14.77,6.34-11.01,10.43-6.26,7.87.28c2.22,1.52,4.44,3.04,6.67,4.56,1.99,2.56,3.98,5.12,5.96,7.68h0l-10.06-14.39Zm-10.66,97.01c-.12,0,4.98,0,4.98,0l4.79-2.54,5.87-6.89,5.87-12.11,1.75-10.78-.09-5.39-2.03-8.11-.42,9.53-1.05,7.57-1.23,4.33-3.7,9.5-5.17,8.52-3.92,3.49-5.64,2.86Zm-3.82-4.47c-.12,0,4.93-.82,4.93-.82l4.24-3.14,3.59-4.84,5.38-11.68,1.89-9.48.42-4.93-.98-8.5-.7,8.5-1.12,9.81-2.24,6.97-2.58,5.46-4.96,8.39-4.99,3.05-2.87,1.21Zm2.27,1.68c-.12,0,5.34-1.23,5.34-1.23l4.3-3.93,4.68-6.11,4.07-8.84,1.8-5.95.56-5.21-.63-6.92-.42,6.54-1.26,6.64-2.49,6.53-3.73,7.09-5.04,7.06-2.57,1.96-4.61,2.38Zm-12.3-26.06l2.38-.84,1.82-4.61.28-.7,1.54-3.86v-4.24s0-.79,0-.79l-.84,2.05-.7,2.98-2.38,6.38-.98,1.54-1.12,2.1Zm10.53-29.77l1.35.7.98-2.8,1.12-2.8,1.12-3.91,1.35-7.55v-2.8s-.65,1.82-.65,1.82l-1.68,8.94-1.26,3.07-1.54,3.35-.79,1.96Zm12.25,10.76l2.1-2.66,2.19-3.49,2-3.91,1.4-3.77v-2.66s-.56-.56-.84,0-1.4,3.63-1.4,3.63c0,0-1.49,2.52-1.16,2.8s-.44,2.66-.44,2.66c0,0-1.33,1.82-1.47,2.24s-2.38,2.93-2.38,2.93v2.24Zm-9.29-2.45l2.02-2.86,2.24-.98.84-1.26h-.98s-2.1.84-2.1.84l-2.02,2.1-2.13,5.24-.83,2.03,2.96-5.1Zm7.42,11.7l.76,5.28v15.93s.08,2.15.08,2.15l.93-1.57c.28-.52.11-16.65.11-16.65l.36-5.4.61-3.96s3.21-3.91,2.86-4.33,3.28-6.15,3.28-6.15l.56-2.92.7-2.67-.7-.98-4.47,10.2-2.24,2.66-.98,3.12-1.26,3.73-.62,1.57Zm-8.61,4.16l-1.77-5.17v-4.29s-1.59,3.17-1.87,4.01-2.8,5.03-2.66,5.45-1.82,4.47-2.1,5.59-2.1,5.31-2.38,5.73-1.41,3.21-1.41,3.21l1.28-.42s2.1-4.19,2.38-4.75,2.89-4.84,2.89-4.84l2.05-2.8.84-.89,2.75-.84Zm-11.32-25.26s2.52-9.12,2.93-10.1,2.8-4.61,2.8-4.61c0,0,2.8-2.93,3.21-3.35s3.35-1.96,3.57-2.1,4.54.14,5.1.14,5.03,1.26,5.45,1.26,1.26-.98,1.26-.98l-2.52-2.24-4.19-1.72h-5.1c-.91,0-3.55,1.88-3.55,1.88l-4.86,4.96-2.07,4.5-1.33,4.22-2.52,9.36-1.12,6.32s-.37,2.92-.42,3.18l3.35-10.73Zm10.48,9.4l3.1-6.3-1.07.38s-2.73-.71-2.96-.85-2.01-1.82-2.01-1.82c0,0-1.82-3.07-2.38-3.77s-1.82-3.52-1.82-3.52l-.56,1s.7,1.96,1.26,2.52,2.52,3.49,2.52,3.49c0,0,1.12,5.03,1.4,6.29.28,1.26.84,5.45.84,5.87l1.68-3.28Zm4.98-7.62c.37.14,2.98.7,2.98.7,0,0,.14-3.07.28-4.19s.14-4.47.14-6.43c0-1.96.28-5.17.98-6.15.7-.98-1.12-3.63-1.12-4.75s-1.12.98-1.12.98c0,0-.42,2.52,0,3.21s-1.82,4.61-2.14,5.03-2.05,4.54-2.47,6.01-.56,4.05-.49,4.75c0,0,2.58.7,2.96.84Zm-6.52,25.57l-1.96,2.93v2.8s1.05,6.41,1.05,6.41l.89,5.5.63,5.15.99,4.47,1.37-.58.57-2.77s-.05-5.87.02-6.71.07-6.15,0-6.94-.07-5.22-.02-5.78-1.17-5.03-1.17-5.03l-2.38.56Zm-1.26-16.63c-.28-.84.02-4.61-.76-5.17s-1.75-4.33-1.75-4.33c0,0-.84-2.8-1.26-3.07l-1.89-1.26c-1.19.35,0,3.77,0,3.77,0,0,1.89.28,2.03,1.12s.56,3.63,1.12,4.33,1.83,2.1,1.75,2.66l.76,1.96Zm-12.01,5.45s-.34,5.87-.34,6.29c0,.42.75,8.39.75,8.39,0,0,.98,5.73,1.26,6.75.28,1.02,1.12,5.64,1.4,6.73s3.96,6.36,3.96,6.36c0,0,4.55,4.5,4.64,4.45s-4.4-5.33-4.4-5.33l-2.9-4.7-1.35-5.12-1.21-4.75-.33-3.72-.47-5.19-.45-6.1.07-4.43-.07-3.96-.55,4.33Zm-12.26-30.33l-2.74,9.01s-1.22,4.61-1.22,5.17c0,.56-1.49,8.04-1.63,8.59-.14.56-.62,7.96-.63,8.38,0,.42-.1,12.21-.02,13.14.08.93,1.47,8,2.01,10.46.31,1.39,2.98,11.55,3.13,12.06.15.52,3.8,7.69,3.8,7.69,0,0,3.6,5.23,3.85,5.58.25.36,2.89,2.19,2.89,2.19l3.77,1.7h1.26s-3.88-1.77-3.88-1.77l-3.28-2.34-6.57-10.94s-3.27-10.14-4.11-14.17c-.84-4.03-1.68-10.33-1.96-12.77-.28-2.44.4-17.11.4-17.11l4.91-24.88Zm34.18,63.96l2.24-3.79v-.91s0-5.17,0-5.17v-7.41s0-6.71,0-6.71l-.84-2.49-1.84,3.55.43,22.93Zm-7.12-28.97c-.28,1.15,2.01,3.73,3.1,3.87s4.03.94,4.03.94c0,0,.98-2.41,1.68-3.18s.72-2.24.72-2.24c0,0-1.23,2.1-1.6,2.24s-1.56.75-2.15.86-2.13-.3-2.83-.86-2.52-2.24-2.52-2.24l-.42.61Zm2.08-5.03s-.29,2.22,0,2.49.63,2.03,1.02,2.55,1.88.8,1.88.8l1.44-.8-1.68-.61s-1.9-1.36-1.65-1.94,0-2.49,0-2.49h-1.02Zm7.44-1.74l-1.79,4.22s-1.16-.44-1.3-.58.84-2.66,1.3-3.35.93-3.63.93-3.63l-1.54,1.12s-1.68,2.8-1.36,3.21-.78,2.18-.78,2.18c0,0,1.02,2.57,1.44,2.99s1.49,0,1.49,0c0,0,1.72-1.82,1.6-2.38-.03-.12,0-.35.06-.65.22-1.12.9-3.13.9-3.13h-.96Zm-3.08-5.37h-1.44s-.79.77-.79.77l-1.81,2.1-.12,1.41,1.1-.22-.17,1.75,1.01-1.75,1.58-3.28,1.36-.77h-.7Zm24.2.7l-.14,8.18-.92,8.29-1.53,7.27-2.34,9.18-4.4,12.11-3.63,7.57-2.16,2.82-2.85,2.58,2.75-2.03,2.47-3.1,3.49-6.68,4.68-12.21,3.52-12.53,1.37-9.05.49-9.12-.56-8.39-1.3-9.19,1.06,14.29Z"/>
      </g>
    </g>
  </g>
</svg>