<?xml version="1.0" encoding="UTF-8"?>
<svg xmlns="http://www.w3.org/2000/svg" viewBox="0 0 745.86 592.78">
  <defs>
    <style>
      .cls-1 {
        fill: #797979;
      }

      .cls-2 {
        fill: #fff;
      }

      .cls-3 {
        fill: none;
        stroke: #000;
        stroke-miterlimit: 10;
        stroke-width: 0px;
      }

      .cls-4 {
        fill: gray;
      }
    </style>
  </defs>
  <g id="Black_on_White_Logo_Grayscale" data-name="Black on White Logo Grayscale">
    <g id="WhiteBackGround_copy" data-name="WhiteBackGround copy">
      <rect class="cls-1" x="213.1" y="105.3" width="416.49" height="431.11"/>
      <rect class="cls-2" x="58.65" y="0" width="687.2" height="592.78"/>
    </g>
    <g id="Border_Eye_Cutv03_Black_copy" data-name="Border Eye Cutv03 Black copy">
      <path d="m597.7,102.39c-6.86,8.12-13.65,16.16-20.59,24.37,35.61,68.03,71.12,135.86,106.62,203.69-37.46,71.54-74.76,142.79-112.06,214.03-116.17,0-232.2,0-348.26,0-8.27,9.74-16.52,19.46-25.05,29.51,130.89,0,261.16,0,391.42,0,42.48-81.14,84.9-162.16,127.51-243.53l-119.57-228.07Z"/>
      <path class="cls-4" d="m322.56,110.83l1.56-5.31v-1.7s-1.75-9.05-1.75-9.05l-.78-.6,4.24-4.45-2.59-2.67h-139.44c-102.28,153.49-105.01,299.52-10.05,470.17,6.85-8.15,13.54-16.12,21.2-25.25-77.91-138.85-84.92-277.54,6.22-414.94h114.97s2.74-2.65,2.74-2.65l3.69-3.56Z"/>
      <polygon class="cls-2" points="346.33 109.66 346.92 111.03 354.76 109.75 356.99 109.67 366.26 105.52 368.92 103.7 368.77 100.99 366.4 97.82 364.25 95.4 362.91 94.77 349.27 91.6 347.48 91.82 349.08 97.62 345.95 107.99 346.33 109.66"/>
      <path class="cls-4" d="m400.18,92.87l5.44,5.44,1.19,2.68,9.64,16.05h129.98c8.35-9.91,16.74-19.85,25.28-29.98h-166.48s-5.05,5.81-5.05,5.81Z"/>
      <polygon class="cls-2" points="322.19 94.18 321.35 93.59 317.52 98.13 317.52 98.79 317.07 106.41 318.41 114.03 319.19 114.83 321.73 112.63 323.17 110.83 324.72 105.52 324.72 103.82 322.97 94.77 322.19 94.18"/>
    </g>
    <g id="Logo_Text_RDRTv03_Black_copy" data-name="Logo Text RDRTv03 Black copy">
      <g>
        <path class="cls-4" d="m191.71,428.83c-.46.05-.91.11-1.47.17-.04.34-.09.66-.11.99-.22,3.12.09,6.15,1.53,8.99.12.24.14.53.21.8-.08.37-.22.75-.22,1.12-.01,7.25,0,14.51-.01,21.76,0,1.58-.27,1.85-1.83,1.86-2.18,0-4.36,0-6.55,0-1.59,0-1.86-.26-1.88-1.82,0-.31-.05-.62-.07-.93h7.51v-49.81h9.7v2.82h-6.87c0,.52,0,.89,0,1.25,0,3.21,0,6.42,0,9.62,0,1.06.05,2.11.07,3.17Z"/>
        <path class="cls-4" d="m201.15,461.79h8.44c-.08-.55-.06-.97-.19-1.33-1.56-4.33-3.14-8.65-4.72-12.98-1.34-3.68-2.69-7.36-4.03-11.04-.06-.16-.1-.34-.16-.54,1.24-.11,2.42-.16,3.58-.34,2.5-.39,3.89-1.94,4.07-4.47.02-.22.02-.44.02-.65,0-7.1.02-14.21,0-21.31,0-.89-.23-1.78-.35-2.66,1.19.18,1.93,1.02,2.42,1.97.4.78.66,1.72.66,2.59.05,7.42.07,14.84.01,22.26-.02,2.5-1.67,5.14-5.76,5.23-.57.01-1.14.09-1.89.15.66,1.84,1.26,3.5,1.86,5.15,2.27,6.26,4.56,12.53,6.82,18.8.16.45.17.95.27,1.6-.58.13-1.04.31-1.51.31-2.37.03-4.74-.02-7.12.03-1.03.02-1.66-.36-1.95-1.34-.14-.47-.32-.94-.48-1.41Z"/>
        <path class="cls-4" d="m304.67,461.5c2.63.83,5.26.23,7.87-.07,1.76-.2,3.51-.53,5.31-.81.12.35.23.68.36,1.06h8.82c.05-.39.13-.75.13-1.11,0-10.48.01-20.96,0-31.44,0-.86-.16-1.73-.24-2.59,1.29.2,2,1.15,2.43,2.21.35.87.56,1.87.56,2.81.04,10.44.03,20.89.02,31.33,0,1.3-.32,1.61-1.59,1.62-1.75,0-3.5-.02-5.24.01-1.2.02-2.4.1-3.09-1.05-2.82.34-5.53.7-8.25.99-1.84.2-3.66.25-5.36-.76-.88-.52-1.48-1.22-1.72-2.21Z"/>
        <path class="cls-4" d="m408.59,461.78c1.18-.01,2.36-.03,3.54-.04,1.18,0,2.36,0,3.64,0,.06-.45.15-.8.15-1.15,0-10.58.02-21.17-.01-31.75,0-.89-.24-1.77-.37-2.66,1.81.59,2.95,1.98,3.01,3.84.06,1.99.05,3.99.05,5.99,0,8.86,0,17.71,0,26.57,0,1.7-.25,1.94-1.94,1.95-2.06,0-4.12,0-6.18,0-1.46,0-1.83-.37-1.86-1.8,0-.31-.02-.62-.03-.93Z"/>
        <path class="cls-4" d="m392.29,461.77h7.24v-29.81h6.76v2.67c-1,0-1.99,0-2.99-.02-.71-.02-1.02.3-1.01,1.01.02,1.81,0,3.61,0,5.42,0,7.19,0,14.38,0,21.58,0,1.64-.26,1.9-1.88,1.9-2.12,0-4.24,0-6.36,0-1.37,0-1.68-.32-1.71-1.72,0-.34-.04-.68-.06-1.02Z"/>
        <path class="cls-4" d="m284.21,454.42h-2.75v-9.12h13.31c.7-.75,1.49-1.54,2.21-2.4.21-.25.31-.68.31-1.02.02-4.33.03-8.66,0-12.99,0-.8-.2-1.59-.31-2.39.98.12,1.74.67,2.1,1.51.42,1.01.83,2.12.85,3.19.1,4.36.07,8.72.01,13.08,0,.58-.33,1.26-.72,1.71-.72.84-1.6,1.54-2.41,2.3-.06-.02-.12-.03-.19-.05-.28-.08-.56-.22-.83-.22-3.48-.02-6.97-.01-10.45,0-.33,0-.66.06-1.13.11v6.28Z"/>
        <path class="cls-4" d="m237.78,448.31c-.06-.02-.12-.03-.19-.05-.28-.08-.56-.22-.83-.22-3.48-.02-6.97-.01-10.45,0-.33,0-.66.06-1.13.11v6.28h-2.75v-9.12h13.31c.7-.75,1.49-1.54,2.21-2.4.21-.25.31-.68.31-1.02.02-4.33.03-8.66,0-12.99,0-.8-.2-1.59-.31-2.39,1.71.53,2.94,2.19,2.97,4.31.06,4.54.04,9.09,0,13.64,0,.47-.31,1.01-.64,1.37-.78.87-1.66,1.66-2.5,2.48Z"/>
        <path class="cls-4" d="m334.2,461.77h7.25v-29.8h5.51v2.8c-3.34-.21-2.75-.07-2.75,2.38-.02,8.5,0,17,0,25.51,0,1.58-.28,1.85-1.84,1.86-2.15,0-4.3,0-6.45,0-1.39,0-1.64-.26-1.66-1.62,0-.37-.04-.74-.06-1.12Z"/>
        <path class="cls-4" d="m245.63,461.32c1.13.14,2.27.39,3.4.4,4.31.05,8.61.03,12.92.01.68,0,1.38-.04,2.04-.17,2.14-.44,3.49-1.94,3.53-4.1.07-3.49.05-6.98,0-10.47,0-.66-.34-1.31-.51-1.96,2,.81,3.3,2.67,3.31,4.87.02,3.05-.01,6.11.01,9.17.03,3.75-1.84,5.3-5.24,5.4-4.96.16-9.92.07-14.88.02-2.39-.03-3.85-1.12-4.58-3.16Z"/>
        <path class="cls-4" d="m363.1,461.53c5.85.06,11.7.16,17.55.17,2.54,0,4.27-1.64,4.41-4.15.14-2.55.09-5.1.13-7.65,0-.31.03-.62.05-.92,2.51-.15,2.62-.04,2.62,2.41,0,2.65.02,5.3-.01,7.95-.03,3.14-2.01,5.15-5.15,5.17-5.12.03-10.24.02-15.35,0-1.42,0-2.73-.44-3.66-1.57-.31-.37-.4-.92-.59-1.38Z"/>
        <path class="cls-4" d="m275,461.38c1.14.12,2.28.34,3.41.34,4.71.03,9.43.04,14.14-.02,2.79-.03,4.46-1.58,4.64-4.33.14-2.23.11-4.48.16-6.72q2.63-.09,2.63,2.54c0,1.75.07,3.49-.03,5.23-.07,1.23-.24,2.49-.62,3.64-.41,1.22-1.51,1.87-2.74,2.17-.63.15-1.29.25-1.94.25-4.96.02-9.92.04-14.88-.02-.88,0-1.8-.25-2.62-.57-1.12-.44-1.87-1.31-2.15-2.52Z"/>
        <path class="cls-4" d="m215.97,461.38c1.14.12,2.27.34,3.41.34,4.71.03,9.42.04,14.14-.02,2.79-.03,4.47-1.58,4.64-4.33.14-2.29.1-4.59.14-6.89.19.01.37.04.56.04,1.93.03,2.09.19,2.09,2.08,0,2.18.01,4.37,0,6.55-.03,3.23-1.91,5.28-5.12,5.33-5.15.08-10.3.08-15.45-.02-2.01-.04-3.87-.95-4.4-3.08Z"/>
        <path class="cls-4" d="m372.3,453.64h-2.76v-21.78h6.25v2.74c-.87-.01-1.74-.02-2.61-.04-.61,0-.93.27-.93.9.01,6.06.03,12.12.04,18.17Z"/>
        <path class="cls-4" d="m349.17,440.32c1.96-.02,3.91-.04,5.87-.06.4,0,.8-.04,1.46-.08-.15-4.65.35-9.26-.32-13.85,1.7.51,2.93,2.17,2.97,4.3.06,3.68.03,7.36.02,11.03,0,.84-.5,1.31-1.36,1.32-2.4.02-4.81.01-7.21,0-1,0-1.31-.35-1.35-1.37-.02-.43-.06-.87-.08-1.3Z"/>
        <path class="cls-4" d="m378.05,438.19h7.16c-.22-4.03.39-7.92-.42-11.8,1.18.08,1.88.93,2.34,1.8.44.85.66,1.9.69,2.87.09,2.77.04,5.55.03,8.33,0,1.21-.34,1.53-1.58,1.53-2.15,0-4.31,0-6.46,0-1.38,0-1.68-.32-1.7-1.71,0-.34-.04-.68-.06-1.03Z"/>
        <path class="cls-4" d="m260.58,436.84h6.97c-.21-3.59.37-7.04-.42-10.47,1.4.27,2.3,1.16,2.62,2.48.28,1.13.38,2.33.42,3.5.07,1.87.05,3.74,0,5.61-.02.54-.28,1.07-.43,1.62-2.81,0-5.4.02-7.98-.01-.69,0-1.07-.46-1.11-1.15-.03-.53-.04-1.06-.06-1.59Z"/>
        <path class="cls-4" d="m402.27,424.46c-.84.16-1.67.31-2.57.48-.03-.37-.06-.61-.06-.86,0-6.03,0-12.06-.01-18.08,0-.09.03-.18.05-.27.84.06,1.67.11,2.6.18v18.56Z"/>
        <path class="cls-4" d="m304.6,436.31h6.55v-5.19h6.92v2.75c-.99-.02-1.98-.02-2.97-.07-.78-.03-1.14.29-1.12,1.09.03,1.14.02,2.29.02,3.43-1.71,0-3.42-.03-5.12.04-1.33.06-2.65.25-3.97.39-.1-.81-.21-1.63-.31-2.44Z"/>
        <path class="cls-4" d="m254.9,437.06c-.89-.5-1.77-.99-2.65-1.48v-4.38h6.1v2.63c-.72,0-1.44,0-2.15,0-1.09,0-1.21.13-1.22,1.26-.01.65-.04,1.31-.06,1.96Z"/>
        <path class="cls-4" d="m246.15,442.27c1.22.68,2.44,1.35,3.64,2.05,2.85,1.67,5.69,3.35,8.54,5.03v1.15c-.69-.34-1.4-.64-2.07-1.02-1.74-1-3.5-1.99-5.19-3.07-1.48-.95-2.91-1.99-4.31-3.06-.3-.23-.41-.71-.61-1.08Z"/>
        <path class="cls-4" d="m255.05,454.28h-2.82v-4.03c.18.02.37.05.55.06,2.01.08,2.18.26,2.19,2.31,0,.55.05,1.11.08,1.66Z"/>
        <path d="m187.77,460.55h-7.41v-56.02h.99c6.74,0,13.49,0,20.23,0,.4,0,.81.03,1.21.05,2.87.18,4.19,1.49,4.2,4.38.03,7.17.04,14.35,0,21.52-.02,2.79-1.54,3.88-3.44,3.98-1.06.06-2.12.12-3.17.18-.39.02-.79.07-1.38.13.14.61.21,1.11.37,1.58,2.83,7.78,5.67,15.55,8.5,23.33.09.26.17.52.27.84h-7.62c-.76-2.14-1.55-4.32-2.32-6.51-2.14-6.04-4.23-12.1-6.46-18.11-.72-1.94-.33-3.86-.52-5.94h8.35v-19.15h-11.82v49.72Z"/>
        <path d="m398.48,426.26c1.45-.21,2.64-.39,3.83-.55,2.5-.33,5-.67,7.51-.95.7-.08,1.44-.03,2.14.08,1.59.24,2.48,1.2,2.7,2.78.06.4.1.81.1,1.21,0,10.38,0,20.77,0,31.15v.53h-7.26v-29.74c-2.99-.27-5.9.08-8.95.05v29.69h-7.25v-55.93h7.18v21.67Z"/>
        <path d="m251.07,449.32v6.12c2.83.11,5.58.07,8.42.02v-6.76c-.28-.18-.56-.37-.85-.54-3.89-2.3-7.76-4.64-11.69-6.86-1.99-1.12-2.91-2.64-2.81-4.93.12-2.71.01-5.43.13-8.13.09-2.11,1.28-3.31,3.39-3.34,5.09-.07,10.18-.07,15.27,0,2.05.03,3.23,1.16,3.33,3.19.12,2.48.03,4.97.03,7.52h-6.73v-5.59c-2.9-.12-5.67-.23-8.48.06v6.09c.31.21.63.45.97.65,3.92,2.3,7.83,4.64,11.78,6.89,1.81,1.03,2.68,2.43,2.6,4.56-.1,2.74-.01,5.49-.03,8.23-.02,2.87-1.24,4.09-4.13,4.09-4.62.01-9.24,0-13.86,0-2.87,0-4.03-.99-4.18-3.83-.13-2.45-.03-4.91-.03-7.43h6.86Z"/>
        <path d="m383.96,436.96h-6.96v-6.31c-2.92-.02-5.72-.03-8.57,0v24.06h8.53v-6.91h7.04c0,.68,0,1.33,0,1.97,0,2.37.04,4.74-.04,7.11-.08,2.54-1.28,3.67-3.83,3.69-4.24.03-8.49.02-12.74,0-1.12,0-2.25.01-3.35-.16-1.59-.25-2.4-1.17-2.64-2.73-.08-.55-.13-1.12-.13-1.67,0-8.86,0-17.71,0-26.57,0-.4,0-.81.05-1.21.25-2.2,1.38-3.33,3.62-3.35,5.15-.05,10.3-.06,15.45,0,2.29.02,3.5,1.2,3.56,3.46.08,2.86.02,5.72.02,8.62Z"/>
        <path d="m280.33,444.19v11.31h8.88v-6h6.76c.05.11.11.2.11.28,0,2.43.05,4.87-.03,7.3-.07,2.24-1.29,3.38-3.55,3.49-1,.05-2,.02-3,.02-3.9,0-7.81,0-11.71,0-.62,0-1.25-.05-1.85-.19-1.35-.31-2.17-1.17-2.4-2.54-.1-.61-.15-1.24-.15-1.86,0-8.86,0-17.72,0-26.58,0-.31,0-.62.03-.93.2-2.4,1.35-3.58,3.77-3.61,5.06-.05,10.12-.02,15.18-.01.31,0,.62.06.92.12,1.75.37,2.72,1.36,2.76,3.14.08,3.99.05,7.98.07,11.98,0,.68,0,1.37,0,2.03-.68.67-1.33,1.31-2.09,2.05h-13.69Zm-.03-4.46h8.86v-9.79h-8.86v9.79Z"/>
        <path d="m237.08,442.13c-.68.66-1.33,1.29-2.11,2.05h-13.66v11.31h8.87v-5.99h6.9c0,.63,0,1.24,0,1.85,0,1.87.03,3.74-.04,5.61-.1,2.43-1.34,3.59-3.83,3.61-3.47.04-6.93.01-10.4,0-1.59,0-3.19.03-4.78-.03-2.29-.09-3.4-1.16-3.64-3.44-.04-.43-.04-.87-.04-1.31,0-8.73,0-17.47,0-26.2,0-.12,0-.25,0-.37.02-3.16,1.22-4.38,4.35-4.39,4.72-.02,9.43-.02,14.15,0,2.99.01,4.21,1.22,4.23,4.2.02,4.37,0,8.73,0,13.09Zm-15.78-12.21v9.79h8.86v-9.79h-8.86Z"/>
        <path d="m319.14,439.44v-9.47h-8.94v5.11h-6.39c0-2.5-.15-5.01.05-7.5.15-1.76,1.43-2.65,3.39-2.69,3.25-.07,6.49-.04,9.74-.04,1.84,0,3.69-.04,5.52.04,2.23.09,3.47,1.34,3.48,3.56.03,10.6.02,21.21.02,31.81,0,.09-.04.17-.06.29h-6.66c-.08-.35-.15-.7-.26-1.22-.7.08-1.36.14-2.02.22-3.28.4-6.55.86-9.84,1.16-1.44.13-2.85-.27-3.51-1.79-.26-.61-.41-1.32-.41-1.99-.02-4.68-.05-9.35.06-14.03.05-2.12,1.25-3.25,3.41-3.3,3.68-.09,7.37-.05,11.05-.08.45,0,.9-.06,1.37-.1Zm.02,15.65v-10.91h-8.98v11.25c3.07-.12,6.02-.23,8.98-.34Z"/>
        <path d="m333.21,424.88h7.07c.08.41.15.8.24,1.3.49-.05.91-.07,1.33-.13,2.86-.43,5.72-.89,8.59-1.3.58-.08,1.18-.04,1.77.03,1.95.24,3,1.29,3.03,3.27.06,3.64.02,7.29.02,10.99h-7.11v-8.24h-7.71v29.75h-7.22v-35.68Z"/>
        <path class="cls-4" d="m284.25,438.64h-2.77v-7.58h6.6v2.63h-3.58c-.6,1.61-.26,3.3-.25,4.95Z"/>
        <path class="cls-4" d="m225.22,438.64h-2.77v-7.58h6.6v2.63h-3.52c-.71,1.61-.3,3.3-.3,4.95Z"/>
        <path class="cls-4" d="m314.07,454.1c-.92.05-1.83.1-2.79.15v-8.98h6.8v2.82h-4.01v6.01Z"/>
      </g>
      <g>
        <path d="m164.17,387v-55.96c.3-.02.57-.05.84-.05,5.08,0,10.17,0,15.25,0,2.82,0,5.53.38,7.82,2.25,2.25,1.84,3.2,4.29,3.39,7.11.02.28.05.56.05.84,0,12.01.01,24.02-.04,36.02-.01,3.75-1.48,6.78-4.91,8.62-1.57.84-3.28,1.19-5.04,1.2-5.68.03-11.35.01-17.03,0-.09,0-.18-.02-.34-.04Zm7.46-49.78v43.47c.23.06.43.17.63.17,2.34,0,4.68.07,7.01-.07.92-.05,1.9-.41,2.7-.89,1.79-1.07,2.09-2.89,2.09-4.8,0-10.72,0-21.45,0-32.17,0-.44,0-.87-.06-1.31-.27-2.37-1.46-3.8-3.8-4.2-1.43-.24-2.91-.16-4.37-.19-1.36-.03-2.73,0-4.2,0Z"/>
        <path d="m245.23,352.65c.09-.51.16-.9.23-1.32h7.1v.9c0,14.66,0,29.32,0,43.99,0,.62-.04,1.25-.18,1.85-.34,1.45-1.56,2.42-3.26,2.43-5.3.04-10.61.05-15.91,0-1.96-.02-3.25-1.16-3.38-3.06-.14-2.04-.03-4.1-.03-6.2h6.85v4.38c2.94.06,5.76.03,8.64.02v-8.72c-.48-.04-.88-.09-1.27-.09-2.93-.03-5.87.09-8.79-.1-3.71-.24-5.97-2.61-6.01-6.33-.08-7.77-.09-15.53,0-23.3.05-4.11,2.93-6.42,7.03-5.85,2.59.36,5.16.84,7.74,1.26.36.06.73.08,1.25.14Zm.06,4.9c-.31-.08-.48-.14-.67-.16-1.52-.14-3.04-.29-4.56-.4-2.52-.17-3.74.97-3.75,3.47-.01,2.46,0,4.93,0,7.39,0,3.37-.02,6.74,0,10.11.01,2.1,1.07,3.2,3.12,3.28,1.18.05,2.37.02,3.56.03.74,0,1.47,0,2.3,0v-23.72Z"/>
        <path d="m222.09,369.1c0,4.33,0,8.67,0,13,0,.34,0,.69,0,1.03-.07,2.7-1.28,3.9-4.01,3.91-3.15.02-6.3,0-9.45,0-1.78,0-3.55,0-5.33,0-3.19,0-4.39-1.2-4.4-4.42,0-7.89,0-15.78,0-23.66,0-1.22-.03-2.43,0-3.65.08-2.75,1.29-3.99,4.05-4.01,5.05-.04,10.1-.03,15.15,0,2.75.02,3.96,1.27,3.98,4.05.02,4.58,0,9.17,0,13.75Zm-7.13,12.09v-23.89c-1.24-.4-8.34-.27-8.89.12v23.77h8.89Z"/>
        <path class="cls-4" d="m186.7,390.65c-.12.01-.23.03-.35.04-.86.03-1.72.09-2.58.09-5.45,0-10.9.02-16.35,0-.68,0-1.37-.24-2.05-.37-.07-.68-.14-1.36-.21-2.04.04-.04.06-.09.06-.15,5.55-.02,11.1.04,16.65-.06,6.47-.12,10.78-4.54,10.81-11.02.03-7.86,0-15.71,0-23.57,0-4.15.02-8.29,0-12.44-.02-2.07-.34-4.09-1.44-5.91.18.02.44-.03.52.06.86,1.05,1.91,2.02,2.49,3.21.84,1.74,1.07,3.67,1.07,5.63-.03,11.54,0,23.08-.04,34.62,0,1.45-.22,2.92-.55,4.33-.67,2.88-2.41,4.99-5.01,6.39-.23.12-.42.34-.63.51-.4.12-.8.24-1.21.35-.14.05-.27.09-.41.14-.11.02-.23.04-.34.05-.14.04-.27.08-.41.13Z"/>
        <path class="cls-4" d="m231.88,402.7s-.03-.09-.06-.13c-.12-.42-.24-.84-.36-1.26.76.12,1.53.34,2.29.35,4.93.03,9.86.02,14.79.01,3.43,0,5.16-1.74,5.16-5.2,0-14.23,0-28.45,0-42.68,0-.43,0-.86,0-1.39.71,0,1.29,0,1.87,0,.13.06.26.11.39.17.12.13.25.27.37.4,0,.25-.02.5-.02.75,0,15.09,0,30.17,0,45.26,0,3.35-1.93,5.27-5.29,5.28-4.46.02-8.92-.02-13.37.02-2.09.02-4.09-.16-5.77-1.58Z"/>
        <path class="cls-4" d="m200.55,387.83c.7.12,1.4.34,2.11.34,5.3.03,10.6.05,15.9,0,2.91-.03,4.64-1.79,4.65-4.71.03-9.51.02-19.01,0-28.52,0-.61-.18-1.23-.27-1.84.46.24.98.41,1.37.73,1.24,1.02,1.49,2.48,1.5,3.96.02,8.85,0,17.69.03,26.54,0,2.03-.04,4-1.69,5.5-.04.03-.03.12-.04.18-.05,0-.1.03-.14.05-1.05.24-2.09.67-3.14.68-5.22.07-10.45.05-15.67.02-1.4,0-2.69-.42-3.67-1.53-.19-.22-.48-.35-.73-.53,0-.05-.03-.1-.05-.15-.05-.25-.1-.49-.14-.74Z"/>
        <path class="cls-4" d="m232.19,387.17c1.35.27,2.7.71,4.06.77,2.59.12,5.2.04,7.92.04,0,.92,0,1.77,0,2.63-2.12-.01-4.23-.03-6.35-.04-.39-.18-.8-.53-1.16-.5-2.05.2-3.47-.81-4.71-2.25.08-.22.16-.43.24-.64Z"/>
        <path class="cls-4" d="m240.39,394.5h-2.56c0-.73,0-1.36,0-2,.68-.02,1.37-.05,2.05-.07.19.2.39.39.58.59-.02.5-.05.99-.07,1.49Z"/>
        <path class="cls-4" d="m232.19,387.17c-.08.21-.16.43-.24.64-.3-.44-.61-.88-.91-1.32l.02-.02c.38.23.75.46,1.13.7Z"/>
        <path class="cls-4" d="m186.7,390.65c.14-.04.27-.09.41-.13-.14.04-.27.08-.41.13Z"/>
        <path class="cls-4" d="m255.98,352.57c-.13-.06-.26-.11-.39-.17.13.06.26.11.39.17Z"/>
        <path class="cls-4" d="m187.45,390.47c.14-.05.27-.09.41-.14-.14.05-.27.09-.41.14Z"/>
        <path class="cls-4" d="m231.05,386.5s-.06-.06-.14-.15c.09.07.13.1.16.12,0,0-.02.02-.02.02Z"/>
        <polygon class="cls-4" points="186.23 330.76 186.25 330.81 186.2 330.8 186.23 330.76"/>
        <path class="cls-4" d="m175.24,379.72h-2.49v-41.25c2.36,0,4.69-.08,7.01.03,1.5.07,2.51,1,2.96,2.46-2.39,0-4.78,0-7.29,0-.06.58-.16,1.02-.16,1.47,0,8.97,0,17.94,0,26.92,0,3.46-.02,6.92-.03,10.37Z"/>
        <path class="cls-4" d="m240.01,380.09c-1.89.06-2.56-.55-2.57-2.45-.01-5.7-.01-11.4,0-17.1,0-1.89.6-2.44,2.51-2.35,1.39.07,2.78.19,4.23.3,0,.87,0,1.61,0,2.36-.8-.01-1.61-.11-2.39,0-.43.06-.81.46-1.21.71,0,0,0,0,0,0-.18.48-.51.96-.51,1.44-.04,5.7-.04,11.39-.05,17.09Z"/>
        <path class="cls-4" d="m209.68,380.09h-2.5v-21.78h6.68c0,.87,0,1.71,0,2.54-.87,0-1.74,0-2.61,0-1.48,0-1.54.06-1.54,1.51,0,5.91-.02,11.82-.02,17.73Z"/>
      </g>
      <g>
        <path d="m148.53,255.63h4.01c5.53,0,11.05,0,16.58,0,.69,0,1.37.03,2.06.07,2.55.15,3.93,1.53,3.98,4.11.06,3.09.02,6.18.03,9.27,0,3.96,0,7.93,0,11.89,0,.65-.05,1.31-.2,1.94-.34,1.49-1.26,2.42-2.81,2.59-1.21.13-2.42.18-3.63.27-.39.03-.78.07-1.37.13.12.52.16.94.3,1.32,2.9,8.01,5.82,16.02,8.73,24.03.04.11.07.23.13.41h-7.63c-1.7-4.78-3.41-9.58-5.11-14.37-1.3-3.66-2.73-7.29-3.85-11.01-.47-1.56-.29-3.31-.42-5.17h8.44v-19.06c-1.16-.4-11.08-.31-11.84.11v49.5h-7.38v-56.03Z"/>
        <path d="m220.13,277.36c1.42-.2,2.6-.39,3.8-.54,2.53-.34,5.06-.68,7.6-.97.67-.08,1.37-.01,2.04.09,1.58.24,2.48,1.19,2.7,2.78.06.46.1.93.1,1.4,0,8.08.01,16.17,0,24.25,0,1.83-.24,3.6-1.51,5.07-1.22,1.42-2.8,2.18-4.59,2.2-5.77.09-11.54.03-17.37.03v-55.99h7.22v21.67Zm.05,28.5c.41.03.69.07.96.07,1.5,0,3,.02,4.49,0,2.43-.03,3.47-1.08,3.48-3.49,0-6.55,0-13.1,0-19.64,0-.24-.03-.49-.07-.93-2.94-.23-5.85.08-8.86.08v23.92Z"/>
        <path d="m205.72,293.84c0,4.34,0,8.67,0,13.01,0,.41,0,.81-.02,1.22-.08,2.34-1.33,3.6-3.71,3.64-3.18.05-6.37.01-9.55.01-1.93,0-3.87.02-5.8,0-2.83-.03-4.11-1.22-4.12-4.03-.04-9.23-.04-18.46,0-27.69.01-2.76,1.28-4.01,4.03-4.03,5.09-.04,10.17-.04,15.26,0,2.65.02,3.88,1.28,3.89,3.94.03,4.65,0,9.29,0,13.94h0Zm-7.15,12.02v-23.91c-1.34-.41-8.36-.25-8.88.13v23.78h8.88Z"/>
        <path d="m266.8,293.88c0,4.3,0,8.61,0,12.91,0,.37,0,.75-.01,1.12-.08,2.53-1.3,3.77-3.85,3.79-4.31.03-8.61,0-12.92,0-.94,0-1.87.02-2.81-.03-2.24-.11-3.33-1.16-3.58-3.39-.04-.4-.05-.81-.05-1.21,0-8.83,0-17.65,0-26.48,0-.37,0-.75.04-1.12.22-2.31,1.36-3.47,3.68-3.49,5.27-.05,10.55-.06,15.82,0,2.42.02,3.64,1.31,3.66,3.77.03,4.71.01,9.42.01,14.13h0Zm-16.01-12.01v23.99h8.87v-23.99h-8.87Z"/>
        <path d="m324.85,305.86v-6.92h7.04c0,1.94,0,3.84,0,5.73,0,1.12.02,2.25-.04,3.37-.14,2.53-1.3,3.64-3.86,3.67-2.78.03-5.56,0-8.33,0-2.12,0-4.24.02-6.37,0-2.82-.03-4.1-1.22-4.11-4.03-.04-9.23-.04-18.47,0-27.7.01-2.76,1.29-3.99,4.04-4.02,4.9-.04,9.8-.04,14.7,0,2.69.02,3.89,1.19,3.95,3.88.06,2.74.01,5.47.01,8.25h-6.98v-5.95c-.78-.48-7.71-.53-8.56-.1v23.83h8.51Z"/>
        <path d="m288.45,281.9h-5.1c-.08.39-.22.73-.22,1.07-.01,7.24-.01,14.47,0,21.71,0,.32.1.64.17,1.03h5.36v5.96c-3.17,0-6.35.09-9.52-.03-1.94-.07-2.97-1.31-3.14-3.3-.04-.43-.03-.87-.03-1.31,0-7.92,0-15.84,0-23.77,0-.39-.05-.78-.09-1.3h-3.81v-6.03h3.82v-9.97h7.32v9.94h5.24v6Z"/>
        <path d="m294.82,275.98h6.97v35.68h-6.97v-35.68Z"/>
        <path class="cls-4" d="m179.09,310.61c.11.35.22.71.32,1.06.14.33.28.67.43,1,.03.11.05.22.08.33.13.71.26,1.42.39,2.12-.14.13-.28.26-.43.39-1.53-.02-3.05-.02-4.58-.06-1.68-.04-3.35-.1-5.03-.16,0,0,0,0,0,0-.29-.58-.57-1.17-.86-1.75-.08-.17-.15-.34-.23-.52.02-.04.04-.09.04-.13h8.54c-.07-.51-.06-.9-.18-1.23-2.86-7.88-5.73-15.75-8.59-23.62-.12-.32-.21-.64-.32-.98,1.27-.13,2.49-.18,3.68-.39,2.45-.44,3.79-2,3.96-4.5.03-.44.04-.87.04-1.31,0-6.71.02-13.42-.02-20.12,0-1.04-.26-2.09-.4-3.13.07-.08.14-.16.21-.25,1.53.71,2.46,1.89,2.73,3.57.02,2.61.06,5.21.05,7.82-.02,5.72-.07,11.45-.11,17.17-.53,1.84-1.66,3.06-3.6,3.43-.26.05-.52.1-.78.16-.38.04-.76.09-1.13.13-.68-.37-1.28-.23-1.98.38.28.5.55,1.01.83,1.51.04.17.08.33.12.5.21.52.42,1.04.63,1.56.02.11.05.21.07.32.29.76.58,1.53.87,2.29.11.35.22.71.32,1.06.14.33.28.67.43,1,.11.35.22.71.32,1.06.14.33.28.67.43,1,.11.35.22.71.32,1.06.14.33.28.67.43,1,.11.35.22.71.32,1.06.14.33.28.67.43,1,.11.35.22.71.32,1.06.14.33.28.67.43,1,.11.35.22.71.32,1.06.14.33.28.67.43,1,.11.35.22.71.32,1.06.14.33.28.67.43,1Z"/>
        <path class="cls-4" d="m159.57,280.01c-.36.02-.73.04-1.05.06-.09.16-.18.24-.18.32.03,2.55-.48,5.14.69,7.6.33.69.5,1.46.75,2.19-.05,1.3-.15,2.59-.15,3.89-.02,6.64,0,13.29,0,19.93,0,1.12-.3,1.44-1.33,1.46-.87.01-1.75,0-2.62,0-1.84,0-3.67,0-5.78,0-.06-.92-.11-1.76-.16-2.59h7.24v-49.8h9.74c0,.87,0,1.71,0,2.54-2.32,0-4.63,0-7.02,0-.03.64-.06,1.04-.07,1.43-.02,4.32-.04,8.65-.05,12.97Z"/>
        <path class="cls-4" d="m240.11,280.45c.02.13.04.25.07.38,0,.31-.02.62-.02.93,0,8.64,0,17.28,0,25.92,0,3.27-1.46,5.71-4.49,6.99-1.14.49-2.47.73-3.71.75-5.12.08-10.24.04-15.35.04-2.51,0-2.53-.02-2.42-2.6,4.99,0,9.98.02,14.97,0,5.41-.02,8.39-3.01,8.4-8.41.01-4.46,0-8.92,0-13.37,0-3.65.01-7.29-.01-10.94,0-.77-.16-1.54-.25-2.31.3.05.71-.01.87.16.69.78,1.31,1.63,1.95,2.46Z"/>
        <path class="cls-4" d="m209.33,312.3c-.16.41-.32.82-.49,1.23-.32.36-.64.73-.96,1.09-.22.11-.43.21-.65.32-1.72.17-3.44.46-5.16.49-3.84.08-7.67.03-11.51.02-1.14,0-2.29-.07-3.43-.11-.17-.03-.33-.07-.5-.1-.46-.28-.92-.57-1.37-.85-.37-.49-.74-.98-1.12-1.47.07-.08.14-.15.2-.23.76.06,1.52.17,2.27.17,5.03.02,10.05.03,15.08,0,3.5-.02,5.16-1.7,5.16-5.19.01-9.23,0-18.47,0-27.7,0-.71-.1-1.41-.15-2.12,1.2-.05,2.06.79,2.64,2.56.04.14.09.27.13.41.02.18.04.35.06.53-.03.31-.08.61-.08.92,0,9.09,0,18.18,0,27.26,0,.92-.08,1.85-.12,2.77Z"/>
        <path class="cls-4" d="m268.96,314.63c-.34.17-.68.33-1.03.5-.86.11-1.71.31-2.57.32-5.08.03-10.16.07-15.24-.03-1.1-.02-2.19-.57-3.28-.87-.17-.05-.34-.1-.51-.16-.37-.49-.74-.98-1.12-1.47.07-.08.14-.15.2-.23.76.06,1.52.17,2.27.17,5.03.02,10.05.03,15.08,0,3.5-.02,5.16-1.7,5.16-5.19.01-9.2.01-18.41,0-27.61,0-.77-.18-1.54-.27-2.31.46.24.98.41,1.37.73,1.12.95,1.51,2.25,1.51,3.67,0,9.37,0,18.75,0,28.12,0,.68-.08,1.35-.12,2.03-.16.41-.32.82-.49,1.23-.32.36-.64.73-.96,1.09Z"/>
        <path class="cls-4" d="m296.05,312.87h6.94c0-11.94,0-23.75,0-35.57.4-.02.81-.06,1.21-.05,1.03.03,1.37.38,1.37,1.44,0,11.79,0,23.59,0,35.38,0,1.11-.27,1.38-1.38,1.39-1.9,0-3.81,0-5.71,0-2.51,0-2.53-.02-2.43-2.59Z"/>
        <path class="cls-4" d="m335.43,312.5c-.51,1.49-1.53,2.42-3.04,2.85-.77.04-1.54.11-2.31.11-3.52.01-7.04.02-10.56,0-2.59-.01-5.23.33-7.62-1.07-.19-.2-.39-.39-.58-.59-.1-.14-.21-.28-.31-.42-.02-.21-.04-.43-.06-.71.81.07,1.57.18,2.33.18,4.83.02,9.66.03,14.49,0,3.56-.02,5.25-1.7,5.29-5.29.03-2.49.01-4.98.02-7.47.16,0,.31.01.47.01,2,.02,2.02.02,2,2.03-.03,3.45-.09,6.91-.13,10.36Z"/>
        <path class="cls-4" d="m292.32,285.15c-.2.19-.4.39-.59.58-1.09-.02-2.18-.04-3.26-.05-1.6,0-1.62.02-1.62,1.62-.01,5.76-.02,11.52-.03,17.28h-2.4v-21.51h5.26c0-2.02,0-3.9,0-5.78.25-.01.5-.03.74-.03,1.69,0,1.85.15,1.86,1.86.01,2.01.04,4.03.06,6.04Z"/>
        <path class="cls-4" d="m319.96,304.76h-2.5v-21.8h6.26c0,.85,0,1.68,0,2.51-.75,0-1.5.02-2.25.03-1.41,0-1.49.08-1.49,1.48,0,5.92-.02,11.85-.02,17.77Z"/>
        <path d="m294.73,269.41v-7.36h7.13v7.36h-7.13Z"/>
        <path class="cls-4" d="m292.31,315.3c-.13.08-.26.16-.38.24-2.54-.02-5.07-.06-7.6-.06-.92,0-1.85.05-2.77.08-.24-.03-.48-.06-.71-.09-.57-.24-1.14-.48-1.71-.71-.62-.54-1.31-1.04-1.37-1.98h12.1c0-1.93,0-3.81,0-5.69.69-.04,1.37-.07,2.06-.11.2.2.4.4.6.6-.02.53-.05,1.05-.07,1.58-.05,2.05-.1,4.1-.15,6.15Z"/>
        <path class="cls-4" d="m223.8,275.69c-.8.1-1.6.2-2.48.31v-19.05c1.62-.33,2.24-.18,2.6.63-.02.31-.06.62-.06.93,0,4.08,0,8.16,0,12.24,0,1.65-.03,3.3-.05,4.95Z"/>
        <path class="cls-4" d="m326.21,289.27h6.64c.1-.31.22-.51.22-.71-.03-3.24-.06-6.48-.11-9.72,0-.34-.13-.67-.2-1,1.45.21,2.76,1.86,2.78,3.62.04,3.05.03,6.11.02,9.16,0,.96-.31,1.24-1.32,1.25-1.87.01-3.74,0-5.61,0-2.51,0-2.53-.02-2.41-2.6Z"/>
        <path class="cls-4" d="m296.01,270.67h7.12c0-2.65,0-5.05,0-7.46.31,0,.62.02.93.02,1.43.01,1.52.1,1.52,1.56,0,2.37,0,4.74,0,7.11,0,.36-.08.72-.12,1.15-.45.04-.81.09-1.17.09-1.93,0-3.87,0-5.8,0-2.67,0-2.48.17-2.48-2.48Z"/>
        <path class="cls-4" d="m286.66,267.31c.08.12.16.25.24.37-.02.34-.06.67-.06,1.01-.02,2.04-.03,4.07-.04,6.11h-2.54c0-2.58,0-5.09,0-7.59.8.03,1.6.07,2.4.11Z"/>
        <path class="cls-4" d="m274.81,285.65c-.25.04-.49.08-.74.12-.28-.12-.55-.24-.87-.38v-2.24h1.6v2.51Z"/>
        <path class="cls-4" d="m224.1,286.08c-.06.39-.17.79-.17,1.18-.01,5.42,0,10.85,0,16.27,0,.37,0,.74,0,1.18h-2.61v-21.63h6.66c0,.84,0,1.7,0,2.56-.06.04-.12.07-.18.11-.98,0-1.95,0-2.93.01-.25.1-.5.21-.76.31Z"/>
        <path class="cls-4" d="m193.31,304.76h-2.5v-21.79h6.69c0,.88,0,1.71,0,2.54-.87,0-1.74,0-2.62,0-1.48,0-1.54.06-1.54,1.51,0,5.91-.02,11.83-.02,17.74Z"/>
        <path class="cls-4" d="m254.39,304.76h-2.5v-21.79h6.69c0,.88,0,1.71,0,2.54-.87,0-1.74,0-2.62,0-1.48,0-1.54.06-1.54,1.51,0,5.91-.02,11.83-.02,17.74Z"/>
      </g>
      <g>
        <path class="cls-4" d="m228.66,478.64c2.51-.11,2.78.15,2.71,2.71-.05,1.68,0,3.37-.02,5.05,0,1.07-.33,1.4-1.4,1.41-2.22.01-4.43,0-6.65,0-.37,0-.73,0-1.24,0-.04.57-.1,1.02-.1,1.47,0,15.21,0,30.43,0,45.64,0,.44,0,.87,0,1.31-.02.75-.42,1.16-1.17,1.16-2.62,0-5.24,0-7.87,0-.81,0-1.18-.45-1.19-1.24,0-.5-.04-.99-.07-1.49h7.5v-49.69h9.49v-6.33Z"/>
        <path class="cls-4" d="m264.16,534.6c4.35.67,8.53-.62,12.83-1.04.11.31.23.65.36,1.02h8.81c.05-.4.12-.76.12-1.12,0-10.47.01-20.94,0-31.41,0-.86-.16-1.73-.24-2.59,1.25.27,2.58,1.59,2.78,2.83.12.77.22,1.54.22,2.32.01,10.35.01,20.69,0,31.04,0,1.45-.31,1.76-1.74,1.76-1.9,0-3.81,0-5.71,0q-1.4,0-2.55-1.04c-1.25.17-2.63.39-4.01.55-2.75.31-5.49.87-8.27.31-1.39-.28-2.54-1.44-2.61-2.64Z"/>
        <path class="cls-4" d="m325.73,534.67h7.16c.07-.47.15-.8.15-1.12,0-10.69.01-21.37-.01-32.06,0-.79-.24-1.59-.36-2.38,1.72.53,2.9,1.98,3.01,3.75.03.53.04,1.06.04,1.59,0,10.37,0,20.75-.01,31.12,0,.59-.19,1.17-.31,1.85-1.59,0-2.99,0-4.38,0-1.25,0-2.5,0-3.74,0-1.14-.01-1.44-.32-1.47-1.44-.01-.43-.05-.87-.07-1.3Z"/>
        <path class="cls-4" d="m293.32,534.67h7.24v-29.8h6.76v2.67c-1,0-1.99,0-2.99-.02-.71-.02-1.02.31-1,1.02.02.97,0,1.93,0,2.9,0,7.94,0,15.89,0,23.83,0,.53,0,1.05,0,1.76-.57.14-1.08.36-1.6.37-2.21.04-4.43.02-6.64.01-1.38,0-1.68-.32-1.7-1.71,0-.34-.04-.68-.05-1.02Z"/>
        <path class="cls-4" d="m255.94,521.21c-.06-.01-.12-.03-.18-.04-.31-.08-.62-.22-.93-.22-3.4-.02-6.8-.01-10.2,0-.34,0-.67.03-1.28.05v6.33h-2.75v-9.12h13.3c.7-.75,1.49-1.54,2.21-2.4.21-.25.31-.67.31-1.02.02-4.33.03-8.65,0-12.98,0-.8-.2-1.59-.31-2.39,2.29.69,2.85,2.02,2.94,4.32.16,4.57.07,9.16.03,13.74,0,.46-.32,1.01-.65,1.37-.78.84-1.65,1.58-2.49,2.37Z"/>
        <path class="cls-4" d="m309.61,534.68h7.26c0-3.42.02-6.7.02-9.97,0-3.27,0-6.54,0-9.81v-10h6.61v2.6c-1.27.13-2.6-.23-3.92.34,0,.51,0,.94,0,1.37,0,8.76,0,17.52,0,26.28,0,1.69-.24,1.93-1.96,1.93-2.09,0-4.18,0-6.27,0-1.38,0-1.7-.32-1.71-1.71,0-.34-.02-.68-.03-1.03Z"/>
        <path class="cls-4" d="m234.36,534.43c5.84.06,11.69.16,17.53.17,2.48,0,4.19-1.57,4.4-4.05.17-2.01.1-4.04.14-6.06,0-.31.03-.62.04-.92,2.55-.09,2.63,0,2.63,2.54,0,1.87,0,3.73,0,5.6-.02,3.72-1.81,5.64-5.52,5.69-4.92.07-9.84.05-14.76-.01-1.58-.02-3.1-.45-4.09-1.86-.21-.3-.25-.73-.37-1.1Z"/>
        <path class="cls-4" d="m263.91,509.24h6.37v-5.21h6.92v2.75c-.99-.02-1.98-.02-2.97-.07-.78-.03-1.14.29-1.12,1.09.03,1.14.02,2.29.02,3.43-1.61,0-3.23-.02-4.84.04-1.39.05-2.77.22-4.16.33-.08-.79-.15-1.57-.23-2.36Z"/>
        <path class="cls-4" d="m202.32,485.06h7.14v2.78c-1.71,0-3.43-.02-5.14-.02-1.72,0-1.96-.24-1.97-1.92,0-.28-.02-.56-.03-.84Z"/>
        <path d="m331.85,533.44h-7.18v-29.77h-8.77c-.08.52-.2.96-.2,1.39-.01,9.1,0,18.21,0,27.31v1.06h-7.13v-29.74c-2.99-.3-5.9.09-8.98.03v29.72h-7.23v-35.64h7.07c.08.41.15.8.25,1.28.5-.04.92-.06,1.34-.11,3.15-.43,6.29-.93,9.44-1.3,1.82-.21,3.66-.21,4.87,1.61,2.29-.36,4.52-.78,6.78-1.05,2.16-.26,4.34-.55,6.5-.52,2.1.03,3.01,1.13,3.23,3.26.04.37.07.75.07,1.12,0,10.16,0,20.33,0,30.49,0,.27-.03.55-.04.85Z"/>
        <path d="m227.39,483.93h-9.28v49.5h-7.49v-49.48h-9.32v-6.41h26.09v6.39Z"/>
        <path d="m255.22,515.08c-.66.62-1.32,1.24-2.14,2.01h-13.59v11.31h8.87v-5.99h6.89c0,.63,0,1.25,0,1.86,0,1.84.04,3.68-.04,5.52-.1,2.5-1.32,3.68-3.84,3.7-3.65.03-7.3.01-10.96,0-1.4,0-2.81.03-4.21-.03-2.29-.09-3.4-1.17-3.63-3.44-.04-.4-.04-.81-.04-1.21,0-8.79,0-17.59,0-26.38,0-.4,0-.81.04-1.21.23-2.25,1.38-3.4,3.65-3.42,5.12-.05,10.24-.06,15.36,0,2.33.03,3.58,1.23,3.61,3.52.07,4.58.02,9.16.02,13.77Zm-15.76-2.45h8.85v-9.78h-8.85v9.78Z"/>
        <path d="m278.26,512.37v-9.5h-8.95v5.13h-6.44c0-2.43-.12-4.86.04-7.27.13-1.89,1.47-2.92,3.59-2.94,4.99-.05,9.99-.02,14.98-.02.12,0,.25,0,.37.02,2.06.22,3.19,1.42,3.27,3.5.01.37.01.75.01,1.12,0,9.98,0,19.95,0,29.93,0,.34,0,.68,0,1.09h-6.74c-.06-.31-.13-.64-.22-1.12-.33,0-.65-.04-.96,0-3.18.42-6.36.88-9.54,1.26-.85.1-1.75.05-2.6-.08-1.57-.25-2.52-1.25-2.62-2.84-.11-1.8-.12-3.61-.12-5.42,0-3.15-.01-6.3.1-9.44.08-2.07,1.27-3.22,3.35-3.27,3.65-.09,7.3-.05,10.95-.08.49,0,.98-.05,1.52-.08Zm-8.93,4.68v11.28c3.08-.12,6.02-.24,8.95-.35v-10.92h-8.95Z"/>
        <path class="cls-4" d="m243.39,511.54h-2.77v-7.57h6.59v2.63c-1.27.02-2.54.04-3.82.05v4.89Z"/>
        <path class="cls-4" d="m273.2,527c-.89.05-1.79.1-2.76.16v-8.95h6.75v2.61h-3.92c-.27,2.09-.16,4.14-.07,6.18Z"/>
      </g>
    </g>
    <g id="FullDogBodyBlackv03_copy" data-name="FullDogBodyBlackv03 copy">
      <g id="DogBodyBlackv03_copy" data-name="DogBodyBlackv03 copy">
        <g>
          <polygon points="374.31 67 405.62 98.31 393.54 98.31 366.26 69.69 374.31 67"/>
          <polygon points="393.54 111.72 385.94 141.24 388.62 141.24 398.91 136.32 405.62 118.43 405.62 111.72 393.54 111.72"/>
          <rect x="394.21" y="99.43" width="11.4" height="10.73"/>
          <polygon points="375.66 82.66 384.6 91.38 370.29 106.13 364.25 95.4 375.66 82.66"/>
          <polygon points="383.48 110.16 378.34 136.54 384.6 140.35 391.98 111.72 383.48 110.16"/>
          <polygon points="392.82 110.16 383.87 108.71 382.59 102.33 388.62 94.4 393.1 99.43 392.82 110.16"/>
          <polygon points="374.43 81.76 362.91 69.91 357.99 69.91 340.59 86.83 349.27 91.6 362.91 94.77 374.43 81.76"/>
          <polygon points="374.43 136.32 366.26 131.62 341.89 150.18 350.39 152.64 374.43 136.32"/>
          <polygon points="367.83 106.41 364.25 128.67 354.76 136.71 347.33 119.22 367.83 106.41"/>
          <polygon points="351.06 97.19 346.33 109.66 345.02 110.16 341.6 103.82 347.48 91.82 351.06 97.19"/>
          <polygon points="314.87 129.91 318.67 141.08 332.09 132.36 345.51 118.94 344.39 110.89 341.26 105.52 314.87 129.91"/>
          <polygon points="340.55 148.4 340.33 154.66 330.82 149.36 334.29 131.62 346.14 120.22 353.29 137.77 340.55 148.4"/>
          <polygon points="329.59 150.18 332.72 133.34 310.59 148.1 310.59 151.45 322.88 157.26 337.64 154.81 329.59 150.18"/>
          <path d="m320.43,157.12c-.89.89-9.84-4.47-9.84-4.47l-4.92,3.58,3.8,2.91h10.96s0-2.01,0-2.01Z"/>
          <polygon points="308.8 147.95 308.8 151.53 305.67 154.66 302.76 154.66 299.41 147.95 308.8 147.95"/>
          <polygon points="324.11 105.52 322.56 110.83 304.1 128.67 314.24 128.67 340.18 103.82 324.11 105.52"/>
          <polygon points="324.11 103.82 322.36 94.77 327.06 90.11 339.28 88.3 346.47 91.82 340.92 101.91 324.11 103.82"/>
          <polygon points="341.89 71.33 327.36 85.19 327.36 88.17 330.19 87.87 338.54 86.78 340.92 85.04 356.87 69.91 341.89 71.33"/>
          <polygon points="317.52 98.31 326.61 89.07 326.61 86.23 317.52 97.26 317.52 98.31"/>
          <polygon points="344.05 69.91 334.96 52.84 332.26 52.84 333.92 57.17 340.18 70.36 344.05 69.91"/>
          <polygon points="309.92 27.8 334.52 51.95 330.82 51.95 308.57 28.99 309.92 27.8"/>
          <polyline points="374.43 65.81 389.85 41.9 390.44 42.77 375.66 65.81"/>
          <polygon points="390.56 41.36 423.8 8.12 424.55 8.12 391.31 42.26 390.56 41.36"/>
          <polygon points="415.31 58.95 419.63 44.05 423.06 11.55 390.56 45.54 398.61 54.03 404.72 68.64 415.31 58.95"/>
          <path d="m330.82,54.03l-4.49,14.46h-8.89s-7.08-6.41-6.86-7.16-2.01-30.41-2.01-30.41l22.25,23.11Z"/>
          <polygon points="331.83 55.08 339.28 70.88 333.02 77.59 327.36 69.24 331.83 55.08"/>
          <polygon points="332.26 78.61 324.11 86.83 318.41 80.42 317.89 69.61 326.02 69.91 332.26 78.61"/>
          <polygon points="397.12 55.08 403.68 69.24 392.35 81.54 377.59 67 389.82 47.18 397.12 55.08"/>
          <polygon points="393.54 82.66 415.61 59.7 416.91 62.31 397.72 86.23 393.54 82.66"/>
          <polygon points="420.52 44.35 422.16 44.35 421.27 56.72 416.8 58.06 420.52 44.35"/>
          <polygon points="425.29 9.31 422.16 42.85 420.52 42.85 423.8 10.36 425.29 9.31"/>
          <polygon points="348.97 153.76 342.11 151.82 341.61 155.89 324.11 158.08 328.25 160.32 338.54 158.53 348.97 153.76"/>
          <polygon points="317.52 98.79 317.52 106.13 318.41 114.03 316.47 106.41 317.52 98.79"/>
          <polygon points="376.55 135.13 374.98 135.13 366.26 130.06 369.84 107.59 381.13 110.16 376.55 135.13"/>
          <polygon points="372.19 106.41 381.13 108.26 380.35 102.28 377.59 100.99 372.19 106.41"/>
          <polygon points="297.39 134.34 302.76 129.61 313.64 129.61 314.87 134.34 297.39 134.34"/>
          <polygon points="406.81 104.79 414.11 125.25 419.59 137.97 422.57 142.58 426.09 138.84 421.16 135.13 419.48 128.67 418.36 120.22 406.81 100.99 406.81 104.79"/>
          <polygon points="406.81 118.32 410.65 124.92 411.66 122.96 406.81 111.72 406.81 118.32"/>
          <polygon points="411.04 125.85 411.93 123.87 414.21 128.08 412.87 129.1 411.04 125.85"/>
          <polygon points="414.79 128.67 419.84 140.61 418.64 142.13 416.24 140.85 415.68 135.4 412.94 130.17 414.79 128.67"/>
          <polygon points="412.95 152.64 411.38 154.14 408.04 157.5 401.09 135.92 402.26 130.85 403.16 128.67 412.95 152.64"/>
          <polygon points="415.01 148.5 415.49 150.02 413.92 151.82 406.81 133.34 403.97 126 405.13 123.6 406.08 121.52 414.42 136.93 415.32 143.15 413.56 146.1 415.68 144.48 416.24 146.16 415.01 148.5"/>
          <polygon points="420.42 141.24 418.81 143.03 416.24 141.66 417.25 146.16 416.24 148.28 416.62 148.98 421.83 143.42 420.42 141.24"/>
          <polygon points="399.27 137.94 406.55 158.91 403.45 162.07 395.48 144.82 396.95 139 399.27 137.94"/>
          <polygon points="394.21 144.71 387.32 178.88 383.15 183.28 381.69 184.4 357.58 185.29 358.79 182.52 382.59 181.26 385.94 178.36 393.17 143.56 390.13 142.35 391.59 141.24 395.22 139.79 394.21 144.71"/>
          <polygon points="395.07 148.43 400.63 164.74 399 166.46 394.22 152.64 395.07 148.43"/>
          <polygon points="397.71 167.67 396.69 168.82 393.02 172.69 391.98 164.02 392.32 163.33 393.4 156.79 397.71 167.67"/>
          <path d="m387.17,142.13l-8.16,4.64s-15.54,4.79-15.88,5.05-8.39,5.18-8.72,4.96-2.8-3.58-2.8-3.58l22.81-15.76h3.91s6.2,4.48,6.2,4.48"/>
          <polygon points="390.4 152.64 389.59 153.99 389.59 155.44 362.2 156.92 362.01 155.63 362.9 154.14 390.4 152.64"/>
          <polygon points="384.49 176.81 384.48 178.26 382.46 179.6 358.15 180.91 356.53 179.53 356.52 179.53 356.97 178.06 384.49 176.81"/>
          <polygon points="386.19 171.81 385.6 173.25 385.6 174.71 358.67 176.19 358.1 174.79 358.69 173.31 386.19 171.81"/>
          <polygon points="387.11 166.83 386.55 168.33 386.55 169.78 359.58 171.24 359.05 169.82 359.61 168.33 387.11 166.83"/>
          <polygon points="387.98 162.06 387.54 163.56 387.54 165.01 360.43 166.46 360.03 165.05 360.48 163.56 387.98 162.06"/>
          <polygon points="389.2 157.35 388.32 158.81 388.32 160.26 361.18 161.75 360.8 160.34 361.69 158.85 389.2 157.35"/>
          <polygon points="391.36 146.44 390.59 151.82 389.18 151.82 389.18 146.05 386.44 144.15 388.79 142.92 391.98 144.26 391.36 146.44"/>
          <polygon points="357.68 162.07 356 172.38 353.65 180.71 356.2 182.76 353.29 187.19 351.62 202.73 351.06 202.73 349.94 198.26 349.94 186.74 352.4 171.81 354.3 163.56 359.58 156.79 357.68 162.07"/>
          <polygon points="427.42 139.79 375.73 192.22 375.73 197.07 381.32 202.47 384.07 200.87 419.89 158.78 431.89 148.4 427.42 139.79"/>
          <polygon points="382.92 207.99 437.93 148.62 447.77 148.62 455.03 156.41 452.57 161.2 442.96 159.7 433.51 169.08 402.04 202.28 387.51 219.6 382.92 207.99"/>
          <polygon points="350.84 203.85 373.28 202.73 377.33 200.83 380.57 203.85 380.86 205.97 379.01 208.21 386.61 226.21 363.02 227.1 354.3 211.12 350.84 207.54 350.84 203.85"/>
          <polygon points="446.2 175.86 434.57 174.36 418.08 191.66 404.39 207.65 391.64 225.43 391.64 227.55 403.05 228 404.39 229 435.92 188.53 446.2 175.86"/>
          <polygon points="391.64 229 403.68 229.79 404.5 231.69 405.06 234.37 423.58 277.34 425.57 283.9 429.65 287.63 431.89 290.94 425.22 289.71 420.04 285.35 415.23 280.43 391.64 229"/>
          <path d="m384.15,231.46h-22.81s-.67,3.69-.67,3.69l21.8,52.77,4.92,3.91s13.86.78,14.2.78,8.63.69,8.63.69l7.69-1.7-7.38-7.49-26.39-52.66Z"/>
          <polygon points="353.63 212.9 348.93 225.09 342.45 225.09 343.23 221.62 348.82 211.79 353.63 211.79 353.63 212.9"/>
          <polygon points="348.71 226.43 358.21 260.98 363.69 260.98 371.52 281.61 362.02 280.66 360.89 279.32 356.14 279.22 342.45 225.99 348.71 226.43"/>
          <polygon points="372.5 283.41 361.9 282.44 361.9 287.92 368.72 299.77 379.57 299.77 372.5 283.41"/>
          <polygon points="379.57 302.01 374.31 346.95 374.31 360.59 365.15 359.03 361.9 355.23 368.39 301.88 379.57 302.01"/>
          <polygon points="374.25 362.7 375.21 373.34 378.17 380.1 368.16 378.26 363.92 376.47 363.92 360.59 374.25 362.7"/>
          <polygon points="375.99 384.07 367.92 394.97 359.26 394.81 367.05 383.95 375.99 384.07"/>
          <polygon points="357.95 394.79 365.7 384.11 362.14 384.11 354.26 394.79 357.95 394.79"/>
          <polygon points="352.88 394.67 361.26 384.11 359.01 384.11 348.32 394.5 352.88 394.67"/>
          <polyline points="357.62 412.01 377.34 410.85 388.06 395.87 377.78 385.3 368.05 398.16 366.82 407.77 357.95 409.26"/>
          <polygon points="384.38 389.55 396.56 376.13 381.58 356.68 375.99 360.59 377.78 373.12 380.91 380.38 379.01 383.62 384.38 389.55"/>
          <path d="m394.21,316.77s-3.02.67-3.35.67-3.47-.34-3.47-.34l-1.79,40.25,6.04,8.39,1.57-1.9,1.01-47.07Z"/>
          <polygon points="383.93 316.77 382.14 354.33 375.99 358.58 375.99 346.95 380.91 304.69 383.93 316.77"/>
          <polygon points="366.26 105.52 353.29 113.9 351.62 114.03 346.47 117.47 345.78 111.52 351.06 109.04 354.76 109.75 364.25 105.52 366.26 105.52"/>
          <path d="m448.03,161.96l4.99.37,1.42-2.09s2.53.37,2.83.45,9.24,2.39,9.24,2.39l-.52.67-8.27,6.86h-2.68s-6.48,3.75-6.48,3.75c0,0-12-1.82-12.3-1.82l11.78-10.58Z"/>
          <path d="m454.08,183.28c-.22-.28-24.61,28.77-24.91,28.62s-6.26-.6-6.26-.6l19.9-22.81,3.06.2,6.11-5.42h2.11Z"/>
          <polygon points="456.08 182.76 429.69 212.57 429.69 214.73 441.79 215.19 450.62 202.79 457.27 193.4 464.28 184.17 464.03 183.02 456.08 182.76"/>
          <path d="m439.38,273.95h10.06s11.85,3.8,11.85,3.8l6.37,7.27v.89s-17.66.34-18.11,0-7.77-4.64-7.77-4.64l-2.4-7.32Z"/>
          <polygon points="433.12 272.78 426.45 272.72 423.62 255.28 421.83 240.18 420.93 231.46 419.82 221.29 420.6 216.82 422.23 212.83 426.47 213.3 425.63 220.17 426.64 232.13 428.57 253.8 431.89 264.3 433.12 272.78"/>
          <polygon points="431.48 215.98 427.63 215.81 428.54 229.9 431 252.71 434.18 263.83 435.49 272.72 439.38 272.72 433.51 233.03 432.34 223.3 431.48 215.98"/>
          <polygon points="448.33 272.72 440.5 272.72 432.45 215.98 441.28 216.48 441.51 221.29 441.73 226.88 442.62 232.13 444.64 237.28 445.64 240.18 448.33 272.72"/>
          <polygon points="476.14 255.46 476.02 262.28 470.46 277.25 468.23 284.12 461.91 276.97 476.7 249.9 476.14 255.46"/>
          <polygon points="473.98 185.85 530.28 189.13 532.74 192.82 534.52 197.63 535.08 204.23 536.31 210.04 539.11 214.74 539.11 218.98 539.11 226.42 537.54 234.3 534.59 244.18 516.97 243.97 482.09 243.97 490.25 227.48 528.38 229.05 531.95 227.7 532.51 222.67 531.84 218.09 526.7 216.86 503.26 216.3 482.31 216.02 482.43 211.94 478.71 208.99 477.95 208 519.32 209.26 525.8 209.37 529.49 205.12 527.48 198.41 522.11 194.72 509.65 194.16 492.15 193.49 479.97 193.23 473.63 193.19 473.98 185.85"/>
          <polygon points="481.31 245.66 478.4 250.58 477.87 254.02 484.83 254.02 490.81 252.37 503.85 252.37 512.82 252.22 527.03 252.22 533.43 251.58 534.37 245.93 481.31 245.66"/>
          <polygon points="477.87 246.78 477.48 249.84 488.72 227.44 486.74 228 477.87 246.78"/>
          <polygon points="531.43 219.6 482.09 218.49 482.24 216.63 526.38 217.51 531.3 218.55 531.43 219.6"/>
          <polygon points="474.04 197.14 473.67 194.11 520.98 195.42 519.43 198.97 474.04 197.14"/>
          <polygon points="521.84 195.46 520.37 199.42 525.86 207.99 528.66 204.85 526.59 198.97 521.84 195.46"/>
          <polygon points="529.4 220.17 530.1 227.66 531.39 227.21 531.95 222.44 531.54 220.17 529.4 220.17"/>
          <polygon points="449.44 300.15 447.51 301.04 436.77 300.59 435.73 301.04 434.57 303.28 432.45 356.64 432.45 359.77 433.51 361.12 434.57 361.71 445.72 362.9 448.33 360.82 449.44 300.15"/>
          <polygon points="433.34 363.8 433.34 380.05 437.07 382.43 440.95 382.43 446.31 383.48 445.57 365.44 433.34 363.8"/>
          <polygon points="447.51 383.48 446.7 365.46 452.29 385.36 447.51 383.48"/>
          <polygon points="451.48 388.59 441.51 402.18 436.36 400.84 432.62 400.67 440.6 387.91 451.48 388.59"/>
          <polygon points="438.41 387.91 431.11 400.11 419.18 399.05 434.05 387.91 438.41 387.91"/>
          <polygon points="430.43 401.53 422.2 414.6 424.57 415.4 424.9 414.91 435.61 401.86 430.43 401.53"/>
          <polygon points="416.43 399.82 409.93 412.69 410.29 413.3 413.23 413.65 413.56 413.33 422.2 400.47 416.43 399.82"/>
          <polygon points="424.14 400.81 416.48 413.93 416.7 414.3 419.04 414.66 419.64 414.28 428.8 401.21 424.14 400.81"/>
          <path d="m452.5,389.55l8.94,11.14v1.86s-8.65,12.05-8.65,12.05l-3.06,2.04h-.97s-1.42-2.14-1.64-2.04-3.28,1.59-3.28,1.59l-.89.45v2.39s-16.17.41-16.17.41l-1.5-3.47,13.07-13.23,3.47,1.16,9.24-12.31,1.42-2.05Z"/>
          <path d="m458.84,393.31c-.45-.97-5.31-7.45-5.31-7.45v-9.69s10.75-7.08,10.75-7.08l4.96,9.84-10.4,14.39Z"/>
          <polygon points="460.02 369.5 454.59 360.54 450.89 360.54 448.33 363.8 456.88 371.39 460.02 369.5"/>
          <polygon points="455.43 372.28 447.66 364.98 452.34 380.93 452.02 374.85 455.43 372.28"/>
          <polygon points="455.03 315.92 454.7 358.53 450.45 358.53 451.08 307.43 454.14 312.74 455.03 315.92"/>
          <polygon points="459.42 288.12 462.19 290.38 453.22 296.39 449.58 293.96 442.51 283.9 449.44 288.11 459.42 288.12"/>
          <path d="m438.41,274.95c.07.89,3.8,12.97,3.8,12.97l5.5,8.02,2.74,2.15h-13.98s-4.58-10.62-4.58-10.62l-2.94-12.52h9.47Z"/>
          <polygon points="459.42 170.91 467.67 163.56 475.83 166.83 507.36 168.18 531.39 169.83 539 171.81 550.96 172.38 557.44 174.79 558.56 177.35 531.39 175.86 503.78 174.36 465.04 171.87 459.42 170.91"/>
          <path d="m453.06,173.3l3.6-1.49,15.6,1.49,28.4,2.56,32.65,1.68s-33.54-.75-34.66-.75-40.89-2.01-40.89-2.01h-6.66s1.98-1.49,1.98-1.49Z"/>
          <polygon points="571.53 187.53 558.56 213.97 548.5 213.97 563.03 185.29 569.74 185.29 571.53 187.53"/>
          <polygon points="493.49 277.25 504.84 271.46 520.1 263.83 531.32 259.03 532.14 255.09 523.83 258.93 511.72 264.74 501.77 269.51 493.49 274.36 493.49 277.25"/>
          <polygon points="492.22 277.53 472.28 277.53 473.92 274.04 492.22 274.28 492.22 277.53"/>
          <polygon points="474.37 271.97 493.98 272.08 499.12 268.19 475.75 268.33 474.37 271.97"/>
          <path d="m513.84,262.43c-2.01,0-8.39-.15-8.39-.15l-3.35,3.87-5.57-.22,2.1-3.49h-20.61s.04-2.46.04-2.46h21.75s3.97-5.81,3.97-5.81h8.39s-4.86,5.7-4.86,5.7h10.34s-3.8,2.57-3.8,2.57Z"/>
          <polygon points="494.83 263.77 492.9 266.54 476.46 266.54 477.47 263.77 494.83 263.77"/>
          <polygon points="525.97 254.44 522.11 257.96 511.72 257.96 514.34 254.49 525.97 254.44"/>
          <polygon points="498.66 255.46 496.74 258.23 478.25 258.41 478.03 255.46 498.66 255.46"/>
          <path d="m530.68,188.05c-.22,0-65.23-4.27-65.23-4.27l-.4-1.51-8.33-.39,1.21-1.51,59.72,4.47-4.77-6.15,4.01.14,5.8,5.8,8.76.34,3.65,4.58h-3.28s-1.13-1.49-1.13-1.49Z"/>
          <polygon points="510.27 178.9 513.8 183.02 472.77 180.11 468.67 176.53 510.27 178.9"/>
          <path d="m558.56,215.98l4.92,67.03s-4.7-.89-4.92-1.12-6.93-36.24-6.93-36.24l-3.13-29.67h10.06Z"/>
          <polygon points="423.9 416.38 424.9 419.4 421.16 419.4 420.26 417.5 421.49 415.54 423.9 416.38"/>
          <polygon points="418.25 415.54 418.81 418.9 416.07 418.28 415.24 417.47 416.3 415.15 418.25 415.54"/>
          <polygon points="412.24 414.48 412.54 416.77 410.51 416.54 409.42 415.54 410.03 414.14 412.24 414.48"/>
          <polygon points="356.67 409.47 356.31 412 354.06 411.69 353.97 409.03 356.67 409.47"/>
          <polygon points="349.79 408.18 349.84 410.81 347.73 410.45 347.56 407.88 349.79 408.18"/>
          <polygon points="344.61 406.92 344.82 409.88 342.41 409.62 342.04 406.58 344.61 406.92"/>
          <polygon points="585.88 318.22 579.28 318.22 584.65 314.74 584.65 310.17 579.28 304.69 575.7 304.21 571.53 300.41 567.95 296.39 563.48 293.96 559.31 288.67 554.6 284.79 548.19 261.34 546.6 258.41 551.63 253.94 557.67 283 563.07 284.8 577.34 301.23 579.69 299.1 589.05 308.17 587.07 314.12 585.88 318.22"/>
          <polygon points="494.21 279.05 494.83 288.82 497.33 293.96 500.35 296.72 502.44 301.88 506.76 304.69 511.72 308 517.64 313.56 522.11 315.92 525.61 310.73 519.21 307.08 511.38 302.9 506.12 297.96 503.56 290.15 498.15 291.2 499.61 281.7 497.84 277.53 494.21 279.05"/>
          <polygon points="499.12 276.99 532.14 262.28 540 283.9 532.14 298.1 526.73 309.08 512.28 301.41 507.36 296.81 504.52 288.22 499.68 289.19 500.87 281.44 499.12 276.99"/>
          <polygon points="540.03 177.9 541.62 179.02 540.6 180.24 541 180.41 541.97 179.27 545.74 181.94 547.24 182.24 547.44 184.45 547.81 184.51 547.6 182.31 549.04 182.61 551.95 185.17 549.72 187.74 550.07 188.14 552.36 185.57 555.99 187.19 559.31 189.54 558.56 190.87 556.21 189.29 556 189.76 558.31 191.33 555.69 196.01 551.57 192.61 554.39 190.44 553.64 189.87 550.93 191.97 546.91 187.88 545.07 188.27 544.25 184.12 539.64 180.74 535.57 177.72 540.03 177.9"/>
          <path d="m550.27,205.49c-.06,0-9.15,0-9.15,0l-4.75-5.86,2.07,10.09,2.8,2.6.27,6.75,4.59-.06-.22-4.81,4.4-8.7Z"/>
          <polygon points="548.96 203.55 543 198.63 536.58 191.45 533.66 191.44 535.98 196.92 539.54 199.75 541.72 203.55 548.96 203.55"/>
          <polygon points="548.5 239.4 545.97 221.44 541.53 221.44 541.23 226.84 539.74 233.92 537.51 241.26 542.09 241.26 548.5 239.4"/>
          <polygon points="550.27 249.9 545.48 255.09 541.9 253.66 536.65 253.38 535.7 250.86 536.82 243.59 542.07 243.71 549.47 241.86 550.27 249.9"/>
          <polygon points="558.56 178.67 562.49 183.68 562.2 184.15 560.02 181.57 559.76 181.84 561.99 184.5 561.01 186.08 557.22 183.35 553.79 182.49 549.43 180.03 549.17 178.94 554.9 179.31 555.01 178.96 549.08 178.53 548.96 178.02 558.56 178.67"/>
          <polygon points="356.83 198.05 356.83 200.91 371.18 200.83 374.98 198.97 373.57 197.44 373.72 191.48 368.72 191.48 368.68 193.17 354.02 193.18 354.02 195.66 369.54 195.87 369.64 198.05 356.83 198.05"/>
          <polygon points="375.32 189.99 379.49 186.34 358.54 186.85 358.76 187.93 373.72 187.86 372.86 188.9 354.41 189.04 354.23 190.1 375.32 189.99"/>
          <polygon points="439.38 147.37 447.8 147.29 443.29 139.19 437.82 136.43 434.99 136.45 435.43 139.79 438.75 139.79 439.38 147.37"/>
          <polygon points="438.22 143.08 438.39 147.29 437.34 147.29 435.65 140.58 437.96 140.61 438.22 143.08"/>
          <polygon points="425.15 135.8 425.15 137.05 427.89 138.49 430.2 142.58 432.97 142.58 432.69 139.79 434.51 139.79 434.09 136.43 425.15 135.8"/>
          <polygon points="413.63 73.67 412.79 74.77 411.33 73.75 401.93 85.82 402.82 86.61 400.96 88.69 398.65 86.7 411.02 71.51 413.63 73.67"/>
          <polygon points="411.55 70.86 413.8 68.11 415.96 66.69 422.37 66.69 402.67 90.1 401.71 89.24 403.97 86.38 403.16 85.67 411.59 74.78 413.11 75.84 414.81 73.57 411.55 70.86"/>
          <polygon points="546.06 316 548.96 315.06 552.29 316.52 554.6 320.27 554.6 325.4 553.32 331.33 548.61 334.8 541.91 331.6 540.58 325.58 544.13 318.35 546.06 316"/>
          <polygon points="545.26 315.5 538.36 311.62 531.35 301.17 526.99 310.46 522.84 316.26 529.79 321.46 532.96 330.6 537.74 332.47 541.21 331.69 539.89 325.49 543.86 317.34 545.26 315.5"/>
          <polygon points="545.37 336.12 540.75 335.44 537.39 333.31 541.87 332.46 546.39 334.44 545.37 336.12"/>
          <path d="m592.1,216.63c.15-.11,2.53-4.3,2.53-4.3l-2.53-2.37-3.06-4.47-4.84-5.86-3.49-3.09-5.01-4.77-3.28-2.24-12.41,24.43,5.18,3.6,2.46-5.23,3.88-4.34,5.8-2.35,4.19-.45,5.22,3.8,4.17,5.88,1.19,1.76Z"/>
          <path d="m587.33,304.21c-.45-.48-8.05-6.89-8.05-6.89l-1.64,1.79-13.27-14.98-4.36-68.15,4.36,3.62-.89,11.08v8.35s1.71,10.87,1.71,10.87l3.76,6.3,3.76,3.12,5.07,16.75,4.92,14.07,4.62,14.06Z"/>
          <polygon points="589.34 305.64 590.19 302.66 591.51 301.96 592.4 299.33 601.12 282.48 603.83 280.69 597.92 272.08 602.54 261.09 598.36 214.87 595.83 213.24 592.7 218.11 595.83 224.96 597.02 234.59 597.47 244.99 594.64 255.98 588.67 262.28 585.54 263.77 579.28 263.4 575.7 261.39 574.36 260.09 587.93 302.38 589.34 305.64"/>
          <polygon points="579.02 319.02 582.83 324.57 585.01 325.33 585.36 321.63 585.84 319.28 579.02 319.02"/>
          <polygon points="517.6 178.39 528.77 178.39 528.71 181.96 522.81 181.74 521.64 181.46 522.59 182.24 528.77 182.45 528.77 183.83 522.98 183.72 520.61 181.46 518.92 179.77 527.54 180.01 527.54 179.56 518.51 179.39 517.6 178.39"/>
          <polygon points="529.41 183.82 532.46 183.82 533.95 185.43 535.08 184.34 533.16 182.41 531.64 182.33 531.68 181.99 533.3 182.06 535.33 184.11 537.02 182.54 534.13 180.13 531.87 180.02 531.9 179.76 534.26 179.84 537.25 182.25 538.48 181.02 535.76 178.76 534.27 178.39 529.41 178.39 529.41 183.82"/>
          <polygon points="534.35 185.76 539.11 181.36 540.04 182.05 537.43 185.02 537.74 185.12 540.44 182.3 543.47 184.7 539.66 187.25 539.9 187.48 543.66 185.12 544.25 188.45 537.81 190.06 534.35 185.76"/>
          <polygon points="359.66 396.06 353.97 408.09 356.91 408.5 365.57 396.06 359.66 396.06"/>
          <polygon points="342.04 405.76 345.94 395.65 349.56 395.95 344.53 406.15 342.04 405.76"/>
          <polygon points="350.14 407.28 356.46 396.06 352.1 396.06 347.56 406.92 350.14 407.28"/>
          <path d="m314.87,136.12l.56,3.8-.56,1.48-4.29,3.97-4.77.26-2.76-1.83h-1.42s-.6,1.83-.6,1.83l-1.64.34-1.3-1.64s-1.98-2.61-1.98-2.68-.35-2.61-.35-2.61l1.1-3.52,10.29.09h7.08s.63.52.63.52Zm-8.46,1.32l-2.12,1.45-.19,1.57.97,1.68,1.9,1.34h3.09s2.39-2.4,2.39-2.4v-2.26s-1.86-1.38-1.86-1.38h-4.17Zm-10.16,2.01l.28,1.93,1.18,1.65h1.28s.49-1.95.49-1.95l-.07-2-1.12-1.16h-1.53s-.51,1.54-.51,1.54Z"/>
          <path d="m393.21,298.1l6.04,8.61-4.47,8.27-4.02.78-4.44-.81-2.38-8.92,3.02-6.71,6.26-1.23Zm-3.59,10.52s.58,1.08.58,1.08l1.39.48,1.7-1.13.5-1.09-.12-1.84-1.47-1.76-1.66.34-.9,2.22v1.71Z"/>
          <path d="m461.29,368.64l-3.37-5.74.91-47.93-2.18-2.24-2.81-5.31,1.19-9.34,6.34-4.14,4.61.89,5.14,10.73-5.69,8.72.55,51.43-4.7,2.91Zm-.22-68.24l-1.55,1.98-.1,3.27.63,1.44,1.02.91,2.11-.04,1.5-1.18.76-2.09-.4-2.53-1.77-1.45-2.2-.3Z"/>
          <polygon points="455.03 246.78 461.52 246.78 468.23 241.41 472.03 230.46 472.03 220.4 470.02 214.13 465.44 208.77 459.42 204.52 453.69 204.52 447.64 208.76 447.63 208.75 464.28 185.29 472.45 185.85 472.14 193.79 472.47 200.49 476.76 208.64 481.31 212.57 480.97 218.11 476.39 248.46 461.07 276.07 449.89 272.38 446.98 240.97 446.23 238.47 449.44 242.53 455.03 246.78"/>
          <path d="m459.42,208.99l5.31,3.34,3.94,8.96v8.5s-3.23,8.27-3.23,8.27l-3.01,2.91h-8.29s-4.92-4.25-4.92-4.25l-3.8-6.71-.67-8.83,2.24-7.94,5.59-4.25h6.85Zm-5.58,3.34l-3.44,3.12-2.07,5.5v8.39s5.59,7.16,5.59,7.16l6.79,1.1,4.34-4.46,1.84-10.29-4.4-8.39-8.65-2.14Z"/>
          <polygon points="460.96 217.71 464.28 223.27 463.16 230.34 459.42 233.92 454.79 233.17 451.64 228.45 451.61 221.07 454.59 216.82 460.96 217.71"/>
          <path d="m579.36,262.28l-4.02-2.76-4.23-4.99-3.41-4.84-1.68-4.66-.82-16.96,1.19-8.91,3.95-6.89,3.88-3.91,4.92-1.45,5.66,2.72,4.4,4.88,4.55,8.8s2.09,11.63,2.09,11.48,0,11.25,0,11.25l-2.68,7.7-3.58,5.04-4.17,3.13-6.04.37Zm-4.1-49.04l-5.07,4.87-2.16,4.15-1.24,6.87,1.38,16.08,2.01,4.1,6.1,7.9,4.34,2.11,5.51-.91,5.24-5.51,2.35-7.04.91-10.11-1.49-6.75-2.24-7.86-5.37-7.17-5.52-2.81-4.77,2.09Z"/>
          <path d="m577.79,254.83l-4.84-5.22-2.94-5.74-1.01-8.64-.04-7.09,2.16-6.11,3.06-3.92,3.31-2.14h3.88s3.73,2.14,3.73,2.14l3.58,3.77,2.24,5.14,1.49,4.84.75,4.32-1.6,8.72-2.09,5.83-3.84,4.38-4.84.85-2.99-1.15Zm6.71-3.13l2.68-2.83,2.53-5.66,1.19-6.71-.75-5.81-2.24-5.7-3.43-3.84-4.92-2.2-5.07,3.8-2.98,6.26v8.59s1.79,6.59,1.79,6.59l1.94,3.49,2.98,3.36,4.02,1.41,2.24-.75Z"/>
          <path d="m583.01,224.76l3.28,4.25,1.04,4.96v7.01s-1.49,4.32-2.16,4.7-3.95,1.12-3.95,1.12c0,0-3.13-2.83-3.43-3.43s-2.09-5.75-2.09-5.75c0,0,0-5.39.15-5.99s1.57-4.62,1.57-4.62l2.72-2.24h2.87Z"/>
        </g>
      </g>
      <g id="DogWheelsWhitev02_copy_3" data-name="DogWheelsWhitev02 copy 3">
        <g>
          <polygon points="640.78 295.79 634.82 288.1 628.15 283.54 620.28 283.26 609.85 289.52 603.51 300.53 600.16 315.31 594.94 333.2 594.94 339.53 592.7 319.41 594.2 299.82 602.53 283.82 609.48 278.79 617.42 276.8 622.89 278.79 630.72 281.4 640.78 295.79"/>
          <path d="m620.05,378.41c-.12,0,4.98,0,4.98,0l4.79-2.54,5.87-6.89,5.87-12.11,1.75-10.78-.09-5.39-2.03-8.11-.42,9.53-1.05,7.57-1.23,4.33-3.7,9.5-5.17,8.52-3.92,3.49-5.64,2.86Z"/>
          <path d="m616.23,373.93c-.12,0,4.93-.82,4.93-.82l4.24-3.14,3.59-4.84,5.38-11.68,1.89-9.48.42-4.93-.98-8.5-.7,8.5-1.12,9.81-2.24,6.97-2.58,5.46-4.96,8.39-4.99,3.05-2.87,1.21Z"/>
          <path d="m618.51,375.61c-.12,0,5.34-1.23,5.34-1.23l4.3-3.93,4.68-6.11,4.07-8.84,1.8-5.95.56-5.21-.63-6.92-.42,6.54-1.26,6.64-2.49,6.53-3.73,7.09-5.04,7.06-2.57,1.96-4.61,2.38Z"/>
          <polygon points="606.21 349.55 608.58 348.71 610.4 344.1 610.68 343.39 612.22 339.53 612.22 335.29 612.22 334.5 611.38 336.55 610.68 339.53 608.31 345.91 607.33 347.45 606.21 349.55"/>
          <polygon points="616.74 319.78 618.09 320.48 619.07 317.68 620.18 314.89 621.3 310.98 622.65 303.43 622.65 300.63 622 302.45 620.32 311.4 619.07 314.47 617.53 317.82 616.74 319.78"/>
          <path d="m628.99,330.54l2.1-2.66,2.19-3.49,2-3.91,1.4-3.77v-2.66s-.56-.56-.84,0-1.4,3.63-1.4,3.63c0,0-1.49,2.52-1.16,2.8s-.44,2.66-.44,2.66c0,0-1.33,1.82-1.47,2.24s-2.38,2.93-2.38,2.93v2.24Z"/>
          <polygon points="616.74 333.2 617.57 331.17 619.7 325.93 621.72 323.83 623.82 322.99 624.8 322.99 623.96 324.25 621.72 325.23 619.7 328.1 616.74 333.2"/>
          <path d="m627.11,339.8l.76,5.28v15.93s.08,2.15.08,2.15l.93-1.57c.28-.52.11-16.65.11-16.65l.36-5.4.61-3.96s3.21-3.91,2.86-4.33,3.28-6.15,3.28-6.15l.56-2.92.7-2.67-.7-.98-4.47,10.2-2.24,2.66-.98,3.12-1.26,3.73-.62,1.57Z"/>
          <path d="m618.51,343.96l-1.77-5.17v-4.29s-1.59,3.17-1.87,4.01-2.8,5.03-2.66,5.45-1.82,4.47-2.1,5.59-2.1,5.31-2.38,5.73-1.41,3.21-1.41,3.21l1.28-.42s2.1-4.19,2.38-4.75,2.89-4.84,2.89-4.84l2.05-2.8.84-.89,2.75-.84Z"/>
          <path d="m603.83,329.42c.05-.26.42-3.18.42-3.18l1.12-6.32,2.52-9.36,1.33-4.22,2.07-4.5,4.86-4.96s2.64-1.88,3.55-1.88h5.1s4.19,1.72,4.19,1.72l2.52,2.24s-.84.98-1.26.98-4.89-1.26-5.45-1.26-4.89-.28-5.1-.14-3.15,1.68-3.57,2.1-3.21,3.35-3.21,3.35c0,0-2.38,3.63-2.8,4.61s-2.93,10.1-2.93,10.1l-3.35,10.73Z"/>
          <path d="m615.99,331.38c0-.42-.56-4.61-.84-5.87s-1.4-6.29-1.4-6.29c0,0-1.96-2.93-2.52-3.49s-1.26-2.52-1.26-2.52l.56-1s1.26,2.82,1.82,3.52,2.38,3.77,2.38,3.77c0,0,1.78,1.68,2.01,1.82s2.96.85,2.96.85l1.07-.38-3.1,6.3-1.68,3.28Z"/>
          <path d="m619.7,319.64c-.07-.7.07-3.28.49-4.75s2.14-5.59,2.47-6.01,2.56-4.33,2.14-5.03,0-3.21,0-3.21c0,0,1.12-2.1,1.12-.98s1.82,3.77,1.12,4.75c-.7.98-.98,4.19-.98,6.15s0,5.31-.14,6.43-.28,4.19-.28,4.19c0,0-2.61-.56-2.98-.7s-2.96-.84-2.96-.84Z"/>
          <path d="m618.51,345.49s1.23,4.47,1.17,5.03-.05,4.98.02,5.78.07,6.1,0,6.94-.02,6.71-.02,6.71l-.57,2.77-1.37.58-.99-4.47-.63-5.15-.89-5.5-1.05-6.41v-2.8s1.96-2.93,1.96-2.93l2.38-.56Z"/>
          <path d="m614.87,329.42c-.28-.84.02-4.61-.76-5.17s-1.75-4.33-1.75-4.33c0,0-.84-2.8-1.26-3.07l-1.89-1.26c-1.19.35,0,3.77,0,3.77,0,0,1.89.28,2.03,1.12.14.84.56,3.63,1.12,4.33s1.83,2.1,1.75,2.66l.76,1.96Z"/>
          <path d="m603.41,330.54l.07,3.96-.07,4.43.45,6.1.47,5.19.33,3.72,1.21,4.75,1.35,5.12,2.9,4.7s4.48,5.29,4.4,5.33-4.64-4.45-4.64-4.45c0,0-3.68-5.26-3.96-6.36s-1.12-5.71-1.4-6.73c-.28-1.02-1.26-6.75-1.26-6.75,0,0-.75-7.97-.75-8.39s.34-6.29.34-6.29l.55-4.33Z"/>
          <path d="m590.6,304.55l-2.74,9.01s-1.22,4.61-1.22,5.17c0,.56-1.49,8.04-1.63,8.59-.14.56-.62,7.96-.63,8.38s-.1,12.21-.02,13.14c.08.93,2.03,9.04,2.01,10.46-.02,1.42,2.98,11.55,3.13,12.06s3.8,7.69,3.8,7.69c0,0,3.6,5.23,3.85,5.58s2.89,2.19,2.89,2.19l3.77,1.7h1.26s-3.88-1.77-3.88-1.77l-3.28-2.34-6.57-10.94s-3.27-10.14-4.11-14.17-1.68-10.33-1.96-12.77.4-17.11.4-17.11l4.91-24.88Z"/>
          <polygon points="624.35 345.58 626.19 342.02 627.03 344.52 627.03 351.22 627.03 358.63 627.03 363.8 627.03 364.71 624.79 368.51 624.35 345.58"/>
          <path d="m617.67,339.53c-.28,1.15,2.01,3.73,3.1,3.87s4.03.94,4.03.94c0,0,.98-2.41,1.68-3.18s.72-2.24.72-2.24c0,0-1.23,2.1-1.6,2.24s-1.56.75-2.15.86-2.13-.3-2.83-.86-2.52-2.24-2.52-2.24l-.42.61Z"/>
          <path d="m619.75,334.5s-.29,2.22,0,2.49.63,2.03,1.02,2.55,1.88.8,1.88.8l1.44-.8-1.68-.61s-1.9-1.36-1.65-1.94,0-2.49,0-2.49h-1.02Z"/>
          <path d="m628.15,332.77s-.67,2.01-.9,3.13c-.06.3-.09.54-.06.65.12.56-1.6,2.38-1.6,2.38,0,0-1.07.42-1.49,0s-1.44-2.99-1.44-2.99c0,0,1.1-1.76.78-2.18s1.36-3.21,1.36-3.21l1.54-1.12s-.47,2.93-.93,3.63-1.44,3.21-1.3,3.35,1.3.58,1.3.58l1.79-4.22h.96Z"/>
          <polygon points="624.81 327.39 623.45 328.16 621.88 331.44 620.87 333.2 621.04 331.44 619.94 331.66 620.06 330.26 621.88 328.16 622.67 327.39 624.12 327.39 624.81 327.39"/>
          <polygon points="647.25 313.8 648.55 322.99 649.11 331.38 648.62 340.5 647.25 349.55 643.73 362.08 639.05 374.29 635.56 380.97 633.09 384.07 630.34 386.09 633.19 383.51 635.35 380.69 638.98 373.12 643.38 361.01 645.72 351.83 647.25 344.56 648.17 336.27 648.31 328.1 647.25 313.8"/>
          <polygon points="498.6 295.12 495.82 301.77 493.96 309 492.84 314.66 492.23 319.08 491.91 325.44 491.91 331.87 491.91 335.05 490.91 329.84 490.6 323.62 490.6 317.38 490.6 311.61 491.53 305.83 492.65 299.54 494.7 294.79 496.3 291.85 497.32 293.96 498.6 295.12"/>
          <path d="m515.01,353.53l5.17,1.54h4.19s4.05-1.54,4.05-1.54h1.26s.98,2.1.98,2.1v1.26s-2.1,1.4-2.66,1.68-2.93.98-3.63.98-3.77-1.6-3.77-1.6l-2.38-1.41-3.21-3Z"/>
          <polygon points="531.64 351.99 532.9 354.28 535.14 353.13 537.51 350.74 539.47 347.38 541.15 344.47 541.15 343.61 539.89 342.78 538.63 343.61 537.37 346.78 535.84 347.94 534.02 350.18 531.64 351.99"/>
          <path d="m544.4,335.98c-.35.96-1.16,3.02-1.16,3.02l-.95,1.86.03,1.12-2.43-1.16s1.12-2.8,1.26-3.21c.04-.13.79-1.43,1-1.96l2.26.33Z"/>
          <path d="m547.06,334.06s-.88,2.1-.88,2.89c0,.79-1.43,5.83-1.43,5.83l-3.04,5.16-2.45,4.24-2.49,3.26-3.31,3.12-2.8,2.38s-2.1,1.68-2.52,1.68-3.51.22-4.33,0c-.39-.1-3.96-1.68-3.97-1.69,0,0,0,0,0,0l-3.59-2.93-3.76-3.72-3.49-2.28,2.28,4.54,2.33,3,4.47,4.19,4.05,1.68h5.31s4.75-1.68,5.45-2.1,6.01-6.71,6.29-6.78,3.13-5.1,3.13-5.1c0,0,3.3-6.37,3.3-6.4s1.82-3.8,1.82-4.22,1.31-6.11,1.31-6.11l-1.69-.64Z"/>
          <path d="m553.5,318.49s.08-.88-.06-1.3c-.14-.42-.84-6.59-.84-6.59l-1.4-5.87-1.26-5.2-1.68-4.75-2.24-4.01,3.04,4.58,1.21,2.97,1.45,4.58.87,3.39.84,4.32s.84,4.91.98,5.64c.14.73.22,3.16.08,3.85l-.99-1.61Z"/>
          <path d="m551.26,337.55c.11-1.81.97-4.59,1.05-5.48l.55-.41-1.9,8.77-1.18,3.17s.55-2.08.97-3.31c.17-.48.49-2.38.51-2.75Z"/>
          <path d="m507.19,336.95l1.82-1.84,2.28-3.24,1.35-3.63h1.12s-.84,1.4-1.12,2.31-1.17,5.11-2.17,4.51c-1-.6-3.28,1.9-3.28,1.9Z"/>
          <path d="m513.76,351.02s-.7-2.38,0-3.07c.7-.7.84-3.35,1.26-4.33s2.1-3.63,2.1-4.61c0-.64.36-2.67.61-3.99.13-.69.23-1.18.23-1.18v5.17s-1.26,2.96-1.4,3.79-.85,4-.85,4l-1.94,4.23Z"/>
          <path d="m527.03,350.18s-.56-3.63-.84-4.05c-.09-.14-.12-.57-.12-1.09,0-1.1.12-2.61.12-2.61,0,0-.7-2.53-1.12-2.56s-2.24,0-2.24,0l1.26.81.84,1.75,2.1,7.76Z"/>
          <path d="m529.2,330.54s2.73.91,3.14,1.33,4.05,1.12,4.05,1.12l.21.11s.67-.24.11-.54c-.27-.15.15-.19-.64-.5-.85-.34-1.41-.63-1.41-.63-.73-.04-2.47-.41-3.03-.89s-2.45.02-2.45.02Z"/>
          <path d="m508.44,306.02s2.1,1.82,2.03,2.24,2.8,4.28,2.97,4.45,2.25,1.96,2.25,1.96l.57-.82-1.26-2.24s-1.18-.44-1.57-1.27-5-4.32-5-4.32Z"/>
          <path d="m515.7,324.95c-.12.63,1.41,3.7,1.69,4.82s.84,5.31,2.38,5.87,2.66,1.35,4.05,1.3,3.21-1.84,3.21-1.84c0,0-1.68-.72-2.1-.72s-1.96-1.4-2.8-1.4-2.24-1.96-2.52-2.45-.84-1.47-1.12-2.31-2.24-3.28-2.24-3.28h-.57Z"/>
          <path d="m516.27,321.53c.14.7,1.12,3.09,1.12,3.09l2.8.33s.42,2.86.56,3.28-.58,1.94.62,2.71,3.16,1.76,3.57,2.04,2.8.84,2.8.84v-2.88s-3.63-1.74-3.63-1.74c0,0-1.54-1.82-1.26-2.24s0-2.36,0-2.36l-.84-3.09s-1.54-.84-1.68-.56-.42,1.4-.42,1.4l-1.96-.84h-1.68Z"/>
          <path d="m529.2,328.24c1.61-.84,2.49-1.31,2.49-1.31l-1.72-4.96s-.69-.16-.76.26-2.03.56-1.47,1.4c.56.84,1.96.56,1.47,1.82s-1.61,3.63,0,2.8Z"/>
          <path d="m525.77,327.37s-1.12-1.65-1.68-2.42-1.26-4.04-1.26-4.04c0,0,1.16-3.05,1.99-2.77s2.25,1.34,2.31,1.53c.06.19,1.08,1.62.49,2.37s-1.16,2.17-.6,2.58,1.1,1.1.83,1.66-2.09,1.09-2.09,1.09Z"/>
          <path d="m527.93,335.05l2.03,8.56.9,2.1s1.62-.37,2.04-1.23,1.09-2.49,1.09-2.49l-1.79.8s-1.22,1.94-1.24.83c-.02-1.12-3.03-8.56-3.03-8.56Z"/>
          <path d="m507.19,341.98c-.01.05.84,2.26.84,2.26l.98,3.7,2.28,2.24,1.18.79-1.94-3.3-1.05-1.82-2.28-3.87Z"/>
          <path d="m537.93,293.86c.28.42,1.51,4.05,2.08,4.75s2.5,4.05,2.31,4.47,1.06,1.96,1.2,2.38,1.34.1,1.23-.72c-.11-.82.81-2.49,0-3.61s-2.88-4.47-3.24-5.17-2.56-2.8-2.72-3.07-.86.98-.86.98Z"/>
          <path d="m501.37,299.24c-.7,1.44-1.03,2.44-1.31,3.28s-2.24,8.66-2.38,9.5-.7,8.94-.7,8.94l1.26,12.02,2.7,7.39,3.59,4.09-.8-4.36-1.08-6.74-.49-7.51s-.56-6.43-.56-9.92.42-7.32.84-10.3.43-2.91.6-3.37l-.6-.39-1.07-2.64Z"/>
          <path d="m492.51,337.6s1.54,5.41,1.82,6.48c.28,1.07,2.66,7.92,2.66,7.92l3.49,5.75,6.71,7.16,5.17,4.15,4.47,2.38h-1.14s-4.4-1.68-4.4-1.68l-4.66-3.49s-3.21-3.4-3.91-4.5-3.35-4.01-3.35-4.01c0,0-1.82-3.37-2.38-4.21s-2.38-5.59-2.52-6.01-1.96-9.92-1.96-9.92Z"/>
          <path d="m534.1,368.2s2.57-2.06,3.81-2.9,5.33-5.76,5.33-5.76l2.95-5.35,1.71-4.02,1.48-3.39-.35,1.75s-2.45,6.82-3,8.01c-.56,1.19-2.97,4.36-3.72,5.22s-3.97,4.5-3.97,4.5l-4.25,1.96Z"/>
          <path d="m542.32,306.99s.78,2.35.92,3.34-.43,2.86-.15,3.95l-1.44-.81c-.04-1.65-.15-3.69.09-4.11s.57-2.38.57-2.38Z"/>
          <path d="m505.65,326.52l4.12-3.82-.77-1.78-2.26-1.83v-1.07s2.26-.76,2.26,1.07c0,1.83,1.47,2.96,1.47,2.96,0,0,.21,1.44,0,1.58s-4.82,2.89-4.82,2.89Z"/>
          <path d="m508.11,309.37c.2.42,1.18,2.75,1.67,3.33s2.73,2.1,2.59,2.95-.33,1.41-1.07,1.55-3.18-1.55-3.18-1.55l-2.46-.99v.99s2.8,1.41,2.8,1.41l2.84,2.03,3.73-1.22s-.62-2.53-1.57-3.2c-.95-.68-2.88-3.42-2.88-3.42l-2.46-1.86Z"/>
          <path d="m508.44,340.38l2.84-2.78,4.41-5.01s-1.44,3.71-2.25,4.36-1.27,2.5-2.16,2.9-2.84,1.71-2.84,1.71v-1.18Z"/>
          <path d="m516.27,351.99c.14-.42,1.68-4.05,1.68-4.05,0,0,1.26-2.89,1.4-3.47s2.02-3.1,2.02-3.1v1.41s-1.04,2.36-1.46,2.92-.52,2.37-1.1,3.28-2.54,3.01-2.54,3.01Z"/>
          <path d="m534.1,340.38s.36-.77.69-1.52c.23-.52.43-1.03.49-1.26.14-.56,2.77-3.71,2.77-3.71l-1.09,2.83-2.85,3.66Z"/>
        </g>
      </g>
    </g>
  </g>
  <g id="Layer_69" data-name="Layer 69">
    <rect class="cls-3" x="58.65" y="0" width="687.2" height="592.78"/>
  </g>
</svg>