<?xml version="1.0" encoding="UTF-8"?><svg id="a" xmlns="http://www.w3.org/2000/svg" viewBox="0 0 745.8565 617.1121"><g id="b"><rect x="213.0976" y="129.6329" width="416.4876" height="431.1149" style="fill:#797979;"/><rect x="58.6515" y=".0005" width="687.2046" height="617.1111" style="fill:#fff;"/></g><g id="c"><path d="m597.6992,126.7198c-6.8582,8.1163-13.6547,16.1596-20.5914,24.3688,35.6067,68.0251,71.1154,135.863,106.6202,203.6934-37.4595,71.543-74.7626,142.7871-112.0641,214.0283-116.1702,0-232.2003,0-348.2639,0-8.2712,9.7435-16.5221,19.4629-25.0481,29.5065,130.8877,0,261.1642,0,391.415,0,42.4835-81.1413,84.9018-162.158,127.506-243.53l-119.5738-228.0671Z"/><path d="m322.5575,135.1579l1.5572-5.307v-1.6992s-1.7549-9.0488-1.7549-9.0488l-.7763-.5985,4.2423-4.448-2.5872-2.6724h-139.4386c-102.2789,153.4938-105.0095,299.5163-10.0529,470.1739,6.8454-8.1526,13.5378-16.123,21.2003-25.2488-77.914-138.8513-84.9203-277.5424,6.2194-414.9402h114.0099l.9577-.0018,2.7369-2.6457,3.6861-3.5633Z" style="fill:#ffce07;"/><polygon points="346.3288 133.9882 346.919 135.3545 354.7606 134.0828 356.9904 133.9943 366.2637 129.8509 368.9207 128.0306 368.7715 125.3194 366.3957 122.1434 364.2513 119.7294 362.9097 119.103 349.2699 115.9281 347.4811 116.1517 349.0805 121.9477 345.9501 132.3173 346.3288 133.9882" style="fill:#ffce07;"/><path d="m400.1803,117.1988l5.4374,5.4374,1.1925,2.6832,9.6421,16.0494h129.9768c8.3545-9.9089,16.7377-19.852,25.2808-29.9848l-166.4785-.0015-5.0511,5.8163Z" style="fill:#ffce07;"/></g><g id="d"><path d="m191.7061,453.1551c-.4562.0527-.9125.1053-1.4737.1701-.0398.3397-.0906.6646-.114.9914-.2237,3.121.0902,6.1496,1.5342,8.9893.1219.2398.1415.5315.2087.7992-.0778.3731-.2227.7461-.2234,1.1194-.0135,7.2542-.0092,14.5084-.0111,21.7625-.0004,1.5832-.269,1.8548-1.8319,1.8575-2.1817.0038-4.3635.0037-6.5452.0002-1.5925-.0026-1.8555-.2641-1.8815-1.8178-.0052-.3096-.0468-.6185-.0716-.9277h7.5053v-49.8106h9.695v2.8221h-6.8687c0,.5212,0,.8873,0,1.2534,0,3.2079-.0065,6.4158.0034,9.6237.0032,1.0558.0485,2.1115.0746,3.1673Z" style="fill:gray;"/><path d="m201.1515,486.1162h8.445c-.0755-.5534-.0617-.9658-.1917-1.3265-1.5614-4.3309-3.1431-8.6545-4.7215-12.9792-1.3437-3.6816-2.6905-7.3622-4.0342-11.0438-.06-.1645-.1024-.3355-.1636-.5384,1.2406-.1143,2.4203-.1637,3.5801-.3422,2.5045-.3854,3.8926-1.9449,4.0737-4.4728.0156-.2174.0236-.4358.0237-.6537.0042-7.1041.0197-14.2083-.0062-21.3123-.0032-.8886-.2265-1.7764-.3479-2.6645,1.1928.178,1.9318,1.0159,2.4211,1.9652.3998.7756.6584,1.7171.6645,2.5873.0519,7.4197.0679,14.8401.0129,22.2597-.0185,2.4969-1.6748,5.1373-5.7612,5.2296-.5726.0129-1.1438.0874-1.8924.1475.6629,1.8376,1.2577,3.4956,1.8589,5.1514,2.2743,6.2643,4.5557,12.5261,6.8153,18.7957.1611.4469.1673.9496.2738,1.5982-.5845.1272-1.0438.3082-1.5053.3139-2.3716.0294-4.7446-.0218-7.1155.0305-1.034.0228-1.6617-.3578-1.9539-1.3376-.1414-.4744-.316-.939-.4755-1.408Z" style="fill:gray;"/><path d="m304.6676,485.8294c2.6316.8344,5.2565.2269,7.8741-.0718,1.7638-.2013,3.5131-.5298,5.3068-.8073.1191.348.2344.6849.3632,1.061h8.8244c.0474-.3937.1275-.7494.1278-1.1053.0065-10.4801.0111-20.9601-.0059-31.4402-.0014-.8639-.1578-1.7275-.2422-2.5912,1.2922.2043,1.9958,1.1464,2.4262,2.2099.3537.8741.5571,1.8713.5606,2.8149.0384,10.4425.0265,20.8852.0227,31.3278-.0005,1.2985-.3152,1.6098-1.5903,1.6153-1.7475.0075-3.4955-.0201-5.2424.0116-1.2026.0218-2.3982.1013-3.0924-1.0523-2.8217.343-5.5339.6973-8.2523.9944-1.8392.201-3.665.2477-5.3557-.7591-.8812-.5247-1.4772-1.2163-1.7245-2.2078Z" style="fill:gray;"/><path d="m408.5913,486.1099c1.1816-.0129,2.3632-.0308,3.5448-.0373,1.1783-.0064,2.3567-.0014,3.6402-.0014.0611-.4481.1507-.8.1509-1.152.0074-10.5846.0153-21.1692-.0109-31.7537-.0022-.8867-.2424-1.7729-.3721-2.6593,1.8147.5901,2.9473,1.9751,3.0076,3.8412.0645,1.9937.0474,3.9904.0483,5.9857.0039,8.8553.0023,17.7107.0007,26.566-.0003,1.6995-.2468,1.9444-1.9411,1.9462-2.0602.0021-4.1203.0028-6.1805-.0005-1.4592-.0024-1.8343-.3709-1.8575-1.8013-.005-.3113-.0202-.6224-.0306-.9336Z" style="fill:gray;"/><path d="m392.2926,486.1029h7.2393v-29.8141h6.7616v2.6714c-.9966-.0067-1.9934-.0021-2.9896-.0238-.7101-.0154-1.0154.3036-1.0086,1.0143.0173,1.8056.0042,3.6115.0041,5.4172-.0003,7.1919.0008,14.3838-.0013,21.5757-.0005,1.6403-.2596,1.8997-1.8841,1.9016-2.1194.0024-4.2388.0046-6.3582-.0021-1.3731-.0043-1.6777-.3209-1.7076-1.7166-.0073-.3414-.0364-.6824-.0555-1.0236Z" style="fill:gray;"/><path d="m284.2094,478.7458h-2.7476v-9.1201h13.3052c.7001-.7491,1.4911-1.543,2.2102-2.3973.2128-.2528.3109-.6754.3126-1.0208.02-4.3285.0289-8.6573-.0024-12.9857-.0058-.7965-.2029-1.5916-.3117-2.3873.9809.1165,1.7437.6674,2.0988,1.5137.4243,1.0112.831,2.1187.8547,3.193.0961,4.3578.0693,8.7193.0114,13.0784-.0077.5808-.3337,1.2589-.723,1.711-.7222.8388-1.5999,1.544-2.4128,2.3048-.0617-.0151-.1234-.0301-.1852-.0452-.278-.0784-.5557-.2237-.834-.2249-3.4834-.0152-6.9669-.0122-10.4504-.005-.3287.0007-.6573.0606-1.1257.1068v6.2785Z" style="fill:gray;"/><path d="m237.7781,472.6356c-.0618-.0151-.1235-.0301-.1853-.0452-.278-.0784-.5557-.2237-.8339-.2249-3.4834-.0152-6.967-.0122-10.4504-.005-.3287.0007-.6573.0606-1.1258.1068v6.2785h-2.7476v-9.1201h13.3052c.7001-.7491,1.491-1.543,2.2101-2.3973.2128-.2528.311-.6754.3126-1.0208.02-4.3285.0289-8.6573-.0024-12.9857-.0058-.7965-.2029-1.5916-.3117-2.3873,1.706.5338,2.9378,2.1862,2.9664,4.3062.0615,4.5449.044,9.0914.0004,13.6367-.0045.4653-.3139,1.0087-.6408,1.3738-.7818.8732-1.6584,1.6616-2.4967,2.4843Z" style="fill:gray;"/><path d="m334.2028,486.1029h7.2534v-29.7989h5.5115v2.8001c-3.3362-.2111-2.7469-.0677-2.7518,2.378-.017,8.5019-.0058,17.0038-.008,25.5057-.0004,1.5769-.2775,1.8549-1.8356,1.857-2.1512.003-4.3023.0045-6.4535-.0021-1.3933-.0043-1.6405-.2566-1.6605-1.6226-.0054-.3726-.0364-.7449-.0557-1.1174Z" style="fill:gray;"/><path d="m245.6281,485.6523c1.1338.1396,2.2664.3872,3.4016.3997,4.3052.0476,8.6113.0265,12.9169.0116.6809-.0023,1.3752-.0375,2.0396-.1735,2.136-.4372,3.4864-1.9393,3.5297-4.1041.0699-3.4891.0531-6.981.0051-10.4707-.009-.6557-.335-1.307-.5148-1.9603,2.0036.8056,3.2967,2.6685,3.3129,4.8685.0225,3.055-.0108,6.1103.0106,9.1653.0263,3.7526-1.8435,5.2953-5.2384,5.4045-4.9569.1593-9.9233.0747-14.8847.0169-2.3869-.0278-3.8483-1.1216-4.5786-3.1579Z" style="fill:gray;"/><path d="m363.0985,485.8594c5.8509.0618,11.7018.1627,17.5527.1672,2.5361.002,4.2736-1.6407,4.4099-4.1533.1382-2.546.0896-5.102.1265-7.6536.0045-.3083.0322-.6162.0492-.9243,2.5073-.1463,2.6233-.0408,2.6222,2.412-.0012,2.6496.0161,5.2994-.0131,7.9487-.0347,3.1428-2.0123,5.152-5.1462,5.1703-5.1174.0299-10.2352.0163-15.3527-.0077-1.4228-.0067-2.7256-.4423-3.6576-1.5749-.306-.3719-.3999-.9179-.5908-1.3843Z" style="fill:gray;"/><path d="m274.9974,485.7117c1.1379.1198,2.2751.3351,3.4137.3428,4.7121.032,9.4251.0355,14.137-.0194,2.7925-.0325,4.4632-1.5835,4.6411-4.3313.1446-2.2335.111-4.4784.1564-6.7183q2.6293-.0871,2.6295,2.5418c0,1.7451.0748,3.4946-.0258,5.2339-.0709,1.2257-.2355,2.486-.6229,3.6423-.4081,1.218-1.5076,1.871-2.7409,2.1736-.6299.1545-1.2919.2464-1.9398.2489-4.9601.0192-9.9207.0371-14.8804-.0174-.8794-.0096-1.7953-.2542-2.6225-.5749-1.124-.4358-1.8655-1.3115-2.1453-2.522Z" style="fill:gray;"/><path d="m215.9706,485.7117c1.1378.1198,2.2749.3351,3.4134.3428,4.7118.032,9.4243.0355,14.1358-.0193,2.7931-.0325,4.47-1.5832,4.6412-4.3294.1428-2.2916.0979-4.5949.1361-6.893.1861.0148.372.0399.5583.0429,1.9292.0316,2.0914.1892,2.0922,2.0779.0009,2.1826.0125,4.3653-.0082,6.5477-.0306,3.2334-1.9091,5.2799-5.1222,5.3288-5.1489.0784-10.3011.0789-15.4496-.0167-2.0062-.0373-3.8729-.9464-4.3971-3.0818Z" style="fill:gray;"/><path d="m372.303,477.9702h-2.7566v-21.779h6.2539v2.7429c-.8704-.0117-1.7408-.0227-2.6113-.0352-.6085-.0087-.9282.2728-.9267.8972.0146,6.058.0273,12.116.0406,18.1741Z" style="fill:gray;"/><path d="m349.1674,464.6481c1.9574-.0206,3.9148-.0384,5.8721-.0642.3991-.0053.7978-.0406,1.46-.0762-.1537-4.6545.3473-9.2553-.3205-13.8516,1.7035.5119,2.9331,2.1746,2.9697,4.303.0634,3.677.033,7.3559.0202,11.0338-.0029.8425-.4977,1.3128-1.3589,1.3186-2.4026.0162-4.8054.0145-7.2081.0005-1.0036-.0059-1.3133-.3478-1.3504-1.365-.0158-.4334-.0554-.8659-.0842-1.2989Z" style="fill:gray;"/><path d="m378.0512,462.5178h7.1626c-.2214-4.0344.3895-7.9241-.4203-11.7965,1.1785.0784,1.8843.928,2.3381,1.801.4428.8521.6563,1.9017.6877,2.8738.0898,2.7735.043,5.5517.0348,8.328-.0036,1.2075-.3443,1.5299-1.5791,1.5336-2.1548.0065-4.3096.0068-6.4644.0002-1.3839-.0042-1.6834-.3169-1.7043-1.7144-.0051-.3421-.0361-.6838-.0552-1.0257Z" style="fill:gray;"/><path d="m260.5828,461.1708h6.9673c-.207-3.5907.3722-7.0401-.421-10.4704,1.3992.2726,2.2966,1.1646,2.6233,2.4793.2819,1.1343.3804,2.3305.4216,3.5042.0658,1.8692.0491,3.7434-.0043,5.6135-.0154.5382-.2765,1.0694-.43,1.6223-2.8078,0-5.3957.017-7.9832-.0114-.691-.0076-1.0686-.4585-1.1108-1.1515-.0321-.528-.0428-1.0572-.063-1.5859Z" style="fill:gray;"/><path d="m402.2658,448.7848c-.8356.1568-1.6711.3137-2.5682.4821-.0292-.3735-.0642-.6146-.0645-.8558-.0064-6.0283-.0094-12.0565-.0105-18.0848,0-.091.0307-.182.0471-.273.8355.0565,1.671.113,2.5961.1756v18.5559Z" style="fill:gray;"/><path d="m304.6005,460.6378h6.552v-5.193h6.9186v2.7484c-.9895-.0208-1.9797-.0246-2.9682-.0677-.784-.0342-1.1414.2852-1.118,1.089.0332,1.1435.0157,2.2884.0199,3.4327-1.7085.0091-3.4192-.0303-5.1249.0429-1.327.057-2.648.2545-3.9717.3895-.1025-.8139-.2051-1.6278-.3076-2.4417Z" style="fill:gray;"/><path d="m254.9009,461.3892c-.8867-.4956-1.7733-.9911-2.6545-1.4837v-4.3759h6.0956v2.6326c-.7181.0019-1.4362.0003-2.1543.0066-1.0926.0096-1.2056.1338-1.2245,1.2608-.0109.6534-.0409,1.3064-.0623,1.9596Z" style="fill:gray;"/><path d="m246.1506,466.6015c1.2152.682,2.4407,1.3464,3.6434,2.0497,2.8526,1.6681,5.6944,3.3546,8.5382,5.0324v1.1456c-.69-.3391-1.4006-.6425-2.0662-1.0243-1.7441-1.0005-3.4989-1.9879-5.1919-3.0705-1.4834-.9486-2.9077-1.9941-4.3132-3.0561-.3023-.2284-.412-.7112-.6104-1.0768Z" style="fill:gray;"/><path d="m255.047,478.6127h-2.8207v-4.0278c.1843.0209.3682.0536.553.0609,2.0105.0788,2.1781.2603,2.1889,2.3058.0029.5538.0513,1.1074.0788,1.6611Z" style="fill:gray;"/><path d="m187.7701,484.8807h-7.4105v-56.0154h.9922c6.7449,0,13.4898-.001,20.2348.0024.4048.0002.81.0298,1.2145.0548,2.8749.1776,4.1924,1.4919,4.2049,4.3814.0308,7.1741.0365,14.3486-.0082,21.5225-.0174,2.7921-1.5361,3.876-3.4366,3.9806-1.0576.0582-2.1152.1172-3.1723.1843-.3934.025-.7852.0741-1.3775.1316.1415.6105.205,1.1145.3742,1.5802,2.8258,7.7783,5.6651,15.5516,8.4994,23.3268.094.2579.1668.5236.2678.844h-7.6184c-.7635-2.1396-1.5468-4.3246-2.3232-6.512-2.1441-6.0404-4.233-12.1012-6.458-18.1117-.7183-1.9403-.326-3.8581-.5163-5.9448h8.3526v-19.149h-11.8193v49.7245Z" style="fill:#ffce07;"/><path d="m398.485,450.5892c1.4485-.2091,2.6378-.3927,3.8306-.5504,2.5016-.3307,5.002-.6729,7.5093-.9542.7016-.0787,1.4355-.0284,2.1366.0796,1.5855.2443,2.4787,1.1973,2.6997,2.7822.0558.4004.0988.8065.099,1.21.0053,10.3848.0041,20.7695.0041,31.1543v.5342h-7.2616v-29.7413c-2.9929-.2721-5.9039.0774-8.9517.0533v29.691h-7.2504v-55.9317h7.1845v21.6728Z" style="fill:#ffce07;"/><path d="m251.0694,473.6518v6.1243c2.829.1083,5.5846.0697,8.4195.0206v-6.7629c-.2772-.1778-.5553-.3692-.8455-.5404-3.892-2.2956-7.7559-4.6411-11.6914-6.8596-1.99-1.1219-2.9097-2.6438-2.8071-4.9344.1212-2.708.0106-5.4262.1274-8.1345.091-2.1104,1.2796-3.3121,3.3931-3.3421,5.0879-.0722,10.1782-.0703,15.2661-.0002,2.0458.0282,3.2274,1.1649,3.3261,3.1915.1208,2.4816.0288,4.9735.0288,7.5201h-6.7268v-5.5855c-2.8971-.1173-5.6708-.2258-8.4768.0603v6.0868c.3066.206.6258.4457.9679.6467,3.9229,2.3047,7.8307,4.6362,11.7832,6.8893,1.8126,1.0333,2.6823,2.4337,2.6012,4.5604-.1045,2.7408-.0132,5.4887-.029,8.2333-.0165,2.8701-1.2424,4.0856-4.1268,4.0919-4.6212.0101-9.2424.0099-13.8636,0-2.8743-.0061-4.034-.9908-4.1819-3.8344-.1275-2.4509-.0265-4.9136-.0265-7.4312h6.862Z" style="fill:#ffce07;"/><path d="m383.9569,461.2918h-6.9627v-6.3057c-2.9162-.0219-5.7245-.0311-8.5707.0069v24.0552h8.5289v-6.9077h7.0363c0,.6821.0018,1.3267-.0003,1.9714-.0075,2.3694.0394,4.7407-.0397,7.1078-.0849,2.5411-1.2782,3.6738-3.8303,3.6918-4.245.03-8.4904.0184-12.7355.002-1.119-.0043-2.2541.0119-3.3527-.1636-1.5855-.2533-2.3986-1.1684-2.6384-2.7297-.0848-.5521-.1267-1.1162-.1272-1.6749-.0077-8.8554-.006-17.7108-.0033-26.5662.0001-.4048.0048-.8124.05-1.2138.2476-2.1953,1.3833-3.331,3.6172-3.3542,5.1494-.0535,10.3-.0572,15.4493-.002,2.2923.0246,3.4959,1.2039,3.5597,3.4602.0809,2.8578.0195,5.7196.0195,8.6224Z" style="fill:#ffce07;"/><path d="m280.3326,468.5154v11.312h8.8814v-5.9988h6.7617c.0464.1131.1096.1954.1096.2777-.0009,2.4326.0485,4.8671-.031,7.2974-.0733,2.2391-1.2882,3.3847-3.5538,3.4943-.9971.0482-1.998.0211-2.9972.0215-3.9037.0017-7.8075.0086-11.7111-.0075-.6189-.0025-1.2515-.0504-1.8531-.1865-1.3499-.3054-2.1737-1.1746-2.4033-2.5443-.1026-.6119-.1537-1.2397-.1544-1.8603-.0096-8.8597-.0068-17.7193-.0054-26.579,0-.3117.0017-.6246.027-.9349.196-2.4018,1.3533-3.5826,3.7749-3.6067,5.0584-.0502,10.1177-.0181,15.1765-.0109.3075.0004.6186.0608.9215.1243,1.7547.3676,2.7242,1.3551,2.7601,3.142.0802,3.9912.0526,7.9845.068,11.977.0026.6842.0004,1.3684.0004,2.0289-.684.6736-1.3266,1.3064-2.0854,2.0538h-13.6864Zm-.0298-4.4579h8.8593v-9.7869h-8.8593v9.7869Z" style="fill:#ffce07;"/><path d="m237.0776,466.4618c-.6805.6604-1.3275,1.2884-2.1087,2.0466h-13.6581v11.3144h8.8692v-5.9887h6.8977c0,.6296.0023,1.2397-.0004,1.8497-.0085,1.8714.0344,3.745-.0419,5.6137-.0991,2.4255-1.3366,3.588-3.8291,3.6132-3.4662.035-6.9329.0112-10.3994.0087-1.5925-.0012-3.1865.0312-4.777-.0281-2.2908-.0854-3.4017-1.1626-3.636-3.4363-.0446-.4331-.0438-.8721-.0439-1.3083-.0023-8.7349-.0018-17.4697-.0017-26.2046,0-.1248-.0007-.2496.0001-.3744.0223-3.1601,1.217-4.3848,4.3516-4.3949,4.7157-.0153,9.4314-.0175,14.1471.001,2.9937.0117,4.2127,1.2248,4.2257,4.203.0192,4.3654.0049,8.7309.0049,13.0851Zm-15.7842-12.2107v9.7891h8.8558v-9.7891h-8.8558Z" style="fill:#ffce07;"/><path d="m319.1387,463.7632v-9.4659h-8.942v5.1088h-6.3917c0-2.4951-.1539-5.0136.0523-7.5023.1454-1.7557,1.4315-2.6484,3.3899-2.6899,3.2455-.0688,6.4933-.0405,9.7401-.0433,1.8418-.0016,3.6858-.0357,5.525.0392,2.2321.0909,3.4726,1.3443,3.4781,3.5634.0264,10.6041.0164,21.2084.0168,31.8126,0,.086-.0363.172-.0637.2936h-6.6597c-.0756-.3504-.1513-.7016-.2622-1.2158-.7011.0759-1.3604.1403-2.018.2196-3.2784.3955-6.5503.8624-9.8374,1.1618-1.4415.1313-2.848-.2704-3.5057-1.7863-.2649-.6107-.4096-1.3229-.4122-1.9897-.0189-4.6761-.0451-9.3538.0562-14.0282.046-2.1196,1.2547-3.2458,3.4131-3.2977,3.6815-.0885,7.3659-.0531,11.049-.0792.4518-.0032.9032-.0648,1.3722-.1007Zm.0206,15.645v-10.91h-8.9768v11.2537c3.0698-.1176,6.0206-.2306,8.9768-.3438Z" style="fill:#ffce07;"/><path d="m333.2143,449.206h7.0732c.0766.4136.1474.7959.2416,1.3046.4902-.0486.9108-.0717,1.3254-.1343,2.864-.4324,5.7244-.8892,8.5918-1.2975.5765-.0821,1.1838-.0395,1.7665.0313,1.9516.2369,2.9957,1.2949,3.0272,3.2687.058,3.6419.0166,7.2854.0166,10.9871h-7.1051v-8.2394h-7.7146v29.7547h-7.2227v-35.6753Z" style="fill:#ffce07;"/><path d="m284.2496,462.9641h-2.7703v-7.578h6.5957v2.6278h-3.5788c-.6002,1.614-.261,3.2979-.2467,4.9502Z" style="fill:gray;"/><path d="m225.2229,462.9641h-2.7703v-7.578h6.5957v2.6278h-3.5235c-.7055,1.6092-.2965,3.2998-.3019,4.9502Z" style="fill:gray;"/><path d="m314.0693,478.4249c-.9157.0499-1.8315.0999-2.7916.1523v-8.9777h6.7972v2.8173h-4.0056v6.0081Z" style="fill:gray;"/><path d="m164.1729,411.3283v-55.9594c.3014-.0203.5707-.0541.8401-.0543,5.0843-.0032,10.1686-.0069,15.2529-.0005,2.8188.0035,5.5327.3811,7.8189,2.2515,2.2492,1.8401,3.2006,4.2933,3.3913,7.1118.0189.2799.0493.5599.0492.8399-.0054,12.0079.0103,24.0158-.0358,36.0235-.0144,3.7506-1.4761,6.7756-4.9071,8.623-1.5692.845-3.2817,1.1904-5.0396,1.1996-5.6768.0297-11.3538.0109-17.0308.009-.0904,0-.1808-.0228-.3391-.0441Zm7.4648-49.7777v43.4687c.2256.0638.4264.17.6273.17,2.3379.0002,4.6804.066,7.0112-.0679.9207-.0529,1.9042-.4115,2.7037-.8904,1.7856-1.0694,2.0927-2.8925,2.0924-4.8021-.0015-10.7241,0-21.4482-.0031-32.1724-.0001-.4359-.0077-.8748-.0573-1.3071-.2718-2.3673-1.4647-3.8042-3.8017-4.2031-1.4272-.2436-2.913-.1617-4.3731-.1901-1.364-.0265-2.729-.0057-4.1994-.0057Z"/><path d="m245.2259,376.9811c.0906-.5119.1588-.8972.2338-1.321h7.0974v.9015c0,14.6617.0022,29.3235-.0075,43.9852-.0004.6192-.0438,1.2537-.1827,1.8543-.3352,1.4491-1.5578,2.4198-3.259,2.4332-5.3023.0418-10.6055.0484-15.9076-.0034-1.9632-.0192-3.2469-1.1559-3.3795-3.0644-.1418-2.0413-.032-4.1001-.032-6.1967h6.8507v4.3812c2.9425.0647,5.765.0312,8.6438.0232v-8.7246c-.4834-.0356-.8765-.0864-1.27-.0901-2.931-.0279-5.8709.089-8.7908-.1021-3.7145-.2431-5.9707-2.612-6.0103-6.3296-.0827-7.7663-.0947-15.5348-.0041-23.3009.0479-4.1083,2.9259-6.4217,7.0285-5.8472,2.5889.3625,5.1611.8435,7.7418,1.2648.3632.0593.7325.0813,1.2474.1365Zm.0606,4.8982c-.3065-.0758-.4834-.144-.6651-.1606-1.5203-.1388-3.04-.29-4.5628-.3953-2.5159-.174-3.7433.9659-3.7545,3.4708-.0111,2.4644-.0025,4.9288-.0024,7.3932.0001,3.3691-.0153,6.7382.0064,10.1071.0135,2.0957,1.0733,3.2029,3.1212,3.2818,1.1837.0456,2.3701.0216,3.5553.0262.7362.0029,1.4725.0005,2.3019.0005v-23.7238Z"/><path d="m222.0875,393.4287c0,4.3336.0002,8.6672-.0004,13.0008,0,.3429-.0009.6859-.0098,1.0287-.0701,2.6998-1.2819,3.8981-4.008,3.9126-3.149.0168-6.2982.0039-9.4473.0039-1.7772,0-3.5544.0032-5.3316-.0007-3.1921-.007-4.3923-1.2007-4.3956-4.4174-.0082-7.8878-.0028-15.7755-.0026-23.6633,0-1.2159-.0276-2.4326.0081-3.6475.0808-2.7525,1.2933-3.9923,4.0504-4.0131,5.0507-.038,10.1021-.035,15.1529-.0015,2.7492.0182,3.9631,1.2707,3.9772,4.0484.0232,4.5829.0063,9.166.0067,13.749Zm-7.1349,12.0928v-23.8882c-1.2409-.4031-8.3381-.2663-8.8878.1227v23.7655h8.8878Z"/><path d="m186.7001,414.9797c-.1151.0143-.2301.0286-.3453.0423-.8617.0307-1.7233.0877-2.5849.0893-5.4514.0099-10.9029.0213-16.3541-.0081-.6847-.0037-1.3681-.2438-2.0521-.3744-.0711-.6787-.1422-1.3574-.2132-2.0361.0351-.0429.0555-.0919.0612-.147,5.5488-.0153,11.0988.037,16.646-.0637,6.4692-.1174,10.7781-4.5419,10.8052-11.0151.0329-7.8555.0079-15.7112.008-23.5669,0-4.146.0216-8.2922-.0091-12.438-.0154-2.0727-.3357-4.0933-1.4406-5.9114.1764.0171.4368-.0348.5165.062.862,1.0478,1.9102,2.0154,2.486,3.2083.838,1.736,1.0747,3.6701,1.0702,5.6329-.0264,11.5414.0064,23.083-.0373,34.6243-.0055,1.445-.2231,2.9171-.5532,4.3273-.6731,2.8757-2.4067,4.9911-5.0138,6.3909-.2326.1249-.4178.3383-.625.5105-.4023.1182-.8045.2363-1.207.3538-.1359.0452-.2717.0912-.4075.1371-.1134.0186-.2269.0371-.3405.0549-.1366.0419-.2731.0844-.4095.127Z" style="fill:gray;"/><path d="m231.8837,427.0264c-.0088-.0476-.0271-.0913-.055-.1308-.1206-.4188-.241-.8377-.3614-1.2566.7632.1211,1.5258.342,2.2897.3469,4.9293.0317,9.8589.0212,14.7884.0145,3.4279-.0046,5.1619-1.7431,5.1634-5.2018.0064-14.2259.0028-28.4518.0028-42.6777,0-.4275,0-.855,0-1.3867.7064,0,1.2898,0,1.8733,0,.1301.0558.2601.1116.3902.1673.1225.1328.245.2655.3674.3983-.0078.2485-.0223.497-.0223.7454-.001,15.0874.0041,30.1747-.0044,45.2621-.0019,3.354-1.9285,5.2713-5.2907,5.2835-4.4579.0162-8.9162-.0213-13.3737.0192-2.0903.019-4.0899-.1621-5.7677-1.5839Z" style="fill:gray;"/><path d="m200.5533,412.1537c.7018.1191,1.4032.3379,2.1056.3414,5.2986.0263,10.5978.0462,15.8961-.0068,2.9132-.0291,4.6414-1.7865,4.6505-4.7104.0298-9.5063.0174-19.0128.0007-28.5192-.0011-.6129-.1767-1.2255-.2703-1.8376.4596.2407.9754.4116,1.3667.7337,1.2419,1.0223,1.4945,2.4812,1.4983,3.9648.0226,8.8473-.0054,17.6948.0255,26.5421.0071,2.0327-.0447,3.9966-1.6858,5.5027-.0366.0336-.0268.1178-.0387.1783-.0501.009-.0969.0269-.1405.0533-1.0474.2388-2.0921.6701-3.1425.6843-5.2218.0704-10.4453.0511-15.6679.0169-1.3992-.0091-2.6902-.4219-3.6721-1.5289-.1946-.2194-.4843-.3545-.7302-.5285-.0083-.0526-.0256-.1021-.0518-.1485-.0478-.246-.0958-.4919-.1438-.7377Z" style="fill:gray;"/><path d="m232.1944,411.5003c1.3543.2701,2.7006.7085,4.0648.7741,2.5941.1247,5.1985.0361,7.9231.0361,0,.9175,0,1.7718,0,2.626-2.1163-.0144-4.2326-.0288-6.3489-.0431-.3891-.1752-.7958-.5313-1.1645-.4956-2.0485.1984-3.4732-.8099-4.7111-2.2527.0791-.215.1579-.4299.2367-.6448Z" style="fill:gray;"/><path d="m240.3868,418.8322h-2.5597c0-.7253,0-1.3615,0-1.9977.6841-.0248,1.3682-.0495,2.0523-.0742.193.1951.3859.3902.5789.5854-.0238.4955-.0477.991-.0715,1.4866Z" style="fill:gray;"/><path d="m232.1944,411.5003c-.0788.2149-.1576.4298-.2367.6448-.3041-.44-.6079-.88-.9117-1.3201l.0217-.0216c.3756.2323.7511.4646,1.1267.6968Z" style="fill:gray;"/><path d="m186.7001,414.9797c.1364-.0426.2729-.0852.4095-.127-.1364.0428-.2729.0849-.4095.127Z" style="fill:gray;"/><path d="m255.9752,376.9017c-.1301-.0558-.2602-.1115-.3902-.1673.1301.0557.2601.1115.3902.1673Z" style="fill:gray;"/><path d="m187.4501,414.7977c.1358-.0459.2715-.0919.4075-.1371-.1357.0462-.2716.0916-.4075.1371Z" style="fill:gray;"/><path d="m231.046,410.825c-.0279-.03-.0558-.06-.1361-.1463.0927.0735.1251.0992.1577.1248,0-.0001-.0217.0215-.0217.0215Z" style="fill:gray;"/><polygon points="186.2301 355.0919 186.2478 355.139 186.1998 355.1319 186.2301 355.0919" style="fill:gray;"/><path d="m175.2415,404.0459h-2.4912v-41.2527c2.3592,0,4.6901-.0827,7.0115.0296,1.5011.0726,2.5111.9971,2.9618,2.4648-2.3889,0-4.7779,0-7.2915,0-.0643.5766-.157,1.0229-.1574,1.4693-.0086,8.972-.0041,17.9441-.0078,26.9161-.0014,3.4576-.0166,6.9152-.0255,10.3728Z" style="fill:gray;"/><path d="m240.0118,404.419c-1.8938.0632-2.5641-.5467-2.569-2.4459-.0147-5.7005-.0135-11.4011-.0007-17.1016.0042-1.8871.603-2.4438,2.5086-2.352,1.3895.067,2.7762.1922,4.2308.2963,0,.8719,0,1.6146,0,2.3573-.7982-.0113-1.6082-.108-2.3898,0-.4293.0593-.811.4635-1.2142.7122,0,0-.0023.003-.002.0032-.1787.4803-.5096.9593-.5134,1.4408-.045,5.6964-.0411,11.3932-.0501,17.0898Z" style="fill:gray;"/><path d="m209.6847,404.419h-2.5003v-21.7823h6.6811c0,.8742,0,1.7068,0,2.5393-.8714-.002-1.7426-.006-2.6139-.0053-1.4791.0012-1.5401.0614-1.5422,1.5134-.0085,5.9117-.0165,11.8233-.0246,17.735Z" style="fill:gray;"/><path d="m148.528,279.9601h4.0125c5.5262,0,11.0525-.0024,16.5787.003.6854.0007,1.3716.0285,2.056.068,2.5516.1475,3.9338,1.5266,3.9811,4.1126.0565,3.0883.0247,6.1782.0267,9.2674.0025,3.963.0092,7.9261-.008,11.8891-.0028.6491-.0545,1.3123-.197,1.9434-.3357,1.4868-1.2593,2.4206-2.8088,2.5926-1.206.1338-2.4214.1816-3.6323.2721-.3924.0293-.7838.0729-1.3685.1282.1165.5249.1617.9382.2994,1.318,2.9024,8.0106,5.8154,16.0174,8.7256,24.0252.0408.1122.0738.2273.1321.4081h-7.6349c-1.7003-4.7785-3.408-9.5762-5.1145-14.3743-1.3027-3.6631-2.7275-7.2895-3.8468-11.0078-.4696-1.5599-.2907-3.3147-.4199-5.1708h8.4402v-19.0581c-1.1554-.3989-11.0812-.3134-11.8401.1067v49.5031h-7.3815v-56.0266Z"/><path d="m220.1334,301.6922c1.4159-.2034,2.6048-.3853,3.7969-.5431,2.5324-.3353,5.0636-.6823,7.6016-.9696.6703-.0759,1.3724-.0112,2.044.0921,1.5823.2434,2.4816,1.1922,2.7,2.7797.0636.462.0992.9317.0995,1.398.0059,8.0825.0121,16.165-.0018,24.2475-.0031,1.8279-.2377,3.5966-1.5066,5.0737-1.2162,1.4158-2.8046,2.1761-4.5869,2.2024-5.77.085-11.5421.0317-17.3665.0317v-55.9859h7.2197v21.6736Zm.0497,28.5043c.4116.031.6861.0685.9609.0696,1.4974.0059,2.9951.0191,4.4923-.001,2.427-.0326,3.4732-1.0784,3.4765-3.4944.009-6.5478.0036-13.0956.0008-19.6435-.0001-.2433-.0337-.4866-.0665-.9314-2.9429-.2313-5.8515.0804-8.8639.0819v23.9187Z"/><path d="m205.723,318.1713c0,4.3352.0004,8.6703-.0007,13.0055-.0001.4054-.0021.811-.0167,1.216-.0847,2.3402-1.3252,3.6038-3.711,3.6377-3.1822.0452-6.3656.0118-9.5485.012-1.9347.0001-3.8695.0158-5.804-.0037-2.8251-.0285-4.1061-1.2166-4.1172-4.0292-.0366-9.2315-.0355-18.4634-.0007-27.695.0104-2.7589,1.2804-4.0052,4.034-4.0264,5.0861-.0391,10.1729-.0397,15.259.0007,2.6516.021,3.8778,1.2811,3.8944,3.9414.029,4.6468.0081,9.294.0081,13.941h.0035Zm-7.1472,12.0222v-23.9131c-1.3368-.4062-8.3621-.252-8.8831.1348v23.7783h8.8831Z"/><path d="m266.8015,318.2111c0,4.304.0003,8.608-.0005,12.912,0,.3742-.0017.7486-.0128,1.1225-.0753,2.5308-1.2968,3.7711-3.8485,3.7886-4.3061.0296-8.6125.0095-12.9188.0073-.9358-.0005-1.8733.0187-2.8072-.0278-2.2379-.1114-3.3316-1.1592-3.5751-3.3908-.0438-.4018-.0493-.8093-.0494-1.2141-.0026-8.8263-.0025-17.6526-.0005-26.4789,0-.3739.0023-.7496.0378-1.1212.2209-2.3087,1.357-3.4694,3.6762-3.4928,5.2726-.0533,10.5465-.0567,15.8191-.0055,2.425.0235,3.6431,1.312,3.6613,3.7727.0349,4.7091.0101,9.4187.0101,14.1281h.0083Zm-16.0112-12.0058v23.985h8.8719v-23.985h-8.8719Z"/><path d="m324.8519,330.1851v-6.9152h7.0416c0,1.9402.0035,3.837-.0014,5.7338-.0029,1.1226.024,2.2475-.038,3.3672-.1404,2.5345-1.3007,3.6395-3.8615,3.6651-2.7775.0278-5.5555.0065-8.3333.0065-2.1224,0-4.2449.0164-6.367-.0041-2.8237-.0273-4.1034-1.2189-4.1143-4.0335-.0359-9.2334-.0356-18.4672.0005-27.7006.0108-2.7553,1.2852-3.9949,4.0448-4.0166,4.8998-.0385,9.8004-.0362,14.7003-.0009,2.6917.0193,3.8933,1.194,3.954,3.8787.0619,2.7353.0137,5.473.0137,8.2458h-6.9841v-5.9512c-.7774-.4837-7.7142-.5297-8.5631-.1014v23.8264h8.5078Z"/><path d="m288.4545,306.2314h-5.1049c-.0835.3893-.2202.7312-.2207,1.0733-.0123,7.2357-.0115,14.4715-.0023,21.7073.0004.3219.1033.6436.17,1.033h5.3624v5.9618c-3.1733,0-6.3497.089-9.518-.033-1.9387-.0746-2.97-1.3146-3.1416-3.3049-.0374-.434-.0297-.8726-.0297-1.309-.0016-7.9219,0-15.8438-.0048-23.7658-.0002-.3907-.0538-.7814-.092-1.3014h-3.8087v-6.0264h3.8245v-9.9713h7.3211v9.9393h5.2446v5.9972Z"/><path d="m294.8242,300.3116h6.9731v35.6849h-6.9731v-35.6849Z"/><path d="m179.0888,334.9375c.108.3533.216.7066.3231,1.06.1416.3334.2839.6666.4263.9999.0253.109.0506.218.0755.3271.1313.7081.263,1.4161.3947,2.1241-.1424.1314-.2849.2628-.4274.3939-1.5254-.0177-3.0511-.0213-4.576-.0559-1.6755-.038-3.3504-.1046-5.0255-.1587,0,0-.0083-.0079-.0081-.008-.2869-.5847-.5739-1.1693-.861-1.7539-.0764-.1724-.1528-.3447-.2292-.5171.025-.0413.0388-.0861.0414-.1344h8.5437c-.0718-.5144-.0602-.8975-.1816-1.2324-2.8567-7.877-5.728-15.7487-8.5949-23.622-.1157-.3178-.2136-.642-.324-.976,1.2698-.129,2.4888-.1767,3.6782-.3895,2.4543-.4391,3.7899-2.005,3.9561-4.5024.029-.4354.0367-.8729.0369-1.3095.0022-6.7084.0197-13.4168-.0173-20.125-.0058-1.0446-.2629-2.0879-.4038-3.1317.0714-.0819.1428-.1639.2141-.2458,1.5345.7128,2.4578,1.8935,2.734,3.569.018,2.6058.0611,5.2117.0509,7.8173-.0223,5.723-.0715,11.4459-.1098,17.1688-.5296,1.8443-1.661,3.0578-3.5971,3.4274-.2592.0513-.5182.1032-.7772.1551-.3782.0442-.7565.0883-1.1347.1325-.6793-.3704-1.2764-.2325-1.98.3807.277.5038.5547,1.0091.8325,1.5144.0395.165.0791.33.118.4952.21.5216.4207,1.0431.6314,1.5646.0249.1073.0498.2145.0744.322.2898.7639.58,1.5276.8701,2.2913.108.3533.216.7066.3232,1.0601.1416.3334.2839.6666.4263.9999.108.3533.216.7066.3231,1.06.1416.3334.2839.6666.4263.9999.108.3533.216.7066.3231,1.06.1416.3334.2839.6666.4263.9999.108.3533.216.7066.3231,1.06.1416.3334.2839.6666.4263.9999.108.3533.216.7066.3231,1.06.1416.3334.2839.6666.4263.9999.108.3533.216.7066.3231,1.06.1416.3334.2839.6666.4263.9999.108.3533.216.7066.3231,1.06.1416.3334.2839.6666.4263.9999Z" style="fill:gray;"/><path d="m159.5654,304.342c-.3636.0201-.7272.0402-1.0492.058-.0928.1587-.1801.2381-.1792.3165.0278,2.5488-.4796,5.1403.6873,7.5965.3292.6929.5019,1.4602.7465,2.1933-.0518,1.2953-.1454,2.5906-.1484,3.886-.0154,6.6449-.0059,13.2899-.0093,19.9348-.0006,1.1212-.2977,1.445-1.3287,1.4591-.8738.012-1.7479.0038-2.6219.004-1.8368.0003-3.6736,0-5.7799,0-.0566-.9246-.1076-1.7588-.1587-2.5929h7.2358v-49.805h9.7404c0,.8749,0,1.7088,0,2.5429-2.3153.0001-4.6307.0001-7.0174.0001-.0301.64-.0632,1.0357-.065,1.4317-.0203,4.3249-.0357,8.6499-.0525,12.9749Z" style="fill:gray;"/><path d="m240.1053,304.7769c.0223.1251.0446.2502.067.3752-.007.3109-.0204.6219-.0204.9328-.0006,8.6404.009,17.2809-.0038,25.9213-.0049,3.2724-1.4622,5.7079-4.4892,6.993-1.143.4852-2.4676.7299-3.7148.7503-5.117.0836-10.2361.0389-15.3545.0406-2.5119.0008-2.5326-.0223-2.4179-2.5959,4.9904-.0007,9.9808.0151,14.971-.0066,5.4128-.0236,8.3876-3.0072,8.4025-8.405.0123-4.4577.0025-8.9155.0025-13.3733,0-3.6473.0149-7.2946-.012-10.9417-.0057-.7711-.164-1.5412-.2517-2.3116.2966.0474.7149-.013.868.1605.6921.784,1.3092,1.6341,1.9533,2.4604Z" style="fill:gray;"/><path d="m209.3277,336.6324c-.1619.4096-.3238.8192-.4854,1.2291-.3204.3643-.6411.7284-.9618,1.0924-.2158.1063-.4315.2126-.6474.3186-1.7206.1724-3.4388.4605-5.162.4943-3.8354.0753-7.6734.0322-11.5102.0182-1.1444-.0042-2.2885-.0719-3.4328-.1106-.1653-.0349-.3305-.0699-.496-.1046-.4578-.2845-.9154-.5693-1.3731-.8541-.3721-.4908-.7441-.9817-1.1162-1.4725.0677-.0764.1353-.1528.203-.2292.7582.0591,1.5163.167,2.2747.1693,5.0252.0153,10.0507.0321,15.0758-.0002,3.5048-.0225,5.1552-1.7001,5.1593-5.1901.0107-9.2341.0071-18.4683-.0035-27.7024-.0008-.7054-.101-1.4106-.155-2.1163,1.1974-.0483,2.0552.7947,2.6396,2.5641.043.1352.0865.2703.13.4053.0217.1768.0433.3536.0645.5305-.0275.3072-.0779.6142-.0781.9213-.0033,9.0876.0019,18.1752-.0063,27.2628-.0008.9247-.0776,1.8494-.1192,2.774Z" style="fill:gray;"/><path d="m268.9591,338.9539c-.3417.167-.6833.334-1.0251.5006-.8561.11-1.7116.3105-2.5682.3156-5.0801.0299-10.1615.0669-15.24-.0273-1.0984-.0204-2.1872-.5664-3.28-.8719-.1705-.0477-.3388-.1033-.5081-.1553-.3721-.4908-.7442-.9816-1.1162-1.4724.0677-.0764.1353-.1528.203-.2292.7582.059,1.5163.1669,2.2747.1692,5.0252.0153,10.0507.0321,15.0757-.0002,3.5049-.0225,5.1553-1.7,5.1594-5.19.0108-9.2029.0106-18.4058-.0087-27.6087-.0016-.7695-.1796-1.5386-.2748-2.3072.4598.2402.9816.4061,1.3659.7333,1.118.952,1.5078,2.2485,1.5086,3.6725.0055,9.3736.006,18.7473-.0014,28.1209-.0005.6762-.0766,1.3523-.1175,2.0284-.1619.4096-.3238.8192-.4854,1.2291-.3204.3643-.6411.7284-.9618,1.0924Z" style="fill:gray;"/><path d="m296.0487,337.196h6.9351c0-11.9366,0-23.7539-.0001-35.5713.4045-.0166.8097-.0562,1.2135-.0452,1.0323.0281,1.3737.3845,1.3739,1.4404.0026,11.7938.003,23.5877-.0011,35.3815-.0004,1.1096-.2741,1.3795-1.3808,1.385-1.9042.0094-3.8085.0038-5.7127.0038-2.515,0-2.5307-.017-2.4278-2.5942Z" style="fill:gray;"/><path d="m335.4346,336.8254c-.5065,1.4891-1.5327,2.4238-3.0393,2.8458-.7691.0386-1.538.1086-2.3071.1114-3.5194.0129-7.039.0186-10.5584.0037-2.5853-.0109-5.2251.3291-7.6171-1.0706-.193-.1961-.386-.3923-.5787-.5885-.1045-.1394-.2092-.2787-.314-.418-.0175-.213-.035-.426-.0581-.7064.8079.0653,1.5712.1777,2.3349.1803,4.8295.0165,9.6591.0253,14.4885.0033,3.5641-.0162,5.2466-1.7025,5.2933-5.2855.0324-2.4909.0121-4.9825.0154-7.4738.156.0047.312.0124.4679.0137,2.0043.0165,2.0204.0164,2.002,2.0262-.0315,3.4529-.0852,6.9056-.1295,10.3584Z" style="fill:gray;"/><path d="m292.3214,309.4777c-.1977.1928-.3954.3855-.5932.578-1.0883-.0172-2.1764-.0439-3.2647-.0486-1.5957-.0069-1.6179.0227-1.6208,1.6224-.0103,5.7587-.0212,11.5175-.0318,17.2762h-2.401v-21.5148h5.2556c0-2.0151,0-3.8984,0-5.7817.2476-.0121.4952-.0335.7429-.0348,1.6936-.0087,1.8476.1535,1.8577,1.859.0119,2.0148.0363,4.0295.0553,6.0443Z" style="fill:gray;"/><path d="m319.9642,329.0846h-2.5037v-21.7972h6.2614c0,.8527,0,1.683,0,2.5133-.7483.0095-1.4967.0236-2.2451.0274-1.4117.0072-1.4858.0771-1.4878,1.4821-.0088,5.9248-.0166,11.8496-.0248,17.7743Z" style="fill:gray;"/><path d="m294.7317,293.7403v-7.3609h7.1284v7.3609h-7.1284Z"/><path d="m292.3105,339.624c-.128.0787-.2559.1573-.384.2355-2.535-.0234-5.0699-.0562-7.6048-.064-.9229-.0029-1.846.0537-2.769.0832-.2376-.03-.4752-.0599-.7128-.0899-.5688-.238-1.1377-.476-1.7065-.714-.623-.5404-1.3069-1.0407-1.3661-1.9827h12.1031c0-1.9286,0-3.8099,0-5.6914.6854-.0375,1.3709-.0748,2.0563-.1122.2007.2006.4013.4011.6015.6018-.0235.5273-.0546,1.0542-.0682,1.5816-.0528,2.0506-.1001,4.1014-.1495,6.1522Z" style="fill:gray;"/><path d="m223.8047,300.0163c-.8016.0994-1.6033.1989-2.484.3081v-19.0538c1.6179-.3314,2.238-.1754,2.6024.6341-.021.3091-.0596.618-.0599.927-.0039,4.0793.0029,8.1585-.0048,12.2378-.0031,1.649-.035,3.2979-.0538,4.9468Z" style="fill:gray;"/><path d="m326.2115,313.5997h6.6434c.0977-.3052.2188-.5057.2172-.7053-.0258-3.2415-.0613-6.4829-.1136-9.724-.0054-.3357-.1312-.6694-.2012-1.004,1.4482.2084,2.7614,1.8568,2.783,3.6164.0375,3.0533.028,6.1073.0205,9.1609-.0024.9648-.3069,1.2414-1.3244,1.2476-1.8706.0114-3.7412.0044-5.6119.0044-2.5054,0-2.5283-.0248-2.413-2.596Z" style="fill:gray;"/><path d="m296.0072,295.0014h7.1224c0-2.6486,0-5.0545,0-7.4605.3116.0083.6233.0217.9349.024,1.4293.0106,1.5223.1005,1.5244,1.5639.0033,2.3697.0054,4.7394-.0053,7.109-.0016.3589-.0753.7175-.1235,1.1455-.4474.037-.8106.0914-1.1741.0931-1.9341.009-3.8683.001-5.8025.0063-2.6736.0073-2.4812.1684-2.4763-2.4813Z" style="fill:gray;"/><path d="m286.6637,291.6362c.0817.1225.1634.2451.2446.3677-.0224.3368-.0605.6732-.0634,1.01-.0176,2.0372-.0272,4.0744-.0394,6.1116h-2.5373c0-2.5823,0-5.0883-.0002-7.5945.7984.0349,1.5971.0701,2.3957.1052Z" style="fill:gray;"/><path d="m274.8129,309.9813c-.2458.0385-.4917.077-.7374.116-.2773-.1206-.5547-.2417-.8675-.3783v-2.2449h1.6049v2.5072Z" style="fill:gray;"/><path d="m224.1001,310.4102c-.0607.3927-.1735.7853-.1743,1.1782-.0117,5.4238-.0079,10.8476-.008,16.2714,0,.3692,0,.7385,0,1.1805h-2.6103v-21.6275h6.6586c0,.8411,0,1.7018,0,2.5626-.0607.0375-.1216.075-.1824.1124-.976.0048-1.952.0095-2.9281.0136-.252.1025-.5038.2057-.7557.3089Z" style="fill:gray;"/><path d="m193.3105,329.0846h-2.503v-21.791h6.6871c0,.875,0,1.708,0,2.5409-.8721-.0018-1.7441-.0056-2.616-.0049-1.4804.0012-1.5412.0612-1.5433,1.5139-.0086,5.9137-.0165,11.8274-.0247,17.7412Z" style="fill:gray;"/><path d="m254.3891,329.0846h-2.503v-21.791h6.6871c0,.875,0,1.708,0,2.5409-.8721-.0018-1.744-.0056-2.616-.0049-1.4805.0012-1.5412.0611-1.5433,1.5139-.0086,5.9137-.0165,11.8274-.0247,17.7412Z" style="fill:gray;"/><path d="m228.6616,502.9718c2.514-.1143,2.7825.1497,2.7121,2.7082-.0463,1.6824-.0013,3.3671-.0151,5.0506-.0088,1.0716-.3333,1.4008-1.3997,1.4073-2.216.0135-4.4322.0064-6.6483.0076-.3661.0002-.7323,0-1.2379,0-.0391.569-.0968,1.0172-.0969,1.4654-.0047,15.2149-.0039,30.4298-.0043,45.6447,0,.4365.003.8732-.0086,1.3094-.02.7528-.4155,1.1607-1.1675,1.1636-2.6218.0098-5.2436.0098-7.8654.0008-.806-.0028-1.1781-.4518-1.1906-1.2421-.0079-.4974-.0443-.9943-.068-1.4914h7.4963v-49.6932h9.4938v-6.3309Z" style="fill:gray;"/><path d="m264.1606,558.9265c4.3476.6725,8.5335-.6153,12.8294-1.0426.1107.3135.2295.6499.3611,1.0223h8.8143c.0459-.4047.1215-.7612.1217-1.1177.0062-10.47.0108-20.94-.0062-31.4099-.0014-.863-.1575-1.7258-.2417-2.5886,1.2516.2712,2.5844,1.5936,2.7802,2.8277.1215.7654.2195,1.5443.2206,2.3174.0146,10.3465.0113,20.6931.0092,31.0397-.0003,1.453-.3061,1.7598-1.7429,1.7641-1.9031.0056-3.8063.0026-5.7094.0021q-1.3961-.0004-2.5501-1.0366c-1.2536.1738-2.6296.3942-4.0129.5503-2.7465.3098-5.4863.8707-8.2667.3078-1.3851-.2804-2.5377-1.4429-2.6064-2.6357Z" style="fill:gray;"/><path d="m325.7267,558.9954h7.1587c.0664-.4705.152-.795.1522-1.1196.0069-10.6871.0138-21.3741-.0108-32.0611-.0018-.7947-.2374-1.5888-.3643-2.3831,1.7208.5272,2.8988,1.984,3.0126,3.7486.034.528.0375,1.0587.0376,1.5881.0021,10.3749.0066,20.7497-.0112,31.1245-.001.5855-.1891,1.1707-.306,1.8484-1.5899,0-2.9874.0004-4.3849-.0001-1.2476-.0005-2.4953.0072-3.7428-.0055-1.1414-.0116-1.4394-.3186-1.4689-1.4375-.0115-.4345-.0475-.8684-.0723-1.3025Z" style="fill:gray;"/><path d="m293.323,558.999h7.2357v-29.7991h6.7584v2.6707c-.9973-.0065-1.9949-.0018-2.9919-.0233-.7135-.0154-1.0201.3102-1.0043,1.0191.0215.9654.0037,1.9316.0037,2.8974-.0002,7.9449-.0001,15.8898-.0001,23.8347,0,.5259,0,1.0518,0,1.7566-.5681.1364-1.0835.3583-1.6027.3677-2.2139.0398-4.4288.0217-6.6434.015-1.3806-.0042-1.6796-.3171-1.7004-1.7145-.0051-.3417-.0359-.683-.055-1.0244Z" style="fill:gray;"/><path d="m255.9428,545.5392c-.0612-.015-.1223-.0299-.1836-.0449-.3101-.0784-.6198-.2235-.9302-.225-3.3998-.0162-6.7997-.0112-10.1996-.0079-.3367.0003-.6733.0278-1.2752.0543v6.3305h-2.7464v-9.1154h13.3008c.6977-.7474,1.4877-1.5414,2.206-2.3956.2126-.2529.3113-.6749.3129-1.0201.0201-4.3263.0289-8.6529-.0024-12.9791-.0058-.7961-.2025-1.5908-.3111-2.3861,2.2886.6864,2.8536,2.0244,2.9356,4.3169.1636,4.5733.0721,9.1565.0273,13.7351-.0045.4646-.3154,1.0121-.6473,1.3703-.7762.8377-1.6516,1.5838-2.4869,2.3669Z" style="fill:gray;"/><path d="m309.6135,559.006h7.2578c.0083-3.4199.0193-6.6955.0233-9.971.004-3.2712.0009-6.5425.0009-9.8137v-9.9965h6.6123v2.5968c-1.2718.1348-2.5989-.2337-3.9182.3418,0,.5065,0,.9372,0,1.3679-.0002,8.7602.0006,17.5203-.0013,26.2805-.0004,1.6893-.2438,1.9267-1.9565,1.9285-2.091.0023-4.1821.0046-6.2731-.0017-1.3826-.0042-1.6953-.3237-1.7144-1.7055-.0047-.3424-.0202-.6847-.0308-1.027Z" style="fill:gray;"/><path d="m234.3643,558.7555c5.8445.0616,11.689.1618,17.5336.1664,2.4763.0019,4.1903-1.5741,4.4044-4.0533.1734-2.0078.0992-4.0368.1379-6.0563.0059-.3082.0287-.6161.0436-.9242,2.5492-.0858,2.6286-.0094,2.6284,2.5399-.0001,1.8668.0072,3.7337-.0034,5.6005-.0213,3.715-1.8127,5.6352-5.5236,5.6885-4.9204.0707-9.843.0494-14.7637-.0106-1.5835-.0193-3.1017-.4488-4.0913-1.8554-.2123-.3017-.2485-.7271-.3659-1.0954Z" style="fill:gray;"/><path d="m263.913,533.5648h6.3672v-5.2068h6.9193v2.7461c-.9891-.0207-1.9789-.0244-2.9669-.0675-.7836-.0341-1.1408.285-1.1174,1.0884.0332,1.1429.0155,2.2873.0195,3.4311-1.6121.0093-3.2257-.0224-4.8357.0402-1.3873.0539-2.7705.2153-4.1555.3291-.0768-.7869-.1536-1.5738-.2305-2.3606Z" style="fill:gray;"/><path d="m202.3179,509.3905h7.1389v2.7786c-1.7145-.008-3.4291-.0171-5.1436-.0237-1.7216-.0067-1.9566-.2353-1.9689-1.9151-.002-.28-.0173-.5598-.0264-.8397Z" style="fill:gray;"/><path d="m331.8477,557.7724h-7.1833v-29.7729h-8.7729c-.0785.523-.1999.9569-.2004,1.391-.011,9.1047-.0083,18.2094-.0083,27.3141v1.0618h-7.135v-29.74c-2.9941-.2964-5.9039.0871-8.9837.0294v29.7215h-7.2296v-35.6391h7.0726c.08.4143.1538.7964.2474,1.281.4986-.0412.9238-.0564,1.343-.1141,3.148-.4336,6.2889-.9271,9.4445-1.2953,1.8198-.2123,3.6586-.2137,4.8727,1.6106,2.2876-.3614,4.5238-.7764,6.7771-1.0529,2.1585-.2649,4.337-.5525,6.5025-.5226,2.103.029,3.0148,1.1338,3.2288,3.2601.0374.3715.0651.746.0653,1.1191.0035,10.1648.0031,20.3297.001,30.4945,0,.2735-.026.547-.0415.8538Z" style="fill:#ffce07;"/><path d="m227.3898,508.2545h-9.2814v49.502h-7.4945v-49.483h-9.3156v-6.4131h26.0914v6.3941Z" style="fill:#ffce07;"/><path d="m255.2158,539.4076c-.6594.6185-1.3171,1.2353-2.1418,2.0088h-13.5906v11.3074h8.8685v-5.9896h6.8922c0,.635.0019,1.2452-.0004,1.8553-.0069,1.8393.0362,3.6807-.036,5.5175-.0983,2.5043-1.316,3.6769-3.8373,3.7008-3.6518.0347-7.3042.0111-10.9563.0087-1.4044-.0009-2.8104.0288-4.2128-.0273-2.287-.0915-3.3973-1.1659-3.6316-3.4389-.0414-.402-.0429-.8093-.043-1.2142-.0023-8.7928-.0023-17.5856,0-26.3784.0001-.4049.0019-.8122.0437-1.2142.234-2.2456,1.378-3.396,3.6534-3.4192,5.1182-.0523,10.2377-.0564,15.3559-.0012,2.3253.0251,3.5796,1.2317,3.615,3.5172.0709,4.58.021,9.1618.021,13.7672Zm-15.7636-2.4456h8.8486v-9.7815h-8.8486v9.7815Z" style="fill:#ffce07;"/><path d="m278.2563,536.6969v-9.4961h-8.9494v5.1263h-6.4364c0-2.4347-.1242-4.861.0397-7.2677.1286-1.8875,1.4674-2.9156,3.5909-2.9371,4.9922-.0505,9.9852-.0182,14.9779-.0186.1247,0,.2501.0026.374.0156,2.0644.2169,3.1877,1.4183,3.2694,3.5011.0146.3736.0136.7479.0137,1.1219.0007,9.9753.0005,19.9505.0005,29.9258,0,.3409,0,.6818,0,1.0858h-6.745c-.0612-.3146-.1252-.6436-.2186-1.1232-.3277,0-.6472-.0353-.9566.0055-3.1816.4194-6.3582.8805-9.5444,1.2601-.853.1016-1.7483.053-2.5999-.0809-1.5723-.2471-2.5184-1.2525-2.6174-2.8378-.1126-1.8016-.1212-3.6116-.119-5.4179.0038-3.1469-.0144-6.2962.1022-9.4399.0766-2.0664,1.2683-3.2173,3.3472-3.2673,3.6484-.0877,7.2998-.0548,10.9498-.0794.489-.0033.9777-.0479,1.5215-.0762Zm-8.9297,4.6816v11.2763c3.0779-.121,6.025-.2369,8.9519-.3519v-10.9243h-8.9519Z" style="fill:#ffce07;"/><path d="m243.3945,535.873h-2.7693v-7.5749h6.5932v2.6269c-1.2717.0183-2.5433.0365-3.8239.0549v4.8931Z" style="fill:gray;"/><path d="m273.1993,551.3257c-.8939.052-1.7879.104-2.765.1609v-8.9531h6.7509v2.6098h-3.9161c-.2674,2.0904-.1648,4.1366-.0698,6.1824Z" style="fill:gray;"/></g><g id="e"><g id="f"><polygon points="374.3134 91.3319 405.6178 122.6362 393.5432 122.6362 366.2637 94.0151 374.3134 91.3319"/><polygon points="393.5432 136.0524 385.9407 165.5679 388.624 165.5679 398.9097 160.6486 405.6178 142.7604 405.6178 136.0524 393.5432 136.0524"/><rect x="394.214" y="123.7542" width="11.4037" height="10.7329"/><polygon points="375.655 106.984 384.5991 115.7045 370.2886 130.4623 364.2513 119.7294 375.655 106.984"/><polygon points="383.4811 134.4871 378.3383 160.8722 384.5991 164.6735 391.978 136.0524 383.4811 134.4871"/><polygon points="392.8165 134.4871 383.8724 133.0337 382.5867 126.661 388.624 118.7232 393.096 123.7542 392.8165 134.4871"/><polygon points="374.4252 106.0896 362.9097 94.2387 357.9904 94.2387 340.5878 111.1579 349.2699 115.9281 362.9097 119.103 374.4252 106.0896"/><polygon points="374.4252 160.6486 366.2637 155.953 341.891 174.512 350.3879 176.9716 374.4252 160.6486"/><polygon points="367.8289 130.7418 364.2513 152.9982 354.7642 161.0415 347.3278 143.5439 367.8289 130.7418"/><polygon points="351.0587 121.5182 346.3288 133.9882 345.0215 134.4871 341.5988 128.1517 347.4811 116.1517 351.0587 121.5182"/><polygon points="314.8724 154.2387 318.6737 165.4037 332.0898 156.6832 345.506 143.2671 344.3879 135.2174 341.2575 129.8509 314.8724 154.2387"/><polygon points="340.5494 172.7232 340.3258 178.984 330.8227 173.6921 334.2886 155.953 346.1395 144.5492 353.2948 162.102 340.5494 172.7232"/><polygon points="329.5929 174.512 332.7233 157.6673 310.5867 172.425 310.5867 175.7791 322.8848 181.5927 337.6426 179.1331 329.5929 174.512"/><path d="m320.4252,181.4437c-.8944.8944-9.8385-4.472-9.8385-4.472l-4.9193,3.5776,3.8012,2.9068h10.9565s0-2.0124,0-2.0124Z"/><polygon points="308.7979 172.276 308.7979 175.8536 305.6674 178.984 302.7606 178.984 299.4066 172.276 308.7979 172.276"/><polygon points="324.1147 129.8509 322.5575 135.1579 304.1022 152.9982 314.2389 152.9982 340.1768 128.1517 324.1147 129.8509"/><polygon points="324.1147 128.1517 322.3598 119.103 327.0587 114.4374 339.2824 112.6317 346.4749 116.1517 340.9221 126.236 324.1147 128.1517"/><polygon points="341.891 95.6548 327.3569 109.5182 327.3569 112.4996 330.1892 112.2014 338.537 111.1067 340.9221 109.3691 356.8724 94.2387 341.891 95.6548"/><polygon points="317.5184 122.6362 326.6115 113.394 326.6115 110.5617 317.5184 121.5927 317.5184 122.6362"/><polygon points="344.0525 94.2387 334.9594 77.1704 332.2561 77.1704 333.9159 81.4933 340.1768 94.6859 344.0525 94.2387"/><polygon points="309.9159 52.1269 334.5162 76.276 330.8227 76.276 308.5743 53.3194 309.9159 52.1269"/><polyline points="374.4252 90.1393 389.8538 66.2325 390.4407 67.0989 375.655 90.1393"/><polygon points="390.5619 65.6921 423.8041 32.4499 424.5494 32.4499 391.3072 66.5865 390.5619 65.6921"/><polygon points="415.3072 83.2822 419.6302 68.3753 423.0587 35.8784 390.5619 69.866 398.6115 78.3629 404.7233 92.9716 415.3072 83.2822"/><path d="m330.8227,78.3629l-4.4892,14.4608h-8.8897s-7.0807-6.4111-6.8571-7.1564-2.0124-30.4099-2.0124-30.4099l22.2484,23.1056Z"/><polygon points="331.8289 79.4064 339.2824 95.2076 333.0215 101.9157 327.3569 93.5679 331.8289 79.4064"/><polygon points="332.2561 102.9379 324.1147 111.1579 318.4128 104.748 317.891 93.9405 326.0153 94.2387 332.2561 102.9379"/><polygon points="397.1209 79.4064 403.6799 93.5679 392.3547 105.8642 377.5929 91.3319 389.8165 71.5058 397.1209 79.4064"/><polygon points="393.5432 106.984 415.6053 84.0275 416.9097 86.6362 397.7171 110.5617 393.5432 106.984"/><polygon points="420.5246 68.6735 422.1643 68.6735 421.2699 81.0461 416.7979 82.3878 420.5246 68.6735"/><polygon points="425.2948 33.6424 422.1643 67.1828 420.5246 67.1828 423.8041 34.6859 425.2948 33.6424"/><polygon points="348.9718 178.0896 342.1147 176.1517 341.6115 180.2138 324.1147 182.4126 328.2513 184.6486 338.537 182.8598 348.9718 178.0896"/><polygon points="317.5184 123.1207 317.5184 130.4565 318.4128 138.3629 316.4749 130.7418 317.5184 123.1207"/><polygon points="376.5494 159.4561 374.9842 159.4561 366.2637 154.3878 369.8414 131.9157 381.1333 134.4871 376.5494 159.4561"/><polygon points="372.1892 130.7418 381.1333 132.5865 380.3507 126.6051 377.5929 125.3194 372.1892 130.7418"/><polygon points="297.3942 158.6638 302.7606 153.9405 313.6426 153.9405 314.8724 158.6638 297.3942 158.6638"/><polygon points="406.8103 129.1207 414.1147 149.5803 419.5929 162.2995 422.5668 166.9095 426.0883 163.1644 421.1581 159.4561 419.4811 152.9982 418.3631 144.5492 406.8103 125.3194 406.8103 129.1207"/><polygon points="406.8103 142.6486 410.6488 149.2449 411.655 147.2919 406.8103 136.0524 406.8103 142.6486"/><polygon points="411.0401 150.1761 411.9257 148.1959 414.2125 152.4121 412.8709 153.4243 411.0401 150.1761"/><polygon points="414.7855 152.9982 419.835 164.936 418.6426 166.4623 416.2389 165.1766 415.6799 159.7303 412.9407 154.4996 414.7855 152.9982"/><polygon points="412.9457 176.97 411.3757 178.47 408.0356 181.8301 401.0857 160.2501 402.2557 155.1801 403.1556 153.0001 412.9457 176.97"/><polygon points="415.0057 172.8301 415.4857 174.35 413.9156 176.1501 406.8057 157.6701 403.9656 150.3301 405.1257 147.9301 406.0757 145.85 414.4156 161.2601 415.3157 167.4801 413.5557 170.4301 415.6757 168.8101 416.2357 170.4901 415.0057 172.8301"/><polygon points="420.4213 165.5679 418.8103 167.3567 416.2389 165.9911 417.2451 170.4871 416.2389 172.6114 416.6238 173.3043 421.8289 167.748 420.4213 165.5679"/><polygon points="399.2691 162.2664 406.5463 183.2427 403.4493 186.394 395.4775 169.1516 396.9532 163.3319 399.2691 162.2664"/><polygon points="394.214 169.0337 387.3196 203.2076 383.1457 207.6051 381.6923 208.7232 357.5783 209.6176 358.7901 206.8475 382.5867 205.5927 385.9407 202.6859 393.1716 167.8871 390.127 166.68 391.5867 165.5679 395.2202 164.1145 394.214 169.0337"/><polygon points="395.0712 172.7609 400.6321 189.067 399.0011 190.7893 394.2216 176.9716 395.0712 172.7609"/><polygon points="397.7057 192.0001 396.6857 193.1501 393.0157 197.0201 391.9756 188.35 392.3157 187.66 393.3957 181.1201 397.7057 192.0001"/><path d="m387.1706,166.4623l-8.1615,4.6398s-15.5404,4.7888-15.8758,5.0497-8.3851,5.1801-8.7205,4.9565-2.795-3.5776-2.795-3.5776l22.8075-15.764h3.913s6.1984,4.4839,6.1984,4.4839"/><polygon points="390.3957 176.97 389.5857 178.3201 389.5857 179.7701 362.1957 181.2501 362.0057 179.9601 362.8957 178.47 390.3957 176.97"/><polygon points="384.4857 201.1401 384.4756 202.59 382.4557 203.9301 358.1457 205.2401 356.5256 203.8601 356.5157 203.8601 356.9656 202.3901 384.4857 201.1401"/><polygon points="386.1857 196.1401 385.5956 197.5801 385.5956 199.04 358.6656 200.5201 358.0956 199.1201 358.6857 197.6401 386.1857 196.1401"/><polygon points="387.1057 191.16 386.5457 192.66 386.5457 194.1101 359.5757 195.5701 359.0457 194.1501 359.6057 192.66 387.1057 191.16"/><polygon points="387.9756 186.3901 387.5356 187.8901 387.5356 189.34 360.4257 190.79 360.0256 189.3801 360.4756 187.8901 387.9756 186.3901"/><polygon points="389.1957 181.6801 388.3157 183.1401 388.3157 184.59 361.1757 186.0801 360.7957 184.6701 361.6857 183.1801 389.1957 181.6801"/><polygon points="391.3631 170.7666 390.5867 176.1517 389.183 176.1517 389.183 170.3753 386.4438 168.4747 388.7917 167.2449 391.978 168.5865 391.3631 170.7666"/><polygon points="357.6807 186.394 355.9993 196.7121 353.6519 205.0381 356.2016 207.0834 353.2948 211.5182 351.6178 227.0586 351.0587 227.0586 349.9407 222.5865 349.9407 211.071 352.4004 196.1417 354.301 187.8894 359.5805 181.1156 357.6807 186.394"/><polygon points="427.419 164.1145 375.7295 216.5492 375.7295 221.394 381.3196 226.7977 384.0733 225.1973 419.887 183.1118 431.891 172.7232 427.419 164.1145"/><polygon points="382.9221 232.3132 437.9283 172.9468 447.7668 172.9468 455.0339 180.7356 452.5743 185.5267 442.9594 184.0314 433.507 193.4064 402.0401 226.6114 387.506 243.9254 382.9221 232.3132"/><polygon points="350.8351 228.1766 373.2761 227.0586 377.332 225.1579 380.5743 228.1766 380.8572 230.2996 379.0091 232.5368 386.6115 250.5368 363.0215 251.4312 354.301 235.4437 350.8351 231.866 350.8351 228.1766"/><polygon points="446.2016 200.1843 434.5743 198.689 418.0836 215.9902 404.3879 231.9778 391.6426 249.7542 391.6426 251.8784 403.0463 252.3256 404.3879 253.3319 435.9159 212.8598 446.2016 200.1843"/><polygon points="391.6426 253.3319 403.6799 254.1145 404.4997 256.0151 405.0587 258.6983 423.5805 301.6673 425.5718 308.2263 429.6511 311.9546 431.891 315.2697 425.2202 314.0399 420.0401 309.6797 415.2327 304.7604 391.6426 253.3319"/><path d="m384.1519,255.7915h-22.8075s-.6708,3.6894-.6708,3.6894l21.8012,52.7702,4.9193,3.913s13.8634.7826,14.1988.7826,8.6293.6931,8.6293.6931l7.6936-1.6993-7.3789-7.4907-26.3851-52.6584Z"/><polygon points="353.6302 237.2325 348.9345 249.4188 342.4501 249.4188 343.2327 245.953 348.8227 236.1145 353.6302 236.1145 353.6302 237.2325"/><polygon points="348.7109 250.7604 358.214 285.307 363.6923 285.307 371.5184 305.9343 362.0153 304.984 360.8907 303.6512 356.1446 303.5453 342.4501 250.3132 348.7109 250.7604"/><polygon points="372.4977 307.7419 361.9035 306.7728 361.9035 312.2511 368.7233 324.102 379.5681 324.102 372.4977 307.7419"/><polygon points="379.5681 326.3381 374.3134 371.2822 374.3134 384.9219 365.1457 383.3567 361.9035 379.5555 368.3879 326.2076 379.5681 326.3381"/><polygon points="374.2518 387.0316 375.2078 397.6673 378.1706 404.4312 368.1643 402.5865 363.9159 400.7977 363.9159 384.9219 374.2518 387.0316"/><polygon points="375.9904 408.4002 367.919 419.2966 359.2622 419.1411 367.0494 408.2778 375.9904 408.4002"/><polygon points="357.9522 419.1222 365.7008 408.4377 362.1406 408.4377 354.2597 419.1222 357.9522 419.1222"/><polygon points="352.8785 419.001 361.2565 408.4377 359.0057 408.4377 348.3191 418.8277 352.8785 419.001"/><polyline points="357.6228 436.3337 377.3408 435.174 388.065 420.1952 377.7792 409.63 368.0525 422.4871 366.8227 432.102 357.9532 433.5927"/><polygon points="384.3755 413.8784 396.5619 400.4623 381.5805 381.0089 375.9904 384.9219 377.7792 397.4437 380.9097 404.7107 379.0091 407.953 384.3755 413.8784"/><path d="m394.214,341.0958s-3.0186.6708-3.354.6708-3.4658-.3354-3.4658-.3354l-1.7888,40.2484,6.0373,8.3851,1.5652-1.9006,1.0062-47.0683Z"/><polygon points="383.9283 341.0958 382.1395 378.661 375.9904 382.9095 375.9904 371.2822 380.9097 329.0213 383.9283 341.0958"/><polygon points="366.2637 129.8509 353.2948 138.2291 351.6178 138.3629 346.4749 141.7963 345.7763 135.8489 351.0587 133.3691 354.7606 134.0828 364.2513 129.8509 366.2637 129.8509"/><path d="m448.0277,186.2884l4.9938.3727,1.4161-2.087s2.5342.3727,2.8323.4472,9.2422,2.3851,9.2422,2.3851l-.5217.6708-8.2733,6.8571h-2.6832s-6.4845,3.7547-6.4845,3.7547c0,0-12-1.8168-12.2981-1.8168l11.7764-10.5839Z"/><path d="m454.0836,207.6051c-.2236-.2795-24.6149,28.7702-24.913,28.6211s-6.2609-.5963-6.2609-.5963l19.9006-22.8075,3.0559.205,6.1118-5.4224h2.1056Z"/><polygon points="456.0774 207.0834 429.6923 236.8971 429.6923 239.0586 441.7878 239.5179 450.6178 227.1145 457.2699 217.7232 464.2761 208.4996 464.0339 207.3443 456.0774 207.0834"/><path d="m439.3817,298.276h10.0621s11.8509,3.8012,11.8509,3.8012l6.3727,7.2671v.8944s-17.6646.3354-18.1118,0-7.7702-4.6398-7.7702-4.6398l-2.4037-7.323Z"/><polygon points="433.1245 297.1079 426.4519 297.0461 423.6178 279.6051 421.8289 264.512 420.9345 255.7915 419.8165 245.6176 420.5991 241.1455 422.2259 237.1561 426.4705 237.6238 425.6302 244.4996 426.6364 256.4623 428.5743 278.1238 431.891 288.6238 433.1245 297.1079"/><polygon points="431.4811 240.3033 427.6322 240.1418 428.537 254.2263 430.9966 277.0337 434.183 288.1579 435.486 297.0461 439.3817 297.0461 433.5122 257.3567 432.3383 247.63 431.4811 240.3033"/><polygon points="448.3258 297.0461 440.4997 297.0461 432.4501 240.3033 441.2824 240.8101 441.506 245.6176 441.7296 251.2076 442.624 256.4623 444.6364 261.6051 445.6426 264.512 448.3258 297.0461"/><polygon points="476.1364 279.7868 476.0236 286.6114 470.4625 301.5741 468.2265 308.4499 461.9097 301.2946 476.6954 274.2316 476.1364 279.7868"/><polygon points="473.9842 210.1766 530.2761 213.4607 532.7358 217.1502 534.5246 221.9579 535.0836 228.5539 536.3134 234.3676 539.1084 239.0632 539.1084 243.3117 539.1084 250.7464 537.5432 258.6284 534.5925 268.5126 516.9718 268.2992 482.0898 268.2992 490.2513 251.8086 528.3755 253.3738 531.9532 252.0322 532.5122 247.0011 531.8414 242.4173 526.6985 241.1874 503.2575 240.6284 482.3134 240.3452 482.4252 236.2688 478.7073 233.3194 477.951 232.3279 519.3196 233.585 525.8041 233.6968 529.4935 229.4483 527.4811 222.7402 522.1147 219.0508 509.6488 218.4918 492.1519 217.821 479.9656 217.5555 473.6302 217.5182 473.9842 210.1766"/><polygon points="481.3072 269.9902 478.4004 274.9095 477.8693 278.3474 484.8289 278.3474 490.8103 276.6983 503.8538 276.6983 512.8165 276.5492 527.0339 276.5492 533.4262 275.9097 534.3675 270.2622 481.3072 269.9902"/><polygon points="477.8693 271.1083 477.4823 274.1688 488.7233 251.7666 486.7435 252.3256 477.8693 271.1083"/><polygon points="531.4309 243.9254 482.0898 242.8225 482.2438 240.9565 526.3817 241.835 531.301 242.8784 531.4309 243.9254"/><polygon points="474.0401 221.4685 473.6667 218.4395 520.9845 219.7513 519.4314 223.2946 474.0401 221.4685"/><polygon points="521.8351 219.7915 520.3737 223.7515 525.86 232.3132 528.655 229.1828 526.5867 223.2946 521.8351 219.7915"/><polygon points="529.3986 244.4996 530.1046 251.9836 531.3942 251.543 531.9532 246.7728 531.5432 244.4996 529.3986 244.4996"/><polygon points="449.4438 324.4747 447.506 325.3691 436.773 324.9219 435.7296 325.3691 434.5743 327.6051 432.4501 380.9716 432.4501 384.102 433.5122 385.4437 434.5743 386.0399 445.7171 387.2325 448.3258 385.1455 449.4438 324.4747"/><polygon points="433.3445 388.1269 433.3445 404.3753 437.0712 406.7604 440.9469 406.7604 446.3134 407.8039 445.5681 389.7666 433.3445 388.1269"/><polygon points="447.506 407.8039 446.7047 389.7853 452.2948 409.6859 447.506 407.8039"/><polygon points="451.484 412.9177 441.506 426.512 436.3631 425.1704 432.6178 425.0027 440.5975 412.2387 451.484 412.9177"/><polygon points="438.4128 412.2387 431.1084 424.4352 419.183 423.3815 434.0525 412.2387 438.4128 412.2387"/><polygon points="430.4328 425.8613 422.2006 438.9327 424.5681 439.7255 424.9035 439.2364 435.6073 426.1905 430.4328 425.8613"/><polygon points="416.4259 424.1528 409.9325 437.0207 410.292 437.6284 413.2265 437.9819 413.5619 437.6604 422.2006 424.7934 416.4259 424.1528"/><polygon points="424.1431 425.1402 416.4824 438.2604 416.6989 438.6264 419.0401 438.9881 419.6365 438.6072 428.7979 425.5418 424.1431 425.1402"/><path d="m452.4997,413.8784l8.9441,11.1429v1.8634s-8.646,12.0481-8.646,12.0481l-3.0559,2.0389h-.9689s-1.4161-2.1398-1.6398-2.0389-3.2795,1.5917-3.2795,1.5917l-.8944.4472v2.3851s-16.1682.4147-16.1682.4147l-1.4964-3.4706,13.0723-13.2298,3.4722,1.163,9.2443-12.3059,1.4161-2.0497Z"/><path d="m458.8351,417.6424c-.4472-.9689-5.3106-7.4534-5.3106-7.4534v-9.6894s10.7516-7.0807,10.7516-7.0807l4.9565,9.8385-10.3975,14.3851Z"/><polygon points="460.0196 393.8263 454.5867 384.866 450.8938 384.866 448.3258 388.1269 456.8829 395.7201 460.0196 393.8263"/><polygon points="455.4252 396.6051 447.655 389.3101 452.3422 405.2582 452.0153 399.1766 455.4252 396.6051"/><polygon points="455.0339 340.2445 454.6985 382.8536 450.4501 382.8536 451.0836 331.7604 454.1395 337.071 455.0339 340.2445"/><polygon points="459.4221 312.4517 462.1892 314.7107 453.2171 320.7201 449.5836 318.2884 442.5122 308.2263 449.4438 312.4374 459.4221 312.4517"/><path d="m438.4128,299.2822c.0745.8944,3.8012,12.9689,3.8012,12.9689l5.4969,8.0217,2.7391,2.1522h-13.9752s-4.5839-10.6211-4.5839-10.6211l-2.9441-12.5217h9.4658Z"/><polygon points="459.4221 195.2339 467.6674 187.8894 475.8289 191.1627 507.3569 192.512 531.3942 194.1534 538.9966 196.1417 550.9594 196.7121 557.4438 199.1154 558.5619 201.6797 531.3942 200.1843 503.7792 198.689 465.0438 196.2014 459.4221 195.2339"/><path d="m453.0587,197.6285l3.5963-1.4868,15.5963,1.4868,28.3975,2.5558,32.646,1.6817s-33.5404-.7453-34.6584-.7453-40.8913-2.0053-40.8913-2.0053h-6.6615s1.9752-1.4868,1.9752-1.4868Z"/><polygon points="571.5308 211.8536 558.5619 238.2946 548.4997 238.2946 563.0339 209.6176 569.742 209.6176 571.5308 211.8536"/><polygon points="493.4935 301.5741 504.8414 295.7858 520.1022 288.1579 531.3243 283.3552 532.1395 279.4188 523.8289 283.2573 511.7171 289.071 501.7668 293.8412 493.4935 298.6859 493.4935 301.5741"/><polygon points="492.2171 301.8598 472.2792 301.8598 473.919 298.3691 492.2171 298.6114 492.2171 301.8598"/><polygon points="474.3698 296.2978 493.9754 296.4071 499.1172 292.5206 475.754 292.657 474.3698 296.2978"/><path d="m513.8414,286.7604c-2.0124,0-8.3851-.1491-8.3851-.1491l-3.3507,3.8678-5.5654-.2249,2.0963-3.4938h-20.6087s.0373-2.4596.0373-2.4596h21.7453s3.9689-5.8137,3.9689-5.8137h8.3851s-4.8634,5.7019-4.8634,5.7019h10.3416s-3.8012,2.5714-3.8012,2.5714Z"/><polygon points="494.8258 288.102 492.8973 290.8691 476.4625 290.8691 477.4687 288.102 494.8258 288.102"/><polygon points="525.9718 278.7666 522.1147 282.2884 511.7171 282.2884 514.3445 278.8225 525.9718 278.7666"/><polygon points="498.6643 279.7868 496.7358 282.5539 478.2513 282.7356 478.0277 279.7868 498.6643 279.7868"/><path d="m530.6759,212.3753c-.2236,0-65.232-4.2671-65.232-4.2671l-.4-1.5093-8.3329-.3913,1.2146-1.5093,59.7171,4.472-4.7691-6.1537,4.0051.135,5.795,5.795,8.7572.3354,3.6527,4.5839h-3.2795s-1.1282-1.4907-1.1282-1.4907Z"/><polygon points="510.2723 203.2269 513.8041 207.3443 472.773 204.4374 468.6737 200.8598 510.2723 203.2269"/><path d="m558.5619,240.3033l4.9193,67.0286s-4.6957-.8944-4.9193-1.118-6.9317-36.2378-6.9317-36.2378l-3.1304-29.6727h10.0621Z"/><polygon points="423.8973 440.7107 424.9035 443.7294 421.1581 443.7301 420.2637 441.8287 421.4935 439.8722 423.8973 440.7107"/><polygon points="418.2513 439.8722 418.8103 443.2263 416.0712 442.6114 415.2427 441.8012 416.2961 439.4809 418.2513 439.8722"/><polygon points="412.242 438.8101 412.5355 441.102 410.5091 440.8645 409.419 439.8722 410.0339 438.4688 412.242 438.8101"/><polygon points="356.6655 433.7931 356.3104 436.326 354.0613 436.022 353.9656 433.3598 356.6655 433.7931"/><polygon points="349.7907 432.5099 349.8406 435.1341 347.7289 434.7798 347.5605 432.2105 349.7907 432.5099"/><polygon points="344.6115 431.2449 344.8187 434.2059 342.4067 433.9474 342.0401 430.9113 344.6115 431.2449"/><polygon points="585.8787 342.5485 579.2823 342.5511 584.6454 339.0639 584.6454 334.4996 579.2824 329.0213 575.7047 328.5342 571.5308 324.7356 567.9532 320.7201 563.4811 318.2884 559.3072 312.9964 554.6013 309.1207 548.1923 285.6704 546.5991 282.7356 551.6302 278.2635 557.6674 307.3319 563.0674 309.1319 577.3445 325.5555 579.6923 323.4312 589.0463 332.4932 587.0712 338.4499 585.8787 342.5485"/><polygon points="494.2078 303.3741 494.8258 313.1455 497.3256 318.2884 500.3507 321.0521 502.4376 326.2076 506.7603 329.0213 511.7171 332.3328 517.6426 337.8909 522.1147 340.2445 525.6084 335.0586 519.2078 331.4064 511.3817 327.2325 506.1184 322.2882 503.5556 314.4732 498.1519 315.5306 499.6053 306.0275 497.8351 301.8598 494.2078 303.3741"/><polygon points="499.1172 301.3216 532.1395 286.6114 540.0028 308.2263 532.1395 322.425 526.7254 333.4126 512.2761 325.7418 507.3569 321.1422 504.5246 312.5492 499.6799 313.5182 500.8724 305.7666 499.1172 301.3216"/><polygon points="540.0308 202.2247 541.6226 203.3504 540.5991 204.5717 540.9951 204.7403 541.9703 203.5963 545.742 206.2635 547.237 206.5676 547.4376 208.7791 547.815 208.835 547.6023 206.6419 549.0401 206.9343 551.9479 209.5022 549.7154 212.0666 550.0674 212.4663 552.3569 209.8971 555.9904 211.5182 559.3072 213.866 558.5619 215.1976 556.2054 213.6146 556.0023 214.0868 558.3063 215.6543 555.6862 220.3351 551.5743 216.9406 554.3939 214.7649 553.6426 214.2014 550.9305 216.3009 546.908 212.2117 545.0712 212.599 544.2513 208.4458 539.6421 205.071 535.568 202.0523 540.0308 202.2247"/><path d="m550.2699,229.8163c-.0559,0-9.1491,0-9.1491,0l-4.7516-5.8602,2.0683,10.0901,2.8023,2.5972.2708,6.7469,4.5853-.0646-.2236-4.8075,4.3975-8.7019Z"/><polygon points="548.9611 227.8784 543.0028 222.9592 536.582 215.7732 533.6572 215.7653 535.978 221.2449 539.537 224.0772 541.7171 227.8784 548.9611 227.8784"/><polygon points="548.4997 263.7294 545.9656 245.7704 541.5308 245.7704 541.2327 251.1704 539.742 258.2511 537.506 265.5927 542.0898 265.5927 548.4997 263.7294"/><polygon points="550.2699 274.2316 545.4811 279.4188 541.9035 277.984 536.6488 277.7045 535.6985 275.189 536.8165 267.9219 542.0712 268.0337 549.4687 266.189 550.2699 274.2316"/><polygon points="558.5619 203.002 562.4882 208.0114 562.2019 208.4756 560.0153 205.9002 559.7637 206.1657 561.9875 208.8232 561.0101 210.4077 557.2202 207.6797 553.7917 206.8225 549.4269 204.3569 549.1743 203.2655 554.9031 203.6362 555.0093 203.2847 549.0793 202.8553 548.9611 202.3445 558.5619 203.002"/><polygon points="356.833 222.3825 356.833 225.2427 371.1799 225.1579 374.9841 223.2946 373.5681 221.7666 373.7171 215.8039 368.7233 215.8039 368.6777 217.4931 354.0153 217.5098 354.0153 219.9881 369.5425 220.1984 369.64 222.3737 356.833 222.3825"/><polygon points="375.3196 214.3132 379.4946 210.6692 358.5432 211.1828 358.7575 212.2592 373.7171 212.189 372.86 213.2325 354.4141 213.3643 354.2265 214.425 375.3196 214.3132"/><polygon points="439.3817 171.6983 447.8041 171.6192 443.2948 163.5182 437.8165 160.7604 434.9949 160.7785 435.4314 164.1145 438.7482 164.1145 439.3817 171.6983"/><polygon points="438.2218 167.4126 438.3879 171.6192 437.336 171.6192 435.6504 164.911 437.9563 164.939 438.2218 167.4126"/><polygon points="425.1457 160.1269 425.1457 161.3753 427.8891 162.8182 430.1954 166.9095 432.9718 166.9095 432.6923 164.1145 434.5137 164.1145 434.0945 160.7604 425.1457 160.1269"/><polygon points="413.6302 98.0027 412.788 99.0982 411.3296 98.0772 401.9283 110.1517 402.8227 110.9343 400.9594 113.0213 398.6518 111.0278 411.0215 95.8412 413.6302 98.0027"/><polygon points="411.5493 95.1895 413.7988 92.4379 415.9594 91.0177 422.3715 91.0177 402.6661 114.4305 401.7136 113.5667 403.97 110.7096 403.1581 110.0027 411.5911 99.109 413.1084 100.1642 414.8078 97.8983 411.5493 95.1895"/><polygon points="546.0649 340.329 548.9564 339.3844 552.2907 340.8507 554.6013 344.596 554.6013 349.7296 553.3161 355.6531 548.6132 359.1302 541.9069 355.9284 540.5821 349.9066 544.132 342.6812 546.0649 340.329"/><polygon points="545.2575 339.8287 538.3576 335.95 531.3459 325.5025 526.9856 334.7854 522.8352 340.5928 529.7856 345.7885 532.9608 354.9298 537.7427 356.8009 541.2111 356.019 539.8856 349.8133 543.8605 341.6642 545.2575 339.8287"/><polygon points="545.3727 360.4472 540.7482 359.7666 537.3942 357.6424 541.8662 356.7853 546.3871 358.7674 545.3727 360.4472"/><path d="m592.1022,240.9565c.1491-.1091,2.5342-4.2989,2.5342-4.2989l-2.5342-2.3692-3.0559-4.472-4.8447-5.8602-3.4873-3.089-5.0096-4.765-3.2795-2.236-12.4099,24.4286,5.1801,3.5963,2.4596-5.2333,3.8758-4.3443,5.795-2.3478,4.1925-.4472,5.2174,3.8012,4.1739,5.8761,1.1925,1.761Z"/><path d="m587.332,328.5342c-.4472-.4818-8.0497-6.8918-8.0497-6.8918l-1.6398,1.7888-13.2671-14.9814-4.3602-68.1466,4.3602,3.6221-.8944,11.0835v8.3513s1.7143,10.8714,1.7143,10.8714l3.764,6.2959,3.764,3.1211,5.0683,16.7516,4.9193,14.073,4.6211,14.061Z"/><polygon points="589.3445 329.9693 590.1914 326.9843 591.5138 326.2863 592.4004 323.6569 601.1209 306.8101 603.8344 305.0213 597.9159 296.4071 602.537 285.4188 598.3631 239.1955 595.8289 237.5679 592.6985 242.441 595.8289 249.2919 597.0215 258.9219 597.4687 269.3194 594.6364 280.304 588.6737 286.6114 585.5432 288.102 579.2824 287.7294 575.7047 285.7169 574.3631 284.4187 587.9283 326.7107 589.3445 329.9693"/><polygon points="579.0181 343.3441 582.8286 348.8945 585.0052 349.6574 585.3569 345.9533 585.8414 343.6055 579.0181 343.3441"/><polygon points="517.6045 202.7138 528.7673 202.7138 528.7109 206.2915 522.8134 206.0679 521.6395 205.7915 522.5917 206.5717 528.7673 206.7802 528.7673 208.1568 522.9811 208.0524 520.6053 205.7915 518.9183 204.102 527.537 204.335 527.5362 203.8878 518.5091 203.7201 517.6045 202.7138"/><polygon points="529.4098 208.1528 532.4563 208.1528 533.9464 209.761 535.0836 208.667 533.1551 206.7384 531.6411 206.6581 531.6827 206.3135 533.3033 206.3926 535.3296 208.4414 537.0213 206.873 534.1334 204.4557 531.8669 204.3521 531.9048 204.0865 534.2635 204.1673 537.2543 206.5827 538.483 205.3457 535.7646 203.0929 534.273 202.7138 529.4098 202.7138 529.4098 208.1528"/><polygon points="534.3536 210.0894 539.1084 205.6854 540.0367 206.3761 537.4278 209.3489 537.7389 209.4499 540.437 206.6251 543.4687 209.0306 539.6589 211.5754 539.9026 211.8056 543.6643 209.4499 544.2513 212.776 537.8063 214.3872 534.3536 210.0894"/><polygon points="359.6648 420.3842 353.9656 432.4157 356.9101 432.825 365.5712 420.3842 359.6648 420.3842"/><polygon points="342.0401 430.0881 345.9403 419.9819 349.5557 420.2827 344.5316 430.4794 342.0401 430.0881"/><polygon points="350.1366 431.6072 356.4594 420.3842 352.0955 420.3842 347.5605 431.2462 350.1366 431.6072"/><path d="m314.8724,160.4437l.559,3.8012-.559,1.4756-4.2857,3.9654-4.7702.2609-2.7578-1.8261h-1.4161s-.5963,1.8261-.5963,1.8261l-1.6398.3354-1.3043-1.6398s-1.9752-2.6087-1.9752-2.6832-.354-2.6087-.354-2.6087l1.0994-3.5217,10.2857.0932h7.0807s.6335.5217.6335.5217Zm-8.4596,1.323l-2.1242,1.4534-.1863,1.5652.9689,1.677,1.9006,1.3416h3.0932s2.3851-2.4002,2.3851-2.4002v-2.2582s-1.8634-1.3789-1.8634-1.3789h-4.1739Zm-10.1646,2.0124l.2795,1.9286,1.1779,1.6491h1.2817s.4938-1.953.4938-1.953l-.0745-1.9974-1.118-1.1646h-1.528s-.5124,1.5373-.5124,1.5373Z"/><path d="m393.2078,322.425l6.0373,8.6087-4.472,8.2733-4.0249.7826-4.4441-.8106-2.3758-8.9161,3.0186-6.7081,6.2609-1.2298Zm-3.593,10.5203s.5753,1.075.5752,1.075l1.389.4792,1.6991-1.1268.4995-1.0877-.1199-1.8358-1.4747-1.7634-1.6584.3354-.9042,2.2154-.0055,1.7086Z"/><path d="m461.2948,392.9716l-3.3692-5.7391.9096-47.9255-2.1801-2.236-2.8137-5.3106,1.1925-9.3354,6.3447-4.1366,4.6118.8944,5.1429,10.7329-5.6894,8.7205.5466,51.4286-4.6957,2.9068Zm-.2236-68.236l-1.5466,1.9752-.1025,3.2748.6289,1.4394,1.0204.9077,2.11-.0413,1.5047-1.1832.7578-2.087-.4-2.5342-1.7739-1.4534-2.1988-.2981Z"/><polygon points="455.0339 271.1082 461.5184 271.1082 468.2264 265.7418 472.0277 254.7852 472.0277 244.7232 470.0153 238.4623 465.4438 233.0958 459.4221 228.8474 453.6923 228.8474 447.6399 233.0841 447.6345 233.0811 464.2761 209.6176 472.4528 210.1766 472.1395 218.1145 472.4749 224.8225 476.7602 232.9646 481.3072 236.8971 480.9718 242.4409 476.3879 272.7852 461.0712 300.4002 449.891 296.7107 446.9842 265.2946 446.2319 262.8026 449.4438 266.8598 455.0339 271.1082"/><path d="m459.4221,233.3194l5.3096,3.3381,3.9419,8.96v8.4969s-3.2298,8.2733-3.2298,8.2733l-3.0109,2.9068h-8.2935s-4.9193-4.2484-4.9193-4.2484l-3.8012-6.7081-.6708-8.8323,2.236-7.9379,5.5901-4.2484h6.8478Zm-5.5807,3.3381l-3.4441,3.1226-2.0714,5.502v8.3851s5.5901,7.1553,5.5901,7.1553l6.7869,1.1037,4.341-4.4578,1.841-10.2857-4.3975-8.3851-8.646-2.1401Z"/><polygon points="460.9594 242.0399 464.2761 247.5983 463.1594 254.6719 459.4221 258.2511 454.7938 257.4952 451.6408 252.7742 451.6053 245.394 454.5867 241.1455 460.9594 242.0399"/><path d="m579.3569,286.6114l-4.0248-2.7578-4.2309-4.9938-3.4088-4.8447-1.677-4.6584-.8199-16.9565,1.1925-8.9068,3.9503-6.8938,3.8758-3.9136,4.9193-1.4534,5.6646,2.7205,4.3975,4.882,4.5466,8.795s2.087,11.6273,2.087,11.4783,0,11.2547,0,11.2547l-2.6832,7.705-3.5776,5.0404-4.1739,3.1304-6.0373.3727Zm-4.0994-49.0435l-5.0683,4.8731-2.1615,4.1456-1.2355,6.8737,1.3846,16.0828,2.0124,4.0994,6.1025,7.9006,4.3416,2.1056,5.5062-.913,5.2381-5.507,2.3458-7.0427.913-10.1087-1.4907-6.7453-2.236-7.8634-5.3665-7.1739-5.5155-2.8137-4.7702,2.087Z"/><path d="m577.7917,279.1579l-4.8447-5.2174-2.9441-5.7391-1.0062-8.6366-.0373-7.0901,2.1615-6.1118,3.06-3.9219,3.3126-2.1377h3.8758s3.7267,2.1377,3.7267,2.1377l3.5776,3.7729,2.236,5.1429,1.4907,4.8447.7453,4.323-1.6025,8.7205-2.087,5.8323-3.8385,4.3789-4.8403.8479-2.9858-1.1461Zm6.7081-3.1304l2.6832-2.8323,2.5342-5.6646,1.1925-6.7081-.7453-5.8137-2.236-5.7019-3.4286-3.8385-4.9193-2.1988-5.0683,3.8012-2.9814,6.2609v8.5944s1.7888,6.5864,1.7888,6.5864l1.9379,3.4901,2.9814,3.361,4.0248,1.4092,2.236-.7453Z"/><path d="m583.0091,249.0834l3.2795,4.2484,1.0435,4.9565v7.0062s-1.4907,4.323-2.1615,4.6957-3.9503,1.118-3.9503,1.118c0,0-3.1304-2.8323-3.4286-3.4286s-2.087-5.7534-2.087-5.7534c0,0,0-5.3894.1491-5.9857s1.5652-4.6211,1.5652-4.6211l2.7205-2.236h2.8696Z"/></g><g id="g"><path d="m489.9532,346.2649l.651,12.3514,1.9099,8.8647,2.8801,8.6832,3.6522,6.2236s5.4888,6.9037,5.9348,7.3509,5.031,3.9876,5.031,3.9876l5.355,2.3381,9.7382.0098,7.6584-2.0684,3.7454-1.677,5.2381-3.8292,3.5103-4.2857,2.3342-4.6199,2.3987-5.5303,2.8642-10.6448,2.1296-12.5963-.2236-9.1304-1.8261-10.5466-1.3416-4.9565-2.2733-6.4099-2.7205-4.3603-2.1957-2.2733-4.4006-4.3975-4.8634,8.8416-4.0463,7.3391.1168.2385.1414.1836.1173.1517c.6522.8355,1.0044,1.4265,1.7702,2.5405.5254.7643,1.4866,2.1012,2.0254,2.8708,1.022,1.46,1.9471,2.9879,3.0529,4.3889.877,1.111,2.2471,1.9534,3.6506,2.6768l-.3121-.1755c-.0405-1.6537-.1475-3.6864.0916-4.1057.239-.4193.5728-2.3758.5728-2.3758,0,0,.7842,2.3525.9239,3.3424.1366.9674-.3947,2.7734-.1583,3.8696.5025.2422.9957.4756,1.4532.7036.4454.2219.8188.4815,1.1396.7643.064.0232.1188.0572.1808.0828.1136-.0778.2239-.1634.3405-.2323,2.2849-1.3513,5.535-.5641,6.8409,1.7938.1633.2948.3047.5999.4824.8851.0116-.2935.0112-.7417-.0773-1.0074-.1398-.4193-.8385-6.5851-.8385-6.5851l-1.3975-5.8735-1.2578-5.2-1.6771-4.7482-2.236-4.0062,3.0396,4.5768,1.2054,2.9697,1.4499,4.5769.8735,3.389.8385,4.3155s.8385,4.9081.9783,5.6379c.1397.7299.2155,3.1556.0757,3.8544l-.2726-.4419c.1412.4541.2229.9272.2229,1.4105.0259.6884-.1176,1.3306-.4307,1.9264-.2016.6199-.5463,1.1562-1.0338,1.6091-.5197.4771-1.13.8818-1.7918,1.1463,2.6412,2.6989,1.5601,8.5087-3.2585,8.6395l.8127.309s-1.3116,5.6927-1.3116,6.1119-1.8168,4.1926-1.8168,4.2205c0,.028-3.2997,6.4006-3.2997,6.4006,0,0-2.8494,5.0311-3.1289,5.101-.2795.0699-5.59,6.3587-6.2888,6.778-.6987.4193-5.4503,2.0963-5.4503,2.0963h-5.3106s-4.0528-1.677-4.0528-1.677l-4.472-4.1926-2.3292-3.0046-2.2826-4.5419,3.4938,2.2827,3.7558,3.7179,3.5892,2.9341s.0001.0004.0007.0006c.0092.0044,3.5811,1.5809,3.9742,1.6857.8214.2191,3.913,0,4.3323,0s2.5155-1.677,2.5155-1.677l2.795-2.3758,3.3075-3.1211,2.4922-3.2609,2.4457-4.2391,3.0435-5.1591s1.4286-5.0428,1.4286-5.8347c0-.6196.5345-2.0245.7693-2.6121-.1118-.0164-.225-.0308-.3322-.0537-.7671.6179-1.7709,1.0136-3.0353,1.0136-1.1072,0-2.0196-.301-2.7462-.7913-1.5291-.0449-2.6746-.6699-3.4501-1.5809-.1531-.0349-.303-.0739-.4463-.1215-.0083.174-.3284.2929-.3284.2929l-.2133-.1067s-3.6335-.6987-4.0528-1.118-3.1444-1.3276-3.1444-1.3276c0,0,1.8866-.4891,2.4456-.0157s2.3024.8495,3.0291.8868c0,0,.1608.0829.4299.2084-2.2335-2.4067-1.6436-7.1049,1.7827-8.2855.019-.3585.0632-.7151.1481-1.0629-2.4877-1.3583-4.7819-2.9169-6.5786-5.2295-1.0345-1.3315-2.2072-2.7778-3.3064-4.2866l-1.7626,3.1588-1.8746.7023-1.5652-.8944-3.1303-3.5128-3.8026-2.8412-3.7441-2.3758-5.6192-4.2018-3.2131-2.3851-2.4596-4.5466-2.1429-2.3478-.849-2.7298-.9957.9783-2.0497,3.9503-1.7143,3.8012-1.0435,4.9938-1.0435,8.4224-.1863,9.0075Zm54.7969-17.199c.1087.8177-1.0869,1.1387-1.2267.7194-.1398-.4193-1.3975-1.9565-1.2034-2.3757s-1.7314-3.7733-2.3059-4.472c-.5745-.6988-1.8012-4.3323-2.0807-4.7516,0,0,.6988-1.2578.8553-.9783.1566.2795,2.359,2.3758,2.7211,3.0746.3621.6987,2.433,4.0528,3.2404,5.1708.8075,1.118-.1087,2.795,0,3.6129Zm5.0233,38.8716s.5512-2.0789.9705-3.3075c.1653-.4842.4891-2.3794.5125-2.7484.1142-1.8096.9709-4.5865,1.0472-5.4799l.5511-.4074-1.9032,8.7697-1.178,3.1735Zm-15.6721,24.5963s2.5736-2.0613,3.8146-2.8998c1.241-.8385,5.328-5.7648,5.328-5.7648l2.9523-5.3455,1.712-4.0179,1.4849-3.3928-.3494,1.7451s-2.4457,6.8186-3.0047,8.0065c-.559,1.1879-2.9658,4.3556-3.7189,5.2174-.7531.8618-3.9674,4.4953-3.9674,4.4953l-4.2513,1.9565Zm-29.5686-23.7345l-3.5869-4.0935-2.7019-7.3894-1.2578-12.0186s.559-8.1056.6988-8.9441c.1397-.8385,2.0963-8.6646,2.3757-9.5031.2795-.8385.6097-1.8442,1.3085-3.2823l1.0684,2.6394.5978.3891c-.1735.4645-.1797.3936-.5989,3.3726-.4193,2.9791-.8385,6.8035-.8385,10.2973s.559,9.9224.559,9.9224l.4891,7.5117,1.0831,6.743.8035,4.3556Zm7.8261-28.82c.1398-.8464-2.0963-2.3679-2.5854-2.9512-.4891-.5834-1.4674-2.9104-1.6654-3.3297l2.4573,1.8633s1.9332,2.7485,2.8804,3.4239c.9472.6755,1.5683,3.2016,1.5683,3.2016l-3.7267,1.2239-2.8416-2.0264-2.795-1.4055v-.9937s2.4573.9937,2.4573.9937c0,0,2.434,1.6849,3.1794,1.5452.7453-.1397.9316-.6987,1.0714-1.5452Zm-6.7081,10.8656l4.1227-3.8232-.7686-1.7809-2.2614-1.8296v-1.0657s2.2614-.7639,2.2614,1.0657,1.4673,2.9581,1.4673,2.9581c0,0,.2097,1.4441,0,1.5839-.2096.1398-4.8214,2.8918-4.8214,2.8918Zm3.3541,8.5911l2.2826-3.2375,1.3509-3.6335h1.1181s-.8385,1.3975-1.1181,2.3059c-.2795.9084-1.1661,5.1117-2.1661,4.507-.722-.4366-2.11.7444-2.8278,1.4361l1.3604-1.3779Zm7.267-21.2655l-.5745.8152s-2.0807-1.7935-2.2515-1.9576c-.1708-.1642-3.0435-4.0284-2.9736-4.4477s-2.0264-2.236-2.0264-2.236c0,0,4.6118,3.4938,5,4.3207.3882.8268,1.5683,1.2694,1.5683,1.2694l1.2578,2.236Zm1.118,15.9316c-.2795-1.118-1.8168-4.1925-1.6926-4.8214h.5745s1.9565,2.4457,2.236,3.2842c.2795.8385.8386,1.8168,1.118,2.3059s1.677,2.4456,2.5155,2.4456,2.3758,1.3975,2.795,1.3975,2.0963.722,2.0963.722c0,0-1.8167,1.7935-3.2142,1.8401s-2.5156-.7454-4.0528-1.3044c-1.5373-.559-2.0963-4.7515-2.3758-5.8696Zm1.9565,14.6972c.1397-.5823,2.015-3.0978,2.015-3.0978v1.4092s-1.0368,2.364-1.4561,2.923-.517,2.3665-1.097,3.2795c-.58.9131-2.5366,3.0093-2.5366,3.0093.1398-.4193,1.6771-4.0528,1.6771-4.0528,0,0,1.2578-2.8882,1.3975-3.4705Zm6.7237.562c.002.5242.0341.9567.1241,1.0918.2795.4193.8385,4.0528.8385,4.0528l-2.0963-7.7562-.8385-1.7469-1.2578-.8093s1.8168-.0292,2.236,0,1.118,2.5562,1.118,2.5562c0,0-.1284,1.5089-.1241,2.6116Zm-4.0684-23.5045l.8385,3.09s.2795,1.941,0,2.3603c-.2795.4193,1.2578,2.236,1.2578,2.236l3.6335,1.7362v2.8755s-2.3758-.559-2.795-.8385c-.4193-.2795-2.3758-1.2578-3.575-2.037-1.1992-.7793-.4778-2.2952-.6176-2.7145-.1397-.4193-.559-3.2842-.559-3.2842l-2.795-.3339s-.9783-2.3913-1.118-3.09h1.6771s1.9565.8385,1.9565.8385c0,0,.2795-1.118.4193-1.3975.1398-.2795,1.6771.559,1.6771.559Zm5.6295.5124c-.5984.7454-1.1574,2.174-.5984,2.5776.559.4037,1.0987,1.1025.8289,1.6615s-2.0866,1.0895-2.0866,1.0895c0,0-1.118-1.6485-1.677-2.4171-.559-.7686-1.2578-4.04-1.2578-4.04,0,0,1.1564-3.0454,1.9949-2.7659.8385.2795,2.2499,1.3443,2.3102,1.5269.0638.1934,1.0842,1.6222.4858,2.3675Zm1.5677,6.1957c-1.6072.8385-.4891-1.5373,0-2.795.4891-1.2578-.9084-.9783-1.4674-1.8168s1.3975-.9783,1.4674-1.3975.7623-.2615.7623-.2615l1.7246,4.9649s-.8798.4674-2.4869,1.3059Zm8.8498,5.6532l-1.0936,2.8251-2.8538,3.6627s.3608-.7719.6854-1.5197c.2258-.5201.434-1.0286.4913-1.2579.1398-.559,2.7706-3.7101,2.7706-3.7101Zm1.8412,6.9244s1.118-2.795,1.2578-3.2143c.0444-.1333.7857-1.4313.999-1.9557l2.2568.3322c-.3453.9612-1.1595,3.0211-1.1595,3.0211l-.9491,1.8633.0252,1.118-2.4301-1.1646Zm-8.2454,11.1801l2.3758-1.8168,1.8168-2.236,1.5373-1.1568,1.2578-3.1755,1.2578-.8268,1.2578.8268v.8618s-1.677,2.9115-1.677,2.9115l-1.9565,3.3541-2.3758,2.3991-2.236,1.1414-1.2578-2.2827Zm-1.677-8.3851l-2.0343-8.5598s3.0126,7.4418,3.0303,8.5598c.0177,1.118,1.2401-.8268,1.2401-.8268l1.7902-.8036s-.6722,1.6304-1.0915,2.4922c-.4193.8618-2.036,1.2345-2.036,1.2345l-.8987-2.0963Zm-14.9534,9.9224l5.1708,1.5372h4.1925s4.0528-1.5372,4.0528-1.5372h1.2578s.9782,2.0963.9782,2.0963v1.2578s-2.0963,1.3975-2.6553,1.677c-.559.2795-2.9348.9783-3.6335.9783s-3.7733-1.5955-3.7733-1.5955l-2.3758-1.4092-3.2143-3.0046Zm-1.2577-5.5901c.6987-.6987.8385-3.354,1.2577-4.3323.4193-.9783,2.0963-3.6335,2.0963-4.6118,0-.6429.3621-2.674.6104-3.991.1295-.6871.2281-1.1799.2281-1.1799v5.1708s-1.2578,2.9583-1.3975,3.785c-.1398.8268-.8541,4.0023-.8541,4.0023l-1.941,4.2313s-.6988-2.3757,0-3.0745Zm-2.469-8.0894c-.8851.403-2.8416,1.7074-2.8416,1.7074v-1.1821s2.8416-2.7776,2.8416-2.7776l4.4099-5.0078s-1.4441,3.7073-2.2515,4.3575c-.8075.6502-1.2733,2.4994-2.1584,2.9025Zm-2.2826,8.0894l-.9783-3.7034s-.8516-2.2067-.8384-2.2593l2.2829,3.8665,1.0536,1.8167,1.939,3.3016-1.1762-.7861-2.2826-2.236Zm-16.4907-10.3416s1.5373,5.4115,1.8168,6.4791c.2795,1.0675,2.6553,7.9153,2.6553,7.9153l3.4938,5.7473,6.7081,7.1564,5.1708,4.1459,4.472,2.3758h-1.1407s-4.4028-1.677-4.4028-1.677l-4.6584-3.4938s-3.2143-3.4006-3.913-4.4953c-.6988-1.0947-3.3541-4.012-3.3541-4.012,0,0-1.8168-3.3715-2.3758-4.21-.559-.8385-2.3757-5.5901-2.5155-6.0093s-1.9565-9.9224-1.9565-9.9224Zm-1.9099-25.9938l.9316-5.7764,1.118-6.2921,2.0497-4.7482,1.5972-2.9377,1.0249,2.1085,1.271,1.1613-2.775,6.6533-1.8634,7.2227-1.118,5.6599-.6056,4.4255-.3261,6.3587v9.6079s-1.0015-5.2057-1.0015-5.2057l-.3028-6.2189v-12.0186Z"/><path d="m629.8631,410.9157c-5.066,2.9627-14.4863,5.9814-24.7709,2.6273-3.6766-1.199-6.6385-2.8683-8.0334-4.323-.6969-.7267-1.1821-1.3888-2.1242-2.8323-1.2086-1.852-3.2957-5.5026-4.882-9.0186-1.3347-2.9583-3.2088-10.0465-4.2112-14.5485-1.0455-4.6955-.7199-1.9396-1.5026-7.6254-.34-2.4701-.4228-7.1492-.3608-11.7535.1043-7.7432.7188-10.8217.9689-12.4329.3456-2.2259.9778-6.4999,1.2671-7.8261.6036-2.7675.3733-1.2881,2.2733-8.2969,1.0355-3.8199,2.1173-6.0093,2.8323-7.6161.6761-1.5194,2.8251-6.1471,3.3959-7.3416,2.4037-5.0311,3.0582-5.5615,4.6911-8.2733,2.087-3.4658,4.198-5.0082,5.8882-6.3354,2.6111-2.0504,3.3297-2.4028,4.5279-2.9627.6619-.3093.457-.1124,4.1366-1.0062,3.271-.7946,3.8571-.4472,5.3665-.225,1.84.2709,2.1816.5154,5.1149,1.5107,5.7648,1.9561,6.0301,2.2196,7.7981,3.9876,1.9006,1.9006,4.9009,6.2676,6.3168,8.7578,4.4614,7.8468,3.9784,6.4171,5.8137,11.264,2.9627,7.8246,3.8547,10.9492,4.5559,19.2298,1.3137,15.5124-.8309,24.8858-3.1787,34.7802,0,0-6.9585,20.5211-9.5284,24.044-.5721.7843-1.976,2.7603-2.5153,3.3479m-2.9843-102.3231l-7.826-2.6087-5.4729-1.9901-7.9433,1.9901c-2.3154,1.677-4.6308,3.354-6.9462,5.0311-.0006.0011-.2471.4747-.2477.4758-.6194,1.1895-7.4769,14.3573-8.0856,15.5257l-1.4907,19.5885,2.236,20.1242v-6.3354s5.2173-17.8882,5.2173-17.8882l3.3541-14.7737,6.3354-11.0121,10.4348-6.2639,7.8675.2833c2.2222,1.5205,4.4444,3.0409,6.6666,4.5614,1.9876,2.561,3.9752,5.122,5.9628,7.683h0l-10.0621-14.3911Zm-10.6629,97.0109c-.1165,0,4.9845,0,4.9845,0l4.7881-2.5388,5.8696-6.8944,5.8696-12.1118,1.7495-10.7782-.0863-5.3869-2.0259-8.1051-.4241,9.5303-1.0541,7.566-1.2336,4.3323-3.7034,9.5031-5.1708,8.5248-3.9247,3.4938-5.6383,2.8649Zm-3.8218-4.472c-.1165,0,4.9268-.8152,4.9268-.8152l4.2376-3.1447,3.5914-4.8444,5.3804-11.6809,1.8866-9.4799.4193-4.932-.9783-8.4957-.6988,8.4957-1.118,9.8118-2.2388,6.9747-2.5826,5.4632-4.9612,8.3851-4.9915,3.0512-2.8731,1.2112Zm2.2745,1.677c-.1165,0,5.3433-1.2284,5.3433-1.2284l4.2995-3.9344,4.6817-6.1072,4.073-8.8425,1.7965-5.9511.559-5.2096-.6289-6.9196-.4193,6.5391-1.2578,6.6382-2.4936,6.5335-3.7253,7.0923-5.0427,7.0575-2.5738,1.9565-4.6118,2.3758Zm-12.2981-26.0637l2.3758-.8385,1.8168-4.6118.2795-.7023,1.5373-3.8629v-4.2391s0-.7919,0-.7919l-.8385,2.0497-.6988,2.9814-2.3758,6.382-.9783,1.5373-1.118,2.0963Zm10.5331-29.7671l1.3458.6988.9783-2.795,1.118-2.795,1.118-3.913,1.3509-7.5466v-2.795s-.6522,1.8168-.6522,1.8168l-1.677,8.9441-1.2578,3.0745-1.5373,3.354-.7867,1.9565Zm12.2464,10.7609l2.0963-2.6553,2.1894-3.4938,2.0031-3.913,1.3975-3.7733v-2.6553s-.559-.559-.8385,0-1.3975,3.6335-1.3975,3.6335c0,0-1.4907,2.5155-1.1646,2.795s-.4425,2.6553-.4425,2.6553c0,0-1.3276,1.8168-1.4674,2.236s-2.3758,2.9348-2.3758,2.9348v2.236Zm-9.2909-2.4457l2.0238-2.8649,2.236-.9783.8385-1.2578h-.9783s-2.0963.8385-2.0963.8385l-2.0238,2.0963-2.1305,5.2385-.825,2.0286,2.9555-5.1009Zm7.4159,11.7022l.757,5.2776v15.9317s.0829,2.147.0829,2.147l.9293-1.5707c.2832-.5244.1057-16.6477.1057-16.6477l.3643-5.4037.6139-3.9596s3.2143-3.913,2.8649-4.3323,3.2842-6.1491,3.2842-6.1491l.559-2.9193.6988-2.6708-.6988-.9783-4.472,10.2019-2.236,2.6553-.9783,3.1211-1.2578,3.7267-.6173,1.5702Zm-8.6063,4.1596l-1.765-5.1708v-4.2857s-1.589,3.1677-1.8685,4.0062-2.795,5.0311-2.6553,5.4503-1.8168,4.472-2.0963,5.5901-2.0963,5.3106-2.3758,5.7298-1.415,3.2143-1.415,3.2143l1.2752-.4193s2.0963-4.1925,2.3758-4.7516,2.8882-4.8447,2.8882-4.8447l2.0497-2.795.8385-.8851,2.7484-.8385Zm-11.3199-25.2601s2.5155-9.1188,2.9348-10.097,2.795-4.6118,2.795-4.6118c0,0,2.795-2.9348,3.2143-3.354s3.354-1.9565,3.5663-2.0963,4.5393.1398,5.0983.1398,5.0311,1.2578,5.4503,1.2578,1.2578-.9783,1.2578-.9783l-2.5155-2.236-4.1925-1.7236h-5.0983c-.9058,0-3.5478,1.8815-3.5478,1.8815l-4.8632,4.9597-2.073,4.4994-1.3276,4.2184-2.5155,9.3634-1.118,6.3238s-.3667,2.9164-.4193,3.1793l3.354-10.7259Zm10.4814,9.3983l3.1004-6.3005-1.0714.3766s-2.7277-.7143-2.9555-.854-2.0083-1.8168-2.0083-1.8168c0,0-1.8168-3.0745-2.3758-3.7733s-1.8168-3.5171-1.8168-3.5171l-.559,1.0016s.6988,1.9565,1.2578,2.5155,2.5155,3.4938,2.5155,3.4938c0,0,1.118,5.0311,1.3975,6.2888.2795,1.2578.8385,5.4503.8385,5.8696l1.677-3.2842Zm4.9845-7.6165c.3727.1398,2.9814.6988,2.9814.6988,0,0,.1398-3.0745.2795-4.1925s.1398-4.472.1398-6.4286c0-1.9565.2795-5.1708.9783-6.1491.6988-.9783-1.118-3.6335-1.118-4.7516,0-1.118-1.118.9783-1.118.9783,0,0-.4193,2.5155,0,3.2143s-1.8168,4.6118-2.1429,5.0311-2.0497,4.5419-2.4689,6.0093-.559,4.0528-.4865,4.7516c0,0,2.5828.6988,2.9555.8385Zm-6.5217,25.5745l-1.9565,2.9348v2.795s1.0481,6.4053,1.0481,6.4053l.8851,5.4969.6341,5.1475.9903,4.4687,1.3733-.5789.5736-2.7717s-.0542-5.8696.0182-6.7081.0673-6.1491,0-6.941-.0725-5.2174-.0182-5.7764-1.1722-5.0311-1.1722-5.0311l-2.3758.559Zm-1.2578-16.6304c-.2795-.8385.0155-4.6118-.7609-5.1708s-1.7547-4.3323-1.7547-4.3323c0,0-.8385-2.795-1.2578-3.0745l-1.8866-1.2578c-1.1879.3479,0,3.7733,0,3.7733,0,0,1.8866.2795,2.0264,1.118s.559,3.6335,1.118,4.3323,1.8323,2.0963,1.7547,2.6553l.7609,1.9565Zm-12.0072,5.4503s-.3375,5.8696-.3375,6.2888c0,.4193.7453,8.3851.7453,8.3851,0,0,.9783,5.7298,1.2578,6.7547.2795,1.0248,1.1202,5.6371,1.3975,6.7314s3.9596,6.3587,3.9596,6.3587c0,0,4.5523,4.4953,4.6351,4.4488s-4.4022-5.3339-4.4022-5.3339l-2.8969-4.705-1.3481-5.1184-1.2054-4.7516-.3319-3.7209-.4717-5.1883-.4542-6.0967.0699-4.4255-.0699-3.9596-.5476,4.3323Zm-12.2629-30.3261l-2.7368,9.014s-1.2228,4.6118-1.2228,5.1708c0,.559-1.4907,8.0357-1.6304,8.5947-.1398.559-.6201,7.9627-.6252,8.3848-.0051.4221-.0994,12.2052-.0167,13.1369.0828.9317,1.4687,7.9988,2.0139,10.4581.3075,1.3873,2.9784,11.5453,3.1281,12.0609.1497.5155,3.8047,7.6907,3.8047,7.6907,0,0,3.6036,5.2252,3.8491,5.5811.2455.356,2.8924,2.1913,2.8924,2.1913l3.7736,1.6981h1.2578s-3.8781-1.7725-3.8781-1.7725l-3.2842-2.3409-6.5683-10.9355s-3.2725-10.1436-4.111-14.1732c-.8385-4.0295-1.677-10.3276-1.9565-12.7686-.2795-2.441.4009-17.1149.4009-17.1149l4.9097-24.8758Zm34.1837,63.9582l2.2449-3.7941v-.9094s0-5.1708,0-5.1708v-7.4068s0-6.7081,0-6.7081l-.8385-2.4922-1.8401,3.552.4337,22.9294Zm-7.1185-28.9737c-.2795,1.1501,2.0083,3.7267,3.1004,3.8665s4.0269.9394,4.0269.9394c0,0,.9783-2.4064,1.677-3.1755s.719-2.236.719-2.236c0,0-1.2331,2.0963-1.6049,2.236s-1.5551.7453-2.1514.8618-2.1335-.3028-2.8323-.8618-2.5155-2.236-2.5155-2.236l-.4193.6056Zm2.0814-5.0311s-.2944,2.223,0,2.4857.6256,2.0329,1.019,2.5454,1.8841.8037,1.8841.8037l1.4441-.8037-1.6786-.6056s-1.9031-1.364-1.6495-1.9398,0-2.4857,0-2.4857h-1.019Zm7.4419-1.7352l-1.7904,4.2209s-1.1646-.436-1.3043-.5758.8385-2.6553,1.3043-3.354.9317-3.6335.9317-3.6335l-1.5373,1.118s-1.677,2.795-1.3603,3.2143-.7826,2.1836-.7826,2.1836c0,0,1.0248,2.5679,1.4441,2.9872s1.4898,0,1.4898,0c0,0,1.7245-1.8168,1.6049-2.3758-.0252-.1179.0028-.3544.0628-.6542.2243-1.1219.8953-3.1307.8953-3.1307h-.958Zm-3.0767-5.3738h-1.4441s-.7949.7686-.7949.7686l-1.8138,2.0963-.1229,1.4076,1.1011-.2197-.1714,1.7519,1.007-1.7519,1.5775-3.2841,1.3603-.7686h-.6987Zm24.1964.7038l-.1422,8.1755-.92,8.2919-1.5256,7.2672-2.3408,9.1769-4.4022,12.1118-3.6335,7.5699-2.158,2.8205-2.8515,2.5832,2.7501-2.0264,2.4689-3.0978,3.4938-6.6789,4.6763-12.2108,3.5225-12.5311,1.3742-9.0489.4891-9.1188-.559-8.3851-1.3043-9.1925,1.0623,14.2935Z"/></g></g></svg>