<?xml version="1.0" encoding="UTF-8"?><svg xmlns="http://www.w3.org/2000/svg" viewBox="0 0 687.206 617.112"><g id="a"><g id="b"><rect x="154.447" y="129.633" width="416.488" height="431.115" style="fill:#797979;"/><rect x="0" y="0" width="687.205" height="617.111" style="fill:#fff;"/></g><g id="c"><path d="m539.048,126.72c-6.858,8.116-13.655,16.16-20.591,24.369,35.607,68.025,71.115,135.863,106.62,203.693-37.46,71.543-74.763,142.787-112.064,214.028-116.17,0-232.2,0-348.264,0-8.271,9.743-16.522,19.463-25.048,29.506,130.888,0,261.164,0,391.415,0,42.483-81.141,84.902-162.158,127.506-243.53l-119.574-228.067Z"/><path d="m263.907,135.158l1.557-5.307v-1.699s-1.755-9.049-1.755-9.049l-.776-.599,4.242-4.448-2.587-2.672H125.149c-102.279,153.494-105.01,299.516-10.053,470.174,6.845-8.153,13.538-16.123,21.2-25.249-77.914-138.851-84.92-277.542,6.219-414.94h114.01l.958-.002,2.737-2.646,3.686-3.563Z" style="fill:gray;"/><polygon points="287.678 133.988 288.268 135.355 296.11 134.083 298.339 133.994 307.613 129.851 310.27 128.031 310.121 125.319 307.745 122.143 305.6 119.729 304.259 119.103 290.619 115.928 288.83 116.152 290.43 121.948 287.299 132.317 287.678 133.988" style="fill:#fff;"/><path d="m341.529,117.199l5.437,5.437,1.193,2.683,9.642,16.049h129.977c8.354-9.909,16.738-19.852,25.281-29.985l-166.478-.002-5.051,5.816Z" style="fill:gray;"/><polygon points="263.541 118.503 262.703 117.914 258.867 122.46 258.867 123.121 258.417 130.742 259.762 138.363 260.541 139.156 263.075 136.957 264.515 135.157 266.072 129.85 266.072 128.151 264.317 119.102 263.541 118.503" style="fill:#fff;"/></g><g id="d"><path d="m133.055,453.155c-.456.053-.912.105-1.474.17-.04.34-.091.665-.114.991-.224,3.121.09,6.15,1.534,8.989.122.24.142.532.209.799-.078.373-.223.746-.223,1.119-.014,7.254-.009,14.508-.011,21.763,0,1.583-.269,1.855-1.832,1.858-2.182.004-4.363.004-6.545,0-1.593-.003-1.856-.264-1.881-1.818-.005-.31-.047-.618-.072-.928h7.505v-49.811h9.695v2.822h-6.869c0,.521,0,.887,0,1.253,0,3.208-.006,6.416.003,9.624.003,1.056.049,2.112.075,3.167Z" style="fill:gray;"/><path d="m142.501,486.116h8.445c-.076-.553-.062-.966-.192-1.326-1.561-4.331-3.143-8.654-4.722-12.979-1.344-3.682-2.691-7.362-4.034-11.044-.06-.165-.102-.335-.164-.538,1.241-.114,2.42-.164,3.58-.342,2.504-.385,3.893-1.945,4.074-4.473.016-.217.024-.436.024-.654.004-7.104.02-14.208-.006-21.312-.003-.889-.227-1.776-.348-2.665,1.193.178,1.932,1.016,2.421,1.965.4.776.658,1.717.664,2.587.052,7.42.068,14.84.013,22.26-.019,2.497-1.675,5.137-5.761,5.23-.573.013-1.144.087-1.892.148.663,1.838,1.258,3.496,1.859,5.151,2.274,6.264,4.556,12.526,6.815,18.796.161.447.167.95.274,1.598-.585.127-1.044.308-1.505.314-2.372.029-4.745-.022-7.115.031-1.034.023-1.662-.358-1.954-1.338-.141-.474-.316-.939-.475-1.408Z" style="fill:gray;"/><path d="m246.017,485.829c2.632.834,5.257.227,7.874-.072,1.764-.201,3.513-.53,5.307-.807.119.348.234.685.363,1.061h8.824c.047-.394.128-.749.128-1.105.007-10.48.011-20.96-.006-31.44-.001-.864-.158-1.727-.242-2.591,1.292.204,1.996,1.146,2.426,2.21.354.874.557,1.871.561,2.815.038,10.443.027,20.885.023,31.328,0,1.298-.315,1.61-1.59,1.615-1.747.008-3.495-.02-5.242.012-1.203.022-2.398.101-3.092-1.052-2.822.343-5.534.697-8.252.994-1.839.201-3.665.248-5.356-.759-.881-.525-1.477-1.216-1.724-2.208Z" style="fill:gray;"/><path d="m349.94,486.11c1.182-.013,2.363-.031,3.545-.037,1.178-.006,2.357-.001,3.64-.001.061-.448.151-.8.151-1.152.007-10.585.015-21.169-.011-31.754-.002-.887-.242-1.773-.372-2.659,1.815.59,2.947,1.975,3.008,3.841.064,1.994.047,3.99.048,5.986.004,8.855.002,17.711,0,26.566,0,1.699-.247,1.944-1.941,1.946-2.06.002-4.12.003-6.18,0-1.459-.002-1.834-.371-1.857-1.801-.005-.311-.02-.622-.031-.934Z" style="fill:gray;"/><path d="m333.642,486.103h7.239v-29.814h6.762v2.671c-.997-.007-1.993-.002-2.99-.024-.71-.015-1.015.304-1.009,1.014.017,1.806.004,3.611.004,5.417,0,7.192,0,14.384-.001,21.576,0,1.64-.26,1.9-1.884,1.902-2.119.002-4.239.005-6.358-.002-1.373-.004-1.678-.321-1.708-1.717-.007-.341-.036-.682-.056-1.024Z" style="fill:gray;"/><path d="m225.558,478.746h-2.748v-9.12h13.305c.7-.749,1.491-1.543,2.21-2.397.213-.253.311-.675.313-1.021.02-4.329.029-8.657-.002-12.986-.006-.796-.203-1.592-.312-2.387.981.117,1.744.667,2.099,1.514.424,1.011.831,2.119.855,3.193.096,4.358.069,8.719.011,13.078-.008.581-.334,1.259-.723,1.711-.722.839-1.6,1.544-2.413,2.305-.062-.015-.123-.03-.185-.045-.278-.078-.556-.224-.834-.225-3.483-.015-6.967-.012-10.45-.005-.329,0-.657.061-1.126.107v6.279Z" style="fill:gray;"/><path d="m179.127,472.636c-.062-.015-.124-.03-.185-.045-.278-.078-.556-.224-.834-.225-3.483-.015-6.967-.012-10.45-.005-.329,0-.657.061-1.126.107v6.279h-2.748v-9.12h13.305c.7-.749,1.491-1.543,2.21-2.397.213-.253.311-.675.313-1.021.02-4.329.029-8.657-.002-12.986-.006-.796-.203-1.592-.312-2.387,1.706.534,2.938,2.186,2.966,4.306.061,4.545.044,9.091,0,13.637-.004.465-.314,1.009-.641,1.374-.782.873-1.658,1.662-2.497,2.484Z" style="fill:gray;"/><path d="m275.552,486.103h7.253v-29.799h5.512v2.8c-3.336-.211-2.747-.068-2.752,2.378-.017,8.502-.006,17.004-.008,25.506,0,1.577-.277,1.855-1.836,1.857-2.151.003-4.302.005-6.453-.002-1.393-.004-1.64-.257-1.66-1.623-.005-.373-.036-.745-.056-1.117Z" style="fill:gray;"/><path d="m186.977,485.652c1.134.14,2.266.387,3.402.4,4.305.048,8.611.026,12.917.012.681-.002,1.375-.038,2.04-.174,2.136-.437,3.486-1.939,3.53-4.104.07-3.489.053-6.981.005-10.471-.009-.656-.335-1.307-.515-1.96,2.004.806,3.297,2.669,3.313,4.868.023,3.055-.011,6.11.011,9.165.026,3.753-1.844,5.295-5.238,5.404-4.957.159-9.923.075-14.885.017-2.387-.028-3.848-1.122-4.579-3.158Z" style="fill:gray;"/><path d="m304.448,485.859c5.851.062,11.702.163,17.553.167,2.536.002,4.274-1.641,4.41-4.153.138-2.546.09-5.102.126-7.654.004-.308.032-.616.049-.924,2.507-.146,2.623-.041,2.622,2.412-.001,2.65.016,5.299-.013,7.949-.035,3.143-2.012,5.152-5.146,5.17-5.117.03-10.235.016-15.353-.008-1.423-.007-2.726-.442-3.658-1.575-.306-.372-.4-.918-.591-1.384Z" style="fill:gray;"/><path d="m216.346,485.712c1.138.12,2.275.335,3.414.343,4.712.032,9.425.035,14.137-.019,2.792-.032,4.463-1.583,4.641-4.331.145-2.233.111-4.478.156-6.718q2.629-.087,2.63,2.542c0,1.745.075,3.495-.026,5.234-.071,1.226-.236,2.486-.623,3.642-.408,1.218-1.508,1.871-2.741,2.174-.63.155-1.292.246-1.94.249-4.96.019-9.921.037-14.88-.017-.879-.01-1.795-.254-2.623-.575-1.124-.436-1.866-1.312-2.145-2.522Z" style="fill:gray;"/><path d="m157.32,485.712c1.138.12,2.275.335,3.413.343,4.712.032,9.424.036,14.136-.019,2.793-.032,4.47-1.583,4.641-4.329.143-2.292.098-4.595.136-6.893.186.015.372.04.558.043,1.929.032,2.091.189,2.092,2.078,0,2.183.012,4.365-.008,6.548-.031,3.233-1.909,5.28-5.122,5.329-5.149.078-10.301.079-15.45-.017-2.006-.037-3.873-.946-4.397-3.082Z" style="fill:gray;"/><path d="m313.652,477.97h-2.757v-21.779h6.254v2.743c-.87-.012-1.741-.023-2.611-.035-.609-.009-.928.273-.927.897.015,6.058.027,12.116.041,18.174Z" style="fill:gray;"/><path d="m290.516,464.648c1.957-.021,3.915-.038,5.872-.064.399-.005.798-.041,1.46-.076-.154-4.654.347-9.255-.321-13.852,1.703.512,2.933,2.175,2.97,4.303.063,3.677.033,7.356.02,11.034-.003.843-.498,1.313-1.359,1.319-2.403.016-4.805.015-7.208,0-1.004-.006-1.313-.348-1.35-1.365-.016-.433-.055-.866-.084-1.299Z" style="fill:gray;"/><path d="m319.4,462.518h7.163c-.221-4.034.389-7.924-.42-11.797,1.179.078,1.884.928,2.338,1.801.443.852.656,1.902.688,2.874.09,2.774.043,5.552.035,8.328-.004,1.208-.344,1.53-1.579,1.534-2.155.007-4.31.007-6.464,0-1.384-.004-1.683-.317-1.704-1.714-.005-.342-.036-.684-.055-1.026Z" style="fill:gray;"/><path d="m201.932,461.171h6.967c-.207-3.591.372-7.04-.421-10.47,1.399.273,2.297,1.165,2.623,2.479.282,1.134.38,2.33.422,3.504.066,1.869.049,3.743-.004,5.613-.015.538-.276,1.069-.43,1.622-2.808,0-5.396.017-7.983-.011-.691-.008-1.069-.458-1.111-1.151-.032-.528-.043-1.057-.063-1.586Z" style="fill:gray;"/><path d="m343.615,448.785c-.836.157-1.671.314-2.568.482-.029-.373-.064-.615-.064-.856-.006-6.028-.009-12.057-.011-18.085,0-.091.031-.182.047-.273.836.057,1.671.113,2.596.176v18.556Z" style="fill:gray;"/><path d="m245.95,460.638h6.552v-5.193h6.919v2.748c-.989-.021-1.98-.025-2.968-.068-.784-.034-1.141.285-1.118,1.089.033,1.143.016,2.288.02,3.433-1.709.009-3.419-.03-5.125.043-1.327.057-2.648.254-3.972.389-.103-.814-.205-1.628-.308-2.442Z" style="fill:gray;"/><path d="m196.25,461.389c-.887-.496-1.773-.991-2.655-1.484v-4.376h6.096v2.633c-.718.002-1.436,0-2.154.007-1.093.01-1.206.134-1.224,1.261-.011.653-.041,1.306-.062,1.96Z" style="fill:gray;"/><path d="m187.5,466.602c1.215.682,2.441,1.346,3.643,2.05,2.853,1.668,5.694,3.355,8.538,5.032v1.146c-.69-.339-1.401-.643-2.066-1.024-1.744-1-3.499-1.988-5.192-3.07-1.483-.949-2.908-1.994-4.313-3.056-.302-.228-.412-.711-.61-1.077Z" style="fill:gray;"/><path d="m196.396,478.613h-2.821v-4.028c.184.021.368.054.553.061,2.01.079,2.178.26,2.189,2.306.003.554.051,1.107.079,1.661Z" style="fill:gray;"/><path d="m129.119,484.881h-7.41v-56.015h.992c6.745,0,13.49,0,20.235.002.405,0,.81.03,1.214.055,2.875.178,4.192,1.492,4.205,4.381.031,7.174.037,14.349-.008,21.523-.017,2.792-1.536,3.876-3.437,3.981-1.058.058-2.115.117-3.172.184-.393.025-.785.074-1.377.132.142.61.205,1.114.374,1.58,2.826,7.778,5.665,15.552,8.499,23.327.094.258.167.524.268.844h-7.618c-.764-2.14-1.547-4.325-2.323-6.512-2.144-6.04-4.233-12.101-6.458-18.112-.718-1.94-.326-3.858-.516-5.945h8.353v-19.149h-11.819v49.725Z"/><path d="m339.834,450.589c1.448-.209,2.638-.393,3.831-.55,2.502-.331,5.002-.673,7.509-.954.702-.079,1.436-.028,2.137.08,1.586.244,2.479,1.197,2.7,2.782.056.4.099.807.099,1.21.005,10.385.004,20.77.004,31.154v.534h-7.262v-29.741c-2.993-.272-5.904.077-8.952.053v29.691h-7.25v-55.932h7.184v21.673Z"/><path d="m192.418,473.652v6.124c2.829.108,5.585.07,8.419.021v-6.763c-.277-.178-.555-.369-.845-.54-3.892-2.296-7.756-4.641-11.691-6.86-1.99-1.122-2.91-2.644-2.807-4.934.121-2.708.011-5.426.127-8.134.091-2.11,1.28-3.312,3.393-3.342,5.088-.072,10.178-.07,15.266,0,2.046.028,3.227,1.165,3.326,3.192.121,2.482.029,4.973.029,7.52h-6.727v-5.586c-2.897-.117-5.671-.226-8.477.06v6.087c.307.206.626.446.968.647,3.923,2.305,7.831,4.636,11.783,6.889,1.813,1.033,2.682,2.434,2.601,4.56-.104,2.741-.013,5.489-.029,8.233-.017,2.87-1.242,4.086-4.127,4.092-4.621.01-9.242.01-13.864,0-2.874-.006-4.034-.991-4.182-3.834-.128-2.451-.026-4.914-.026-7.431h6.862Z"/><path d="m325.306,461.292h-6.963v-6.306c-2.916-.022-5.724-.031-8.571.007v24.055h8.529v-6.908h7.036c0,.682.002,1.327,0,1.971-.008,2.369.039,4.741-.04,7.108-.085,2.541-1.278,3.674-3.83,3.692-4.245.03-8.49.018-12.736.002-1.119-.004-2.254.012-3.353-.164-1.586-.253-2.399-1.168-2.638-2.73-.085-.552-.127-1.116-.127-1.675-.008-8.855-.006-17.711-.003-26.566,0-.405.005-.812.05-1.214.248-2.195,1.383-3.331,3.617-3.354,5.149-.053,10.3-.057,15.449-.002,2.292.025,3.496,1.204,3.56,3.46.081,2.858.02,5.72.02,8.622Z"/><path d="m221.682,468.515v11.312h8.881v-5.999h6.762c.046.113.11.195.11.278,0,2.433.049,4.867-.031,7.297-.073,2.239-1.288,3.385-3.554,3.494-.997.048-1.998.021-2.997.021-3.904.002-7.807.009-11.711-.007-.619-.003-1.252-.05-1.853-.186-1.35-.305-2.174-1.175-2.403-2.544-.103-.612-.154-1.24-.154-1.86-.01-8.86-.007-17.719-.005-26.579,0-.312.002-.625.027-.935.196-2.402,1.353-3.583,3.775-3.607,5.058-.05,10.118-.018,15.177-.011.307,0,.619.061.922.124,1.755.368,2.724,1.355,2.76,3.142.08,3.991.053,7.985.068,11.977.003.684,0,1.368,0,2.029-.684.674-1.327,1.306-2.085,2.054h-13.686Zm-.03-4.458h8.859v-9.787h-8.859v9.787Z"/><path d="m178.427,466.462c-.68.66-1.328,1.288-2.109,2.047h-13.658v11.314h8.869v-5.989h6.898c0,.63.002,1.24,0,1.85-.008,1.871.034,3.745-.042,5.614-.099,2.426-1.337,3.588-3.829,3.613-3.466.035-6.933.011-10.399.009-1.592-.001-3.187.031-4.777-.028-2.291-.085-3.402-1.163-3.636-3.436-.045-.433-.044-.872-.044-1.308-.002-8.735-.002-17.47-.002-26.205,0-.125,0-.25,0-.374.022-3.16,1.217-4.385,4.352-4.395,4.716-.015,9.431-.018,14.147,0,2.994.012,4.213,1.225,4.226,4.203.019,4.365.005,8.731.005,13.085Zm-15.784-12.211v9.789h8.856v-9.789h-8.856Z"/><path d="m260.488,463.763v-9.466h-8.942v5.109h-6.392c0-2.495-.154-5.014.052-7.502.145-1.756,1.432-2.648,3.39-2.69,3.246-.069,6.493-.041,9.74-.043,1.842-.002,3.686-.036,5.525.039,2.232.091,3.473,1.344,3.478,3.563.026,10.604.016,21.208.017,31.813,0,.086-.036.172-.064.294h-6.66c-.076-.35-.151-.702-.262-1.216-.701.076-1.36.14-2.018.22-3.278.395-6.55.862-9.837,1.162-1.442.131-2.848-.27-3.506-1.786-.265-.611-.41-1.323-.412-1.99-.019-4.676-.045-9.354.056-14.028.046-2.12,1.255-3.246,3.413-3.298,3.681-.088,7.366-.053,11.049-.079.452-.003.903-.065,1.372-.101Zm.021,15.645v-10.91h-8.977v11.254c3.07-.118,6.021-.231,8.977-.344Z"/><path d="m274.563,449.206h7.073c.077.414.147.796.242,1.305.49-.049.911-.072,1.325-.134,2.864-.432,5.724-.889,8.592-1.297.576-.082,1.184-.039,1.767.031,1.952.237,2.996,1.295,3.027,3.269.058,3.642.017,7.285.017,10.987h-7.105v-8.239h-7.715v29.755h-7.223v-35.675Z"/><path d="m225.599,462.964h-2.77v-7.578h6.596v2.628h-3.579c-.6,1.614-.261,3.298-.247,4.95Z" style="fill:gray;"/><path d="m166.572,462.964h-2.77v-7.578h6.596v2.628h-3.523c-.706,1.609-.296,3.3-.302,4.95Z" style="fill:gray;"/><path d="m255.418,478.425c-.916.05-1.831.1-2.792.152v-8.978h6.797v2.817h-4.006v6.008Z" style="fill:gray;"/><path d="m105.522,411.328v-55.959c.301-.02.571-.054.84-.054,5.084-.003,10.169-.007,15.253,0,2.819.004,5.533.381,7.819,2.251,2.249,1.84,3.201,4.293,3.391,7.112.019.28.049.56.049.84-.005,12.008.01,24.016-.036,36.024-.014,3.751-1.476,6.776-4.907,8.623-1.569.845-3.282,1.19-5.04,1.2-5.677.03-11.354.011-17.031.009-.09,0-.181-.023-.339-.044Zm7.465-49.778v43.469c.226.064.426.17.627.17,2.338,0,4.68.066,7.011-.068.921-.053,1.904-.412,2.704-.89,1.786-1.069,2.093-2.892,2.092-4.802-.001-10.724,0-21.448-.003-32.172,0-.436-.008-.875-.057-1.307-.272-2.367-1.465-3.804-3.802-4.203-1.427-.244-2.913-.162-4.373-.19-1.364-.027-2.729-.006-4.199-.006Z"/><path d="m186.575,376.981c.091-.512.159-.897.234-1.321h7.097v.902c0,14.662.002,29.323-.007,43.985,0,.619-.044,1.254-.183,1.854-.335,1.449-1.558,2.42-3.259,2.433-5.302.042-10.605.048-15.908-.003-1.963-.019-3.247-1.156-3.379-3.064-.142-2.041-.032-4.1-.032-6.197h6.851v4.381c2.943.065,5.765.031,8.644.023v-8.725c-.483-.036-.877-.086-1.27-.09-2.931-.028-5.871.089-8.791-.102-3.715-.243-5.971-2.612-6.01-6.33-.083-7.766-.095-15.535-.004-23.301.048-4.108,2.926-6.422,7.028-5.847,2.589.362,5.161.843,7.742,1.265.363.059.732.081,1.247.137Zm.061,4.898c-.306-.076-.483-.144-.665-.161-1.52-.139-3.04-.29-4.563-.395-2.516-.174-3.743.966-3.755,3.471-.011,2.464-.003,4.929-.002,7.393,0,3.369-.015,6.738.006,10.107.014,2.096,1.073,3.203,3.121,3.282,1.184.046,2.37.022,3.555.026.736.003,1.472,0,2.302,0v-23.724Z"/><path d="m163.437,393.429c0,4.334,0,8.667,0,13.001,0,.343,0,.686-.01,1.029-.07,2.7-1.282,3.898-4.008,3.913-3.149.017-6.298.004-9.447.004-1.777,0-3.554.003-5.332,0-3.192-.007-4.392-1.201-4.396-4.417-.008-7.888-.003-15.776-.003-23.663,0-1.216-.028-2.433.008-3.647.081-2.753,1.293-3.992,4.05-4.013,5.051-.038,10.102-.035,15.153-.001,2.749.018,3.963,1.271,3.977,4.048.023,4.583.006,9.166.007,13.749Zm-7.135,12.093v-23.888c-1.241-.403-8.338-.266-8.888.123v23.766h8.888Z"/><path d="m128.049,414.98c-.115.014-.23.029-.345.042-.862.031-1.723.088-2.585.089-5.451.01-10.903.021-16.354-.008-.685-.004-1.368-.244-2.052-.374-.071-.679-.142-1.357-.213-2.036.035-.043.056-.092.061-.147,5.549-.015,11.099.037,16.646-.064,6.469-.117,10.778-4.542,10.805-11.015.033-7.856.008-15.711.008-23.567,0-4.146.022-8.292-.009-12.438-.015-2.073-.336-4.093-1.441-5.911.176.017.437-.035.516.062.862,1.048,1.91,2.015,2.486,3.208.838,1.736,1.075,3.67,1.07,5.633-.026,11.541.006,23.083-.037,34.624-.005,1.445-.223,2.917-.553,4.327-.673,2.876-2.407,4.991-5.014,6.391-.233.125-.418.338-.625.511-.402.118-.805.236-1.207.354-.136.045-.272.091-.407.137-.113.019-.227.037-.34.055-.137.042-.273.084-.41.127Z" style="fill:gray;"/><path d="m173.233,427.026c-.009-.048-.027-.091-.055-.131-.121-.419-.241-.838-.361-1.257.763.121,1.526.342,2.29.347,4.929.032,9.859.021,14.788.015,3.428-.005,5.162-1.743,5.163-5.202.006-14.226.003-28.452.003-42.678,0-.428,0-.855,0-1.387.706,0,1.29,0,1.873,0,.13.056.26.112.39.167.123.133.245.266.367.398-.008.248-.022.497-.022.745,0,15.087.004,30.175-.004,45.262-.002,3.354-1.929,5.271-5.291,5.284-4.458.016-8.916-.021-13.374.019-2.09.019-4.09-.162-5.768-1.584Z" style="fill:gray;"/><path d="m141.902,412.154c.702.119,1.403.338,2.106.341,5.299.026,10.598.046,15.896-.007,2.913-.029,4.641-1.787,4.651-4.71.03-9.506.017-19.013,0-28.519-.001-.613-.177-1.225-.27-1.838.46.241.975.412,1.367.734,1.242,1.022,1.495,2.481,1.498,3.965.023,8.847-.005,17.695.025,26.542.007,2.033-.045,3.997-1.686,5.503-.037.034-.027.118-.039.178-.05.009-.097.027-.14.053-1.047.239-2.092.67-3.142.684-5.222.07-10.445.051-15.668.017-1.399-.009-2.69-.422-3.672-1.529-.195-.219-.484-.355-.73-.528-.008-.053-.026-.102-.052-.148-.048-.246-.096-.492-.144-.738Z" style="fill:gray;"/><path d="m173.543,411.5c1.354.27,2.701.709,4.065.774,2.594.125,5.198.036,7.923.036,0,.918,0,1.772,0,2.626-2.116-.014-4.233-.029-6.349-.043-.389-.175-.796-.531-1.164-.496-2.049.198-3.473-.81-4.711-2.253.079-.215.158-.43.237-.645Z" style="fill:gray;"/><path d="m181.736,418.832h-2.56c0-.725,0-1.361,0-1.998.684-.025,1.368-.05,2.052-.074.193.195.386.39.579.585-.024.496-.048.991-.072,1.487Z" style="fill:gray;"/><path d="m173.543,411.5c-.079.215-.158.43-.237.645-.304-.44-.608-.88-.912-1.32l.022-.022c.376.232.751.465,1.127.697Z" style="fill:gray;"/><path d="m128.049,414.98c.136-.043.273-.085.41-.127-.136.043-.273.085-.41.127Z" style="fill:gray;"/><path d="m197.324,376.902c-.13-.056-.26-.112-.39-.167.13.056.26.112.39.167Z" style="fill:gray;"/><path d="m128.799,414.798c.136-.046.272-.092.407-.137-.136.046-.272.092-.407.137Z" style="fill:gray;"/><path d="m172.395,410.825c-.028-.03-.056-.06-.136-.146.093.073.125.099.158.125,0,0-.022.021-.022.021Z" style="fill:gray;"/><polygon points="127.579 355.092 127.597 355.139 127.549 355.132 127.579 355.092" style="fill:gray;"/><path d="m116.591,404.046h-2.491v-41.253c2.359,0,4.69-.083,7.012.03,1.501.073,2.511.997,2.962,2.465-2.389,0-4.778,0-7.291,0-.064.577-.157,1.023-.157,1.469-.009,8.972-.004,17.944-.008,26.916-.001,3.458-.017,6.915-.026,10.373Z" style="fill:gray;"/><path d="m181.361,404.419c-1.894.063-2.564-.547-2.569-2.446-.015-5.701-.014-11.401,0-17.102.004-1.887.603-2.444,2.509-2.352,1.389.067,2.776.192,4.231.296,0,.872,0,1.615,0,2.357-.798-.011-1.608-.108-2.39,0-.429.059-.811.464-1.214.712,0,0-.002.003-.002.003-.179.48-.51.959-.513,1.441-.045,5.696-.041,11.393-.05,17.09Z" style="fill:gray;"/><path d="m151.034,404.419h-2.5v-21.782h6.681c0,.874,0,1.707,0,2.539-.871-.002-1.743-.006-2.614-.005-1.479.001-1.54.061-1.542,1.513-.009,5.912-.016,11.823-.025,17.735Z" style="fill:gray;"/><path d="m89.877,279.96h4.012c5.526,0,11.052-.002,16.579.003.685,0,1.372.028,2.056.068,2.552.147,3.934,1.527,3.981,4.113.056,3.088.025,6.178.027,9.267.003,3.963.009,7.926-.008,11.889-.003.649-.055,1.312-.197,1.943-.336,1.487-1.259,2.421-2.809,2.593-1.206.134-2.421.182-3.632.272-.392.029-.784.073-1.369.128.116.525.162.938.299,1.318,2.902,8.011,5.815,16.017,8.726,24.025.041.112.074.227.132.408h-7.635c-1.7-4.779-3.408-9.576-5.114-14.374-1.303-3.663-2.727-7.29-3.847-11.008-.47-1.56-.291-3.315-.42-5.171h8.44v-19.058c-1.155-.399-11.081-.313-11.84.107v49.503h-7.382v-56.027Z"/><path d="m161.482,301.692c1.416-.203,2.605-.385,3.797-.543,2.532-.335,5.064-.682,7.602-.97.67-.076,1.372-.011,2.044.092,1.582.243,2.482,1.192,2.7,2.78.064.462.099.932.1,1.398.006,8.082.012,16.165-.002,24.247-.003,1.828-.238,3.597-1.507,5.074-1.216,1.416-2.805,2.176-4.587,2.202-5.77.085-11.542.032-17.366.032v-55.986h7.22v21.674Zm.05,28.504c.412.031.686.068.961.07,1.497.006,2.995.019,4.492,0,2.427-.033,3.473-1.078,3.477-3.494.009-6.548.004-13.096,0-19.643,0-.243-.034-.487-.067-.931-2.943-.231-5.851.08-8.864.082v23.919Z"/><path d="m147.072,318.171c0,4.335,0,8.67,0,13.005,0,.405-.002.811-.017,1.216-.085,2.34-1.325,3.604-3.711,3.638-3.182.045-6.366.012-9.548.012-1.935,0-3.87.016-5.804-.004-2.825-.028-4.106-1.217-4.117-4.029-.037-9.232-.036-18.463,0-27.695.01-2.759,1.28-4.005,4.034-4.026,5.086-.039,10.173-.04,15.259,0,2.652.021,3.878,1.281,3.894,3.941.029,4.647.008,9.294.008,13.941h.003Zm-7.147,12.022v-23.913c-1.337-.406-8.362-.252-8.883.135v23.778h8.883Z"/><path d="m208.151,318.211c0,4.304,0,8.608,0,12.912,0,.374-.002.749-.013,1.123-.075,2.531-1.297,3.771-3.849,3.789-4.306.03-8.612.01-12.919.007-.936,0-1.873.019-2.807-.028-2.238-.111-3.332-1.159-3.575-3.391-.044-.402-.049-.809-.049-1.214-.003-8.826-.002-17.653,0-26.479,0-.374.002-.75.038-1.121.221-2.309,1.357-3.469,3.676-3.493,5.273-.053,10.546-.057,15.819-.006,2.425.024,3.643,1.312,3.661,3.773.035,4.709.01,9.419.01,14.128h.008Zm-16.011-12.006v23.985h8.872v-23.985h-8.872Z"/><path d="m266.201,330.185v-6.915h7.042c0,1.94.004,3.837-.001,5.734-.003,1.123.024,2.247-.038,3.367-.14,2.534-1.301,3.639-3.862,3.665-2.778.028-5.556.006-8.333.007-2.122,0-4.245.016-6.367-.004-2.824-.027-4.103-1.219-4.114-4.033-.036-9.233-.036-18.467,0-27.701.011-2.755,1.285-3.995,4.045-4.017,4.9-.038,9.8-.036,14.7,0,2.692.019,3.893,1.194,3.954,3.879.062,2.735.014,5.473.014,8.246h-6.984v-5.951c-.777-.484-7.714-.53-8.563-.101v23.826h8.508Z"/><path d="m229.804,306.231h-5.105c-.083.389-.22.731-.221,1.073-.012,7.236-.011,14.472-.002,21.707,0,.322.103.644.17,1.033h5.362v5.962c-3.173,0-6.35.089-9.518-.033-1.939-.075-2.97-1.315-3.142-3.305-.037-.434-.03-.873-.03-1.309-.002-7.922,0-15.844-.005-23.766,0-.391-.054-.781-.092-1.301h-3.809v-6.026h3.825v-9.971h7.321v9.939h5.245v5.997Z"/><path d="m236.173,300.312h6.973v35.685h-6.973v-35.685Z"/><path d="m120.438,334.938c.108.353.216.707.323,1.06.142.333.284.667.426,1,.025.109.051.218.075.327.131.708.263,1.416.395,2.124-.142.131-.285.263-.427.394-1.525-.018-3.051-.021-4.576-.056-1.676-.038-3.35-.105-5.026-.159,0,0-.008-.008-.008-.008-.287-.585-.574-1.169-.861-1.754-.076-.172-.153-.345-.229-.517.025-.041.039-.086.041-.134h8.544c-.072-.514-.06-.897-.182-1.232-2.857-7.877-5.728-15.749-8.595-23.622-.116-.318-.214-.642-.324-.976,1.27-.129,2.489-.177,3.678-.389,2.454-.439,3.79-2.005,3.956-4.502.029-.435.037-.873.037-1.309.002-6.708.02-13.417-.017-20.125-.006-1.045-.263-2.088-.404-3.132.071-.082.143-.164.214-.246,1.535.713,2.458,1.894,2.734,3.569.018,2.606.061,5.212.051,7.817-.022,5.723-.072,11.446-.11,17.169-.53,1.844-1.661,3.058-3.597,3.427-.259.051-.518.103-.777.155-.378.044-.756.088-1.135.132-.679-.37-1.276-.232-1.98.381.277.504.555,1.009.833,1.514.04.165.079.33.118.495.21.522.421,1.043.631,1.565.025.107.05.215.074.322.29.764.58,1.528.87,2.291.108.353.216.707.323,1.06.142.333.284.667.426,1,.108.353.216.707.323,1.06.142.333.284.667.426,1,.108.353.216.707.323,1.06.142.333.284.667.426,1,.108.353.216.707.323,1.06.142.333.284.667.426,1,.108.353.216.707.323,1.06.142.333.284.667.426,1,.108.353.216.707.323,1.06.142.333.284.667.426,1,.108.353.216.707.323,1.06.142.333.284.667.426,1Z" style="fill:gray;"/><path d="m100.914,304.342c-.364.02-.727.04-1.049.058-.093.159-.18.238-.179.317.028,2.549-.48,5.14.687,7.597.329.693.502,1.46.746,2.193-.052,1.295-.145,2.591-.148,3.886-.015,6.645-.006,13.29-.009,19.935,0,1.121-.298,1.445-1.329,1.459-.874.012-1.748.004-2.622.004-1.837,0-3.674,0-5.78,0-.057-.925-.108-1.759-.159-2.593h7.236v-49.805h9.74c0,.875,0,1.709,0,2.543-2.315,0-4.631,0-7.017,0-.03.64-.063,1.036-.065,1.432-.02,4.325-.036,8.65-.052,12.975Z" style="fill:gray;"/><path d="m181.454,304.777c.022.125.045.25.067.375-.007.311-.02.622-.02.933,0,8.64.009,17.281-.004,25.921-.005,3.272-1.462,5.708-4.489,6.993-1.143.485-2.468.73-3.715.75-5.117.084-10.236.039-15.354.041-2.512,0-2.533-.022-2.418-2.596,4.99,0,9.981.015,14.971-.007,5.413-.024,8.388-3.007,8.402-8.405.012-4.458.003-8.916.003-13.373,0-3.647.015-7.295-.012-10.942-.006-.771-.164-1.541-.252-2.312.297.047.715-.013.868.161.692.784,1.309,1.634,1.953,2.46Z" style="fill:gray;"/><path d="m150.677,336.632c-.162.41-.324.819-.485,1.229-.32.364-.641.728-.962,1.092-.216.106-.432.213-.647.319-1.721.172-3.439.46-5.162.494-3.835.075-7.673.032-11.51.018-1.144-.004-2.289-.072-3.433-.111-.165-.035-.331-.07-.496-.105-.458-.285-.915-.569-1.373-.854-.372-.491-.744-.982-1.116-1.472.068-.076.135-.153.203-.229.758.059,1.516.167,2.275.169,5.025.015,10.051.032,15.076,0,3.505-.023,5.155-1.7,5.159-5.19.011-9.234.007-18.468-.003-27.702,0-.705-.101-1.411-.155-2.116,1.197-.048,2.055.795,2.64,2.564.043.135.086.27.13.405.022.177.043.354.064.531-.028.307-.078.614-.078.921-.003,9.088.002,18.175-.006,27.263,0,.925-.078,1.849-.119,2.774Z" style="fill:gray;"/><path d="m210.308,338.954c-.342.167-.683.334-1.025.501-.856.11-1.712.311-2.568.316-5.08.03-10.161.067-15.24-.027-1.098-.02-2.187-.566-3.28-.872-.171-.048-.339-.103-.508-.155-.372-.491-.744-.982-1.116-1.472.068-.076.135-.153.203-.229.758.059,1.516.167,2.275.169,5.025.015,10.051.032,15.076,0,3.505-.023,5.155-1.7,5.159-5.19.011-9.203.011-18.406-.009-27.609-.002-.769-.18-1.539-.275-2.307.46.24.982.406,1.366.733,1.118.952,1.508,2.248,1.509,3.672.005,9.374.006,18.747-.001,28.121,0,.676-.077,1.352-.117,2.028-.162.41-.324.819-.485,1.229-.32.364-.641.728-.962,1.092Z" style="fill:gray;"/><path d="m237.398,337.196h6.935c0-11.937,0-23.754,0-35.571.404-.017.81-.056,1.214-.045,1.032.028,1.374.384,1.374,1.44.003,11.794.003,23.588-.001,35.382,0,1.11-.274,1.38-1.381,1.385-1.904.009-3.808.004-5.713.004-2.515,0-2.531-.017-2.428-2.594Z" style="fill:gray;"/><path d="m276.784,336.825c-.506,1.489-1.533,2.424-3.039,2.846-.769.039-1.538.109-2.307.111-3.519.013-7.039.019-10.558.004-2.585-.011-5.225.329-7.617-1.071-.193-.196-.386-.392-.579-.589-.104-.139-.209-.279-.314-.418-.018-.213-.035-.426-.058-.706.808.065,1.571.178,2.335.18,4.829.016,9.659.025,14.489.003,3.564-.016,5.247-1.702,5.293-5.285.032-2.491.012-4.983.015-7.474.156.005.312.012.468.014,2.004.016,2.02.016,2.002,2.026-.031,3.453-.085,6.906-.13,10.358Z" style="fill:gray;"/><path d="m233.67,309.478c-.198.193-.395.386-.593.578-1.088-.017-2.176-.044-3.265-.049-1.596-.007-1.618.023-1.621,1.622-.01,5.759-.021,11.517-.032,17.276h-2.401v-21.515h5.256c0-2.015,0-3.898,0-5.782.248-.012.495-.033.743-.035,1.694-.009,1.848.153,1.858,1.859.012,2.015.036,4.03.055,6.044Z" style="fill:gray;"/><path d="m261.313,329.085h-2.504v-21.797h6.261c0,.853,0,1.683,0,2.513-.748.01-1.497.024-2.245.027-1.412.007-1.486.077-1.488,1.482-.009,5.925-.017,11.85-.025,17.774Z" style="fill:gray;"/><path d="m236.081,293.74v-7.361h7.128v7.361h-7.128Z"/><path d="m233.66,339.624c-.128.079-.256.157-.384.235-2.535-.023-5.07-.056-7.605-.064-.923-.003-1.846.054-2.769.083-.238-.03-.475-.06-.713-.09-.569-.238-1.138-.476-1.707-.714-.623-.54-1.307-1.041-1.366-1.983h12.103c0-1.929,0-3.81,0-5.691.685-.037,1.371-.075,2.056-.112.201.201.401.401.601.602-.024.527-.055,1.054-.068,1.582-.053,2.051-.1,4.101-.149,6.152Z" style="fill:gray;"/><path d="m165.154,300.016c-.802.099-1.603.199-2.484.308v-19.054c1.618-.331,2.238-.175,2.602.634-.021.309-.06.618-.06.927-.004,4.079.003,8.159-.005,12.238-.003,1.649-.035,3.298-.054,4.947Z" style="fill:gray;"/><path d="m267.56,313.6h6.643c.098-.305.219-.506.217-.705-.026-3.241-.061-6.483-.114-9.724-.005-.336-.131-.669-.201-1.004,1.448.208,2.761,1.857,2.783,3.616.037,3.053.028,6.107.02,9.161-.002.965-.307,1.241-1.324,1.248-1.871.011-3.741.004-5.612.004-2.505,0-2.528-.025-2.413-2.596Z" style="fill:gray;"/><path d="m237.356,295.001h7.122c0-2.649,0-5.055,0-7.46.312.008.623.022.935.024,1.429.011,1.522.101,1.524,1.564.003,2.37.005,4.739-.005,7.109-.002.359-.075.717-.124,1.145-.447.037-.811.091-1.174.093-1.934.009-3.868,0-5.803.006-2.674.007-2.481.168-2.476-2.481Z" style="fill:gray;"/><path d="m228.013,291.636c.082.123.163.245.245.368-.022.337-.061.673-.063,1.01-.018,2.037-.027,4.074-.039,6.112h-2.537c0-2.582,0-5.088,0-7.595.798.035,1.597.07,2.396.105Z" style="fill:gray;"/><path d="m216.162,309.981c-.246.038-.492.077-.737.116-.277-.121-.555-.242-.868-.378v-2.245h1.605v2.507Z" style="fill:gray;"/><path d="m165.449,310.41c-.061.393-.173.785-.174,1.178-.012,5.424-.008,10.848-.008,16.271,0,.369,0,.738,0,1.18h-2.61v-21.628h6.659c0,.841,0,1.702,0,2.563-.061.038-.122.075-.182.112-.976.005-1.952.01-2.928.014-.252.103-.504.206-.756.309Z" style="fill:gray;"/><path d="m134.66,329.085h-2.503v-21.791h6.687c0,.875,0,1.708,0,2.541-.872-.002-1.744-.006-2.616-.005-1.48.001-1.541.061-1.543,1.514-.009,5.914-.017,11.827-.025,17.741Z" style="fill:gray;"/><path d="m195.738,329.085h-2.503v-21.791h6.687c0,.875,0,1.708,0,2.541-.872-.002-1.744-.006-2.616-.005-1.48.001-1.541.061-1.543,1.514-.009,5.914-.017,11.827-.025,17.741Z" style="fill:gray;"/><path d="m170.011,502.972c2.514-.114,2.783.15,2.712,2.708-.046,1.682-.001,3.367-.015,5.051-.009,1.072-.333,1.401-1.4,1.407-2.216.014-4.432.006-6.648.008-.366,0-.732,0-1.238,0-.039.569-.097,1.017-.097,1.465-.005,15.215-.004,30.43-.004,45.645,0,.436.003.873-.009,1.309-.02.753-.415,1.161-1.167,1.164-2.622.01-5.244.01-7.865,0-.806-.003-1.178-.452-1.191-1.242-.008-.497-.044-.994-.068-1.491h7.496v-49.693h9.494v-6.331Z" style="fill:gray;"/><path d="m205.51,558.927c4.348.672,8.534-.615,12.829-1.043.111.313.23.65.361,1.022h8.814c.046-.405.121-.761.122-1.118.006-10.47.011-20.94-.006-31.41-.001-.863-.158-1.726-.242-2.589,1.252.271,2.584,1.594,2.78,2.828.121.765.22,1.544.221,2.317.015,10.347.011,20.693.009,31.04,0,1.453-.306,1.76-1.743,1.764-1.903.006-3.806.003-5.709.002q-1.396,0-2.55-1.037c-1.254.174-2.63.394-4.013.55-2.747.31-5.486.871-8.267.308-1.385-.28-2.538-1.443-2.606-2.636Z" style="fill:gray;"/><path d="m267.076,558.995h7.159c.066-.47.152-.795.152-1.12.007-10.687.014-21.374-.011-32.061-.002-.795-.237-1.589-.364-2.383,1.721.527,2.899,1.984,3.013,3.749.034.528.037,1.059.038,1.588.002,10.375.007,20.75-.011,31.125,0,.586-.189,1.171-.306,1.848-1.59,0-2.987,0-4.385,0-1.248,0-2.495.007-3.743-.006-1.141-.012-1.439-.319-1.469-1.438-.011-.435-.047-.868-.072-1.303Z" style="fill:gray;"/><path d="m234.672,558.999h7.236v-29.799h6.758v2.671c-.997-.007-1.995-.002-2.992-.023-.714-.015-1.02.31-1.004,1.019.022.965.004,1.932.004,2.897,0,7.945,0,15.89,0,23.835,0,.526,0,1.052,0,1.757-.568.136-1.084.358-1.603.368-2.214.04-4.429.022-6.643.015-1.381-.004-1.68-.317-1.7-1.714-.005-.342-.036-.683-.055-1.024Z" style="fill:gray;"/><path d="m197.292,545.539c-.061-.015-.122-.03-.184-.045-.31-.078-.62-.223-.93-.225-3.4-.016-6.8-.011-10.2-.008-.337,0-.673.028-1.275.054v6.331h-2.746v-9.115h13.301c.698-.747,1.488-1.541,2.206-2.396.213-.253.311-.675.313-1.02.02-4.326.029-8.653-.002-12.979-.006-.796-.203-1.591-.311-2.386,2.289.686,2.854,2.024,2.936,4.317.164,4.573.072,9.157.027,13.735-.005.465-.315,1.012-.647,1.37-.776.838-1.652,1.584-2.487,2.367Z" style="fill:gray;"/><path d="m250.963,559.006h7.258c.008-3.42.019-6.695.023-9.971.004-3.271,0-6.542,0-9.814v-9.996h6.612v2.597c-1.272.135-2.599-.234-3.918.342,0,.507,0,.937,0,1.368,0,8.76,0,17.52-.001,26.28,0,1.689-.244,1.927-1.956,1.929-2.091.002-4.182.005-6.273-.002-1.383-.004-1.695-.324-1.714-1.705-.005-.342-.02-.685-.031-1.027Z" style="fill:gray;"/><path d="m175.713,558.755c5.845.062,11.689.162,17.534.166,2.476.002,4.19-1.574,4.404-4.053.173-2.008.099-4.037.138-6.056.006-.308.029-.616.044-.924,2.549-.086,2.629-.009,2.628,2.54,0,1.867.007,3.734-.003,5.6-.021,3.715-1.813,5.635-5.524,5.688-4.92.071-9.843.049-14.764-.011-1.584-.019-3.102-.449-4.091-1.855-.212-.302-.249-.727-.366-1.095Z" style="fill:gray;"/><path d="m205.262,533.565h6.367v-5.207h6.919v2.746c-.989-.021-1.979-.024-2.967-.067-.784-.034-1.141.285-1.117,1.088.033,1.143.015,2.287.02,3.431-1.612.009-3.226-.022-4.836.04-1.387.054-2.77.215-4.155.329-.077-.787-.154-1.574-.23-2.361Z" style="fill:gray;"/><path d="m143.667,509.39h7.139v2.779c-1.715-.008-3.429-.017-5.144-.024-1.722-.007-1.957-.235-1.969-1.915-.002-.28-.017-.56-.026-.84Z" style="fill:gray;"/><path d="m273.197,557.772h-7.183v-29.773h-8.773c-.078.523-.2.957-.2,1.391-.011,9.105-.008,18.209-.008,27.314v1.062h-7.135v-29.74c-2.994-.296-5.904.087-8.984.029v29.722h-7.23v-35.639h7.073c.08.414.154.796.247,1.281.499-.041.924-.056,1.343-.114,3.148-.434,6.289-.927,9.444-1.295,1.82-.212,3.659-.214,4.873,1.611,2.288-.361,4.524-.776,6.777-1.053,2.159-.265,4.337-.552,6.502-.523,2.103.029,3.015,1.134,3.229,3.26.037.372.065.746.065,1.119.003,10.165.003,20.33.001,30.495,0,.274-.026.547-.042.854Z"/><path d="m168.739,508.254h-9.281v49.502h-7.495v-49.483h-9.316v-6.413h26.091v6.394Z"/><path d="m196.565,539.408c-.659.618-1.317,1.235-2.142,2.009h-13.591v11.307h8.869v-5.99h6.892c0,.635.002,1.245,0,1.855-.007,1.839.036,3.681-.036,5.517-.098,2.504-1.316,3.677-3.837,3.701-3.652.035-7.304.011-10.956.009-1.404,0-2.81.029-4.213-.027-2.287-.091-3.397-1.166-3.632-3.439-.041-.402-.043-.809-.043-1.214-.002-8.793-.002-17.586,0-26.378,0-.405.002-.812.044-1.214.234-2.246,1.378-3.396,3.653-3.419,5.118-.052,10.238-.056,15.356-.001,2.325.025,3.58,1.232,3.615,3.517.071,4.58.021,9.162.021,13.767Zm-15.764-2.446h8.849v-9.781h-8.849v9.781Z"/><path d="m219.605,536.697v-9.496h-8.949v5.126h-6.436c0-2.435-.124-4.861.04-7.268.129-1.887,1.467-2.916,3.591-2.937,4.992-.051,9.985-.018,14.978-.019.125,0,.25.003.374.016,2.064.217,3.188,1.418,3.269,3.501.015.374.014.748.014,1.122,0,9.975,0,19.951,0,29.926,0,.341,0,.682,0,1.086h-6.745c-.061-.315-.125-.644-.219-1.123-.328,0-.647-.035-.957.005-3.182.419-6.358.88-9.544,1.26-.853.102-1.748.053-2.6-.081-1.572-.247-2.518-1.253-2.617-2.838-.113-1.802-.121-3.612-.119-5.418.004-3.147-.014-6.296.102-9.44.077-2.066,1.268-3.217,3.347-3.267,3.648-.088,7.3-.055,10.95-.079.489-.003.978-.048,1.521-.076Zm-8.93,4.682v11.276c3.078-.121,6.025-.237,8.952-.352v-10.924h-8.952Z"/><path d="m184.744,535.873h-2.769v-7.575h6.593v2.627c-1.272.018-2.543.037-3.824.055v4.893Z" style="fill:gray;"/><path d="m214.548,551.326c-.894.052-1.788.104-2.765.161v-8.953h6.751v2.61h-3.916c-.267,2.09-.165,4.137-.07,6.182Z" style="fill:gray;"/></g><g id="e"><g id="f"><polygon points="315.662 91.332 346.967 122.636 334.892 122.636 307.613 94.015 315.662 91.332"/><polygon points="334.892 136.052 327.29 165.568 329.973 165.568 340.259 160.649 346.967 142.76 346.967 136.052 334.892 136.052"/><rect x="335.563" y="123.754" width="11.404" height="10.733"/><polygon points="317.004 106.984 325.948 115.705 311.638 130.462 305.6 119.729 317.004 106.984"/><polygon points="324.83 134.487 319.687 160.872 325.948 164.673 333.327 136.052 324.83 134.487"/><polygon points="334.166 134.487 325.221 133.034 323.936 126.661 329.973 118.723 334.445 123.754 334.166 134.487"/><polygon points="315.774 106.09 304.259 94.239 299.339 94.239 281.937 111.158 290.619 115.928 304.259 119.103 315.774 106.09"/><polygon points="315.774 160.649 307.613 155.953 283.24 174.512 291.737 176.972 315.774 160.649"/><polygon points="309.178 130.742 305.6 152.998 296.113 161.041 288.677 143.544 309.178 130.742"/><polygon points="292.408 121.518 287.678 133.988 286.37 134.487 282.948 128.152 288.83 116.152 292.408 121.518"/><polygon points="256.221 154.239 260.023 165.404 273.439 156.683 286.855 143.267 285.737 135.217 282.607 129.851 256.221 154.239"/><polygon points="281.898 172.723 281.675 178.984 272.172 173.692 275.638 155.953 287.489 144.549 294.644 162.102 281.898 172.723"/><polygon points="270.942 174.512 274.072 157.667 251.936 172.425 251.936 175.779 264.234 181.593 278.992 179.133 270.942 174.512"/><path d="m261.774,181.444c-.894.894-9.839-4.472-9.839-4.472l-4.919,3.578,3.801,2.907h10.957s0-2.012,0-2.012Z"/><polygon points="250.147 172.276 250.147 175.854 247.016 178.984 244.11 178.984 240.756 172.276 250.147 172.276"/><polygon points="265.464 129.851 263.907 135.158 245.451 152.998 255.588 152.998 281.526 128.152 265.464 129.851"/><polygon points="265.464 128.152 263.709 119.103 268.408 114.437 280.631 112.632 287.824 116.152 282.271 126.236 265.464 128.152"/><polygon points="283.24 95.655 268.706 109.518 268.706 112.5 271.538 112.201 279.886 111.107 282.271 109.369 298.221 94.239 283.24 95.655"/><polygon points="258.867 122.636 267.961 113.394 267.961 110.562 258.867 121.593 258.867 122.636"/><polygon points="285.402 94.239 276.308 77.17 273.605 77.17 275.265 81.493 281.526 94.686 285.402 94.239"/><polygon points="251.265 52.127 275.865 76.276 272.172 76.276 249.923 53.319 251.265 52.127"/><polyline points="315.774 90.139 331.203 66.232 331.79 67.099 317.004 90.139"/><polygon points="331.911 65.692 365.153 32.45 365.898 32.45 332.656 66.587 331.911 65.692"/><polygon points="356.656 83.282 360.979 68.375 364.408 35.878 331.911 69.866 339.961 78.363 346.072 92.972 356.656 83.282"/><path d="m272.172,78.363l-4.489,14.461h-8.89s-7.081-6.411-6.857-7.156-2.012-30.41-2.012-30.41l22.248,23.106Z"/><polygon points="273.178 79.406 280.631 95.208 274.37 101.916 268.706 93.568 273.178 79.406"/><polygon points="273.605 102.938 265.464 111.158 259.762 104.748 259.24 93.941 267.364 94.239 273.605 102.938"/><polygon points="338.47 79.406 345.029 93.568 333.704 105.864 318.942 91.332 331.166 71.506 338.47 79.406"/><polygon points="334.892 106.984 356.954 84.028 358.259 86.636 339.066 110.562 334.892 106.984"/><polygon points="361.874 68.673 363.513 68.673 362.619 81.046 358.147 82.388 361.874 68.673"/><polygon points="366.644 33.642 363.513 67.183 361.874 67.183 365.153 34.686 366.644 33.642"/><polygon points="290.321 178.09 283.464 176.152 282.961 180.214 265.464 182.413 269.6 184.649 279.886 182.86 290.321 178.09"/><polygon points="258.867 123.121 258.867 130.457 259.762 138.363 257.824 130.742 258.867 123.121"/><polygon points="317.898 159.456 316.333 159.456 307.613 154.388 311.19 131.916 322.482 134.487 317.898 159.456"/><polygon points="313.538 130.742 322.482 132.587 321.7 126.605 318.942 125.319 313.538 130.742"/><polygon points="238.743 158.664 244.11 153.941 254.992 153.941 256.221 158.664 238.743 158.664"/><polygon points="348.159 129.121 355.464 149.58 360.942 162.299 363.916 166.909 367.437 163.164 362.507 159.456 360.83 152.998 359.712 144.549 348.159 125.319 348.159 129.121"/><polygon points="348.159 142.649 351.998 149.245 353.004 147.292 348.159 136.052 348.159 142.649"/><polygon points="352.389 150.176 353.275 148.196 355.561 152.412 354.22 153.424 352.389 150.176"/><polygon points="356.134 152.998 361.184 164.936 359.992 166.462 357.588 165.177 357.029 159.73 354.29 154.5 356.134 152.998"/><polygon points="354.295 176.97 352.725 178.47 349.385 181.83 342.435 160.25 343.605 155.18 344.505 153 354.295 176.97"/><polygon points="356.355 172.83 356.835 174.35 355.265 176.15 348.155 157.67 345.315 150.33 346.475 147.93 347.425 145.85 355.765 161.26 356.665 167.48 354.905 170.43 357.025 168.81 357.585 170.49 356.355 172.83"/><polygon points="361.77 165.568 360.159 167.357 357.588 165.991 358.594 170.487 357.588 172.611 357.973 173.304 363.178 167.748 361.77 165.568"/><polygon points="340.618 162.266 347.895 183.243 344.798 186.394 336.826 169.152 338.302 163.332 340.618 162.266"/><polygon points="335.563 169.034 328.669 203.208 324.495 207.605 323.041 208.723 298.927 209.618 300.139 206.847 323.936 205.593 327.29 202.686 334.521 167.887 331.476 166.68 332.936 165.568 336.569 164.114 335.563 169.034"/><polygon points="336.42 172.761 341.981 189.067 340.35 190.789 335.571 176.972 336.42 172.761"/><polygon points="339.055 192 338.035 193.15 334.365 197.02 333.325 188.35 333.665 187.66 334.745 181.12 339.055 192"/><path d="m328.52,166.462l-8.161,4.64s-15.54,4.789-15.876,5.05-8.385,5.18-8.72,4.957-2.795-3.578-2.795-3.578l22.807-15.764h3.913s6.198,4.484,6.198,4.484"/><polygon points="331.745 176.97 330.935 178.32 330.935 179.77 303.545 181.25 303.355 179.96 304.245 178.47 331.745 176.97"/><polygon points="325.835 201.14 325.825 202.59 323.805 203.93 299.495 205.24 297.875 203.86 297.865 203.86 298.315 202.39 325.835 201.14"/><polygon points="327.535 196.14 326.945 197.58 326.945 199.04 300.015 200.52 299.445 199.12 300.035 197.64 327.535 196.14"/><polygon points="328.455 191.16 327.895 192.66 327.895 194.11 300.925 195.57 300.395 194.15 300.955 192.66 328.455 191.16"/><polygon points="329.325 186.39 328.885 187.89 328.885 189.34 301.775 190.79 301.375 189.38 301.825 187.89 329.325 186.39"/><polygon points="330.545 181.68 329.665 183.14 329.665 184.59 302.525 186.08 302.145 184.67 303.035 183.18 330.545 181.68"/><polygon points="332.712 170.767 331.936 176.152 330.532 176.152 330.532 170.375 327.793 168.475 330.141 167.245 333.327 168.587 332.712 170.767"/><polygon points="299.03 186.394 297.348 196.712 295.001 205.038 297.551 207.083 294.644 211.518 292.967 227.059 292.408 227.059 291.29 222.587 291.29 211.071 293.749 196.142 295.65 187.889 300.93 181.116 299.03 186.394"/><polygon points="368.768 164.114 317.078 216.549 317.078 221.394 322.669 226.798 325.422 225.197 361.236 183.112 373.24 172.723 368.768 164.114"/><polygon points="324.271 232.313 379.277 172.947 389.116 172.947 396.383 180.736 393.923 185.527 384.308 184.031 374.856 193.406 343.389 226.611 328.855 243.925 324.271 232.313"/><polygon points="292.184 228.177 314.625 227.059 318.681 225.158 321.923 228.177 322.206 230.3 320.358 232.537 327.961 250.537 304.37 251.431 295.65 235.444 292.184 231.866 292.184 228.177"/><polygon points="387.551 200.184 375.923 198.689 359.433 215.99 345.737 231.978 332.992 249.754 332.992 251.878 344.395 252.326 345.737 253.332 377.265 212.86 387.551 200.184"/><polygon points="332.992 253.332 345.029 254.114 345.849 256.015 346.408 258.698 364.93 301.667 366.921 308.226 371 311.955 373.24 315.27 366.569 314.04 361.389 309.68 356.582 304.76 332.992 253.332"/><path d="m325.501,255.791h-22.807s-.671,3.689-.671,3.689l21.801,52.77,4.919,3.913s13.863.783,14.199.783,8.629.693,8.629.693l7.694-1.699-7.379-7.491-26.385-52.658Z"/><polygon points="294.979 237.232 290.284 249.419 283.799 249.419 284.582 245.953 290.172 236.114 294.979 236.114 294.979 237.232"/><polygon points="290.06 250.76 299.563 285.307 305.041 285.307 312.867 305.934 303.364 304.984 302.24 303.651 297.494 303.545 283.799 250.313 290.06 250.76"/><polygon points="313.847 307.742 303.252 306.773 303.252 312.251 310.072 324.102 320.917 324.102 313.847 307.742"/><polygon points="320.917 326.338 315.662 371.282 315.662 384.922 306.495 383.357 303.252 379.555 309.737 326.208 320.917 326.338"/><polygon points="315.601 387.032 316.557 397.667 319.52 404.431 309.513 402.587 305.265 400.798 305.265 384.922 315.601 387.032"/><polygon points="317.339 408.4 309.268 419.297 300.611 419.141 308.398 408.278 317.339 408.4"/><polygon points="299.301 419.122 307.05 408.438 303.49 408.438 295.609 419.122 299.301 419.122"/><polygon points="294.227 419.001 302.606 408.438 300.355 408.438 289.668 418.828 294.227 419.001"/><polyline points="298.972 436.334 318.69 435.174 329.414 420.195 319.128 409.63 309.402 422.487 308.172 432.102 299.302 433.593"/><polygon points="325.725 413.878 337.911 400.462 322.93 381.009 317.339 384.922 319.128 397.444 322.259 404.711 320.358 407.953 325.725 413.878"/><path d="m335.563,341.096s-3.019.671-3.354.671-3.466-.335-3.466-.335l-1.789,40.248,6.037,8.385,1.565-1.901,1.006-47.068Z"/><polygon points="325.277 341.096 323.489 378.661 317.339 382.909 317.339 371.282 322.259 329.021 325.277 341.096"/><polygon points="307.613 129.851 294.644 138.229 292.967 138.363 287.824 141.796 287.125 135.849 292.408 133.369 296.11 134.083 305.6 129.851 307.613 129.851"/><path d="m389.377,186.288l4.994.373,1.416-2.087s2.534.373,2.832.447,9.242,2.385,9.242,2.385l-.522.671-8.273,6.857h-2.683s-6.484,3.755-6.484,3.755c0,0-12-1.817-12.298-1.817l11.776-10.584Z"/><path d="m395.433,207.605c-.224-.28-24.615,28.77-24.913,28.621s-6.261-.596-6.261-.596l19.901-22.807,3.056.205,6.112-5.422h2.106Z"/><polygon points="397.426 207.083 371.041 236.897 371.041 239.059 383.137 239.518 391.967 227.114 398.619 217.723 405.625 208.5 405.383 207.344 397.426 207.083"/><path d="m380.731,298.276h10.062s11.851,3.801,11.851,3.801l6.373,7.267v.894s-17.665.335-18.112,0-7.77-4.64-7.77-4.64l-2.404-7.323Z"/><polygon points="374.473 297.108 367.801 297.046 364.967 279.605 363.178 264.512 362.284 255.791 361.166 245.618 361.948 241.146 363.575 237.156 367.82 237.624 366.979 244.5 367.985 256.462 369.923 278.124 373.24 288.624 374.473 297.108"/><polygon points="372.83 240.303 368.981 240.142 369.886 254.226 372.346 277.034 375.532 288.158 376.835 297.046 380.731 297.046 374.861 257.357 373.687 247.63 372.83 240.303"/><polygon points="389.675 297.046 381.849 297.046 373.799 240.303 382.631 240.81 382.855 245.618 383.079 251.208 383.973 256.462 385.985 261.605 386.992 264.512 389.675 297.046"/><polygon points="417.485 279.787 417.373 286.611 411.811 301.574 409.575 308.45 403.259 301.295 418.044 274.232 417.485 279.787"/><polygon points="415.333 210.177 471.625 213.461 474.085 217.15 475.874 221.958 476.433 228.554 477.662 234.368 480.457 239.063 480.457 243.312 480.457 250.746 478.892 258.628 475.942 268.513 458.321 268.299 423.439 268.299 431.6 251.809 469.725 253.374 473.302 252.032 473.861 247.001 473.19 242.417 468.048 241.187 444.607 240.628 423.662 240.345 423.774 236.269 420.056 233.319 419.3 232.328 460.669 233.585 467.153 233.697 470.843 229.448 468.83 222.74 463.464 219.051 450.998 218.492 433.501 217.821 421.315 217.555 414.979 217.518 415.333 210.177"/><polygon points="422.656 269.99 419.749 274.909 419.218 278.347 426.178 278.347 432.159 276.698 445.203 276.698 454.166 276.549 468.383 276.549 474.775 275.91 475.716 270.262 422.656 269.99"/><polygon points="419.218 271.108 418.831 274.169 430.072 251.767 428.093 252.326 419.218 271.108"/><polygon points="472.78 243.925 423.439 242.823 423.593 240.957 467.731 241.835 472.65 242.878 472.78 243.925"/><polygon points="415.389 221.468 415.016 218.44 462.333 219.751 460.78 223.295 415.389 221.468"/><polygon points="463.184 219.791 461.723 223.751 467.209 232.313 470.004 229.183 467.936 223.295 463.184 219.791"/><polygon points="470.748 244.5 471.454 251.984 472.743 251.543 473.302 246.773 472.892 244.5 470.748 244.5"/><polygon points="390.793 324.475 388.855 325.369 378.122 324.922 377.079 325.369 375.923 327.605 373.799 380.972 373.799 384.102 374.861 385.444 375.923 386.04 387.066 387.232 389.675 385.146 390.793 324.475"/><polygon points="374.693 388.127 374.693 404.375 378.42 406.76 382.296 406.76 387.662 407.804 386.917 389.767 374.693 388.127"/><polygon points="388.855 407.804 388.054 389.785 393.644 409.686 388.855 407.804"/><polygon points="392.833 412.918 382.855 426.512 377.712 425.17 373.967 425.003 381.946 412.239 392.833 412.918"/><polygon points="379.762 412.239 372.457 424.435 360.532 423.382 375.402 412.239 379.762 412.239"/><polygon points="371.782 425.861 363.55 438.933 365.917 439.725 366.252 439.236 376.956 426.19 371.782 425.861"/><polygon points="357.775 424.153 351.282 437.021 351.641 437.628 354.575 437.982 354.911 437.66 363.55 424.793 357.775 424.153"/><polygon points="365.492 425.14 357.831 438.26 358.048 438.626 360.389 438.988 360.985 438.607 370.147 425.542 365.492 425.14"/><path d="m393.849,413.878l8.944,11.143v1.863s-8.646,12.048-8.646,12.048l-3.056,2.039h-.969s-1.416-2.14-1.64-2.039-3.28,1.592-3.28,1.592l-.894.447v2.385s-16.168.415-16.168.415l-1.496-3.471,13.072-13.23,3.472,1.163,9.244-12.306,1.416-2.05Z"/><path d="m400.184,417.642c-.447-.969-5.311-7.453-5.311-7.453v-9.689s10.752-7.081,10.752-7.081l4.957,9.839-10.398,14.385Z"/><polygon points="401.369 393.826 395.936 384.866 392.243 384.866 389.675 388.127 398.232 395.72 401.369 393.826"/><polygon points="396.774 396.605 389.004 389.31 393.691 405.258 393.364 399.177 396.774 396.605"/><polygon points="396.383 340.244 396.048 382.854 391.799 382.854 392.433 331.76 395.489 337.071 396.383 340.244"/><polygon points="400.771 312.452 403.538 314.711 394.566 320.72 390.933 318.288 383.861 308.226 390.793 312.437 400.771 312.452"/><path d="m379.762,299.282c.075.894,3.801,12.969,3.801,12.969l5.497,8.022,2.739,2.152h-13.975s-4.584-10.621-4.584-10.621l-2.944-12.522h9.466Z"/><polygon points="400.771 195.234 409.016 187.889 417.178 191.163 448.706 192.512 472.743 194.153 480.346 196.142 492.308 196.712 498.793 199.115 499.911 201.68 472.743 200.184 445.128 198.689 406.393 196.201 400.771 195.234"/><path d="m394.408,197.629l3.596-1.487,15.596,1.487,28.398,2.556,32.646,1.682s-33.54-.745-34.658-.745-40.891-2.005-40.891-2.005h-6.661s1.975-1.487,1.975-1.487Z"/><polygon points="512.88 211.854 499.911 238.295 489.849 238.295 504.383 209.618 511.091 209.618 512.88 211.854"/><polygon points="434.843 301.574 446.19 295.786 461.451 288.158 472.673 283.355 473.489 279.419 465.178 283.257 453.066 289.071 443.116 293.841 434.843 298.686 434.843 301.574"/><polygon points="433.566 301.86 413.628 301.86 415.268 298.369 433.566 298.611 433.566 301.86"/><polygon points="415.719 296.298 435.324 296.407 440.466 292.521 417.103 292.657 415.719 296.298"/><path d="m455.19,286.76c-2.012,0-8.385-.149-8.385-.149l-3.351,3.868-5.565-.225,2.096-3.494h-20.609s.037-2.46.037-2.46h21.745s3.969-5.814,3.969-5.814h8.385s-4.863,5.702-4.863,5.702h10.342s-3.801,2.571-3.801,2.571Z"/><polygon points="436.175 288.102 434.246 290.869 417.811 290.869 418.818 288.102 436.175 288.102"/><polygon points="467.321 278.767 463.464 282.288 453.066 282.288 455.693 278.823 467.321 278.767"/><polygon points="440.013 279.787 438.085 282.554 419.6 282.736 419.377 279.787 440.013 279.787"/><path d="m472.025,212.375c-.224,0-65.232-4.267-65.232-4.267l-.4-1.509-8.333-.391,1.215-1.509,59.717,4.472-4.769-6.154,4.005.135,5.795,5.795,8.757.335,3.653,4.584h-3.28s-1.128-1.491-1.128-1.491Z"/><polygon points="451.621 203.227 455.153 207.344 414.122 204.437 410.023 200.86 451.621 203.227"/><path d="m499.911,240.303l4.919,67.029s-4.696-.894-4.919-1.118-6.932-36.238-6.932-36.238l-3.13-29.673h10.062Z"/><polygon points="365.246 440.711 366.252 443.729 362.507 443.73 361.613 441.829 362.843 439.872 365.246 440.711"/><polygon points="359.6 439.872 360.159 443.226 357.42 442.611 356.592 441.801 357.645 439.481 359.6 439.872"/><polygon points="353.591 438.81 353.884 441.102 351.858 440.864 350.768 439.872 351.383 438.469 353.591 438.81"/><polygon points="298.015 433.793 297.659 436.326 295.41 436.022 295.315 433.36 298.015 433.793"/><polygon points="291.14 432.51 291.19 435.134 289.078 434.78 288.91 432.211 291.14 432.51"/><polygon points="285.961 431.245 286.168 434.206 283.756 433.947 283.389 430.911 285.961 431.245"/><polygon points="527.228 342.549 520.631 342.551 525.994 339.064 525.994 334.5 520.631 329.021 517.054 328.534 512.88 324.736 509.302 320.72 504.83 318.288 500.656 312.996 495.95 309.121 489.541 285.67 487.948 282.736 492.979 278.264 499.016 307.332 504.416 309.132 518.693 325.555 521.041 323.431 530.395 332.493 528.42 338.45 527.228 342.549"/><polygon points="435.557 303.374 436.175 313.146 438.675 318.288 441.7 321.052 443.787 326.208 448.109 329.021 453.066 332.333 458.992 337.891 463.464 340.244 466.957 335.059 460.557 331.406 452.731 327.232 447.467 322.288 444.905 314.473 439.501 315.531 440.954 306.028 439.184 301.86 435.557 303.374"/><polygon points="440.466 301.322 473.489 286.611 481.352 308.226 473.489 322.425 468.074 333.413 453.625 325.742 448.706 321.142 445.874 312.549 441.029 313.518 442.221 305.767 440.466 301.322"/><polygon points="481.38 202.225 482.972 203.35 481.948 204.572 482.344 204.74 483.319 203.596 487.091 206.264 488.586 206.568 488.787 208.779 489.164 208.835 488.951 206.642 490.389 206.934 493.297 209.502 491.064 212.067 491.416 212.466 493.706 209.897 497.339 211.518 500.656 213.866 499.911 215.198 497.554 213.615 497.351 214.087 499.655 215.654 497.035 220.335 492.923 216.941 495.743 214.765 494.992 214.201 492.279 216.301 488.257 212.212 486.42 212.599 485.6 208.446 480.991 205.071 476.917 202.052 481.38 202.225"/><path d="m491.619,229.816c-.056,0-9.149,0-9.149,0l-4.752-5.86,2.068,10.09,2.802,2.597.271,6.747,4.585-.065-.224-4.807,4.398-8.702Z"/><polygon points="490.31 227.878 484.352 222.959 477.931 215.773 475.006 215.765 477.327 221.245 480.886 224.077 483.066 227.878 490.31 227.878"/><polygon points="489.849 263.729 487.315 245.77 482.88 245.77 482.582 251.17 481.091 258.251 478.855 265.593 483.439 265.593 489.849 263.729"/><polygon points="491.619 274.232 486.83 279.419 483.252 277.984 477.998 277.705 477.048 275.189 478.166 267.922 483.42 268.034 490.818 266.189 491.619 274.232"/><polygon points="499.911 203.002 503.837 208.011 503.551 208.476 501.364 205.9 501.113 206.166 503.337 208.823 502.359 210.408 498.569 207.68 495.141 206.823 490.776 204.357 490.523 203.266 496.252 203.636 496.358 203.285 490.428 202.855 490.31 202.344 499.911 203.002"/><polygon points="298.182 222.382 298.182 225.243 312.529 225.158 316.333 223.295 314.917 221.767 315.066 215.804 310.072 215.804 310.027 217.493 295.364 217.51 295.364 219.988 310.891 220.198 310.989 222.374 298.182 222.382"/><polygon points="316.669 214.313 320.844 210.669 299.892 211.183 300.107 212.259 315.066 212.189 314.209 213.232 295.763 213.364 295.575 214.425 316.669 214.313"/><polygon points="380.731 171.698 389.153 171.619 384.644 163.518 379.166 160.76 376.344 160.779 376.78 164.114 380.097 164.114 380.731 171.698"/><polygon points="379.571 167.413 379.737 171.619 378.685 171.619 376.999 164.911 379.305 164.939 379.571 167.413"/><polygon points="366.495 160.127 366.495 161.375 369.238 162.818 371.544 166.909 374.321 166.909 374.041 164.114 375.863 164.114 375.443 160.76 366.495 160.127"/><polygon points="354.979 98.003 354.137 99.098 352.679 98.077 343.277 110.152 344.172 110.934 342.308 113.021 340.001 111.028 352.37 95.841 354.979 98.003"/><polygon points="352.898 95.19 355.148 92.438 357.308 91.018 363.721 91.018 344.015 114.431 343.063 113.567 345.319 110.71 344.507 110.003 352.94 99.109 354.457 100.164 356.157 97.898 352.898 95.19"/><polygon points="487.414 340.329 490.305 339.384 493.64 340.851 495.95 344.596 495.95 349.73 494.665 355.653 489.962 359.13 483.256 355.928 481.931 349.907 485.481 342.681 487.414 340.329"/><polygon points="486.607 339.829 479.707 335.95 472.695 325.503 468.335 334.785 464.184 340.593 471.135 345.789 474.31 354.93 479.092 356.801 482.56 356.019 481.235 349.813 485.21 341.664 486.607 339.829"/><polygon points="486.722 360.447 482.097 359.767 478.743 357.642 483.215 356.785 487.736 358.767 486.722 360.447"/><path d="m533.451,240.957c.149-.109,2.534-4.299,2.534-4.299l-2.534-2.369-3.056-4.472-4.845-5.86-3.487-3.089-5.01-4.765-3.28-2.236-12.41,24.429,5.18,3.596,2.46-5.233,3.876-4.344,5.795-2.348,4.193-.447,5.217,3.801,4.174,5.876,1.193,1.761Z"/><path d="m528.681,328.534c-.447-.482-8.05-6.892-8.05-6.892l-1.64,1.789-13.267-14.981-4.36-68.147,4.36,3.622-.894,11.083v8.351s1.714,10.871,1.714,10.871l3.764,6.296,3.764,3.121,5.068,16.752,4.919,14.073,4.621,14.061Z"/><polygon points="530.693 329.969 531.54 326.984 532.863 326.286 533.749 323.657 542.47 306.81 545.183 305.021 539.265 296.407 543.886 285.419 539.712 239.196 537.178 237.568 534.048 242.441 537.178 249.292 538.37 258.922 538.818 269.319 535.985 280.304 530.023 286.611 526.892 288.102 520.631 287.729 517.054 285.717 515.712 284.419 529.277 326.711 530.693 329.969"/><polygon points="520.367 343.344 524.178 348.895 526.354 349.657 526.706 345.953 527.19 343.605 520.367 343.344"/><polygon points="458.953 202.714 470.116 202.714 470.06 206.291 464.162 206.068 462.989 205.792 463.941 206.572 470.116 206.78 470.116 208.157 464.33 208.052 461.954 205.792 460.267 204.102 468.886 204.335 468.885 203.888 459.858 203.72 458.953 202.714"/><polygon points="470.759 208.153 473.805 208.153 475.295 209.761 476.433 208.667 474.504 206.738 472.99 206.658 473.032 206.314 474.652 206.393 476.679 208.441 478.37 206.873 475.482 204.456 473.216 204.352 473.254 204.087 475.613 204.167 478.603 206.583 479.832 205.346 477.114 203.093 475.622 202.714 470.759 202.714 470.759 208.153"/><polygon points="475.703 210.089 480.457 205.685 481.386 206.376 478.777 209.349 479.088 209.45 481.786 206.625 484.818 209.031 481.008 211.575 481.252 211.806 485.013 209.45 485.6 212.776 479.155 214.387 475.703 210.089"/><polygon points="301.014 420.384 295.315 432.416 298.259 432.825 306.92 420.384 301.014 420.384"/><polygon points="283.389 430.088 287.289 419.982 290.905 420.283 285.881 430.479 283.389 430.088"/><polygon points="291.486 431.607 297.808 420.384 293.444 420.384 288.91 431.246 291.486 431.607"/><path d="m256.221,160.444l.559,3.801-.559,1.476-4.286,3.965-4.77.261-2.758-1.826h-1.416s-.596,1.826-.596,1.826l-1.64.335-1.304-1.64s-1.975-2.609-1.975-2.683-.354-2.609-.354-2.609l1.099-3.522,10.286.093h7.081s.634.522.634.522Zm-8.46,1.323l-2.124,1.453-.186,1.565.969,1.677,1.901,1.342h3.093s2.385-2.4,2.385-2.4v-2.258s-1.863-1.379-1.863-1.379h-4.174Zm-10.165,2.012l.28,1.929,1.178,1.649h1.282s.494-1.953.494-1.953l-.075-1.997-1.118-1.165h-1.528s-.512,1.537-.512,1.537Z"/><path d="m334.557,322.425l6.037,8.609-4.472,8.273-4.025.783-4.444-.811-2.376-8.916,3.019-6.708,6.261-1.23Zm-3.593,10.52s.575,1.075.575,1.075l1.389.479,1.699-1.127.5-1.088-.12-1.836-1.475-1.763-1.658.335-.904,2.215-.006,1.709Z"/><path d="m402.644,392.972l-3.369-5.739.91-47.925-2.18-2.236-2.814-5.311,1.193-9.335,6.345-4.137,4.612.894,5.143,10.733-5.689,8.72.547,51.429-4.696,2.907Zm-.224-68.236l-1.547,1.975-.102,3.275.629,1.439,1.02.908,2.11-.041,1.505-1.183.758-2.087-.4-2.534-1.774-1.453-2.199-.298Z"/><polygon points="396.383 271.108 402.867 271.108 409.575 265.742 413.377 254.785 413.377 244.723 411.364 238.462 406.793 233.096 400.771 228.847 395.041 228.847 388.989 233.084 388.984 233.081 405.625 209.618 413.802 210.177 413.489 218.114 413.824 224.823 418.109 232.965 422.656 236.897 422.321 242.441 417.737 272.785 402.42 300.4 391.24 296.711 388.333 265.295 387.581 262.803 390.793 266.86 396.383 271.108"/><path d="m400.771,233.319l5.31,3.338,3.942,8.96v8.497s-3.23,8.273-3.23,8.273l-3.011,2.907h-8.293s-4.919-4.248-4.919-4.248l-3.801-6.708-.671-8.832,2.236-7.938,5.59-4.248h6.848Zm-5.581,3.338l-3.444,3.123-2.071,5.502v8.385s5.59,7.155,5.59,7.155l6.787,1.104,4.341-4.458,1.841-10.286-4.398-8.385-8.646-2.14Z"/><polygon points="402.308 242.04 405.625 247.598 404.508 254.672 400.771 258.251 396.143 257.495 392.99 252.774 392.954 245.394 395.936 241.146 402.308 242.04"/><path d="m520.706,286.611l-4.025-2.758-4.231-4.994-3.409-4.845-1.677-4.658-.82-16.957,1.193-8.907,3.95-6.894,3.876-3.914,4.919-1.453,5.665,2.72,4.398,4.882,4.547,8.795s2.087,11.627,2.087,11.478,0,11.255,0,11.255l-2.683,7.705-3.578,5.04-4.174,3.13-6.037.373Zm-4.099-49.043l-5.068,4.873-2.161,4.146-1.236,6.874,1.385,16.083,2.012,4.099,6.102,7.901,4.342,2.106,5.506-.913,5.238-5.507,2.346-7.043.913-10.109-1.491-6.745-2.236-7.863-5.366-7.174-5.516-2.814-4.77,2.087Z"/><path d="m519.141,279.158l-4.845-5.217-2.944-5.739-1.006-8.637-.037-7.09,2.161-6.112,3.06-3.922,3.313-2.138h3.876s3.727,2.138,3.727,2.138l3.578,3.773,2.236,5.143,1.491,4.845.745,4.323-1.602,8.72-2.087,5.832-3.839,4.379-4.84.848-2.986-1.146Zm6.708-3.13l2.683-2.832,2.534-5.665,1.193-6.708-.745-5.814-2.236-5.702-3.429-3.839-4.919-2.199-5.068,3.801-2.981,6.261v8.594s1.789,6.586,1.789,6.586l1.938,3.49,2.981,3.361,4.025,1.409,2.236-.745Z"/><path d="m524.358,249.083l3.28,4.248,1.043,4.957v7.006s-1.491,4.323-2.161,4.696-3.95,1.118-3.95,1.118c0,0-3.13-2.832-3.429-3.429s-2.087-5.753-2.087-5.753c0,0,0-5.389.149-5.986s1.565-4.621,1.565-4.621l2.72-2.236h2.87Z"/></g><g id="g"><polygon points="582.128 320.114 576.166 312.431 569.499 307.87 561.632 307.587 551.197 313.851 544.861 324.863 541.507 339.636 536.29 357.525 536.29 363.86 534.054 343.736 535.545 324.147 543.878 308.146 550.824 303.115 558.767 301.124 564.24 303.115 572.066 305.723 582.128 320.114"/><path d="m561.403,402.734c-.116,0,4.984,0,4.984,0l4.788-2.539,5.87-6.894,5.87-12.112,1.75-10.778-.086-5.387-2.026-8.105-.424,9.53-1.054,7.566-1.234,4.332-3.703,9.503-5.171,8.525-3.925,3.494-5.638,2.865Z"/><path d="m557.582,398.262c-.116,0,4.927-.815,4.927-.815l4.238-3.145,3.591-4.844,5.38-11.681,1.887-9.48.419-4.932-.978-8.496-.699,8.496-1.118,9.812-2.239,6.975-2.583,5.463-4.961,8.385-4.991,3.051-2.873,1.211Z"/><path d="m559.856,399.939c-.116,0,5.343-1.228,5.343-1.228l4.3-3.934,4.682-6.107,4.073-8.843,1.797-5.951.559-5.21-.629-6.92-.419,6.539-1.258,6.638-2.494,6.533-3.725,7.092-5.043,7.057-2.574,1.957-4.612,2.376Z"/><polygon points="547.558 373.876 549.934 373.037 551.751 368.425 552.03 367.723 553.567 363.86 553.567 359.621 553.567 358.829 552.729 360.879 552.03 363.86 549.654 370.242 548.676 371.779 547.558 373.876"/><polygon points="558.091 344.108 559.437 344.807 560.415 342.012 561.533 339.217 562.651 335.304 564.002 327.757 564.002 324.962 563.35 326.779 561.673 335.723 560.415 338.798 558.878 342.152 558.091 344.108"/><path d="m570.338,354.869l2.096-2.655,2.189-3.494,2.003-3.913,1.398-3.773v-2.655s-.559-.559-.839,0-1.398,3.634-1.398,3.634c0,0-1.491,2.516-1.165,2.795s-.443,2.655-.443,2.655c0,0-1.328,1.817-1.467,2.236s-2.376,2.935-2.376,2.935v2.236Z"/><polygon points="558.091 357.525 558.916 355.496 561.047 350.257 563.071 348.161 565.167 347.323 566.145 347.323 565.307 348.58 563.071 349.559 561.047 352.424 558.091 357.525"/><path d="m568.463,364.126l.757,5.278v15.932s.083,2.147.083,2.147l.929-1.571c.283-.524.106-16.648.106-16.648l.364-5.404.614-3.96s3.214-3.913,2.865-4.332,3.284-6.149,3.284-6.149l.559-2.919.699-2.671-.699-.978-4.472,10.202-2.236,2.655-.978,3.121-1.258,3.727-.617,1.57Z"/><path d="m559.856,368.285l-1.765-5.171v-4.286s-1.589,3.168-1.869,4.006-2.795,5.031-2.655,5.45-1.817,4.472-2.096,5.59-2.096,5.311-2.376,5.73-1.415,3.214-1.415,3.214l1.275-.419s2.096-4.193,2.376-4.752,2.888-4.845,2.888-4.845l2.05-2.795.839-.885,2.748-.839Z"/><path d="m545.182,353.751c.053-.263.419-3.179.419-3.179l1.118-6.324,2.516-9.363,1.328-4.218,2.073-4.499,4.863-4.96s2.642-1.881,3.548-1.881h5.098s4.193,1.724,4.193,1.724l2.516,2.236s-.839.978-1.258.978-4.891-1.258-5.45-1.258-4.886-.28-5.098-.14-3.147,1.677-3.566,2.096-3.214,3.354-3.214,3.354c0,0-2.376,3.634-2.795,4.612s-2.935,10.097-2.935,10.097l-3.354,10.726Z"/><path d="m557.341,355.708c0-.419-.559-4.612-.839-5.87s-1.398-6.289-1.398-6.289c0,0-1.957-2.935-2.516-3.494s-1.258-2.516-1.258-2.516l.559-1.002s1.258,2.818,1.817,3.517,2.376,3.773,2.376,3.773c0,0,1.781,1.677,2.008,1.817s2.955.854,2.955.854l1.071-.377-3.1,6.3-1.677,3.284Z"/><path d="m561.047,343.969c-.072-.699.067-3.284.487-4.752s2.143-5.59,2.469-6.009,2.562-4.332,2.143-5.031,0-3.214,0-3.214c0,0,1.118-2.096,1.118-.978,0,1.118,1.817,3.773,1.118,4.752-.699.978-.978,4.193-.978,6.149,0,1.957,0,5.311-.14,6.429s-.28,4.193-.28,4.193c0,0-2.609-.559-2.981-.699s-2.955-.839-2.955-.839Z"/><path d="m559.856,369.823s1.226,4.472,1.172,5.031-.049,4.984.018,5.776.072,6.102,0,6.941-.018,6.708-.018,6.708l-.574,2.772-1.373.579-.99-4.469-.634-5.148-.885-5.497-1.048-6.405v-2.795s1.957-2.935,1.957-2.935l2.376-.559Z"/><path d="m556.223,353.751c-.28-.839.016-4.612-.761-5.171s-1.755-4.332-1.755-4.332c0,0-.839-2.795-1.258-3.075l-1.887-1.258c-1.188.348,0,3.773,0,3.773,0,0,1.887.28,2.026,1.118.14.839.559,3.634,1.118,4.332s1.832,2.096,1.755,2.655l.761,1.957Z"/><path d="m544.763,354.869l.07,3.96-.07,4.425.454,6.097.472,5.188.332,3.721,1.205,4.752,1.348,5.118,2.897,4.705s4.485,5.287,4.402,5.334-4.635-4.449-4.635-4.449c0,0-3.682-5.264-3.96-6.359s-1.118-5.707-1.398-6.731c-.28-1.025-1.258-6.755-1.258-6.755,0,0-.745-7.966-.745-8.385s.338-6.289.338-6.289l.548-4.332Z"/><path d="m531.952,328.876l-2.737,9.014s-1.223,4.612-1.223,5.171c0,.559-1.491,8.036-1.63,8.595-.14.559-.62,7.963-.625,8.385s-.099,12.205-.017,13.137c.083.932,2.035,9.037,2.014,10.458-.021,1.421,2.978,11.545,3.128,12.061s3.805,7.691,3.805,7.691c0,0,3.604,5.225,3.849,5.581s2.892,2.191,2.892,2.191l3.774,1.698h1.258s-3.878-1.773-3.878-1.773l-3.284-2.341-6.568-10.936s-3.273-10.144-4.111-14.173-1.677-10.328-1.957-12.769.401-17.115.401-17.115l4.91-24.876Z"/><polygon points="565.702 369.904 567.543 366.352 568.381 368.844 568.381 375.553 568.381 382.959 568.381 388.13 568.381 389.04 566.136 392.834 565.702 369.904"/><path d="m559.018,363.86c-.28,1.15,2.008,3.727,3.1,3.866s4.027.939,4.027.939c0,0,.978-2.406,1.677-3.175s.719-2.236.719-2.236c0,0-1.233,2.096-1.605,2.236s-1.555.745-2.151.862-2.133-.303-2.832-.862-2.516-2.236-2.516-2.236l-.419.606Z"/><path d="m561.099,358.829s-.294,2.223,0,2.486.626,2.033,1.019,2.545,1.884.804,1.884.804l1.444-.804-1.679-.606s-1.903-1.364-1.65-1.94,0-2.486,0-2.486h-1.019Z"/><path d="m569.499,357.094s-.671,2.009-.895,3.131c-.06.3-.088.536-.063.654.12.559-1.605,2.376-1.605,2.376,0,0-1.071.419-1.49,0s-1.444-2.987-1.444-2.987c0,0,1.099-1.764.783-2.184s1.36-3.214,1.36-3.214l1.537-1.118s-.466,2.935-.932,3.634-1.444,3.214-1.304,3.354,1.304.576,1.304.576l1.79-4.221h.958Z"/><polygon points="566.163 351.72 564.803 352.489 563.225 355.773 562.218 357.525 562.39 355.773 561.289 355.992 561.412 354.585 563.225 352.489 564.02 351.72 565.464 351.72 566.163 351.72"/><polygon points="588.598 338.13 589.903 347.323 590.462 355.708 589.973 364.827 588.598 373.876 585.076 386.407 580.4 398.617 576.906 405.296 574.437 408.394 571.687 410.421 574.538 407.837 576.696 405.017 580.33 397.447 584.732 385.335 587.073 376.158 588.598 368.891 589.518 360.599 589.661 352.424 588.598 338.13"/><polygon points="439.945 319.449 437.169 326.102 435.306 333.325 434.188 338.985 433.583 343.41 433.256 349.769 433.256 356.197 433.256 359.377 432.255 354.171 431.952 347.952 431.952 341.71 431.952 335.933 432.884 330.157 434.002 323.865 436.051 319.117 437.649 316.179 438.674 318.287 439.945 319.449"/><path d="m456.362,377.859l5.171,1.537h4.193s4.053-1.537,4.053-1.537h1.258s.978,2.096.978,2.096v1.258s-2.096,1.398-2.655,1.677-2.935.978-3.634.978-3.773-1.595-3.773-1.595l-2.376-1.409-3.214-3.005Z"/><polygon points="472.992 376.322 474.25 378.604 476.486 377.463 478.862 375.064 480.819 371.71 482.496 368.798 482.496 367.936 481.238 367.11 479.98 367.936 478.722 371.112 477.185 372.269 475.368 374.505 472.992 376.322"/><path d="m485.751,360.304c-.345.961-1.16,3.021-1.16,3.021l-.949,1.863.025,1.118-2.43-1.165s1.118-2.795,1.258-3.214c.044-.133.786-1.431.999-1.956l2.257.332Z"/><path d="m488.408,358.388s-.881,2.095-.881,2.887c0,.792-1.429,5.835-1.429,5.835l-3.043,5.159-2.446,4.239-2.492,3.261-3.307,3.121-2.795,2.376s-2.096,1.677-2.516,1.677-3.511.219-4.332,0c-.393-.105-3.965-1.681-3.974-1.686,0,0,0,0,0,0l-3.589-2.934-3.756-3.718-3.494-2.283,2.283,4.542,2.329,3.005,4.472,4.193,4.053,1.677h5.311s4.752-1.677,5.45-2.096,6.009-6.708,6.289-6.778,3.129-5.101,3.129-5.101c0,0,3.3-6.373,3.3-6.401s1.817-3.801,1.817-4.22,1.312-6.112,1.312-6.112l-1.688-.642Z"/><path d="m494.854,342.819s.08-.877-.06-1.296c-.14-.419-.839-6.585-.839-6.585l-1.398-5.873-1.258-5.2-1.677-4.748-2.236-4.006,3.04,4.577,1.205,2.97,1.45,4.577.873,3.389.839,4.315s.839,4.908.978,5.638c.14.73.216,3.156.076,3.854l-.994-1.611Z"/><path d="m492.604,361.881c.114-1.81.971-4.587,1.047-5.48l.551-.407-1.903,8.77-1.178,3.173s.551-2.079.97-3.307c.165-.484.489-2.379.512-2.748Z"/><path d="m448.536,361.275l1.817-1.84,2.283-3.238,1.351-3.634h1.118s-.839,1.398-1.118,2.306-1.166,5.112-2.166,4.507c-1-.605-3.284,1.898-3.284,1.898Z"/><path d="m455.104,375.343s-.699-2.376,0-3.075c.699-.699.838-3.354,1.258-4.332s2.096-3.634,2.096-4.612c0-.643.362-2.674.61-3.991.13-.687.228-1.18.228-1.18v5.171s-1.258,2.958-1.398,3.785-.854,4.002-.854,4.002l-1.941,4.231Z"/><path d="m468.381,374.505s-.559-3.634-.839-4.053c-.09-.135-.122-.568-.124-1.092-.004-1.103.124-2.612.124-2.612,0,0-.699-2.527-1.118-2.556s-2.236,0-2.236,0l1.258.809.839,1.747,2.096,7.756Z"/><path d="m470.547,354.87s2.725.908,3.144,1.328,4.053,1.118,4.053,1.118l.213.107s.673-.242.114-.545c-.268-.145.147-.19-.636-.503-.849-.339-1.414-.634-1.414-.634-.727-.037-2.47-.413-3.029-.887s-2.446.016-2.446.016Z"/><path d="m449.794,330.343s2.096,1.817,2.026,2.236,2.803,4.284,2.974,4.448,2.252,1.958,2.252,1.958l.575-.815-1.258-2.236s-1.18-.443-1.568-1.269-5-4.321-5-4.321Z"/><path d="m457.045,349.28c-.124.629,1.413,3.703,1.693,4.821s.839,5.311,2.376,5.87,2.655,1.351,4.053,1.304,3.214-1.84,3.214-1.84c0,0-1.677-.722-2.096-.722s-1.957-1.398-2.795-1.398-2.236-1.957-2.516-2.446-.839-1.467-1.118-2.306-2.236-3.284-2.236-3.284h-.575Z"/><path d="m457.62,345.856c.14.699,1.118,3.09,1.118,3.09l2.795.334s.419,2.865.559,3.284-.582,1.935.618,2.714,3.156,1.758,3.575,2.037,2.795.839,2.795.839v-2.876s-3.634-1.736-3.634-1.736c0,0-1.537-1.817-1.258-2.236s0-2.36,0-2.36l-.839-3.09s-1.537-.839-1.677-.559-.419,1.398-.419,1.398l-1.957-.839h-1.677Z"/><path d="m470.547,352.564c1.607-.839,2.487-1.306,2.487-1.306l-1.725-4.965s-.692-.158-.762.262-2.026.559-1.467,1.398c.559.839,1.957.559,1.467,1.817s-1.607,3.634,0,2.795Z"/><path d="m467.123,351.697s-1.118-1.648-1.677-2.417-1.258-4.04-1.258-4.04c0,0,1.156-3.045,1.995-2.766s2.25,1.344,2.31,1.527c.064.193,1.084,1.622.486,2.367s-1.157,2.174-.598,2.578,1.099,1.102.829,1.661-2.087,1.089-2.087,1.089Z"/><path d="m469.281,359.377l2.034,8.56.899,2.096s1.617-.373,2.036-1.234,1.091-2.492,1.091-2.492l-1.79.804s-1.222,1.945-1.24.827c-.018-1.118-3.03-8.56-3.03-8.56Z"/><path d="m448.536,366.306c-.013.053.838,2.259.838,2.259l.978,3.703,2.283,2.236,1.176.786-1.939-3.302-1.054-1.817-2.283-3.867Z"/><path d="m479.281,318.185c.28.419,1.506,4.053,2.081,4.752s2.5,4.053,2.306,4.472,1.064,1.957,1.203,2.376,1.335.098,1.227-.719c-.109-.818.807-2.495,0-3.613s-2.878-4.472-3.24-5.171-2.565-2.795-2.721-3.075-.855.978-.855.978Z"/><path d="m442.717,323.567c-.699,1.438-1.029,2.444-1.308,3.282s-2.236,8.665-2.376,9.503-.699,8.944-.699,8.944l1.258,12.019,2.702,7.389,3.587,4.094-.804-4.356-1.083-6.743-.489-7.512s-.559-6.429-.559-9.922c0-3.494.419-7.318.839-10.297s.425-2.908.599-3.373l-.598-.389-1.068-2.639Z"/><path d="m433.862,361.927s1.537,5.411,1.817,6.479c.28,1.068,2.655,7.915,2.655,7.915l3.494,5.747,6.708,7.156,5.171,4.146,4.472,2.376h-1.141s-4.403-1.677-4.403-1.677l-4.658-3.494s-3.214-3.401-3.913-4.495-3.354-4.012-3.354-4.012c0,0-1.817-3.372-2.376-4.21s-2.376-5.59-2.516-6.009-1.957-9.922-1.957-9.922Z"/><path d="m475.449,392.533s2.574-2.061,3.815-2.9,5.328-5.765,5.328-5.765l2.952-5.345,1.712-4.018,1.485-3.393-.349,1.745s-2.446,6.819-3.005,8.006c-.559,1.188-2.966,4.356-3.719,5.217s-3.967,4.495-3.967,4.495l-4.251,1.957Z"/><path d="m483.668,331.322s.784,2.352.924,3.342-.425,2.863-.146,3.95l-1.442-.811c-.041-1.654-.147-3.686.092-4.106s.573-2.376.573-2.376Z"/><path d="m446.999,350.844l4.123-3.823-.769-1.781-2.261-1.83v-1.066s2.261-.764,2.261,1.066c0,1.83,1.467,2.958,1.467,2.958,0,0,.21,1.444,0,1.584s-4.821,2.892-4.821,2.892Z"/><path d="m449.456,333.697c.198.419,1.176,2.746,1.665,3.33s2.725,2.105,2.585,2.951-.326,1.405-1.071,1.545-3.179-1.545-3.179-1.545l-2.457-.994v.994s2.795,1.405,2.795,1.405l2.842,2.026,3.727-1.224s-.621-2.526-1.568-3.202c-.947-.675-2.88-3.424-2.88-3.424l-2.457-1.863Z"/><path d="m449.794,364.705l2.842-2.778,4.41-5.008s-1.444,3.707-2.252,4.358-1.273,2.499-2.158,2.902-2.842,1.707-2.842,1.707v-1.182Z"/><path d="m457.62,376.322c.14-.419,1.677-4.053,1.677-4.053,0,0,1.258-2.888,1.398-3.47s2.015-3.098,2.015-3.098v1.409s-1.037,2.364-1.456,2.923-.517,2.366-1.097,3.28-2.537,3.009-2.537,3.009Z"/><path d="m475.449,364.705s.361-.772.685-1.52c.226-.52.434-1.029.491-1.258.14-.559,2.771-3.71,2.771-3.71l-1.094,2.825-2.854,3.663Z"/></g></g></g><g id="h"><rect x="0" y="0" width="687.205" height="617.111" style="fill:none; stroke:#000; stroke-miterlimit:10; stroke-width:0px;"/></g></svg>